<?xml version="1.0" standalone="no"?>
<!DOCTYPE svg PUBLIC "-//W3C//DTD SVG 1.1//EN" "http://www.w3.org/Graphics/SVG/1.1/DTD/svg11.dtd" >
<svg xmlns="http://www.w3.org/2000/svg" xmlns:xlink="http://www.w3.org/1999/xlink" version="1.1">
<metadata>
Created by FontForge 20170731 at Fri Apr 23 18:15:12 2021
 By Aleksey,,,
Copyright 2012 Adobe Systems Incorporated. All rights reserved.
</metadata>
<defs>
<font id="Novecento-WideBold" horiz-adv-x="1429" >
  <font-face 
    font-family="Novecento Wide Bold"
    font-weight="700"
    font-stretch="normal"
    units-per-em="2048"
    panose-1="0 0 0 0 0 0 0 0 0 0"
    ascent="1726"
    descent="-322"
    x-height="1434"
    cap-height="1434"
    bbox="-489 -598 2664 2001"
    underline-thickness="311"
    underline-position="-730"
    unicode-range="U+0020-25CA"
  />
<missing-glyph horiz-adv-x="1343" 
d="M336 1434h676v-2q76 0 125 -46t49 -129v-1085q0 -86 -49 -129t-125 -43h-676q-76 0 -125 43t-49 129v1085q0 83 49 129q51 48 125 48zM1137 197v735l-234 -236l236 -237l-230 -230l-235 238l-234 -234l-229 230l233 233l-235 234l229 229l236 -233l237 237l228 -227v301
q0 87 -43 121q-44 35 -131 35h-586q-97 0 -135 -35q-37 -34 -37 -121v-1040q0 -86 41 -121t110 -35h627q77 0 115 35q37 34 37 121z" />
    <glyph glyph-name=".notdef" horiz-adv-x="1343" 
d="M336 1434h676v-2q76 0 125 -46t49 -129v-1085q0 -86 -49 -129t-125 -43h-676q-76 0 -125 43t-49 129v1085q0 83 49 129q51 48 125 48zM1137 197v735l-234 -236l236 -237l-230 -230l-235 238l-234 -234l-229 230l233 233l-235 234l229 229l236 -233l237 237l228 -227v301
q0 87 -43 121q-44 35 -131 35h-586q-97 0 -135 -35q-37 -34 -37 -121v-1040q0 -86 41 -121t110 -35h627q77 0 115 35q37 34 37 121z" />
    <glyph glyph-name=".null" horiz-adv-x="0" 
 />
    <glyph glyph-name="nonmarkingreturn" horiz-adv-x="682" 
 />
    <glyph glyph-name="space" unicode=" " horiz-adv-x="512" 
 />
    <glyph glyph-name="exclam" unicode="!" horiz-adv-x="663" 
d="M160 440v994h344v-994h-344zM160 0v322h344v-322h-344z" />
    <glyph glyph-name="quotedbl" unicode="&#x22;" horiz-adv-x="1234" 
d="M160 989v445h321v-445h-321zM754 989v445h321v-445h-321z" />
    <glyph glyph-name="numbersign" unicode="#" horiz-adv-x="1910" 
d="M1692 854h-199l-139 -285h196l-155 -299h-189l-133 -270h-358l139 270h-268l-133 -270h-359l139 270h-178l158 299h172l145 285h-178l158 299h174l143 281h330l-137 -281h285l143 281h330l-138 -281h207zM1006 569l145 285h-279l-139 -285h273z" />
    <glyph glyph-name="dollar" unicode="$" horiz-adv-x="1257" 
d="M1194 1069l-332 -90l-6 -4q-27 94 -98 141q-68 45 -148 45q-76 0 -118 -33q-43 -34 -43 -75q0 -36 24 -60q27 -27 68 -47q58 -28 100 -41q43 -13 123 -43q88 -30 158 -67q79 -42 139 -93q61 -52 98 -122t37 -162q0 -80 -27 -150q-27 -72 -75 -125q-45 -50 -121 -94
q-71 -41 -160 -59v-174h-344v176q-160 38 -270 145q-109 106 -168 271l329 88q11 -29 41 -80q23 -39 62 -70q40 -32 84 -49q47 -18 104 -18q93 0 135 36q43 37 43 91q0 44 -30 71q-34 31 -80 53q-67 32 -117 48q-35 11 -143 49q-54 20 -129 55q-63 30 -117 80
q-51 48 -86 117q-33 65 -33 161q0 67 29 136q25 60 78 116q50 53 118 92q72 41 156 62v174h344v-182q140 -44 238 -142q96 -96 137 -227z" />
    <glyph glyph-name="percent" unicode="%" horiz-adv-x="1802" 
d="M381 621q-83 0 -150 30q-65 29 -116 86q-49 55 -76 129t-27 164t27 166t76 131q51 57 116 86q70 31 150 31q77 0 147 -31q68 -30 115 -86q48 -57 74 -131t26 -166q0 -93 -26 -164q-27 -72 -74 -129q-47 -56 -115 -86t-147 -30zM272 -2l1028 1432h222l-1028 -1432h-222z
M383 850l-2 -2q63 0 100 55t37 131q0 78 -37 133q-38 56 -100 56t-100 -56q-37 -55 -37 -131t37 -131t102 -55zM1417 -16q-79 0 -149 28q-67 30 -117 86q-49 55 -76 129q-26 71 -26 164q0 92 26 166q27 76 76 131q50 56 117 86q70 31 149 31q78 0 148 -31q67 -30 114 -86
q48 -57 74 -131q27 -77 27 -166q0 -91 -27 -164q-27 -72 -74 -129q-47 -56 -114 -86q-70 -28 -148 -28zM1419 211l-2 -2q64 0 101 55q36 53 36 131q0 80 -36 133q-38 56 -101 56q-62 0 -100 -56q-37 -55 -37 -131t37 -131t102 -55z" />
    <glyph glyph-name="ampersand" unicode="&#x26;" horiz-adv-x="1452" 
d="M1448 866v-268l-258 12v-121q0 -104 -33 -192q-35 -93 -104 -162q-68 -68 -181 -112q-112 -41 -264 -41q-125 0 -227 30q-102 34 -174 92q-71 57 -113 142q-39 79 -39 184q0 54 23 111q20 50 59 92q37 40 90 67q55 28 111 37v2q-37 3 -86 25q-46 21 -84 59t-62 90
q-24 53 -24 123q0 88 35 166t102 133t162 90q90 33 219 33q211 0 346 -108q136 -109 182 -295l-288 -80q-13 43 -37 86q-19 35 -49 61q-29 25 -62 37q-34 12 -84 12q-52 0 -80 -14q-30 -15 -49 -37q-16 -18 -26 -49q-9 -27 -9 -49q0 -63 48 -111q45 -45 151 -45h805z
M877 498v102l-259 -2q-108 0 -161 -47q-51 -45 -51 -117q0 -70 61 -119t156 -49q125 0 188 51q66 54 66 181z" />
    <glyph glyph-name="quotesingle" unicode="'" horiz-adv-x="641" 
d="M160 989v445h321v-445h-321z" />
    <glyph glyph-name="parenleft" unicode="(" horiz-adv-x="806" 
d="M684 1690l86 -328l-2 4q-101 -30 -168 -88q-68 -58 -111 -141q-43 -81 -61 -191q-18 -108 -18 -239q0 -132 18 -240q18 -110 61 -191q43 -82 111 -141q67 -58 168 -88l-86 -326q-36 12 -111 43q-60 25 -131 74q-68 46 -135 117q-64 64 -119 174t-84 246q-30 141 -30 332
q0 190 30 331q29 136 84 246q54 108 119 176q67 70 135 117q71 49 133 72q105 39 111 41z" />
    <glyph glyph-name="parenright" unicode=")" horiz-adv-x="806" 
d="M37 1362l86 328l-2 -4q14 -4 31 -10.5t40.5 -15.5t38.5 -15q64 -24 134 -72q67 -47 135 -117q63 -66 118 -176t84 -246q31 -146 31 -332q0 -185 -31 -331q-29 -136 -84 -246q-53 -106 -118 -174q-68 -71 -135 -117q-69 -48 -132 -74q-78 -33 -110 -43l-86 326
q101 30 168 88q66 57 110 141t62 191q18 108 18 239q0 132 -18 240q-18 107 -62 191t-110 141q-67 58 -168 88z" />
    <glyph glyph-name="asterisk" unicode="*" horiz-adv-x="1040" 
d="M815 1294l66 -204l-195 -56l125 -162l-174 -129l-117 172l-114 -172l-177 127l125 164l-194 56l65 204l187 -63v203h213v-203z" />
    <glyph glyph-name="plus" unicode="+" 
d="M1180 866v-280h-314v-330h-299v330h-315v280h313v330h299v-330h316z" />
    <glyph glyph-name="comma" unicode="," horiz-adv-x="567" 
d="M242 -16l30 8l-28 4q-43 6 -80 41q-39 36 -39 102q0 64 47 111t115 47q64 0 110 -49q47 -50 47 -131q0 -49 -18 -101q-16 -45 -49 -102q-28 -49 -74 -98q-43 -46 -92 -86h-125q29 16 55 49q36 47 49 69q26 46 37 74q15 38 15 62z" />
    <glyph glyph-name="hyphen" unicode="-" horiz-adv-x="1247" 
d="M160 866h927v-280h-927v280z" />
    <glyph glyph-name="period" unicode="." horiz-adv-x="567" 
d="M285 -23q-66 0 -115 46q-47 47 -47 114q0 64 47 111t115 47q63 0 110 -47t47 -111q0 -67 -47 -114q-49 -46 -110 -46z" />
    <glyph glyph-name="slash" unicode="/" horiz-adv-x="1062" 
d="M0 0l733 1434h330l-705 -1434h-358z" />
    <glyph glyph-name="zero" unicode="0" horiz-adv-x="1468" 
d="M733 1462l-4 -4q157 0 277 -57q123 -58 208 -160q89 -106 134 -237q47 -136 47 -289q0 -158 -45 -289q-48 -139 -131 -238t-209 -159q-124 -56 -277 -56q-147 0 -276 58q-126 60 -209 159t-131 238q-45 131 -45 289t45 289q47 137 131 237q84 101 209 160q124 59 276 59z
M733 1122q-79 0 -137 -30q-55 -28 -94 -86q-38 -57 -56 -129q-18 -73 -18 -160t18 -160q18 -72 56 -129q39 -58 94 -86q60 -31 137 -31t137 31q56 29 95 86q37 54 55 129q18 74 18 160q0 87 -18 160q-18 75 -55 129q-39 57 -95 86q-58 30 -137 30z" />
    <glyph glyph-name="one" unicode="1" horiz-adv-x="962" 
d="M563 1434h240v-1436h-344v688v80q0 32 4 78q2 23 2 59v25h-2q-2 0 -37 -41q-34 -41 -80 -86l-63 -64l-211 203z" />
    <glyph glyph-name="two" unicode="2" horiz-adv-x="1253" 
d="M424 979l-318 84l-4 4q24 86 74 160q51 76 117 127q69 54 158 84t196 30q122 0 213 -36q98 -39 164 -99t104 -147q37 -84 37 -185t-30 -178q-30 -76 -82 -137q-53 -62 -117 -111q-21 -17 -129 -94q-14 -10 -42.5 -30.5t-43.5 -30.5q-16 -11 -42.5 -29.5t-35.5 -25.5
q-15 -11 -55 -39l-21 -15l2 -2q5 0 99 6q110 7 258 7h243v-322h-1052v281q55 49 295 260t295 260q114 99 114 194q0 66 -49 115t-135 49q-48 0 -86 -18t-62 -45q-23 -26 -40 -60q-18 -36 -25 -57z" />
    <glyph glyph-name="three" unicode="3" horiz-adv-x="1257" 
d="M401 979l-307 82l-12 -12q24 90 74 165q51 76 120 127q71 53 160 80q95 29 195 29q129 0 219 -33q99 -36 162 -88q67 -55 102 -133t35 -166q0 -70 -27 -125t-67 -92q-39 -36 -88 -57q-53 -22 -88 -25v-2q59 0 112 -20q55 -21 99 -62q43 -40 67 -98q25 -61 25 -131
q0 -103 -39 -182q-41 -84 -113 -144q-75 -63 -172 -92q-95 -33 -217 -33q-99 0 -197 31q-90 26 -172 82q-73 50 -131 127q-53 70 -75 160l311 86q24 -77 86 -127t160 -50q34 0 75 13q37 12 64 33q29 22 43 51q16 32 16 71q0 70 -55 113t-150 43h-120v268h120q97 0 140 43
t43 103q0 64 -49 104q-50 41 -132 41q-79 0 -131 -43t-86 -137z" />
    <glyph glyph-name="four" unicode="4" horiz-adv-x="1347" 
d="M1272 557v-299h-154v-258h-323v258h-717v258l758 918h282v-877h154zM633 557h155l7 70v114v109q0 12 -0.5 30t-0.5 31t1 23l2 33h-2l-15 -19q-30 -36 -37 -45q-5 -7 -20.5 -27.5t-24.5 -31.5q-43 -53 -45 -56l-114 -135l-78 -94v-2h55h117z" />
    <glyph glyph-name="five" unicode="5" horiz-adv-x="1269" 
d="M487 909l2 -2l-8 -2q27 15 64 23q48 10 100 10q111 0 211 -35q98 -34 172 -96t115 -148q41 -87 41 -188q0 -106 -41 -199q-41 -92 -111 -159t-170 -105q-100 -35 -213 -35q-102 0 -200 29q-90 30 -162 80q-69 48 -117 115q-49 68 -66 135l316 84q9 -24 24 -51t41 -50
q24 -21 62 -36q37 -15 86 -15q87 0 147 60q58 58 58 147q0 90 -60 147q-59 56 -141 56q-42 0 -80 -10q-32 -8 -55 -25q-21 -15 -33 -33t-18 -33l-297 82l129 777h815v-322h-568l-4 -20q-20 -102 -30 -142q-9 -38 -9 -39z" />
    <glyph glyph-name="six" unicode="6" horiz-adv-x="1239" 
d="M977 1432l-381 -508l2 -11q12 8 37 25q20 14 80 14q113 0 203 -41q92 -42 151 -110q58 -66 94 -162q33 -88 33 -193q0 -109 -43 -196q-45 -92 -119 -154q-80 -67 -180 -96q-107 -35 -223 -35q-112 0 -215 35q-99 29 -178 96q-77 65 -121 160q-43 93 -43 215q0 87 18 160
t53 145q39 80 80 142q47 70 105 147l276 367h371zM645 272v-2q101 0 164 60q61 58 61 147q0 94 -63 148q-64 55 -162 55q-104 0 -164 -57q-61 -58 -61 -148q0 -93 63 -147q65 -56 162 -56z" />
    <glyph glyph-name="seven" unicode="7" horiz-adv-x="1179" 
d="M61 1434h1098l-2 -203l-692 -1233h-369l436 766q46 78 74 125q12 20 35 56.5t33 53.5q32 53 51 80l20 31l-2 2h-20h-53h-66h-61h-482v322z" />
    <glyph glyph-name="eight" unicode="8" horiz-adv-x="1241" 
d="M885 764v-2l8 -6q45 -11 98 -43q50 -31 90 -76q43 -50 66 -105q24 -59 24 -133q0 -92 -41 -172q-40 -78 -114 -137q-77 -62 -174 -90q-103 -35 -221 -35q-119 0 -222 35q-97 28 -174 90q-73 58 -114 139q-41 80 -41 172q0 75 24 136q21 55 66 106q41 47 90 74
q57 31 98 41v2q-25 6 -65 31q-32 21 -70 65q-31 37 -57 96q-25 58 -25 123q0 84 37 154q39 73 100 123q63 51 154 82q88 30 194 30t195 -30q91 -31 154 -82q61 -50 100 -123q37 -70 37 -154q0 -65 -25 -123q-24 -55 -57 -94q-32 -37 -72 -63q-41 -26 -63 -31zM428 1059h-2
q0 -64 55 -107t140 -43q87 0 139 43q53 44 53 107q0 72 -55 115t-137 43q-88 0 -140 -46q-53 -47 -53 -112zM399 418q0 -79 62 -129q61 -49 157 -49q102 0 162 51q62 53 62 129q0 79 -62 129q-61 49 -157 49q-102 0 -162 -51q-62 -53 -62 -129z" />
    <glyph glyph-name="nine" unicode="9" horiz-adv-x="1241" 
d="M201 0l442 502l-2 6q-14 -17 -47 -27q-27 -8 -64 -8q-122 0 -215 41q-90 40 -153 109q-62 68 -92 157q-31 91 -31 191q0 115 43 205q43 91 119 155q77 65 180 99t225 34q114 0 215 -34t178 -99q76 -64 123 -160q45 -91 45 -215t-53 -266t-184 -297l-338 -393h-391z
M598 1159v-2q-104 0 -164 -57q-61 -58 -61 -148q0 -93 63 -147q64 -55 162 -55q102 0 164 59q61 58 61 147q0 94 -63 148q-64 55 -162 55z" />
    <glyph glyph-name="colon" unicode=":" horiz-adv-x="567" 
d="M285 569q-68 0 -115 47t-47 115q0 64 47 111t115 47q63 0 110 -47t47 -111q0 -68 -47 -115t-110 -47zM285 -23q-66 0 -115 46q-47 47 -47 114q0 64 47 111t115 47q63 0 110 -47t47 -111q0 -67 -47 -114q-49 -46 -110 -46z" />
    <glyph glyph-name="semicolon" unicode=";" horiz-adv-x="604" 
d="M324 569q-68 0 -115 47t-47 115q0 64 47 111t115 47q63 0 110 -47t47 -111q0 -68 -47 -115t-110 -47zM279 -16l30 8l-28 4q-43 6 -80 41q-39 36 -39 102q0 64 47 111t115 47q64 0 110 -49q47 -50 47 -131q0 -49 -18 -101q-16 -45 -49 -102q-28 -49 -74 -98
q-43 -46 -92 -86h-125q29 16 55 49q36 47 49 69q26 46 37 74q15 38 15 62z" />
    <glyph glyph-name="less" unicode="&#x3c;" 
d="M657 752l510 -502h-389l-540 502l540 499h389z" />
    <glyph glyph-name="equal" unicode="=" 
d="M252 1092h928v-281h-928v281zM252 600h928v-281h-928v281z" />
    <glyph glyph-name="greater" unicode="&#x3e;" 
d="M262 250l510 502l-510 499h389l541 -499l-541 -502h-389z" />
    <glyph glyph-name="question" unicode="?" horiz-adv-x="1208" 
d="M422 440v267h-6q93 55 166 102q76 49 110 76q44 35 62 65t18 68q0 26 -8 47q-9 23 -29 47t-51 37q-32 14 -82 14q-98 0 -153 -43q-58 -45 -91 -141l-288 80q21 92 71 166t121 127q72 53 162 80q95 28 197 28q129 0 219 -33q97 -35 161 -88q68 -56 103 -133
q35 -78 35 -166q0 -89 -31 -159q-30 -67 -82 -119q-49 -49 -119 -94q-46 -30 -141 -82v-146h-344zM422 0v322h344v-322h-344z" />
    <glyph glyph-name="at" unicode="@" horiz-adv-x="1644" 
d="M942 1077h217l-8 -506q0 -63 18 -104q17 -39 70 -39q36 0 61 25t37 65q15 49 17 90q4 66 4 97q0 121 -41 227q-40 104 -115 182q-73 76 -174 119t-221 43t-221 -43t-174 -119q-76 -79 -115 -180q-41 -106 -41 -227q0 -122 41 -228q40 -103 115 -178t174 -117
q101 -43 221 -43q84 0 151 13q57 11 99 28q29 12 55 29q18 12 25 12l149 -73q0 -6 -29 -35q-27 -28 -86 -62q-60 -35 -147 -59q-88 -27 -215 -27q-163 0 -299 53q-134 55 -236 154q-98 95 -155 234q-56 136 -56 294q0 163 56 302q57 141 155 239q102 102 238 158
q134 55 299 55q164 0 301 -55t240 -158q102 -102 157 -239q56 -139 56 -302q0 -66 -19 -147q-18 -78 -61 -141q-42 -63 -111 -107q-67 -43 -166 -43q-40 0 -80 12q-33 10 -69 35q-30 21 -53 54q-22 32 -31 65l-2 2q-10 -29 -33 -55q-28 -31 -57 -49q-40 -25 -74 -37
q-41 -15 -80 -15q-79 0 -149 31q-64 28 -113 84q-49 55 -72 129q-24 76 -24 168q0 91 28 170q25 72 78 131q50 56 121 86q73 31 158 31q38 0 73 -12q26 -9 58 -29q24 -15 37 -31q14 -17 16 -24h2v67zM948 682v16l-6 4q3 58 -12 93t-39 53t-51 24q-31 7 -49 7q-23 0 -56 -11
q-27 -9 -51 -30t-39 -56q-14 -32 -14 -82q0 -49 16 -86q13 -31 41 -55q26 -23 51 -31q24 -8 56 -8q25 0 49 8q29 10 49 27q22 19 37 49q18 36 18 78z" />
    <glyph glyph-name="A" unicode="A" horiz-adv-x="1472" 
d="M1098 0l-82 223h-567l-82 -223h-369l571 1432h326l573 -1432h-370zM563 526h346l-106 277q-18 45 -25 67q-5 15 -12 39t-8 29q-3 10 -9 28t-8 25l-6 23h-2l-6 -21q-2 -8 -8 -27.5t-8 -25.5q-11 -38 -21 -68q-11 -35 -24 -67z" />
    <glyph glyph-name="B" unicode="B" horiz-adv-x="1351" 
d="M162 1438h622h-6q94 0 176 -31q80 -30 138 -82q61 -55 90 -123q30 -70 30 -147q0 -56 -14 -99q-12 -36 -41 -82q-22 -35 -55 -61t-64 -37v-2q54 -15 99 -49q46 -34 80 -80q35 -47 55 -100t20 -111q0 -88 -30 -168q-29 -77 -95 -137q-63 -57 -159 -92q-90 -33 -228 -33
h-618v1434zM506 874h207v5q71 0 116 36t45 97q0 60 -45 96q-46 37 -116 37h-207v-271zM504 289h239h2q88 0 136 45q49 46 49 117q0 76 -51 118q-52 43 -136 43h-239v-323z" />
    <glyph glyph-name="C" unicode="C" horiz-adv-x="1544" 
d="M1466 1081l-350 -92l-12 -14q-49 61 -131 98q-81 37 -168 37t-160 -31q-70 -30 -121 -84q-46 -49 -75 -127q-27 -74 -27 -161t29 -166q28 -76 79 -127q53 -53 123 -80t154 -27q105 0 194 47t136 121l348 -90q-49 -99 -113 -172q-70 -79 -153 -133q-89 -58 -191 -84
q-108 -31 -217 -31q-153 0 -289 53q-132 54 -235 154q-100 97 -160 238q-57 134 -57 301q0 162 59 301t160 237t237 154q134 55 289 55q110 0 205 -26q98 -27 180 -76q89 -54 152 -119q68 -71 114 -156z" />
    <glyph glyph-name="D" unicode="D" horiz-adv-x="1599" 
d="M160 1432h626l-2 -5q158 0 289 -51q133 -52 236 -147q98 -91 159 -228q60 -135 60 -294q0 -164 -58 -295q-60 -135 -159 -224q-103 -92 -236 -141q-128 -47 -289 -47h-626v1432zM504 322h282v-3q77 0 148 27t123 76q55 52 84 123q30 73 30 166t-30 166t-84 127
q-52 52 -123 79q-76 29 -148 29h-282v-790z" />
    <glyph glyph-name="E" unicode="E" horiz-adv-x="1357" 
d="M504 322h710v-322h-1054v1434h1042v-322h-698v-235h547v-302h-547v-253z" />
    <glyph glyph-name="F" unicode="F" horiz-adv-x="1253" 
d="M1182 1112h-678v-281h526v-309h-526v-522h-344v1434h1022v-322z" />
    <glyph glyph-name="G" unicode="G" horiz-adv-x="1622" 
d="M1206 117h-2l-6 -11q-30 -34 -76 -61q-48 -28 -98 -45q-79 -23 -106 -27q-62 -10 -109 -10q-153 0 -289 53q-132 54 -235 154q-100 97 -160 238q-57 134 -57 301q0 162 59 301t160 237t237 154q134 55 289 55q211 0 383 -102q171 -101 270 -277l-350 -92q-51 60 -135 98
q-81 37 -168 37q-89 0 -160 -30q-70 -30 -121 -84q-46 -49 -75 -127q-27 -73 -27 -162q0 -93 31 -172q29 -74 84 -129q53 -53 127 -80q79 -29 164 -29q86 0 147 21q57 19 109 53q44 28 73 72q31 46 43 79v3h-377v276h670v-811h-295v92v25z" />
    <glyph glyph-name="H" unicode="H" horiz-adv-x="1544" 
d="M1040 1434h344v-1434h-344v557h-536v-557h-344v1434h344v-555h536v555z" />
    <glyph glyph-name="I" unicode="I" horiz-adv-x="663" 
d="M504 0h-344v1434h344v-1434z" />
    <glyph glyph-name="J" unicode="J" horiz-adv-x="1390" 
d="M913 1434h344l-2 -805q0 -161 -47 -285q-46 -122 -133 -209q-86 -86 -205 -129q-121 -41 -260 -41q-96 0 -194 29q-88 23 -170 76q-78 51 -135 116q-58 66 -93 148l338 90q36 -62 103 -98q65 -35 153 -35q141 0 222 90q79 88 79 244v809z" />
    <glyph glyph-name="K" unicode="K" horiz-adv-x="1501" 
d="M1464 0h-405l-441 598l-120 -121v-475h-344v1434h344v-234v-147v-94v-52v-14h2l10 10l31 31q6 6 24.5 25.5t32.5 33.5l92 92l348 347h422l-608 -611z" />
    <glyph glyph-name="L" unicode="L" horiz-adv-x="1222" 
d="M504 322h678v-322h-1022v1434h344v-1112z" />
    <glyph glyph-name="M" unicode="M" horiz-adv-x="1751" 
d="M1268 1434h323v-1434h-338v348q0 234 7 381q3 73 4 95t0 32h-2l-19 -31q-5 -8 -19.5 -31t-23.5 -38q-2 -3 -45 -74q-24 -39 -25 -43l-167 -287h-179l-168 287q-3 8 -24 43q-43 71 -45 74q-9 15 -23.5 38t-19.5 31l-19 31h-2q-1 -11 -0.5 -31t4.5 -94q7 -147 7 -381v-350
h-338v1434h323l269 -435q24 -39 63 -104q32 -54 37 -64q10 -20 18 -32l6 -8h2l7 8q8 12 18 32q5 10 37 64q39 65 63 104z" />
    <glyph glyph-name="N" unicode="N" horiz-adv-x="1605" 
d="M1102 1434h344v-1440h-324l-293 397q-14 19 -104 148q-75 108 -104 147q-17 23 -44 61.5t-38 53.5l-33 45h-2v-39v-111v-168v-215v-315h-344v1432h323l305 -410q27 -36 86 -119q13 -19 49 -68t54 -75q53 -75 86 -119l37 -49h2v45v117v163v191v328z" />
    <glyph glyph-name="O" unicode="O" horiz-adv-x="1632" 
d="M68 713l-7 -4q0 159 60 301q59 139 160 237t237 154q134 55 289 55t289 -55q136 -56 237 -154q103 -100 160 -235q59 -139 59 -301q0 -167 -57 -301q-58 -137 -160 -236q-101 -98 -237 -154q-136 -53 -289 -53t-289 53q-132 54 -235 154q-100 97 -160 238
q-57 134 -57 301zM430 717l-4 -4q0 -85 29 -164q27 -74 77 -127q48 -51 121 -82t158 -31q87 0 160 31q68 29 123 84q53 53 80 127q28 76 28 164q0 93 -26 164q-27 74 -80 127q-55 55 -123 84q-71 30 -160 30q-87 0 -158 -30t-120 -82q-51 -54 -78 -127t-27 -164z" />
    <glyph glyph-name="P" unicode="P" horiz-adv-x="1333" 
d="M158 1434h547h-3q138 0 238 -33q106 -35 178 -98t113 -156q39 -88 39 -205t-39 -205q-40 -91 -113 -155q-74 -65 -178 -99q-97 -32 -235 -32h-203v-451h-344v1434zM504 772h196h-2q104 0 158 45q55 46 55 125t-55 125q-54 45 -156 45h-196v-340z" />
    <glyph glyph-name="Q" unicode="Q" horiz-adv-x="1632" 
d="M635 -272v262l-2 -4q-118 23 -227 90q-102 63 -181 160q-74 92 -119 215q-43 119 -43 258q0 159 60 301q59 139 160 237t237 154q134 55 289 55t289 -55q136 -56 237 -154q103 -100 160 -235q59 -139 59 -301q0 -139 -43 -258q-44 -121 -120 -215q-77 -95 -183 -160
q-109 -67 -229 -90v-260h-344zM815 311l-4 -4q87 0 160 31q68 29 123 84q53 53 80 127q28 76 28 164q0 93 -26 164q-27 74 -80 127t-123 83q-73 31 -160 31q-85 0 -158 -31t-120 -81q-51 -54 -78 -127t-27 -164q0 -85 29 -164q27 -73 78 -127q49 -52 120 -82q73 -31 158 -31
z" />
    <glyph glyph-name="R" unicode="R" horiz-adv-x="1392" 
d="M1329 -2h-385l-268 465h-176v-465h-344v1432h534q137 0 244 -37q111 -38 182 -101q75 -66 115 -153q41 -90 41 -201q0 -144 -68 -250q-69 -107 -192 -164zM504 1112v-340l235 -4q43 0 80 16q31 13 55 41q22 25 31 56q10 33 10 59q0 32 -8 59q-10 33 -30 56q-24 27 -56 41
q-37 16 -80 16h-237z" />
    <glyph glyph-name="S" unicode="S" horiz-adv-x="1257" 
d="M1194 1069l-332 -90h-8q-27 94 -98 141q-68 45 -148 45q-79 0 -119 -32q-43 -34 -43 -76q0 -35 25 -60q27 -27 68 -47q58 -28 100 -41q43 -13 123 -43q88 -30 158 -67q82 -44 139 -92q60 -51 98 -123q37 -70 37 -162q0 -101 -39 -180q-41 -84 -113 -144q-70 -58 -178 -94
q-108 -31 -229 -31q-229 0 -379 115q-155 118 -225 320l329 88q11 -29 41 -80q23 -39 62 -70q40 -32 84 -49q47 -18 104 -18q93 0 135 36q43 37 43 91q0 44 -30 71q-34 31 -80 53q-67 32 -117 48q-35 11 -143 49q-54 20 -129 55q-63 30 -117 80q-51 48 -86 117
q-33 65 -33 161q0 83 41 160q41 76 111 135q68 56 170 92q100 35 215 35q103 0 194 -30q95 -31 166 -82q73 -52 125 -125q55 -77 78 -156z" />
    <glyph glyph-name="T" unicode="T" horiz-adv-x="1251" 
d="M20 1434h1211v-322h-436v-1112h-344v1112h-431v322z" />
    <glyph glyph-name="U" unicode="U" horiz-adv-x="1531" 
d="M1055 1434h344l-2 -801q0 -166 -45 -285q-47 -124 -129 -209q-83 -86 -199 -129q-118 -41 -258 -41q-142 0 -260 41q-116 43 -199 129q-82 85 -129 209q-45 119 -45 287v797h344v-789q0 -187 74 -270q73 -82 215 -82q140 0 215 84q74 83 74 270v789z" />
    <glyph glyph-name="V" unicode="V" horiz-adv-x="1472" 
d="M1096 1434h377l-551 -1434h-371l-551 1432h377l276 -791q39 -107 60 -190q18 -70 22 -70h2q5 0 23 72q24 92 59 190z" />
    <glyph glyph-name="W" unicode="W" horiz-adv-x="2152" 
d="M1745 1434h366l-450 -1436h-324l-213 659q-36 113 -47 174q-12 68 -14 68h-2q-2 0 -14 -68q-10 -54 -48 -174l-213 -659h-323l-434 1432h366l176 -676q36 -137 43 -166q15 -64 19 -64h2q2 0 20 66q16 57 56 166l198 540h322l199 -540q36 -98 55 -166q18 -64 20 -64h2
q4 0 19 66q7 29 43 166z" />
    <glyph glyph-name="X" unicode="X" horiz-adv-x="1411" 
d="M707 438h-2l-11 -28q-5 -8 -15.5 -27.5t-16.5 -28.5q-6 -10 -18.5 -30.5t-18.5 -30.5q-9 -15 -25 -39l-168 -254h-409l479 729l-459 703h414l172 -281q5 -6 20 -37l25 -47q4 -9 11.5 -23.5t10.5 -19.5l11 -16h2l10 18q3 5 10.5 19.5t11.5 23.5l25 47q15 31 20 37l172 281
h414l-459 -703l480 -731h-410l-168 256q-2 3 -5 8.5t-8.5 15t-10.5 17.5q-6 10 -18.5 30.5t-18.5 30.5q-5 8 -16 27.5t-17 28.5z" />
    <glyph glyph-name="Y" unicode="Y" horiz-adv-x="1480" 
d="M1075 1434h385l-553 -799v-635h-342v635l-549 799h385l261 -383q32 -49 51 -74q23 -29 24 -29h2q2 0 25 29q19 25 51 74z" />
    <glyph glyph-name="Z" unicode="Z" horiz-adv-x="1458" 
d="M1335 1434v-322l-612 -670l-49 -49l-43 -43l-31 -31l-12 -12l2 -2l8 1q7 0 23.5 1t35.5 2q86 4 158 4h518v-319h-1212v319l639 672q18 22 43 43q24 21 45 39q28 24 35 31l14 12l-2 2h-23h-55h-74h-73h-527v322h1192z" />
    <glyph glyph-name="bracketleft" unicode="[" horiz-adv-x="798" 
d="M504 1432v-1422h274v-319h-618v2062h618v-321h-274z" />
    <glyph glyph-name="backslash" unicode="\" horiz-adv-x="1062" 
d="M330 1434l733 -1434h-358l-705 1434h330z" />
    <glyph glyph-name="bracketright" unicode="]" horiz-adv-x="798" 
d="M295 10v1422h-275v321h619v-2062h-619v319h275z" />
    <glyph glyph-name="asciicircum" unicode="^" horiz-adv-x="1277" 
d="M1118 977l-147 -129l-332 342l-332 -342l-147 129l479 481z" />
    <glyph glyph-name="underscore" unicode="_" horiz-adv-x="1603" 
d="M160 0h1284v-270h-1284v270z" />
    <glyph glyph-name="grave" unicode="`" horiz-adv-x="657" 
d="M500 1489l-506 211l115 231l489 -262z" />
    <glyph glyph-name="a" unicode="a" horiz-adv-x="1472" 
d="M1098 0l-82 223h-567l-82 -223h-369l571 1432h326l573 -1432h-370zM563 526h346l-106 277q-18 45 -25 67q-5 15 -12 39t-8 29q-3 10 -9 28t-8 25l-6 23h-2l-6 -21q-2 -8 -8 -27.5t-8 -25.5q-11 -38 -21 -68q-11 -35 -24 -67z" />
    <glyph glyph-name="b" unicode="b" horiz-adv-x="1351" 
d="M162 1438h622h-6q94 0 176 -31q80 -30 138 -82q61 -55 90 -123q30 -70 30 -147q0 -56 -14 -99q-12 -36 -41 -82q-22 -35 -55 -61t-64 -37v-2q54 -15 99 -49q46 -34 80 -80q35 -47 55 -100t20 -111q0 -88 -30 -168q-29 -77 -95 -137q-63 -57 -159 -92q-90 -33 -228 -33
h-618v1434zM506 874h207v5q71 0 116 36t45 97q0 60 -45 96q-46 37 -116 37h-207v-271zM504 289h239h2q88 0 136 45q49 46 49 117q0 76 -51 118q-52 43 -136 43h-239v-323z" />
    <glyph glyph-name="c" unicode="c" horiz-adv-x="1544" 
d="M1466 1081l-350 -92l-12 -14q-49 61 -131 98q-81 37 -168 37t-160 -31q-70 -30 -121 -84q-46 -49 -75 -127q-27 -74 -27 -161t29 -166q28 -76 79 -127q53 -53 123 -80t154 -27q105 0 194 47t136 121l348 -90q-49 -99 -113 -172q-70 -79 -153 -133q-89 -58 -191 -84
q-108 -31 -217 -31q-153 0 -289 53q-132 54 -235 154q-100 97 -160 238q-57 134 -57 301q0 162 59 301t160 237t237 154q134 55 289 55q110 0 205 -26q98 -27 180 -76q89 -54 152 -119q68 -71 114 -156z" />
    <glyph glyph-name="d" unicode="d" horiz-adv-x="1599" 
d="M160 1432h626l-2 -5q158 0 289 -51q133 -52 236 -147q98 -91 159 -228q60 -135 60 -294q0 -164 -58 -295q-60 -135 -159 -224q-103 -92 -236 -141q-128 -47 -289 -47h-626v1432zM504 322h282v-3q77 0 148 27t123 76q55 52 84 123q30 73 30 166t-30 166t-84 127
q-52 52 -123 79q-76 29 -148 29h-282v-790z" />
    <glyph glyph-name="e" unicode="e" horiz-adv-x="1357" 
d="M504 322h710v-322h-1054v1434h1042v-322h-698v-235h547v-302h-547v-253z" />
    <glyph glyph-name="f" unicode="f" horiz-adv-x="1253" 
d="M1182 1112h-678v-281h526v-309h-526v-522h-344v1434h1022v-322z" />
    <glyph glyph-name="g" unicode="g" horiz-adv-x="1622" 
d="M1206 117h-2l-6 -11q-30 -34 -76 -61q-48 -28 -98 -45q-79 -23 -106 -27q-62 -10 -109 -10q-153 0 -289 53q-132 54 -235 154q-100 97 -160 238q-57 134 -57 301q0 162 59 301t160 237t237 154q134 55 289 55q211 0 383 -102q171 -101 270 -277l-350 -92q-51 60 -135 98
q-81 37 -168 37q-89 0 -160 -30q-70 -30 -121 -84q-46 -49 -75 -127q-27 -73 -27 -162q0 -93 31 -172q29 -74 84 -129q53 -53 127 -80q79 -29 164 -29q86 0 147 21q57 19 109 53q44 28 73 72q31 46 43 79v3h-377v276h670v-811h-295v92v25z" />
    <glyph glyph-name="h" unicode="h" horiz-adv-x="1544" 
d="M1040 1434h344v-1434h-344v557h-536v-557h-344v1434h344v-555h536v555z" />
    <glyph glyph-name="i" unicode="i" horiz-adv-x="663" 
d="M504 0h-344v1434h344v-1434z" />
    <glyph glyph-name="j" unicode="j" horiz-adv-x="1390" 
d="M913 1434h344l-2 -805q0 -161 -47 -285q-46 -122 -133 -209q-86 -86 -205 -129q-121 -41 -260 -41q-96 0 -194 29q-88 23 -170 76q-78 51 -135 116q-58 66 -93 148l338 90q36 -62 103 -98q65 -35 153 -35q141 0 222 90q79 88 79 244v809z" />
    <glyph glyph-name="k" unicode="k" horiz-adv-x="1501" 
d="M1464 0h-405l-441 598l-120 -121v-475h-344v1434h344v-234v-147v-94v-52v-14h2l10 10l31 31q6 6 24.5 25.5t32.5 33.5l92 92l348 347h422l-608 -611z" />
    <glyph glyph-name="l" unicode="l" horiz-adv-x="1222" 
d="M504 322h678v-322h-1022v1434h344v-1112z" />
    <glyph glyph-name="m" unicode="m" horiz-adv-x="1751" 
d="M1268 1434h323v-1434h-338v348q0 234 7 381q3 73 4 95t0 32h-2l-19 -31q-5 -8 -19.5 -31t-23.5 -38q-2 -3 -45 -74q-24 -39 -25 -43l-167 -287h-179l-168 287q-3 8 -24 43q-43 71 -45 74q-9 15 -23.5 38t-19.5 31l-19 31h-2q-1 -11 -0.5 -31t4.5 -94q7 -147 7 -381v-350
h-338v1434h323l269 -435q24 -39 63 -104q32 -54 37 -64q10 -20 18 -32l6 -8h2l7 8q8 12 18 32q5 10 37 64q39 65 63 104z" />
    <glyph glyph-name="n" unicode="n" horiz-adv-x="1605" 
d="M1102 1434h344v-1440h-324l-293 397q-14 19 -104 148q-75 108 -104 147q-17 23 -44 61.5t-38 53.5l-33 45h-2v-39v-111v-168v-215v-315h-344v1432h323l305 -410q27 -36 86 -119q13 -19 49 -68t54 -75q53 -75 86 -119l37 -49h2v45v117v163v191v328z" />
    <glyph glyph-name="o" unicode="o" horiz-adv-x="1632" 
d="M68 713l-7 -4q0 159 60 301q59 139 160 237t237 154q134 55 289 55t289 -55q136 -56 237 -154q103 -100 160 -235q59 -139 59 -301q0 -167 -57 -301q-58 -137 -160 -236q-101 -98 -237 -154q-136 -53 -289 -53t-289 53q-132 54 -235 154q-100 97 -160 238
q-57 134 -57 301zM430 717l-4 -4q0 -85 29 -164q27 -74 77 -127q48 -51 121 -82t158 -31q87 0 160 31q68 29 123 84q53 53 80 127q28 76 28 164q0 93 -26 164q-27 74 -80 127q-55 55 -123 84q-71 30 -160 30q-87 0 -158 -30t-120 -82q-51 -54 -78 -127t-27 -164z" />
    <glyph glyph-name="p" unicode="p" horiz-adv-x="1333" 
d="M158 1434h547h-3q138 0 238 -33q106 -35 178 -98t113 -156q39 -88 39 -205t-39 -205q-40 -91 -113 -155q-74 -65 -178 -99q-97 -32 -235 -32h-203v-451h-344v1434zM504 772h196h-2q104 0 158 45q55 46 55 125t-55 125q-54 45 -156 45h-196v-340z" />
    <glyph glyph-name="q" unicode="q" horiz-adv-x="1632" 
d="M635 -272v262l-2 -4q-118 23 -227 90q-102 63 -181 160q-74 92 -119 215q-43 119 -43 258q0 159 60 301q59 139 160 237t237 154q134 55 289 55t289 -55q136 -56 237 -154q103 -100 160 -235q59 -139 59 -301q0 -139 -43 -258q-44 -121 -120 -215q-77 -95 -183 -160
q-109 -67 -229 -90v-260h-344zM815 311l-4 -4q87 0 160 31q68 29 123 84q53 53 80 127q28 76 28 164q0 93 -26 164q-27 74 -80 127t-123 83q-73 31 -160 31q-85 0 -158 -31t-120 -81q-51 -54 -78 -127t-27 -164q0 -85 29 -164q27 -73 78 -127q49 -52 120 -82q73 -31 158 -31
z" />
    <glyph glyph-name="r" unicode="r" horiz-adv-x="1392" 
d="M1329 -2h-385l-268 465h-176v-465h-344v1432h534q137 0 244 -37q111 -38 182 -101q75 -66 115 -153q41 -90 41 -201q0 -144 -68 -250q-69 -107 -192 -164zM504 1112v-340l235 -4q43 0 80 16q31 13 55 41q22 25 31 56q10 33 10 59q0 32 -8 59q-10 33 -30 56q-24 27 -56 41
q-37 16 -80 16h-237z" />
    <glyph glyph-name="s" unicode="s" horiz-adv-x="1257" 
d="M1194 1069l-332 -90h-8q-27 94 -98 141q-68 45 -148 45q-79 0 -119 -32q-43 -34 -43 -76q0 -35 25 -60q27 -27 68 -47q58 -28 100 -41q43 -13 123 -43q88 -30 158 -67q82 -44 139 -92q60 -51 98 -123q37 -70 37 -162q0 -101 -39 -180q-41 -84 -113 -144q-70 -58 -178 -94
q-108 -31 -229 -31q-229 0 -379 115q-155 118 -225 320l329 88q11 -29 41 -80q23 -39 62 -70q40 -32 84 -49q47 -18 104 -18q93 0 135 36q43 37 43 91q0 44 -30 71q-34 31 -80 53q-67 32 -117 48q-35 11 -143 49q-54 20 -129 55q-63 30 -117 80q-51 48 -86 117
q-33 65 -33 161q0 83 41 160q41 76 111 135q68 56 170 92q100 35 215 35q103 0 194 -30q95 -31 166 -82q73 -52 125 -125q55 -77 78 -156z" />
    <glyph glyph-name="t" unicode="t" horiz-adv-x="1251" 
d="M20 1434h1211v-322h-436v-1112h-344v1112h-431v322z" />
    <glyph glyph-name="u" unicode="u" horiz-adv-x="1531" 
d="M1055 1434h344l-2 -801q0 -166 -45 -285q-47 -124 -129 -209q-83 -86 -199 -129q-118 -41 -258 -41q-142 0 -260 41q-116 43 -199 129q-82 85 -129 209q-45 119 -45 287v797h344v-789q0 -187 74 -270q73 -82 215 -82q140 0 215 84q74 83 74 270v789z" />
    <glyph glyph-name="v" unicode="v" horiz-adv-x="1472" 
d="M1096 1434h377l-551 -1434h-371l-551 1432h377l276 -791q39 -107 60 -190q18 -70 22 -70h2q5 0 23 72q24 92 59 190z" />
    <glyph glyph-name="w" unicode="w" horiz-adv-x="2152" 
d="M1745 1434h366l-450 -1436h-324l-213 659q-36 113 -47 174q-12 68 -14 68h-2q-2 0 -14 -68q-10 -54 -48 -174l-213 -659h-323l-434 1432h366l176 -676q36 -137 43 -166q15 -64 19 -64h2q2 0 20 66q16 57 56 166l198 540h322l199 -540q36 -98 55 -166q18 -64 20 -64h2
q4 0 19 66q7 29 43 166z" />
    <glyph glyph-name="x" unicode="x" horiz-adv-x="1411" 
d="M707 438h-2l-11 -28q-5 -8 -15.5 -27.5t-16.5 -28.5q-6 -10 -18.5 -30.5t-18.5 -30.5q-9 -15 -25 -39l-168 -254h-409l479 729l-459 703h414l172 -281q5 -6 20 -37l25 -47q4 -9 11.5 -23.5t10.5 -19.5l11 -16h2l10 18q3 5 10.5 19.5t11.5 23.5l25 47q15 31 20 37l172 281
h414l-459 -703l480 -731h-410l-168 256q-2 3 -5 8.5t-8.5 15t-10.5 17.5q-6 10 -18.5 30.5t-18.5 30.5q-5 8 -16 27.5t-17 28.5z" />
    <glyph glyph-name="y" unicode="y" horiz-adv-x="1480" 
d="M1075 1434h385l-553 -799v-635h-342v635l-549 799h385l261 -383q32 -49 51 -74q23 -29 24 -29h2q2 0 25 29q19 25 51 74z" />
    <glyph glyph-name="z" unicode="z" horiz-adv-x="1458" 
d="M1335 1434v-322l-612 -670l-49 -49l-43 -43l-31 -31l-12 -12l2 -2l8 1q7 0 23.5 1t35.5 2q86 4 158 4h518v-319h-1212v319l639 672q18 22 43 43q24 21 45 39q28 24 35 31l14 12l-2 2h-23h-55h-74h-73h-527v322h1192z" />
    <glyph glyph-name="braceleft" unicode="{" horiz-adv-x="929" 
d="M635 1171v-120l-4 -13q0 -103 -15 -168q-13 -57 -34 -100q-17 -36 -37 -49q-18 -12 -23 -12q4 0 23 -13q20 -13 37 -49q21 -43 34 -100q17 -73 17 -168v-121q0 -102 24 -160t64 -92q45 -33 88 -41q44 -8 100 -8v-322q-154 0 -270 43q-118 44 -193 119q-76 76 -116 180
q-39 98 -39 226v196q0 105 -21 166q-22 63 -45 97q-26 40 -65 55q39 15 65 55q24 34 45 96t21 166v197q0 126 39 227q40 104 116 180q74 74 195 119q116 43 270 43v-321q-51 0 -100 -9q-48 -9 -88 -43q-41 -35 -64 -94q-24 -61 -24 -162z" />
    <glyph glyph-name="bar" unicode="|" horiz-adv-x="589" 
d="M430 -150h-270v1737h270v-1737z" />
    <glyph glyph-name="braceright" unicode="}" horiz-adv-x="929" 
d="M295 1051v120l-4 5q0 97 -25 161q-24 62 -63 95q-40 34 -88 43q-55 10 -101 10v321q155 0 271 -43q121 -45 194 -118q77 -77 117 -181q39 -101 39 -227v-197q0 -107 20 -166q21 -62 45 -96q26 -39 66 -55q-40 -16 -66 -55q-23 -34 -45 -97q-20 -59 -20 -165v-197
q0 -127 -39 -225q-40 -104 -117 -181q-74 -74 -192 -118q-116 -43 -271 -43v321q46 0 101 10q43 8 88 41q39 33 63 92q25 61 25 160v121q0 101 16 170q12 53 35 100q18 37 37 50q18 12 22 12q-4 0 -22 12q-20 13 -37 49q-22 47 -35 101q-14 60 -14 170z" />
    <glyph glyph-name="asciitilde" unicode="~" 
d="M1057 891l284 -76h-4q-12 -84 -49 -141q-35 -55 -90 -94q-51 -37 -111 -52q-62 -16 -114 -16q-71 0 -133 18q-54 16 -117 43q-78 34 -102 43q-49 19 -86 19q-43 0 -70 -12t-43 -31q-14 -17 -21 -41q-6 -21 -6 -41l-280 76q12 84 49 141q35 55 90 94q49 35 111 51
q66 17 114 17q67 0 135 -19q55 -15 119 -43q69 -30 103 -43q46 -18 86 -18q43 0 67 12q26 13 41 31q14 17 21 41q6 21 6 41z" />
    <glyph glyph-name="uni00A0" unicode="&#xa0;" horiz-adv-x="512" 
 />
    <glyph glyph-name="exclamdown" unicode="&#xa1;" horiz-adv-x="663" 
d="M160 1434h344v-322h-344v322zM160 993h344v-993h-344v993z" />
    <glyph glyph-name="cent" unicode="&#xa2;" horiz-adv-x="1191" 
d="M838 580l301 -82l-6 -2q-46 -123 -148 -211q-103 -89 -233 -119v-195h-275v197q-85 20 -162 72q-73 50 -129 120q-55 70 -86 158q-30 86 -30 189t30 188q31 88 86 158q57 73 129 121q74 50 164 71v219h275v-217q119 -26 221 -108q95 -77 149 -193l-301 -78q-37 50 -82 72
q-52 25 -118 25q-110 0 -172 -68t-62 -190q0 -123 62 -191q61 -67 172 -67q151 0 215 131z" />
    <glyph glyph-name="sterling" unicode="&#xa3;" horiz-adv-x="1331" 
d="M559 313l2 -2l-6 -10q3 0 86 6t225 6h381v-319h-1093v319q38 8 69 25q30 17 41 39q14 29 17 59q3 34 0 80l-2 31h-123v268h96l-16 172q-10 100 26 178q38 84 105 148t157 102t189 41q61 3 147 -16q83 -18 160 -68q78 -51 141 -125q65 -78 92 -190l-288 -80
q-27 85 -86 135q-57 48 -144 45q-83 -3 -123 -61q-37 -53 -30 -133l14 -140h385v-268h-360l2 -20q8 -78 -11 -138q-18 -57 -53 -84z" />
    <glyph glyph-name="currency" unicode="&#xa4;" horiz-adv-x="1372" 
d="M993 1155l140 139l170 -170l-142 -141q86 -133 86 -295q0 -88 -24 -164q-24 -75 -68 -141l135 -135l-168 -168l-137 137q-60 -38 -141 -63q-80 -25 -160 -25q-162 0 -295 86l-135 -135l-168 168l133 133q-42 65 -67 145t-25 164q0 78 23 158q22 77 61 139l-139 139
l168 168l139 -139q133 92 301 92q86 0 166 -24q78 -24 147 -68zM684 954v-4q-52 0 -98 -18q-47 -18 -80 -51q-34 -34 -55 -80q-21 -47 -21 -105q0 -57 21 -104q21 -46 55 -80q33 -33 80 -51q49 -19 98 -19t98 19q44 17 80 53t56 80t20 104q0 61 -20 105t-56 80t-80 53
q-46 18 -98 18z" />
    <glyph glyph-name="yen" unicode="&#xa5;" horiz-adv-x="1478" 
d="M1460 1434l-319 -465h174v-221h-330l-43 -62h373v-221h-408v-465h-342v465h-405v221h370l-43 62h-327v221h176l-320 465h385l261 -383q32 -49 51 -74q23 -29 24 -29h2q2 0 25 29q19 25 51 74l260 383h385z" />
    <glyph glyph-name="brokenbar" unicode="&#xa6;" horiz-adv-x="589" 
d="M160 1587h270v-573h-270v573zM160 442h270v-592h-270v592z" />
    <glyph glyph-name="section" unicode="&#xa7;" horiz-adv-x="1091" 
d="M1010 1196l-275 -74l-6 2q-21 68 -84 99q-61 30 -129 30q-62 0 -98 -22q-35 -21 -35 -53q0 -30 23 -50q21 -18 59 -30q54 -17 86 -25q76 -18 104 -26q53 -16 133 -50q70 -29 117 -63q56 -40 84 -86q31 -51 31 -113q0 -78 -43 -127q-42 -48 -121 -76q80 -42 127 -98
q49 -58 49 -141q0 -70 -35 -129q-33 -57 -96 -101q-62 -44 -151 -65q-92 -25 -197 -25q-191 0 -326 78q-129 78 -192 219l278 74q25 -53 90 -106q62 -50 160 -50q83 0 121 27q37 27 37 64q0 31 -25 53q-26 23 -67 37q-46 16 -101 30q-35 9 -125 37q-21 7 -61 22t-51 19
q-60 21 -105 55q-47 35 -73 80q-29 50 -29 115q0 69 43 121t119 86q-68 36 -109 86q-43 52 -43 137q0 57 35 113q34 55 92 98q60 44 141 68q82 24 183 24q90 0 160 -20q72 -20 135 -56q60 -33 104 -84q47 -53 66 -104zM373 748l-6 -3q0 -30 22 -49t57 -30q54 -17 84 -25
q46 -12 99 -27q49 9 78 35q28 25 28 68q0 30 -18 51q-20 24 -51 37q-36 16 -76 24q-17 3 -49 11.5t-43 11.5q-54 -9 -90 -37q-35 -27 -35 -67z" />
    <glyph glyph-name="dieresis" unicode="&#xa8;" horiz-adv-x="911" 
d="M143 1571v-2q-65 0 -108 43q-41 41 -41 106q0 68 41 109q43 43 108 43q64 0 107 -43t43 -107q0 -63 -43 -106t-107 -43zM696 1573l-2 -2q-65 0 -108 43t-43 106q0 66 43 109t108 43q66 0 109 -43t43 -107q0 -63 -43 -106t-107 -43z" />
    <glyph glyph-name="copyright" unicode="&#xa9;" horiz-adv-x="1632" 
d="M803 1456l-6 -4q154 0 288 -55q138 -57 238 -154q103 -100 160 -235q59 -139 59 -301q0 -167 -57 -301q-58 -137 -160 -236q-100 -97 -238 -154q-136 -53 -288 -53q-153 0 -289 53q-134 55 -236 154q-99 96 -159 238q-58 137 -58 301q0 159 60 301q60 140 159 237
q100 97 238 154q134 55 289 55zM807 1223h-4q-110 0 -197 -37q-88 -38 -153 -105q-63 -66 -101 -161q-37 -93 -37 -209q0 -113 37 -203q37 -91 103 -160q63 -66 153 -104q87 -37 197 -37q109 0 199 37q95 39 157 104q66 69 103 160q36 88 36 203q0 118 -36 209t-103 161
q-65 68 -155 105t-199 37zM946 641l193 -53l-9 -6q-16 -42 -49 -86q-31 -42 -73 -68q-47 -29 -93 -43t-104 -14q-72 0 -131 26q-62 27 -109 74q-46 46 -73 111q-27 64 -27 137q0 68 29 137q27 65 73 111q45 45 109 73q62 27 133 27q107 0 189 -55q81 -55 122 -144l-192 -51
q-22 28 -49 43q-25 14 -68 14q-64 0 -104 -40q-39 -39 -39 -115q0 -71 39 -113q40 -43 104 -43q88 0 129 78z" />
    <glyph glyph-name="ordfeminine" unicode="&#xaa;" horiz-adv-x="753" 
d="M276 874l-30 -106h-205l240 682h190l242 -682h-209l-31 106h-197zM377 1262h-2q-4 0 -13 -54q-9 -52 -30 -129l-15 -49h111l-14 49q-24 89 -29 129q-6 54 -8 54zM41 436v205h672v-205h-672z" />
    <glyph glyph-name="guillemotleft" unicode="&#xab;" horiz-adv-x="1624" 
d="M795 721l483 479l184 -186l-307 -293l309 -293l-188 -188zM160 721l483 479l184 -186l-307 -293l309 -293l-188 -188z" />
    <glyph glyph-name="uni00AD" unicode="&#xad;" horiz-adv-x="1247" 
d="M160 866h927v-280h-927v280z" />
    <glyph glyph-name="registered" unicode="&#xae;" horiz-adv-x="1632" 
d="M811 1460l-6 -4q155 0 289 -55q136 -56 237 -154q103 -100 160 -235q59 -139 59 -301q0 -167 -57 -301q-58 -137 -160 -236q-101 -98 -237 -154q-136 -53 -289 -53t-289 53q-132 54 -235 154q-100 97 -160 238q-57 134 -57 301q0 162 59 301t160 237t237 154
q134 55 289 55zM815 207h-4q109 0 199 37q95 39 157 104q66 69 103 160q37 90 37 203q0 116 -37 209q-36 91 -103 161q-65 68 -155 105t-199 37q-110 0 -197 -37q-88 -38 -153 -105q-63 -66 -101 -161q-36 -91 -36 -209q0 -115 36 -203q37 -91 103 -160q63 -66 153 -104
q87 -37 197 -37zM565 1057h254q130 0 201 -62q72 -63 72 -166q0 -65 -31 -116q-30 -49 -88 -76l155 -260h-196l-125 229h-57v-229h-185v680zM750 891v-133l94 -2q32 0 49 20q18 21 18 45q0 26 -18 47q-20 23 -49 23h-94z" />
    <glyph glyph-name="macron" unicode="&#xaf;" horiz-adv-x="679" 
d="M-47 1628h709v-264h-709v264z" />
    <glyph glyph-name="degree" unicode="&#xb0;" horiz-adv-x="690" 
d="M346 1161h-4q-61 0 -119 25q-55 24 -98 67q-44 44 -68 99q-24 56 -24 118q0 64 24 119t68 99q43 43 98 67q58 25 121 25t121 -25q56 -24 96 -67q43 -47 66 -99q24 -55 24 -119q0 -62 -24 -118q-23 -52 -66 -99q-40 -43 -96 -67q-58 -25 -119 -25zM346 1362q47 0 80 33
t33 75q0 47 -33 80t-80 33q-43 0 -76 -33q-32 -32 -32 -80q0 -43 32 -75q33 -33 76 -33z" />
    <glyph glyph-name="plusminus" unicode="&#xb1;" 
d="M864 866h316v-280h-314v-187h-299v187h-315v280h313v330h299v-330zM252 -16v278h928v-278h-928z" />
    <glyph glyph-name="uni00B2" unicode="&#xb2;" horiz-adv-x="696" 
d="M330 1149l2 -2l-17 -6q9 0 64 8t158 8h90v-190h-594v143l250 215q34 29 94 84q39 36 39 90q0 33 -25 55q-24 21 -57 21q-31 0 -49 -12q-19 -12 -31 -31q-11 -17 -18 -37l-11 -33l-192 51q9 44 37 93q28 48 67 84q40 37 92 61q55 25 117 25q64 0 119 -21t94 -57
q42 -39 62 -86q22 -52 22 -107q0 -74 -37 -129q-38 -56 -84 -96q-32 -32 -80 -63q-12 -7 -39.5 -24t-40.5 -24q-32 -17 -32 -20z" />
    <glyph glyph-name="uni00B3" unicode="&#xb3;" horiz-adv-x="716" 
d="M236 1499l-183 49l-4 -10q21 106 105 172q82 64 202 64q136 0 213 -68q78 -69 78 -168q0 -38 -16 -70q-15 -30 -39 -51q-26 -23 -51 -31q-30 -10 -49 -10v-2q31 0 61 -12q32 -13 55 -33q28 -24 41 -51q17 -34 17 -72q0 -51 -23 -102q-21 -46 -61 -80q-41 -35 -97 -53
q-59 -19 -120 -19q-56 0 -111 19q-50 17 -96 49q-44 30 -74 74t-39 92l186 51q9 -46 41 -72q30 -24 93 -24q41 0 69 22q27 21 27 56q0 38 -29 61q-30 23 -74 23h-71v151h71q36 0 62 23q24 21 24 53q0 28 -24 49q-23 20 -60 20q-48 0 -77 -20q-32 -23 -47 -80z" />
    <glyph glyph-name="acute" unicode="&#xb4;" horiz-adv-x="657" 
d="M481 1931l117 -231l-508 -211l-96 180z" />
    <glyph glyph-name="paragraph" unicode="&#xb6;" horiz-adv-x="1685" 
d="M594 1434h932v-1436h-344v1108h-172v-1108h-324v571h-92q-250 0 -387 113t-137 319q0 207 137 320t387 113z" />
    <glyph glyph-name="periodcentered" unicode="&#xb7;" horiz-adv-x="567" 
d="M285 569q-68 0 -115 47t-47 115q0 64 47 111t115 47q63 0 110 -47t47 -111q0 -68 -47 -115t-110 -47z" />
    <glyph glyph-name="cedilla" unicode="&#xb8;" horiz-adv-x="550" 
d="M311 0l-43 -113v-4q46 0 84 -14q41 -15 72 -43t49 -68q19 -43 19 -92q0 -60 -21 -104q-21 -43 -55 -70t-78 -39q-43 -12 -92 -12h-252l67 178h185q36 0 47 14q12 15 12 33q0 22 -16 35q-13 11 -43 14h-219l98 285h186z" />
    <glyph glyph-name="uni00B9" unicode="&#xb9;" horiz-adv-x="542" 
d="M326 1765h155l-2 -796h-219v364q0 59 6 105t6 49h-2q-2 0 -18 -25q-12 -19 -53 -57l-41 -37l-138 121z" />
    <glyph glyph-name="ordmasculine" unicode="&#xba;" horiz-adv-x="743" 
d="M20 1106h-4q0 72 29 141q27 64 74 111q48 48 110 74t138 26q75 0 137 -26q60 -25 112 -74q49 -46 76 -111q29 -69 29 -141q0 -76 -27 -141t-76 -111q-52 -49 -112 -74q-62 -26 -137 -26q-76 0 -138 26t-110 74q-47 47 -74 111q-27 65 -27 141zM225 1106q0 -67 41 -111
q40 -43 105 -43q64 0 104 43q41 44 41 111q0 69 -41 113q-40 43 -104 43q-65 0 -105 -43q-41 -44 -41 -113zM41 641h661v-205h-661v205z" />
    <glyph glyph-name="guillemotright" unicode="&#xbb;" horiz-adv-x="1624" 
d="M346 1200l483 -479l-481 -481l-188 188l309 293l-307 293zM981 1200l483 -479l-481 -481l-188 188l309 293l-307 293z" />
    <glyph glyph-name="onequarter" unicode="&#xbc;" horiz-adv-x="1525" 
d="M201 1069l-41 -37l-140 117l306 276h155v-792h-219v364q0 59 6 105t6 49h-2q-2 0 -18 -25q-12 -19 -53 -57zM1163 1430h221l-1028 -1432h-221zM1477 311v-180h-84v-133h-195v133h-387v150l414 507h168v-477h84zM1116 311h80l2 111v47v29h-2q-2 0 -12 -13q-9 -12 -25 -28
l-94 -109l-1 -1l-1 -1l-1 -1l-1 -1l-1 -1v-1l-1 -1l-1 -1l-32 -35l2 -2q1 0 4.5 0.5l10.5 1.5l14 2q32 4 59 4z" />
    <glyph glyph-name="onehalf" unicode="&#xbd;" horiz-adv-x="1587" 
d="M309 1427h156l-2 -796h-219v364q0 59 6 105t6 49h-2q-2 0 -18 -25q-11 -17 -54 -57l-41 -37l-137 121zM117 -4l1028 1431h221l-1028 -1431h-221zM1221 176l2 -2l-17 -6q9 0 64 8t157 8h91v-188h-594v141l250 215q34 29 94 84q39 36 39 90q0 34 -25 56q-23 20 -57 20
q-31 0 -49 -12q-19 -12 -31 -31q-13 -20 -19 -37q-8 -26 -10 -33l-192 52q8 42 37 92q28 48 67 84q40 37 92 61q55 25 117 25q64 0 119 -21t94 -57q40 -37 61 -86q23 -54 23 -107q0 -74 -37 -129t-84 -96q-32 -32 -80 -63q-9 -5 -38 -22.5t-42 -24.5q-32 -17 -32 -21z" />
    <glyph glyph-name="threequarters" unicode="&#xbe;" horiz-adv-x="1648" 
d="M496 1044v-2l-4 -10q31 0 61 -12q32 -13 55 -33q28 -24 41 -51q17 -34 17 -72q0 -51 -23 -102q-21 -46 -61 -80q-41 -35 -97 -53q-59 -19 -120 -19q-56 0 -111 19q-50 17 -96 49q-44 30 -74 74t-39 92l186 51q9 -46 41 -72q30 -24 93 -24q41 0 69 22q27 21 27 56
q0 38 -29 61q-30 23 -74 23h-71v151h71q36 0 62 23q24 21 24 53q0 28 -24 49q-23 20 -60 20q-48 0 -77 -20q-32 -23 -47 -80l-183 49q21 106 105 172q82 64 202 64q136 0 213 -68q78 -69 78 -168q0 -37 -16 -69t-39 -52q-24 -21 -51 -30q-33 -11 -49 -11zM1286 1430h221
l-1028 -1432h-221zM1599 311v-180h-83v-133h-195v133h-387v150l414 507h168v-477h83zM1239 311h80l2 111v47v29h-2q-2 0 -12 -13q-9 -12 -25 -28l-94 -109l-1 -1l-1 -1l-1 -1l-1 -1l-1 -1v-1l-1 -1l-1 -1l-32 -35l2 -2q1 0 4.5 0.5l10.5 1.5l14 2q32 4 59 4z" />
    <glyph glyph-name="questiondown" unicode="&#xbf;" horiz-adv-x="1208" 
d="M782 1425v-321h-344v321h344zM786 993v-266l-4 -8q-112 -66 -166 -101q-82 -53 -110 -75q-45 -36 -62 -64q-18 -30 -18 -67q0 -20 10 -47q9 -25 29 -48q18 -21 53 -36q34 -15 82 -15q99 0 154 43q56 44 90 142l289 -80q-21 -90 -72 -166q-52 -77 -119 -127
q-74 -55 -162 -78q-98 -29 -196 -29q-119 0 -217 31q-95 34 -162 90q-65 54 -101 133q-34 75 -34 166q0 93 30 160t82 119q49 49 119 94q67 44 141 84v145h344z" />
    <glyph glyph-name="Agrave" unicode="&#xc0;" horiz-adv-x="1472" 
d="M938 1667l-98 -180l-508 211l117 231zM1098 0l-82 223h-567l-82 -223h-369l571 1432h326l573 -1432h-370zM563 526h346l-106 277q-18 45 -25 67q-5 15 -12 39t-8 29q-3 10 -9 28t-8 25l-6 23h-2l-6 -21q-2 -8 -8 -27.5t-8 -25.5q-11 -38 -21 -68q-11 -35 -24 -67z" />
    <glyph glyph-name="Aacute" unicode="&#xc1;" horiz-adv-x="1472" 
d="M1081 1698l-508 -211l-98 180l490 262zM1098 0l-82 223h-567l-82 -223h-369l571 1432h326l573 -1432h-370zM563 526h346l-106 277q-18 45 -25 67q-5 15 -12 39t-8 29q-3 10 -9 28t-8 25l-6 23h-2l-6 -21q-2 -8 -8 -27.5t-8 -25.5q-11 -38 -21 -68q-11 -35 -24 -67z" />
    <glyph glyph-name="Acircumflex" unicode="&#xc2;" horiz-adv-x="1472" 
d="M723 1681l-238 -196l-166 168l404 342l401 -342l-163 -168zM1098 0l-82 223h-567l-82 -223h-369l571 1432h326l573 -1432h-370zM563 526h346l-106 277q-18 45 -25 67q-5 15 -12 39t-8 29q-3 10 -9 28t-8 25l-6 23h-2l-6 -21q-2 -8 -8 -27.5t-8 -25.5q-11 -38 -21 -68
q-11 -35 -24 -67z" />
    <glyph glyph-name="Atilde" unicode="&#xc3;" horiz-adv-x="1472" 
d="M967 1833h266l2 -2q0 -68 -25 -129q-23 -56 -67 -100t-103 -68q-61 -25 -129 -25q-54 0 -100 19q-36 15 -80 43q-59 38 -69 43q-35 18 -68 18q-42 0 -66 -24t-24 -64h-266q0 70 24 129t68 103q43 43 102 67q61 25 129 25q57 0 103 -19q33 -14 79 -43q55 -35 68 -43
q30 -18 66 -18q41 0 65 24q25 25 25 64zM1098 0l-82 223h-567l-82 -223h-369l571 1432h326l573 -1432h-370zM563 526h346l-106 277q-18 45 -25 67q-5 15 -12 39t-8 29q-3 10 -9 28t-8 25l-6 23h-2l-6 -21q-2 -8 -8 -27.5t-8 -25.5q-11 -38 -21 -68q-11 -35 -24 -67z" />
    <glyph glyph-name="Adieresis" unicode="&#xc4;" horiz-adv-x="1472" 
d="M446 1569v-2q-65 0 -108 43t-43 106q0 66 43 109t108 43q64 0 107 -43t43 -107q0 -63 -43 -106t-107 -43zM999 1571l-2 -2q-65 0 -108 43t-43 106q0 66 43 109t108 43q66 0 109 -43t43 -107q0 -63 -43 -106t-107 -43zM1098 0l-82 223h-567l-82 -223h-369l571 1432h326
l573 -1432h-370zM563 526h346l-106 277q-18 45 -25 67q-5 15 -12 39t-8 29q-3 10 -9 28t-8 25l-6 23h-2l-6 -21q-2 -8 -8 -27.5t-8 -25.5q-11 -38 -21 -68q-11 -35 -24 -67z" />
    <glyph glyph-name="Aring" unicode="&#xc5;" horiz-adv-x="1472" 
d="M1098 0l-82 223l-572 -2l-82 -223h-368l571 1432q-63 39 -104 108q-41 68 -41 152q0 62 24 118q24 55 68 99q43 43 98 67q58 25 121 25t121 -25q56 -24 96 -67q43 -47 66 -99q24 -56 24 -118q0 -85 -39 -150q-41 -69 -104 -108l573 -1432h-370zM731 1806q-44 0 -76 -32
t-32 -80q0 -44 32 -76q33 -33 76 -33q47 0 80 33t33 76q0 47 -33 80q-32 32 -80 32zM563 526h346l-106 277q-18 45 -25 67q-5 15 -12 39t-8 29q-3 10 -9 28t-8 25l-6 23h-2l-6 -21q-2 -8 -8 -27.5t-8 -25.5q-11 -38 -21 -68q-11 -35 -24 -67z" />
    <glyph glyph-name="AE" unicode="&#xc6;" horiz-adv-x="2097" 
d="M1241 322h711v-322h-1045v225h-454l-82 -225h-371l573 1434h1366v-322h-698v-235h547v-302h-547v-253zM909 526v586h-139l-10 -31q-3 -10 -12.5 -34.5t-14.5 -40.5q-5 -15 -17 -48.5t-18 -52.5t-17.5 -52t-16.5 -48l-101 -279h346z" />
    <glyph glyph-name="Ccedilla" unicode="&#xc7;" horiz-adv-x="1544" 
d="M1143 483l348 -90l-4 -10q-62 -159 -240 -289q-151 -110 -360 -129l-33 -90q46 0 84 -14q41 -15 72 -43t49 -68t18 -92q0 -63 -20 -104q-20 -42 -56 -70q-35 -27 -77 -39q-44 -12 -93 -12h-253l69 178h184q37 0 48 14q12 15 12 33q0 21 -17 35q-13 11 -43 14h-219l90 266
q-137 18 -251 78q-115 60 -203 158q-85 94 -135 221t-50 275q0 159 60 301q59 139 160 237t237 154q134 55 289 55q106 0 205 -27q101 -27 180 -75q89 -54 152 -119q68 -71 114 -156l-350 -92q-49 61 -131 98q-81 37 -168 37t-160 -31q-71 -30 -121 -83q-46 -49 -75 -127
q-27 -73 -27 -162q0 -87 29 -166q27 -74 80 -127q54 -54 122 -80q70 -27 154 -27q106 0 195 47q88 46 135 121z" />
    <glyph glyph-name="Egrave" unicode="&#xc8;" horiz-adv-x="1357" 
d="M920 1669l-99 -180l-508 211l117 231zM504 322h710v-322h-1054v1434h1042v-322h-698v-235h547v-302h-547v-253z" />
    <glyph glyph-name="Eacute" unicode="&#xc9;" horiz-adv-x="1357" 
d="M1063 1700l-508 -211l-98 180l489 262zM504 322h710v-322h-1054v1434h1042v-322h-698v-235h547v-302h-547v-253z" />
    <glyph glyph-name="Ecircumflex" unicode="&#xca;" horiz-adv-x="1357" 
d="M705 1683l-238 -196l-166 168l404 342l401 -342l-164 -168zM504 322h710v-322h-1054v1434h1042v-322h-698v-235h547v-302h-547v-253z" />
    <glyph glyph-name="Edieresis" unicode="&#xcb;" horiz-adv-x="1357" 
d="M428 1571v-2q-66 0 -109 43t-43 106q0 66 43 109t109 43q64 0 107 -43t43 -107q0 -63 -43 -106t-107 -43zM981 1573l-2 -2q-66 0 -109 43t-43 106q0 66 43 109t109 43q65 0 108 -43t43 -107q0 -63 -43 -106t-106 -43zM504 322h710v-322h-1054v1434h1042v-322h-698v-235
h547v-302h-547v-253z" />
    <glyph glyph-name="Igrave" unicode="&#xcc;" horiz-adv-x="663" 
d="M440 1489l-506 211l115 231l490 -262zM504 0h-344v1434h344v-1434z" />
    <glyph glyph-name="Iacute" unicode="&#xcd;" horiz-adv-x="663" 
d="M565 1931l117 -231l-508 -211l-98 180zM504 0h-344v1434h344v-1434z" />
    <glyph glyph-name="Icircumflex" unicode="&#xce;" horiz-adv-x="663" 
d="M-78 1655l402 342l401 -342l-164 -168l-237 196l-238 -196zM504 0h-344v1434h344v-1434z" />
    <glyph glyph-name="Idieresis" unicode="&#xcf;" horiz-adv-x="663" 
d="M47 1571v-2q-63 0 -106 43t-43 106q0 66 43 109t106 43q64 0 107 -43t43 -107q0 -63 -43 -106t-107 -43zM600 1573l-2 -2q-66 0 -109 43t-43 106q0 66 43 109t109 43t109 -43t43 -107q0 -63 -43 -106t-107 -43zM504 0h-344v1434h344v-1434z" />
    <glyph glyph-name="Eth" unicode="&#xd0;" horiz-adv-x="1628" 
d="M188 1432h627l-2 -5q158 0 289 -51q132 -51 235 -147q100 -93 160 -228q59 -133 59 -294q0 -166 -57 -295q-59 -134 -160 -224q-103 -93 -235 -141q-128 -47 -289 -47h-627v567h-116v310h116v555zM532 322h283v-3q77 0 148 27q70 27 122 76q55 52 84 123q31 76 31 166
t-31 166q-30 73 -84 127q-52 52 -122 79q-76 29 -148 29h-283v-233h220v-310h-220v-247z" />
    <glyph glyph-name="Ntilde" unicode="&#xd1;" horiz-adv-x="1605" 
d="M1038 1827h267l2 -2q0 -68 -25 -129q-23 -56 -68 -101q-43 -43 -102 -67q-61 -25 -129 -25q-54 0 -100 19q-36 15 -80 43q-55 35 -70 43q-35 18 -67 18q-42 0 -66 -24q-25 -25 -25 -64h-266q0 68 25 129q24 59 67 102q44 44 103 68q61 25 129 25q56 0 102 -19
q36 -15 80 -43q55 -35 68 -43q30 -18 65 -18q42 0 66 24t24 64zM1102 1434h344v-1440h-324l-293 397q-14 19 -104 148q-75 108 -104 147q-17 23 -44 61.5t-38 53.5l-33 45h-2v-39v-111v-168v-215v-315h-344v1432h323l305 -410q27 -36 86 -119q13 -19 49 -68t54 -75
q53 -75 86 -119l37 -49h2v45v117v163v191v328z" />
    <glyph glyph-name="Ograve" unicode="&#xd2;" horiz-adv-x="1632" 
d="M924 1481l-508 211l116 231l490 -262zM68 713l-7 -4q0 159 60 301q59 139 160 237t237 154q134 55 289 55t289 -55q136 -56 237 -154q103 -100 160 -235q59 -139 59 -301q0 -167 -57 -301q-58 -137 -160 -236q-101 -98 -237 -154q-136 -53 -289 -53t-289 53
q-132 54 -235 154q-100 97 -160 238q-57 134 -57 301zM430 717l-4 -4q0 -85 29 -164q27 -74 77 -127q48 -51 121 -82t158 -31q87 0 160 31q68 29 123 84q53 53 80 127q28 76 28 164q0 93 -26 164q-27 74 -80 127q-55 55 -123 84q-71 30 -160 30q-87 0 -158 -30t-120 -82
q-51 -54 -78 -127t-27 -164z" />
    <glyph glyph-name="Oacute" unicode="&#xd3;" horiz-adv-x="1632" 
d="M1049 1923l116 -231l-508 -211l-98 180zM68 713l-7 -4q0 159 60 301q59 139 160 237t237 154q134 55 289 55t289 -55q136 -56 237 -154q103 -100 160 -235q59 -139 59 -301q0 -167 -57 -301q-58 -137 -160 -236q-101 -98 -237 -154q-136 -53 -289 -53t-289 53
q-132 54 -235 154q-100 97 -160 238q-57 134 -57 301zM430 717l-4 -4q0 -85 29 -164q27 -74 77 -127q48 -51 121 -82t158 -31q87 0 160 31q68 29 123 84q53 53 80 127q28 76 28 164q0 93 -26 164q-27 74 -80 127q-55 55 -123 84q-71 30 -160 30q-87 0 -158 -30t-120 -82
q-51 -54 -78 -127t-27 -164z" />
    <glyph glyph-name="Ocircumflex" unicode="&#xd4;" horiz-adv-x="1632" 
d="M403 1647l404 342l401 -342l-164 -168l-237 196l-238 -196zM68 713l-7 -4q0 159 60 301q59 139 160 237t237 154q134 55 289 55t289 -55q136 -56 237 -154q103 -100 160 -235q59 -139 59 -301q0 -167 -57 -301q-58 -137 -160 -236q-101 -98 -237 -154q-136 -53 -289 -53
t-289 53q-132 54 -235 154q-100 97 -160 238q-57 134 -57 301zM430 717l-4 -4q0 -85 29 -164q27 -74 77 -127q48 -51 121 -82t158 -31q87 0 160 31q68 29 123 84q53 53 80 127q28 76 28 164q0 93 -26 164q-27 74 -80 127q-55 55 -123 84q-71 30 -160 30q-87 0 -158 -30
t-120 -82q-51 -54 -78 -127t-27 -164z" />
    <glyph glyph-name="Otilde" unicode="&#xd5;" horiz-adv-x="1632" 
d="M1051 1827h266l2 -2q0 -68 -25 -129q-24 -58 -67 -101q-42 -42 -103 -67t-129 -25q-54 0 -100 19q-36 15 -80 43q-55 35 -70 43q-35 18 -67 18q-42 0 -66 -24t-24 -64h-266q0 70 24 129q24 58 68 102t102 68q61 25 129 25q57 0 103 -19q33 -14 79 -43q55 -35 68 -43
q30 -18 66 -18q41 0 65 24q25 25 25 64zM68 713l-7 -4q0 159 60 301q59 139 160 237t237 154q134 55 289 55t289 -55q136 -56 237 -154q103 -100 160 -235q59 -139 59 -301q0 -167 -57 -301q-58 -137 -160 -236q-101 -98 -237 -154q-136 -53 -289 -53t-289 53
q-132 54 -235 154q-100 97 -160 238q-57 134 -57 301zM430 717l-4 -4q0 -85 29 -164q27 -74 77 -127q48 -51 121 -82t158 -31q87 0 160 31q68 29 123 84q53 53 80 127q28 76 28 164q0 93 -26 164q-27 74 -80 127q-55 55 -123 84q-71 30 -160 30q-87 0 -158 -30t-120 -82
q-51 -54 -78 -127t-27 -164z" />
    <glyph glyph-name="Odieresis" unicode="&#xd6;" horiz-adv-x="1632" 
d="M530 1563v-2q-65 0 -108 43t-43 106q0 66 43 109t108 43q64 0 107 -43t43 -107q0 -63 -43 -106t-107 -43zM1083 1565l-2 -2q-65 0 -108 43t-43 106q0 66 43 109t108 43q66 0 109 -43t43 -107q0 -63 -43 -106t-107 -43zM68 713l-7 -4q0 159 60 301q59 139 160 237t237 154
q134 55 289 55t289 -55q136 -56 237 -154q103 -100 160 -235q59 -139 59 -301q0 -167 -57 -301q-58 -137 -160 -236q-101 -98 -237 -154q-136 -53 -289 -53t-289 53q-132 54 -235 154q-100 97 -160 238q-57 134 -57 301zM430 717l-4 -4q0 -85 29 -164q27 -74 77 -127
q48 -51 121 -82t158 -31q87 0 160 31q68 29 123 84q53 53 80 127q28 76 28 164q0 93 -26 164q-27 74 -80 127q-55 55 -123 84q-71 30 -160 30q-87 0 -158 -30t-120 -82q-51 -54 -78 -127t-27 -164z" />
    <glyph glyph-name="multiply" unicode="&#xd7;" 
d="M952 1182l230 -230l-238 -237l236 -238l-230 -229l-235 237l-234 -233l-229 229l233 234l-235 233l229 230l236 -234z" />
    <glyph glyph-name="Oslash" unicode="&#xd8;" horiz-adv-x="1632" 
d="M1458 1303l-78 -101l-8 -4q83 -100 129 -221q47 -124 47 -266q0 -167 -57 -301q-58 -137 -160 -236q-101 -98 -237 -154q-136 -53 -289 -53q-82 0 -166 19q-97 22 -152 49l-75 -96l-244 182l76 98q-88 102 -133 221q-48 127 -48 271q0 159 60 301q59 139 160 237t237 154
q134 55 289 55q89 0 172 -18q80 -18 158 -54l75 99zM471 514l455 594l-2 -2q-46 14 -115 14q-87 0 -158 -30q-73 -31 -121 -82q-50 -53 -77 -127q-27 -73 -27 -164q0 -117 45 -203zM1163 911l-450 -587h-4q54 -13 102 -13q87 0 160 31q68 29 123 84q53 53 80 127
q28 76 28 164q0 109 -39 194z" />
    <glyph glyph-name="Ugrave" unicode="&#xd9;" horiz-adv-x="1531" 
d="M874 1485l-507 211l116 231l490 -262zM1055 1434h344l-2 -801q0 -166 -45 -285q-47 -124 -129 -209q-83 -86 -199 -129q-118 -41 -258 -41q-142 0 -260 41q-116 43 -199 129q-82 85 -129 209q-45 119 -45 287v797h344v-789q0 -187 74 -270q73 -82 215 -82q140 0 215 84
q74 83 74 270v789z" />
    <glyph glyph-name="Uacute" unicode="&#xda;" horiz-adv-x="1531" 
d="M999 1927l117 -231l-508 -211l-98 180zM1055 1434h344l-2 -801q0 -166 -45 -285q-47 -124 -129 -209q-83 -86 -199 -129q-118 -41 -258 -41q-142 0 -260 41q-116 43 -199 129q-82 85 -129 209q-45 119 -45 287v797h344v-789q0 -187 74 -270q73 -82 215 -82q140 0 215 84
q74 83 74 270v789z" />
    <glyph glyph-name="Ucircumflex" unicode="&#xdb;" horiz-adv-x="1531" 
d="M354 1651l404 342l401 -342l-164 -168l-237 196l-238 -196zM1055 1434h344l-2 -801q0 -166 -45 -285q-47 -124 -129 -209q-83 -86 -199 -129q-118 -41 -258 -41q-142 0 -260 41q-116 43 -199 129q-82 85 -129 209q-45 119 -45 287v797h344v-789q0 -187 74 -270
q73 -82 215 -82q140 0 215 84q74 83 74 270v789z" />
    <glyph glyph-name="Udieresis" unicode="&#xdc;" horiz-adv-x="1531" 
d="M481 1567v-2q-65 0 -108 43t-43 106q0 66 43 109t108 43q64 0 107 -43t43 -107q0 -63 -43 -106t-107 -43zM1034 1569l-2 -2q-65 0 -108 43t-43 106q0 66 43 109t108 43q66 0 109 -43t43 -107q0 -63 -43 -106t-107 -43zM1055 1434h344l-2 -801q0 -166 -45 -285
q-47 -124 -129 -209q-83 -86 -199 -129q-118 -41 -258 -41q-142 0 -260 41q-116 43 -199 129q-82 85 -129 209q-45 119 -45 287v797h344v-789q0 -187 74 -270q73 -82 215 -82q140 0 215 84q74 83 74 270v789z" />
    <glyph glyph-name="Yacute" unicode="&#xdd;" horiz-adv-x="1480" 
d="M969 1931l116 -231l-507 -211l-99 180zM1075 1434h385l-553 -799v-635h-342v635l-549 799h385l261 -383q32 -49 51 -74q23 -29 24 -29h2q2 0 25 29q19 25 51 74z" />
    <glyph glyph-name="Thorn" unicode="&#xde;" horiz-adv-x="1331" 
d="M504 1204h207l-4 -4q125 0 229 -37t178 -102t115 -154q41 -90 41 -196q0 -112 -39 -197q-42 -92 -113 -154q-74 -65 -178 -102t-229 -37h-207v-223h-344v1432h344v-226zM504 547h215v-4q94 0 143 49t49 123t-49 123t-143 49h-215v-340z" />
    <glyph glyph-name="germandbls" unicode="&#xdf;" horiz-adv-x="1699" 
d="M160 1434h1331l-199 -385q-6 -12 -18.5 -34.5t-18.5 -33.5q-12 -23 -32 -63l-25 -50l-8 -18l2 -2h8q91 0 164 -33q78 -35 135 -92t92 -131q35 -75 35 -160q0 -94 -35 -178q-37 -87 -100 -148q-64 -61 -162 -100q-96 -35 -215 -35q-164 0 -297 76q-130 77 -201 201l326 88
q34 -37 72 -55q40 -19 86 -19q95 0 139 53q43 52 43 123q0 66 -49 115t-143 49h-234v248l59 127q4 8 12.5 24.5t12.5 24.5t11 22.5t10 20.5q3 7 8.5 17.5t7.5 13.5l6 14l-2 2q-16 0 -43 -2t-92 -2h-342v-1112h-344v1434z" />
    <glyph glyph-name="agrave" unicode="&#xe0;" horiz-adv-x="1472" 
d="M938 1667l-98 -180l-508 211l117 231zM1098 0l-82 223h-567l-82 -223h-369l571 1432h326l573 -1432h-370zM563 526h346l-106 277q-18 45 -25 67q-5 15 -12 39t-8 29q-3 10 -9 28t-8 25l-6 23h-2l-6 -21q-2 -8 -8 -27.5t-8 -25.5q-11 -38 -21 -68q-11 -35 -24 -67z" />
    <glyph glyph-name="aacute" unicode="&#xe1;" horiz-adv-x="1472" 
d="M1081 1698l-508 -211l-98 180l490 262zM1098 0l-82 223h-567l-82 -223h-369l571 1432h326l573 -1432h-370zM563 526h346l-106 277q-18 45 -25 67q-5 15 -12 39t-8 29q-3 10 -9 28t-8 25l-6 23h-2l-6 -21q-2 -8 -8 -27.5t-8 -25.5q-11 -38 -21 -68q-11 -35 -24 -67z" />
    <glyph glyph-name="acircumflex" unicode="&#xe2;" horiz-adv-x="1472" 
d="M723 1681l-238 -196l-166 168l404 342l401 -342l-163 -168zM1098 0l-82 223h-567l-82 -223h-369l571 1432h326l573 -1432h-370zM563 526h346l-106 277q-18 45 -25 67q-5 15 -12 39t-8 29q-3 10 -9 28t-8 25l-6 23h-2l-6 -21q-2 -8 -8 -27.5t-8 -25.5q-11 -38 -21 -68
q-11 -35 -24 -67z" />
    <glyph glyph-name="atilde" unicode="&#xe3;" horiz-adv-x="1472" 
d="M967 1833h266l2 -2q0 -68 -25 -129q-23 -56 -67 -100t-103 -68q-61 -25 -129 -25q-54 0 -100 19q-36 15 -80 43q-59 38 -69 43q-35 18 -68 18q-42 0 -66 -24t-24 -64h-266q0 70 24 129t68 103q43 43 102 67q61 25 129 25q57 0 103 -19q33 -14 79 -43q55 -35 68 -43
q30 -18 66 -18q41 0 65 24q25 25 25 64zM1098 0l-82 223h-567l-82 -223h-369l571 1432h326l573 -1432h-370zM563 526h346l-106 277q-18 45 -25 67q-5 15 -12 39t-8 29q-3 10 -9 28t-8 25l-6 23h-2l-6 -21q-2 -8 -8 -27.5t-8 -25.5q-11 -38 -21 -68q-11 -35 -24 -67z" />
    <glyph glyph-name="adieresis" unicode="&#xe4;" horiz-adv-x="1472" 
d="M446 1569v-2q-65 0 -108 43t-43 106q0 66 43 109t108 43q64 0 107 -43t43 -107q0 -63 -43 -106t-107 -43zM999 1571l-2 -2q-65 0 -108 43t-43 106q0 66 43 109t108 43q66 0 109 -43t43 -107q0 -63 -43 -106t-107 -43zM1098 0l-82 223h-567l-82 -223h-369l571 1432h326
l573 -1432h-370zM563 526h346l-106 277q-18 45 -25 67q-5 15 -12 39t-8 29q-3 10 -9 28t-8 25l-6 23h-2l-6 -21q-2 -8 -8 -27.5t-8 -25.5q-11 -38 -21 -68q-11 -35 -24 -67z" />
    <glyph glyph-name="aring" unicode="&#xe5;" horiz-adv-x="1472" 
d="M1098 0l-82 223l-572 -2l-82 -223h-368l571 1432q-63 39 -104 108q-41 68 -41 152q0 62 24 118q24 55 68 99q43 43 98 67q58 25 121 25t121 -25q56 -24 96 -67q43 -47 66 -99q24 -56 24 -118q0 -85 -39 -150q-41 -69 -104 -108l573 -1432h-370zM731 1806q-44 0 -76 -32
t-32 -80q0 -44 32 -76q33 -33 76 -33q47 0 80 33t33 76q0 47 -33 80q-32 32 -80 32zM563 526h346l-106 277q-18 45 -25 67q-5 15 -12 39t-8 29q-3 10 -9 28t-8 25l-6 23h-2l-6 -21q-2 -8 -8 -27.5t-8 -25.5q-11 -38 -21 -68q-11 -35 -24 -67z" />
    <glyph glyph-name="ae" unicode="&#xe6;" horiz-adv-x="2097" 
d="M1241 322h711v-322h-1045v225h-454l-82 -225h-371l573 1434h1366v-322h-698v-235h547v-302h-547v-253zM909 526v586h-139l-10 -31q-3 -10 -12.5 -34.5t-14.5 -40.5q-5 -15 -17 -48.5t-18 -52.5t-17.5 -52t-16.5 -48l-101 -279h346z" />
    <glyph glyph-name="ccedilla" unicode="&#xe7;" horiz-adv-x="1544" 
d="M1143 483l348 -90l-4 -10q-62 -159 -240 -289q-151 -110 -360 -129l-33 -90q46 0 84 -14q41 -15 72 -43t49 -68t18 -92q0 -63 -20 -104q-20 -42 -56 -70q-35 -27 -77 -39q-44 -12 -93 -12h-253l69 178h184q37 0 48 14q12 15 12 33q0 21 -17 35q-13 11 -43 14h-219l90 266
q-137 18 -251 78q-115 60 -203 158q-85 94 -135 221t-50 275q0 159 60 301q59 139 160 237t237 154q134 55 289 55q106 0 205 -27q101 -27 180 -75q89 -54 152 -119q68 -71 114 -156l-350 -92q-49 61 -131 98q-81 37 -168 37t-160 -31q-71 -30 -121 -83q-46 -49 -75 -127
q-27 -73 -27 -162q0 -87 29 -166q27 -74 80 -127q54 -54 122 -80q70 -27 154 -27q106 0 195 47q88 46 135 121z" />
    <glyph glyph-name="egrave" unicode="&#xe8;" horiz-adv-x="1357" 
d="M920 1669l-99 -180l-508 211l117 231zM504 322h710v-322h-1054v1434h1042v-322h-698v-235h547v-302h-547v-253z" />
    <glyph glyph-name="eacute" unicode="&#xe9;" horiz-adv-x="1357" 
d="M1063 1700l-508 -211l-98 180l489 262zM504 322h710v-322h-1054v1434h1042v-322h-698v-235h547v-302h-547v-253z" />
    <glyph glyph-name="ecircumflex" unicode="&#xea;" horiz-adv-x="1357" 
d="M705 1683l-238 -196l-166 168l404 342l401 -342l-164 -168zM504 322h710v-322h-1054v1434h1042v-322h-698v-235h547v-302h-547v-253z" />
    <glyph glyph-name="edieresis" unicode="&#xeb;" horiz-adv-x="1357" 
d="M428 1571v-2q-66 0 -109 43t-43 106q0 66 43 109t109 43q64 0 107 -43t43 -107q0 -63 -43 -106t-107 -43zM981 1573l-2 -2q-66 0 -109 43t-43 106q0 66 43 109t109 43q65 0 108 -43t43 -107q0 -63 -43 -106t-106 -43zM504 322h710v-322h-1054v1434h1042v-322h-698v-235
h547v-302h-547v-253z" />
    <glyph glyph-name="igrave" unicode="&#xec;" horiz-adv-x="663" 
d="M440 1489l-506 211l115 231l490 -262zM504 0h-344v1434h344v-1434z" />
    <glyph glyph-name="iacute" unicode="&#xed;" horiz-adv-x="663" 
d="M565 1931l117 -231l-508 -211l-98 180zM504 0h-344v1434h344v-1434z" />
    <glyph glyph-name="icircumflex" unicode="&#xee;" horiz-adv-x="663" 
d="M-78 1655l402 342l401 -342l-164 -168l-237 196l-238 -196zM504 0h-344v1434h344v-1434z" />
    <glyph glyph-name="idieresis" unicode="&#xef;" horiz-adv-x="663" 
d="M47 1571v-2q-63 0 -106 43t-43 106q0 66 43 109t106 43q64 0 107 -43t43 -107q0 -63 -43 -106t-107 -43zM600 1573l-2 -2q-66 0 -109 43t-43 106q0 66 43 109t109 43t109 -43t43 -107q0 -63 -43 -106t-107 -43zM504 0h-344v1434h344v-1434z" />
    <glyph glyph-name="eth" unicode="&#xf0;" horiz-adv-x="1628" 
d="M188 1432h627l-2 -5q158 0 289 -51q132 -51 235 -147q100 -93 160 -228q59 -133 59 -294q0 -166 -57 -295q-59 -134 -160 -224q-103 -93 -235 -141q-128 -47 -289 -47h-627v567h-116v310h116v555zM532 322h283v-3q77 0 148 27q70 27 122 76q55 52 84 123q31 76 31 166
t-31 166q-30 73 -84 127q-52 52 -122 79q-76 29 -148 29h-283v-233h220v-310h-220v-247z" />
    <glyph glyph-name="ntilde" unicode="&#xf1;" horiz-adv-x="1605" 
d="M1038 1827h267l2 -2q0 -68 -25 -129q-23 -56 -68 -101q-43 -43 -102 -67q-61 -25 -129 -25q-54 0 -100 19q-36 15 -80 43q-55 35 -70 43q-35 18 -67 18q-42 0 -66 -24q-25 -25 -25 -64h-266q0 68 25 129q24 59 67 102q44 44 103 68q61 25 129 25q56 0 102 -19
q36 -15 80 -43q55 -35 68 -43q30 -18 65 -18q42 0 66 24t24 64zM1102 1434h344v-1440h-324l-293 397q-14 19 -104 148q-75 108 -104 147q-17 23 -44 61.5t-38 53.5l-33 45h-2v-39v-111v-168v-215v-315h-344v1432h323l305 -410q27 -36 86 -119q13 -19 49 -68t54 -75
q53 -75 86 -119l37 -49h2v45v117v163v191v328z" />
    <glyph glyph-name="ograve" unicode="&#xf2;" horiz-adv-x="1632" 
d="M920 1481l-508 211l116 231l490 -262zM68 713l-7 -4q0 159 60 301q59 139 160 237t237 154q134 55 289 55t289 -55q136 -56 237 -154q103 -100 160 -235q59 -139 59 -301q0 -167 -57 -301q-58 -137 -160 -236q-101 -98 -237 -154q-136 -53 -289 -53t-289 53
q-132 54 -235 154q-100 97 -160 238q-57 134 -57 301zM430 717l-4 -4q0 -85 29 -164q27 -74 77 -127q48 -51 121 -82t158 -31q87 0 160 31q68 29 123 84q53 53 80 127q28 76 28 164q0 93 -26 164q-27 74 -80 127q-55 55 -123 84q-71 30 -160 30q-87 0 -158 -30t-120 -82
q-51 -54 -78 -127t-27 -164z" />
    <glyph glyph-name="oacute" unicode="&#xf3;" horiz-adv-x="1632" 
d="M1044 1923l117 -231l-508 -211l-98 180zM68 713l-7 -4q0 159 60 301q59 139 160 237t237 154q134 55 289 55t289 -55q136 -56 237 -154q103 -100 160 -235q59 -139 59 -301q0 -167 -57 -301q-58 -137 -160 -236q-101 -98 -237 -154q-136 -53 -289 -53t-289 53
q-132 54 -235 154q-100 97 -160 238q-57 134 -57 301zM430 717l-4 -4q0 -85 29 -164q27 -74 77 -127q48 -51 121 -82t158 -31q87 0 160 31q68 29 123 84q53 53 80 127q28 76 28 164q0 93 -26 164q-27 74 -80 127q-55 55 -123 84q-71 30 -160 30q-87 0 -158 -30t-120 -82
q-51 -54 -78 -127t-27 -164z" />
    <glyph glyph-name="ocircumflex" unicode="&#xf4;" horiz-adv-x="1632" 
d="M399 1647l404 342l401 -342l-164 -168l-237 196l-238 -196zM68 713l-7 -4q0 159 60 301q59 139 160 237t237 154q134 55 289 55t289 -55q136 -56 237 -154q103 -100 160 -235q59 -139 59 -301q0 -167 -57 -301q-58 -137 -160 -236q-101 -98 -237 -154q-136 -53 -289 -53
t-289 53q-132 54 -235 154q-100 97 -160 238q-57 134 -57 301zM430 717l-4 -4q0 -85 29 -164q27 -74 77 -127q48 -51 121 -82t158 -31q87 0 160 31q68 29 123 84q53 53 80 127q28 76 28 164q0 93 -26 164q-27 74 -80 127q-55 55 -123 84q-71 30 -160 30q-87 0 -158 -30
t-120 -82q-51 -54 -78 -127t-27 -164z" />
    <glyph glyph-name="otilde" unicode="&#xf5;" horiz-adv-x="1632" 
d="M1047 1827h266l2 -2q0 -68 -25 -129q-24 -58 -67 -101q-42 -42 -103 -67t-129 -25q-54 0 -100 19q-36 15 -80 43q-55 35 -70 43q-34 18 -67 18q-42 0 -66 -24t-24 -64h-267q0 68 25 129q24 58 68 102t102 68q61 25 129 25q56 0 102 -19q36 -15 80 -43q55 -35 68 -43
q30 -18 65 -18q42 0 66 24q25 25 25 64zM68 713l-7 -4q0 159 60 301q59 139 160 237t237 154q134 55 289 55t289 -55q136 -56 237 -154q103 -100 160 -235q59 -139 59 -301q0 -167 -57 -301q-58 -137 -160 -236q-101 -98 -237 -154q-136 -53 -289 -53t-289 53
q-132 54 -235 154q-100 97 -160 238q-57 134 -57 301zM430 717l-4 -4q0 -85 29 -164q27 -74 77 -127q48 -51 121 -82t158 -31q87 0 160 31q68 29 123 84q53 53 80 127q28 76 28 164q0 93 -26 164q-27 74 -80 127q-55 55 -123 84q-71 30 -160 30q-87 0 -158 -30t-120 -82
q-51 -54 -78 -127t-27 -164z" />
    <glyph glyph-name="odieresis" unicode="&#xf6;" horiz-adv-x="1632" 
d="M526 1563v-2q-65 0 -108 43t-43 106q0 66 43 109t108 43q64 0 107 -43t43 -107q0 -63 -43 -106t-107 -43zM1079 1565l-2 -2q-65 0 -108 43t-43 106q0 66 43 109t108 43q66 0 109 -43t43 -107q0 -63 -43 -106t-107 -43zM68 713l-7 -4q0 159 60 301q59 139 160 237t237 154
q134 55 289 55t289 -55q136 -56 237 -154q103 -100 160 -235q59 -139 59 -301q0 -167 -57 -301q-58 -137 -160 -236q-101 -98 -237 -154q-136 -53 -289 -53t-289 53q-132 54 -235 154q-100 97 -160 238q-57 134 -57 301zM430 717l-4 -4q0 -85 29 -164q27 -74 77 -127
q48 -51 121 -82t158 -31q87 0 160 31q68 29 123 84q53 53 80 127q28 76 28 164q0 93 -26 164q-27 74 -80 127q-55 55 -123 84q-71 30 -160 30q-87 0 -158 -30t-120 -82q-51 -54 -78 -127t-27 -164z" />
    <glyph glyph-name="divide" unicode="&#xf7;" 
d="M705 1026q-68 0 -115 47t-47 115q0 63 47 110q48 48 115 48q62 0 110 -48q47 -47 47 -110q0 -68 -47 -115t-110 -47zM252 866h928v-280h-928v280zM705 104q-67 0 -115 48q-47 47 -47 114q0 64 47 111t115 47q63 0 110 -47t47 -111q0 -67 -47 -114q-48 -48 -110 -48z" />
    <glyph glyph-name="oslash" unicode="&#xf8;" horiz-adv-x="1632" 
d="M1458 1303l-78 -101l-8 -4q83 -100 129 -221q47 -124 47 -266q0 -167 -57 -301q-58 -137 -160 -236q-101 -98 -237 -154q-136 -53 -289 -53q-82 0 -166 19q-97 22 -152 49l-75 -96l-244 182l76 98q-88 102 -133 221q-48 127 -48 271q0 159 60 301q59 139 160 237t237 154
q134 55 289 55q89 0 172 -18q80 -18 158 -54l75 99zM471 514l455 594l-2 -2q-46 14 -115 14q-87 0 -158 -30q-73 -31 -121 -82q-50 -53 -77 -127q-27 -73 -27 -164q0 -117 45 -203zM1163 911l-450 -587h-4q54 -13 102 -13q87 0 160 31q68 29 123 84q53 53 80 127
q28 76 28 164q0 109 -39 194z" />
    <glyph glyph-name="ugrave" unicode="&#xf9;" horiz-adv-x="1531" 
d="M874 1485l-507 211l116 231l490 -262zM1055 1434h344l-2 -801q0 -166 -45 -285q-47 -124 -129 -209q-83 -86 -199 -129q-118 -41 -258 -41q-142 0 -260 41q-116 43 -199 129q-82 85 -129 209q-45 119 -45 287v797h344v-789q0 -187 74 -270q73 -82 215 -82q140 0 215 84
q74 83 74 270v789z" />
    <glyph glyph-name="uacute" unicode="&#xfa;" horiz-adv-x="1531" 
d="M999 1927l117 -231l-508 -211l-98 180zM1055 1434h344l-2 -801q0 -166 -45 -285q-47 -124 -129 -209q-83 -86 -199 -129q-118 -41 -258 -41q-142 0 -260 41q-116 43 -199 129q-82 85 -129 209q-45 119 -45 287v797h344v-789q0 -187 74 -270q73 -82 215 -82q140 0 215 84
q74 83 74 270v789z" />
    <glyph glyph-name="ucircumflex" unicode="&#xfb;" horiz-adv-x="1531" 
d="M354 1651l404 342l401 -342l-164 -168l-237 196l-238 -196zM1055 1434h344l-2 -801q0 -166 -45 -285q-47 -124 -129 -209q-83 -86 -199 -129q-118 -41 -258 -41q-142 0 -260 41q-116 43 -199 129q-82 85 -129 209q-45 119 -45 287v797h344v-789q0 -187 74 -270
q73 -82 215 -82q140 0 215 84q74 83 74 270v789z" />
    <glyph glyph-name="udieresis" unicode="&#xfc;" horiz-adv-x="1531" 
d="M481 1567v-2q-65 0 -108 43t-43 106q0 66 43 109t108 43q64 0 107 -43t43 -107q0 -63 -43 -106t-107 -43zM1034 1569l-2 -2q-65 0 -108 43t-43 106q0 66 43 109t108 43q66 0 109 -43t43 -107q0 -63 -43 -106t-107 -43zM1055 1434h344l-2 -801q0 -166 -45 -285
q-47 -124 -129 -209q-83 -86 -199 -129q-118 -41 -258 -41q-142 0 -260 41q-116 43 -199 129q-82 85 -129 209q-45 119 -45 287v797h344v-789q0 -187 74 -270q73 -82 215 -82q140 0 215 84q74 83 74 270v789z" />
    <glyph glyph-name="yacute" unicode="&#xfd;" horiz-adv-x="1480" 
d="M971 1931l116 -231l-507 -211l-99 180zM1075 1434h385l-553 -799v-635h-342v635l-549 799h385l261 -383q32 -49 51 -74q23 -29 24 -29h2q2 0 25 29q19 25 51 74z" />
    <glyph glyph-name="thorn" unicode="&#xfe;" horiz-adv-x="1331" 
d="M504 1204h207l-4 -4q125 0 229 -37t178 -102t115 -154q41 -90 41 -196q0 -112 -39 -197q-42 -92 -113 -154q-74 -65 -178 -102t-229 -37h-207v-223h-344v1432h344v-226zM504 547h215v-4q94 0 143 49t49 123t-49 123t-143 49h-215v-340z" />
    <glyph glyph-name="ydieresis" unicode="&#xff;" horiz-adv-x="1480" 
d="M453 1571v-2q-66 0 -109 43t-43 106q0 66 43 109t109 43q63 0 106 -43t43 -107q0 -63 -43 -106t-106 -43zM1006 1573l-2 -2q-66 0 -109 43t-43 106q0 66 43 109t109 43q65 0 108 -43t43 -107q0 -63 -43 -106t-106 -43zM1075 1434h385l-553 -799v-635h-342v635l-549 799
h385l261 -383q32 -49 51 -74q23 -29 24 -29h2q2 0 25 29q19 25 51 74z" />
    <glyph glyph-name="Amacron" unicode="&#x100;" horiz-adv-x="1472" 
d="M1096 1831v-264h-711v264h711zM1098 0l-82 223h-567l-82 -223h-369l571 1432h326l573 -1432h-370zM563 526h346l-106 277q-18 45 -25 67q-5 15 -12 39t-8 29q-3 10 -9 28t-8 25l-6 23h-2l-6 -21q-2 -8 -8 -27.5t-8 -25.5q-11 -38 -21 -68q-11 -35 -24 -67z" />
    <glyph glyph-name="amacron" unicode="&#x101;" horiz-adv-x="1472" 
d="M1096 1831v-264h-711v264h711zM1098 0l-82 223h-567l-82 -223h-369l571 1432h326l573 -1432h-370zM563 526h346l-106 277q-18 45 -25 67q-5 15 -12 39t-8 29q-3 10 -9 28t-8 25l-6 23h-2l-6 -21q-2 -8 -8 -27.5t-8 -25.5q-11 -38 -21 -68q-11 -35 -24 -67z" />
    <glyph glyph-name="Abreve" unicode="&#x102;" horiz-adv-x="1472" 
d="M881 1837h245v-4q-15 -69 -53 -129q-37 -58 -88 -100q-54 -44 -117 -68q-67 -25 -135 -25q-73 0 -143 25q-65 23 -119 68q-48 40 -88 102q-35 55 -51 129h250q12 -41 51 -74q38 -32 100 -32q58 0 98 34q41 35 50 74zM1098 0l-82 223h-567l-82 -223h-369l571 1432h326
l573 -1432h-370zM563 526h346l-106 277q-18 45 -25 67q-5 15 -12 39t-8 29q-3 10 -9 28t-8 25l-6 23h-2l-6 -21q-2 -8 -8 -27.5t-8 -25.5q-11 -38 -21 -68q-11 -35 -24 -67z" />
    <glyph glyph-name="abreve" unicode="&#x103;" horiz-adv-x="1472" 
d="M881 1837h245v-4q-15 -69 -53 -129q-37 -58 -88 -100q-54 -44 -117 -68q-67 -25 -135 -25q-73 0 -143 25q-65 23 -119 68q-48 40 -88 102q-35 55 -51 129h250q12 -41 51 -74q38 -32 100 -32q58 0 98 34q41 35 50 74zM1098 0l-82 223h-567l-82 -223h-369l571 1432h326
l573 -1432h-370zM563 526h346l-106 277q-18 45 -25 67q-5 15 -12 39t-8 29q-3 10 -9 28t-8 25l-6 23h-2l-6 -21q-2 -8 -8 -27.5t-8 -25.5q-11 -38 -21 -68q-11 -35 -24 -67z" />
    <glyph glyph-name="Aogonek" unicode="&#x104;" horiz-adv-x="1472" 
d="M1374 -176l176 -117v-2q-59 -109 -155 -160q-100 -53 -199 -53q-77 0 -154 23q-68 20 -122 65q-53 44 -80 105q-29 66 -29 141q0 63 25 121q21 49 61 92q34 37 78 63t72 29l-33 90h-568l-81 -223h-369l571 1432h326l573 -1432h-182q-33 0 -78 -10q-35 -8 -73 -31
q-35 -22 -56 -51q-20 -29 -20 -76q0 -46 35 -84q34 -37 104 -37q51 0 102 31q48 29 76 84zM563 526h346l-106 277q-18 45 -25 67q-5 15 -12 39t-8 29q-3 10 -9 28t-8 25l-6 23h-2l-6 -21q-2 -8 -8 -27.5t-8 -25.5q-11 -38 -21 -68q-11 -35 -24 -67z" />
    <glyph glyph-name="aogonek" unicode="&#x105;" horiz-adv-x="1472" 
d="M1374 -176l176 -117v-2q-59 -109 -155 -160q-100 -53 -199 -53q-77 0 -154 23q-68 20 -122 65q-53 44 -80 105q-29 66 -29 141q0 63 25 121q21 49 61 92q34 37 78 63t72 29l-33 90h-568l-81 -223h-369l571 1432h326l573 -1432h-182q-33 0 -78 -10q-35 -8 -73 -31
q-35 -22 -56 -51q-20 -29 -20 -76q0 -46 35 -84q34 -37 104 -37q51 0 102 31q48 29 76 84zM563 526h346l-106 277q-18 45 -25 67q-5 15 -12 39t-8 29q-3 10 -9 28t-8 25l-6 23h-2l-6 -21q-2 -8 -8 -27.5t-8 -25.5q-11 -38 -21 -68q-11 -35 -24 -67z" />
    <glyph glyph-name="Cacute" unicode="&#x106;" horiz-adv-x="1544" 
d="M1034 1917l117 -231l-508 -211l-98 180zM1466 1081l-350 -92l-12 -14q-49 61 -131 98q-81 37 -168 37t-160 -31q-70 -30 -121 -84q-46 -49 -75 -127q-27 -74 -27 -161t29 -166q28 -76 79 -127q53 -53 123 -80t154 -27q105 0 194 47t136 121l348 -90q-49 -99 -113 -172
q-70 -79 -153 -133q-89 -58 -191 -84q-108 -31 -217 -31q-153 0 -289 53q-132 54 -235 154q-100 97 -160 238q-57 134 -57 301q0 162 59 301t160 237t237 154q134 55 289 55q110 0 205 -26q98 -27 180 -76q89 -54 152 -119q68 -71 114 -156z" />
    <glyph glyph-name="cacute" unicode="&#x107;" horiz-adv-x="1544" 
d="M1034 1917l117 -231l-508 -211l-98 180zM1466 1081l-350 -92l-12 -14q-49 61 -131 98q-81 37 -168 37t-160 -31q-70 -30 -121 -84q-46 -49 -75 -127q-27 -74 -27 -161t29 -166q28 -76 79 -127q53 -53 123 -80t154 -27q105 0 194 47t136 121l348 -90q-49 -99 -113 -172
q-70 -79 -153 -133q-89 -58 -191 -84q-108 -31 -217 -31q-153 0 -289 53q-132 54 -235 154q-100 97 -160 238q-57 134 -57 301q0 162 59 301t160 237t237 154q134 55 289 55q110 0 205 -26q98 -27 180 -76q89 -54 152 -119q68 -71 114 -156z" />
    <glyph glyph-name="Cdotaccent" unicode="&#x10a;" horiz-adv-x="1544" 
d="M801 1556l-4 -4q-64 0 -107 43t-43 109q0 65 43 108t109 43q65 0 108 -43t43 -106q0 -64 -43 -107t-106 -43zM1466 1081l-350 -92l-12 -14q-49 61 -131 98q-81 37 -168 37t-160 -31q-70 -30 -121 -84q-46 -49 -75 -127q-27 -74 -27 -161t29 -166q28 -76 79 -127
q53 -53 123 -80t154 -27q105 0 194 47t136 121l348 -90q-49 -99 -113 -172q-70 -79 -153 -133q-89 -58 -191 -84q-108 -31 -217 -31q-153 0 -289 53q-132 54 -235 154q-100 97 -160 238q-57 134 -57 301q0 162 59 301t160 237t237 154q134 55 289 55q110 0 205 -26
q98 -27 180 -76q89 -54 152 -119q68 -71 114 -156z" />
    <glyph glyph-name="cdotaccent" unicode="&#x10b;" horiz-adv-x="1544" 
d="M801 1556l-4 -4q-64 0 -107 43t-43 109q0 65 43 108t109 43q65 0 108 -43t43 -106q0 -64 -43 -107t-106 -43zM1466 1081l-350 -92l-12 -14q-49 61 -131 98q-81 37 -168 37t-160 -31q-70 -30 -121 -84q-46 -49 -75 -127q-27 -74 -27 -161t29 -166q28 -76 79 -127
q53 -53 123 -80t154 -27q105 0 194 47t136 121l348 -90q-49 -99 -113 -172q-70 -79 -153 -133q-89 -58 -191 -84q-108 -31 -217 -31q-153 0 -289 53q-132 54 -235 154q-100 97 -160 238q-57 134 -57 301q0 162 59 301t160 237t237 154q134 55 289 55q110 0 205 -26
q98 -27 180 -76q89 -54 152 -119q68 -71 114 -156z" />
    <glyph glyph-name="Ccaron" unicode="&#x10c;" horiz-adv-x="1544" 
d="M1116 989l350 92l-6 -2q-49 90 -114 158q-67 70 -152 121q-88 53 -180 78q-103 28 -205 28q-155 0 -289 -55q-132 -54 -235 -154t-160 -235q-57 -134 -57 -301q0 -162 59 -301q58 -137 160 -236q99 -96 237 -153q139 -54 289 -54q104 0 217 29q105 30 191 86
q83 54 153 133q69 78 115 172l-348 90q-47 -73 -135 -120q-91 -48 -193 -48q-78 0 -154 29q-68 26 -122 80q-53 53 -80 127q-29 79 -29 166q0 91 27 164q27 74 77 127q51 54 121 84q71 30 160 30t170 -37q85 -39 133 -98zM813 1481l-403 342l165 168l238 -197l238 197
l163 -168z" />
    <glyph glyph-name="ccaron" unicode="&#x10d;" horiz-adv-x="1544" 
d="M1116 989l350 92l-6 -2q-49 90 -114 158q-67 70 -152 121q-88 53 -180 78q-103 28 -205 28q-155 0 -289 -55q-132 -54 -235 -154t-160 -235q-57 -134 -57 -301q0 -162 59 -301q58 -137 160 -236q99 -96 237 -153q139 -54 289 -54q104 0 217 29q105 30 191 86
q83 54 153 133q69 78 115 172l-348 90q-47 -73 -135 -120q-91 -48 -193 -48q-78 0 -154 29q-68 26 -122 80q-53 53 -80 127q-29 79 -29 166q0 91 27 164q27 74 77 127q51 54 121 84q71 30 160 30t170 -37q85 -39 133 -98zM813 1481l-403 342l165 168l238 -197l238 197
l163 -168z" />
    <glyph glyph-name="Dcaron" unicode="&#x10e;" horiz-adv-x="1599" 
d="M784 322h-282v790h282q72 0 148 -29q71 -27 123 -79q56 -56 84 -125q30 -73 30 -166t-30 -166q-29 -71 -84 -123q-52 -49 -123 -76q-68 -26 -148 -26zM786 1434h-626l-2 -1434h626q155 0 289 49q133 49 236 141q98 88 159 226q60 135 60 295q0 164 -58 295
q-60 135 -159 227q-103 95 -236 147q-139 54 -289 54zM791 1481l-404 342l166 168l238 -197l237 197l164 -168z" />
    <glyph glyph-name="dcaron" unicode="&#x10f;" horiz-adv-x="1599" 
d="M784 322h-282v790h282q72 0 148 -29q71 -27 123 -79q56 -56 84 -125q30 -73 30 -166t-30 -166q-29 -71 -84 -123q-52 -49 -123 -76q-68 -26 -148 -26zM786 1434h-626l-2 -1434h626q155 0 289 49q133 49 236 141q98 88 159 226q60 135 60 295q0 164 -58 295
q-60 135 -159 227q-103 95 -236 147q-139 54 -289 54zM791 1481l-404 342l166 168l238 -197l237 197l164 -168z" />
    <glyph glyph-name="Dcroat" unicode="&#x110;" horiz-adv-x="1628" 
d="M188 1432h627l-2 -5q158 0 289 -51q132 -51 235 -147q100 -93 160 -228q59 -133 59 -294q0 -166 -57 -295q-59 -134 -160 -224q-103 -93 -235 -141q-128 -47 -289 -47h-627v567h-116v310h116v555zM532 322h283v-3q77 0 148 27q70 27 122 76q55 52 84 123q31 76 31 166
t-31 166q-30 73 -84 127q-52 52 -122 79q-76 29 -148 29h-283v-233h220v-310h-220v-247z" />
    <glyph glyph-name="dcroat" unicode="&#x111;" horiz-adv-x="1628" 
d="M188 1432h627l-2 -5q158 0 289 -51q132 -51 235 -147q100 -93 160 -228q59 -133 59 -294q0 -166 -57 -295q-59 -134 -160 -224q-103 -93 -235 -141q-128 -47 -289 -47h-627v567h-116v310h116v555zM532 322h283v-3q77 0 148 27q70 27 122 76q55 52 84 123q31 76 31 166
t-31 166q-30 73 -84 127q-52 52 -122 79q-76 29 -148 29h-283v-233h220v-310h-220v-247z" />
    <glyph glyph-name="Emacron" unicode="&#x112;" horiz-adv-x="1357" 
d="M1077 1833v-264h-710v264h710zM504 322h710v-322h-1054v1434h1042v-322h-698v-235h547v-302h-547v-253z" />
    <glyph glyph-name="emacron" unicode="&#x113;" horiz-adv-x="1357" 
d="M1077 1833v-264h-710v264h710zM504 322h710v-322h-1054v1434h1042v-322h-698v-235h547v-302h-547v-253z" />
    <glyph glyph-name="Edotaccent" unicode="&#x116;" horiz-adv-x="1357" 
d="M713 1571l-4 -4q-64 0 -107 43t-43 108q0 66 43 109t109 43q65 0 108 -43t43 -107q0 -63 -43 -106t-106 -43zM504 322h710v-322h-1054v1434h1042v-322h-698v-235h547v-302h-547v-253z" />
    <glyph glyph-name="edotaccent" unicode="&#x117;" horiz-adv-x="1357" 
d="M713 1571l-4 -4q-64 0 -107 43t-43 108q0 66 43 109t109 43q65 0 108 -43t43 -107q0 -63 -43 -106t-106 -43zM504 322h710v-322h-1054v1434h1042v-322h-698v-235h547v-302h-547v-253z" />
    <glyph glyph-name="Eogonek" unicode="&#x118;" horiz-adv-x="1357" 
d="M1044 -174l177 -117h2q-59 -108 -156 -160q-100 -53 -199 -53q-76 0 -153 23q-70 21 -123 65t-80 105q-29 66 -29 141q0 48 15 92q14 40 37 78h-377v1432h1042v-322h-698v-236h547v-301h-547v-254h710v-319h-258q-32 0 -77 -10q-36 -8 -74 -31q-34 -20 -55 -51
q-21 -30 -21 -76t35 -84q34 -37 104 -37q52 0 103 31q46 28 75 84z" />
    <glyph glyph-name="eogonek" unicode="&#x119;" horiz-adv-x="1357" 
d="M1061 -174l176 -117h2q-59 -108 -156 -160q-100 -53 -198 -53q-77 0 -154 23q-70 21 -123 65t-80 105q-28 64 -28 141q0 51 14 92q14 40 37 78h-393v1432h1042v-322h-698v-236h547v-301h-547v-254h710v-319h-241q-33 0 -78 -10q-36 -8 -74 -31q-34 -20 -55 -51
q-21 -30 -21 -76t35 -84q34 -37 105 -37q51 0 102 31q48 29 76 84z" />
    <glyph glyph-name="Ecaron" unicode="&#x11a;" horiz-adv-x="1357" 
d="M1114 1823l-401 -342l-404 342l166 168l238 -197l237 197zM504 322h710v-322h-1054v1434h1042v-322h-698v-235h547v-302h-547v-253z" />
    <glyph glyph-name="ecaron" unicode="&#x11b;" horiz-adv-x="1357" 
d="M1114 1823l-401 -342l-404 342l166 168l238 -197l237 197zM504 322h710v-322h-1054v1434h1042v-322h-698v-235h547v-302h-547v-253z" />
    <glyph glyph-name="Gcircumflex" unicode="&#x11c;" horiz-adv-x="1622" 
d="M397 1645l404 342l401 -342l-164 -168l-237 196l-238 -196zM1206 117h-2l-6 -11q-30 -34 -76 -61q-48 -28 -98 -45q-79 -23 -106 -27q-62 -10 -109 -10q-153 0 -289 53q-132 54 -235 154q-100 97 -160 238q-57 134 -57 301q0 162 59 301t160 237t237 154q134 55 289 55
q211 0 383 -102q171 -101 270 -277l-350 -92q-51 60 -135 98q-81 37 -168 37q-89 0 -160 -30q-70 -30 -121 -84q-46 -49 -75 -127q-27 -73 -27 -162q0 -93 31 -172q29 -74 84 -129q53 -53 127 -80q79 -29 164 -29q86 0 147 21q57 19 109 53q44 28 73 72q31 46 43 79v3h-377
v276h670v-811h-295v92v25z" />
    <glyph glyph-name="gcircumflex" unicode="&#x11d;" horiz-adv-x="1622" 
d="M397 1645l404 342l401 -342l-164 -168l-237 196l-238 -196zM1206 117h-2l-6 -11q-30 -34 -76 -61q-48 -28 -98 -45q-79 -23 -106 -27q-62 -10 -109 -10q-153 0 -289 53q-132 54 -235 154q-100 97 -160 238q-57 134 -57 301q0 162 59 301t160 237t237 154q134 55 289 55
q211 0 383 -102q171 -101 270 -277l-350 -92q-51 60 -135 98q-81 37 -168 37q-89 0 -160 -30q-70 -30 -121 -84q-46 -49 -75 -127q-27 -73 -27 -162q0 -93 31 -172q29 -74 84 -129q53 -53 127 -80q79 -29 164 -29q86 0 147 21q57 19 109 53q44 28 73 72q31 46 43 79v3h-377
v276h670v-811h-295v92v25z" />
    <glyph glyph-name="Gbreve" unicode="&#x11e;" horiz-adv-x="1622" 
d="M408 1829h249v-4q12 -40 52 -74q39 -33 100 -33q57 0 98 35q40 34 49 74h246q-15 -69 -53 -129t-88 -101q-51 -43 -117 -67q-67 -25 -135 -25q-73 0 -143 25q-67 24 -119 67q-47 39 -88 103q-35 55 -51 129zM1206 117h-2l-6 -11q-30 -34 -76 -61q-48 -28 -98 -45
q-79 -23 -106 -27q-62 -10 -109 -10q-153 0 -289 53q-132 54 -235 154q-100 97 -160 238q-57 134 -57 301q0 162 59 301t160 237t237 154q134 55 289 55q211 0 383 -102q171 -101 270 -277l-350 -92q-51 60 -135 98q-81 37 -168 37q-89 0 -160 -30q-70 -30 -121 -84
q-46 -49 -75 -127q-27 -73 -27 -162q0 -93 31 -172q29 -74 84 -129q53 -53 127 -80q79 -29 164 -29q86 0 147 21q57 19 109 53q44 28 73 72q31 46 43 79v3h-377v276h670v-811h-295v92v25z" />
    <glyph glyph-name="gbreve" unicode="&#x11f;" horiz-adv-x="1622" 
d="M408 1829h249v-4q12 -40 52 -74q39 -33 100 -33q57 0 98 35q40 34 49 74h246q-15 -69 -53 -129t-88 -101q-51 -43 -117 -67q-67 -25 -135 -25q-73 0 -143 25q-67 24 -119 67q-47 39 -88 103q-35 55 -51 129zM1206 117h-2l-6 -11q-30 -34 -76 -61q-48 -28 -98 -45
q-79 -23 -106 -27q-62 -10 -109 -10q-153 0 -289 53q-132 54 -235 154q-100 97 -160 238q-57 134 -57 301q0 162 59 301t160 237t237 154q134 55 289 55q211 0 383 -102q171 -101 270 -277l-350 -92q-51 60 -135 98q-81 37 -168 37q-89 0 -160 -30q-70 -30 -121 -84
q-46 -49 -75 -127q-27 -73 -27 -162q0 -93 31 -172q29 -74 84 -129q53 -53 127 -80q79 -29 164 -29q86 0 147 21q57 19 109 53q44 28 73 72q31 46 43 79v3h-377v276h670v-811h-295v92v25z" />
    <glyph glyph-name="Gdotaccent" unicode="&#x120;" horiz-adv-x="1622" 
d="M809 1561l-4 -5q-64 0 -107 43t-43 109t43 109t109 43q65 0 108 -43t43 -107q0 -63 -43 -106t-106 -43zM1206 117h-2l-6 -11q-30 -34 -76 -61q-48 -28 -98 -45q-79 -23 -106 -27q-62 -10 -109 -10q-153 0 -289 53q-132 54 -235 154q-100 97 -160 238q-57 134 -57 301
q0 162 59 301t160 237t237 154q134 55 289 55q211 0 383 -102q171 -101 270 -277l-350 -92q-51 60 -135 98q-81 37 -168 37q-89 0 -160 -30q-70 -30 -121 -84q-46 -49 -75 -127q-27 -73 -27 -162q0 -93 31 -172q29 -74 84 -129q53 -53 127 -80q79 -29 164 -29q86 0 147 21
q57 19 109 53q44 28 73 72q31 46 43 79v3h-377v276h670v-811h-295v92v25z" />
    <glyph glyph-name="gdotaccent" unicode="&#x121;" horiz-adv-x="1622" 
d="M809 1561l-4 -5q-64 0 -107 43t-43 109t43 109t109 43q65 0 108 -43t43 -107q0 -63 -43 -106t-106 -43zM1206 117h-2l-6 -11q-30 -34 -76 -61q-48 -28 -98 -45q-79 -23 -106 -27q-62 -10 -109 -10q-153 0 -289 53q-132 54 -235 154q-100 97 -160 238q-57 134 -57 301
q0 162 59 301t160 237t237 154q134 55 289 55q211 0 383 -102q171 -101 270 -277l-350 -92q-51 60 -135 98q-81 37 -168 37q-89 0 -160 -30q-70 -30 -121 -84q-46 -49 -75 -127q-27 -73 -27 -162q0 -93 31 -172q29 -74 84 -129q53 -53 127 -80q79 -29 164 -29q86 0 147 21
q57 19 109 53q44 28 73 72q31 46 43 79v3h-377v276h670v-811h-295v92v25z" />
    <glyph glyph-name="Gcommaaccent" unicode="&#x122;" horiz-adv-x="1622" 
d="M1212 115h-2l-6 -11q-30 -34 -76 -61q-51 -30 -98 -43q-65 -22 -106 -29q-62 -10 -109 -10q-153 0 -289 53q-132 54 -235 154q-100 97 -160 238q-57 134 -57 301q0 162 59 301t160 237t237 154q134 55 289 55q211 0 383 -102t271 -277l-351 -92q-51 60 -135 98
q-81 37 -168 37t-160 -31q-70 -30 -120 -83q-48 -51 -76 -127q-27 -73 -27 -162q0 -93 31 -172q29 -74 84 -129q53 -53 127 -80q79 -29 164 -29q86 0 147 21q57 19 109 53q44 28 73 72q31 46 43 79v2h-376v277h669v-809h-295v90v25zM768 -367l29 9l-23 2q-40 3 -74 37
t-34 92q0 59 43 102t104 43q60 0 102 -45q43 -46 43 -119q0 -39 -16 -92q-13 -42 -43 -94q-23 -40 -68 -88q-43 -46 -86 -78h-112q26 16 49 45q28 35 43 64q23 44 31 67q12 35 12 55z" />
    <glyph glyph-name="gcommaaccent" unicode="&#x123;" horiz-adv-x="1622" 
d="M1212 115h-2l-6 -11q-30 -34 -76 -61q-51 -30 -98 -43q-65 -22 -106 -29q-62 -10 -109 -10q-153 0 -289 53q-132 54 -235 154q-100 97 -160 238q-57 134 -57 301q0 162 59 301t160 237t237 154q134 55 289 55q211 0 383 -102t271 -277l-351 -92q-51 60 -135 98
q-81 37 -168 37t-160 -31q-70 -30 -120 -83q-48 -51 -76 -127q-27 -73 -27 -162q0 -93 31 -172q29 -74 84 -129q53 -53 127 -80q79 -29 164 -29q86 0 147 21q57 19 109 53q44 28 73 72q31 46 43 79v2h-376v277h669v-809h-295v90v25zM768 -367l29 9l-23 2q-40 3 -74 37
t-34 92q0 59 43 102t104 43q60 0 102 -45q43 -46 43 -119q0 -39 -16 -92q-13 -42 -43 -94q-23 -40 -68 -88q-43 -46 -86 -78h-112q26 16 49 45q28 35 43 64q23 44 31 67q12 35 12 55z" />
    <glyph glyph-name="Hcircumflex" unicode="&#x124;" horiz-adv-x="1544" 
d="M764 1683l-238 -196l-166 168l404 342l401 -342l-164 -168zM1040 1434h344v-1434h-344v557h-536v-557h-344v1434h344v-555h536v555z" />
    <glyph glyph-name="hcircumflex" unicode="&#x125;" horiz-adv-x="1544" 
d="M764 1683l-238 -196l-166 168l404 342l401 -342l-164 -168zM1040 1434h344v-1434h-344v557h-536v-557h-344v1434h344v-555h536v555z" />
    <glyph glyph-name="Hbar" unicode="&#x126;" horiz-adv-x="1544" 
d="M1532 1307v-281h-148v-1026h-344v557h-536v-557h-344v1026h-148v281h148v127h344v-127h536v127h344v-127h148zM1040 879v147h-536v-147h536z" />
    <glyph glyph-name="hbar" unicode="&#x127;" horiz-adv-x="1544" 
d="M1532 1307v-281h-148v-1026h-344v557h-536v-557h-344v1026h-148v281h148v127h344v-127h536v127h344v-127h148zM1040 879v147h-536v-147h536z" />
    <glyph glyph-name="Imacron" unicode="&#x12a;" horiz-adv-x="663" 
d="M-12 1833h708v-264h-708v264zM504 0h-344v1434h344v-1434z" />
    <glyph glyph-name="imacron" unicode="&#x12b;" horiz-adv-x="663" 
d="M-12 1833h708v-264h-708v264zM504 0h-344v1434h344v-1434z" />
    <glyph glyph-name="Iogonek" unicode="&#x12e;" horiz-adv-x="663" 
d="M483 -174l176 -117l3 -2q-59 -108 -156 -160q-100 -53 -199 -53q-76 0 -153 23q-70 21 -123 65q-52 46 -78 105q-29 66 -29 141q0 63 25 121q20 46 59 92q39 42 78 65q44 26 72 29v1297h344v-1432h-109q-33 0 -78 -10q-35 -8 -73 -31q-35 -22 -56 -51q-20 -29 -20 -76
q0 -46 35 -84q34 -37 104 -37q52 0 103 31q46 28 75 84z" />
    <glyph glyph-name="iogonek" unicode="&#x12f;" horiz-adv-x="663" 
d="M483 -174l176 -117l3 -2q-59 -108 -156 -160q-100 -53 -199 -53q-76 0 -153 23q-70 21 -123 65q-52 46 -78 105q-29 66 -29 141q0 63 25 121q20 46 59 92q39 42 78 65q44 26 72 29v1297h344v-1432h-109q-33 0 -78 -10q-35 -8 -73 -31q-35 -22 -56 -51q-20 -29 -20 -76
q0 -46 35 -84q34 -37 104 -37q52 0 103 31q46 28 75 84z" />
    <glyph glyph-name="Idotaccent" unicode="&#x130;" horiz-adv-x="663" 
d="M332 1571l-4 -4q-64 0 -107 43t-43 108q0 66 43 109t109 43q65 0 108 -43t43 -107q0 -63 -43 -106t-106 -43zM504 0h-344v1434h344v-1434z" />
    <glyph glyph-name="dotlessi" unicode="&#x131;" horiz-adv-x="663" 
d="M504 0h-344v1434h344v-1434z" />
    <glyph glyph-name="IJ" unicode="&#x132;" horiz-adv-x="2023" 
d="M502 -6h-344v1431h344v-1431zM1546 1434h344l-2 -805q0 -161 -47 -285q-46 -122 -133 -209q-86 -86 -205 -129q-121 -41 -260 -41q-96 0 -194 29q-88 23 -170 76q-81 52 -136 116q-56 64 -92 148l338 90q36 -62 103 -98q65 -35 153 -35q140 0 221 90q80 89 80 244v809z
" />
    <glyph glyph-name="ij" unicode="&#x133;" horiz-adv-x="2023" 
d="M502 -6h-344v1431h344v-1431zM1546 1434h344l-2 -805q0 -161 -47 -285q-46 -122 -133 -209q-86 -86 -205 -129q-121 -41 -260 -41q-96 0 -194 29q-88 23 -170 76q-81 52 -136 116q-56 64 -92 148l338 90q36 -62 103 -98q65 -35 153 -35q140 0 221 90q80 89 80 244v809z
" />
    <glyph glyph-name="Jcircumflex" unicode="&#x134;" horiz-adv-x="1390" 
d="M674 1647l403 342l402 -342l-164 -168l-238 196l-237 -196zM913 1434h344l-2 -805q0 -161 -47 -285q-46 -122 -133 -209q-86 -86 -205 -129q-121 -41 -260 -41q-96 0 -194 29q-88 23 -170 76q-78 51 -135 116q-58 66 -93 148l338 90q36 -62 103 -98q65 -35 153 -35
q141 0 222 90q79 88 79 244v809z" />
    <glyph glyph-name="jcircumflex" unicode="&#x135;" horiz-adv-x="1390" 
d="M674 1647l403 342l402 -342l-164 -168l-238 196l-237 -196zM913 1434h344l-2 -805q0 -161 -47 -285q-46 -122 -133 -209q-86 -86 -205 -129q-121 -41 -260 -41q-96 0 -194 29q-88 23 -170 76q-78 51 -135 116q-58 66 -93 148l338 90q36 -62 103 -98q65 -35 153 -35
q141 0 222 90q79 88 79 244v809z" />
    <glyph glyph-name="Kcommaaccent" unicode="&#x136;" horiz-adv-x="1501" 
d="M858 821l612 -821h-411l-434 596l-121 -121v-475h-344v1434h344v-234v-147v-95v-51v-14h2l10 10l31 31q6 6 24.5 25.5t32.5 33.5l92 92l348 347h422zM748 -358l-29 4l6 -2q-40 3 -74 37q-35 35 -35 92q0 59 43 102t105 43q60 0 102 -45q43 -46 43 -119q0 -39 -16 -92
q-13 -42 -43 -94q-23 -40 -68 -88q-43 -46 -86 -78h-112q26 16 49 45q28 35 43 64q23 44 31 67q12 35 12 55z" />
    <glyph glyph-name="kcommaaccent" unicode="&#x137;" horiz-adv-x="1501" 
d="M858 821l612 -821h-411l-434 596l-121 -121v-475h-344v1434h344v-234v-147v-95v-51v-14h2l10 10l31 31q6 6 24.5 25.5t32.5 33.5l92 92l348 347h422zM743 -358l-28 4l6 -2q-40 3 -74 37q-35 35 -35 92q0 59 43 102t105 43q60 0 102 -45q43 -46 43 -119q0 -39 -16 -92
q-13 -42 -43 -94q-23 -40 -68 -88q-43 -46 -86 -78h-112q26 16 49 45q28 35 43 64q20 38 30 67q13 37 13 55z" />
    <glyph glyph-name="Lacute" unicode="&#x139;" horiz-adv-x="1222" 
d="M709 1700l-508 -211l-99 180l490 262zM504 322h678v-322h-1022v1434h344v-1112z" />
    <glyph glyph-name="lacute" unicode="&#x13a;" horiz-adv-x="1222" 
d="M709 1700l-508 -211l-99 180l490 262zM504 322h678v-322h-1022v1434h344v-1112z" />
    <glyph glyph-name="Lcommaaccent" unicode="&#x13b;" horiz-adv-x="1222" 
d="M510 319h678v-319h-1022v1432h344v-1113zM680 -358l-29 4l6 -2q-39 3 -73 37q-35 35 -35 92q0 59 43 102t104 43t103 -45q43 -46 43 -119q0 -36 -17 -92q-13 -42 -43 -94q-25 -43 -67 -88q-43 -46 -86 -78h-113q26 16 49 45q28 35 43 64q23 44 31 67q12 35 12 55z" />
    <glyph glyph-name="lcommaaccent" unicode="&#x13c;" horiz-adv-x="1222" 
d="M510 319h678v-319h-1022v1432h344v-1113zM553 -358l-29 4l6 -2q-39 3 -73 37q-35 35 -35 92q0 59 43 102t104 43t103 -45q43 -46 43 -119q0 -36 -17 -92q-13 -42 -43 -94q-25 -43 -67 -88q-43 -46 -86 -78h-113q26 16 49 45q28 35 43 64q23 44 31 67q12 35 12 55z" />
    <glyph glyph-name="Lcaron" unicode="&#x13d;" horiz-adv-x="1222" 
d="M782 889h-125h2q31 17 56 49q34 44 49 70q27 49 37 73q14 35 14 62l31 8l-31 4q-40 6 -80 43q-39 36 -39 102q0 64 47 111t115 47q65 0 111 -49q47 -50 47 -131q0 -45 -19 -100q-17 -48 -49 -105q-28 -49 -74 -98q-43 -46 -92 -86zM504 322h678v-322h-1022v1434h344
v-1112z" />
    <glyph glyph-name="lcaron" unicode="&#x13e;" horiz-adv-x="1222" 
d="M762 889h-125h2q29 16 55 49q34 44 49 70q27 49 37 73q15 37 15 62l30 8l-30 4q-40 6 -80 43q-39 36 -39 102q0 64 47 111t115 47q64 0 110 -49q47 -50 47 -131q0 -48 -18 -100q-17 -48 -49 -105q-28 -49 -74 -98q-43 -46 -92 -86zM504 322h678v-322h-1022v1434h344
v-1112z" />
    <glyph glyph-name="Ldot" unicode="&#x13f;" horiz-adv-x="1222" 
d="M500 317h678v-319h-1022v1432h344v-1113zM868 645l-4 -4q-63 0 -106 43t-43 109q0 65 43 108t108 43q66 0 109 -43t43 -106q0 -64 -43 -107t-107 -43z" />
    <glyph glyph-name="ldot" unicode="&#x140;" horiz-adv-x="1222" 
d="M500 317h678v-319h-1022v1432h344v-1113zM868 645l-4 -4q-63 0 -106 43t-43 109q0 65 43 108t108 43q66 0 109 -43t43 -106q0 -64 -43 -107t-107 -43z" />
    <glyph glyph-name="Lslash" unicode="&#x141;" horiz-adv-x="1222" 
d="M504 322h678v-322h-1022v1434h344v-512l493 256v-326l-493 -254v-276z" />
    <glyph glyph-name="lslash" unicode="&#x142;" horiz-adv-x="1222" 
d="M504 322h678v-322h-1022v1434h344v-512l493 256v-326l-493 -254v-276z" />
    <glyph glyph-name="Nacute" unicode="&#x143;" horiz-adv-x="1605" 
d="M1036 1923l117 -231l-508 -211l-98 180zM1102 1434h344v-1440h-324l-293 397q-14 19 -104 148q-75 108 -104 147q-17 23 -44 61.5t-38 53.5l-33 45h-2v-39v-111v-168v-215v-315h-344v1432h323l305 -410q27 -36 86 -119q13 -19 49 -68t54 -75q53 -75 86 -119l37 -49h2v45
v117v163v191v328z" />
    <glyph glyph-name="nacute" unicode="&#x144;" horiz-adv-x="1605" 
d="M1036 1923l117 -231l-508 -211l-98 180zM1102 1434h344v-1440h-324l-293 397q-14 19 -104 148q-75 108 -104 147q-17 23 -44 61.5t-38 53.5l-33 45h-2v-39v-111v-168v-215v-315h-344v1432h323l305 -410q27 -36 86 -119q13 -19 49 -68t54 -75q53 -75 86 -119l37 -49h2v45
v117v163v191v328z" />
    <glyph glyph-name="Ncommaaccent" unicode="&#x145;" horiz-adv-x="1605" 
d="M1108 1432h344v-1440h-324l-292 397q-35 48 -105 148q-75 108 -104 147q-17 23 -44 61.5t-38 53.5l-33 45h-2v-39v-111v-168v-215v-315h-344v1431h323l306 -409q27 -36 86 -119q94 -131 102 -143q53 -75 86 -119l37 -49h2v45v117v163v191v328zM776 -367l29 9l-23 2
q-39 3 -73 37q-35 35 -35 92q0 59 43 102t104 43t103 -45q43 -46 43 -119q0 -36 -17 -92q-13 -42 -43 -94q-25 -43 -67 -88q-43 -46 -86 -78h-113q26 16 49 45q28 35 43 64q23 44 31 67q12 35 12 55z" />
    <glyph glyph-name="ncommaaccent" unicode="&#x146;" horiz-adv-x="1605" 
d="M1108 1432h344v-1440h-324l-292 397q-35 48 -105 148q-75 108 -104 147q-17 23 -44 61.5t-38 53.5l-33 45h-2v-39v-111v-168v-215v-315h-344v1431h323l306 -409q27 -36 86 -119q94 -131 102 -143q53 -75 86 -119l37 -49h2v45v117v163v191v328zM776 -367l29 9l-23 2
q-39 3 -73 37q-35 35 -35 92q0 59 43 102t104 43t103 -45q43 -46 43 -119q0 -36 -17 -92q-13 -42 -43 -94q-25 -43 -67 -88q-43 -46 -86 -78h-113q26 16 49 45q28 35 43 64q23 44 31 67q12 35 12 55z" />
    <glyph glyph-name="Ncaron" unicode="&#x147;" horiz-adv-x="1605" 
d="M1446 1434h-344v-336v-191v-164v-114v-43h-2l-37 51q-14 19 -86 121q-18 26 -54 75t-49 68q-12 17 -42.5 60t-43.5 61l-305 410h-323v-1432h344v315v215v170v111v41h2l33 -45q12 -16 39 -53.5t43 -59.5q29 -39 104 -147q90 -129 104 -148l293 -399h324v1434zM803 1481
l-404 342l166 168l238 -197l237 197l164 -168z" />
    <glyph glyph-name="ncaron" unicode="&#x148;" horiz-adv-x="1605" 
d="M1446 1434h-344v-336v-191v-164v-114v-43h-2l-37 51q-14 19 -86 121q-18 26 -54 75t-49 68q-12 17 -42.5 60t-43.5 61l-305 410h-323v-1432h344v315v215v170v111v41h2l33 -45q12 -16 39 -53.5t43 -59.5q29 -39 104 -147q90 -129 104 -148l293 -399h324v1434zM803 1481
l-404 342l166 168l238 -197l237 197l164 -168z" />
    <glyph glyph-name="Eng" unicode="&#x14a;" horiz-adv-x="1605" 
d="M1102 1434h344v-1442q0 -113 -37 -203q-40 -97 -100 -160q-62 -65 -154 -104q-87 -37 -192 -37h-84v274h53q91 0 141 62q49 61 49 170l-293 397q-14 19 -104 148q-75 108 -104 147q-17 23 -44 61.5t-38 53.5l-33 45h-2v-39v-111v-168v-215v-315h-344v1432h323l305 -410
q27 -36 86 -119q13 -19 49 -68t54 -75q53 -75 86 -119l37 -49h2v45v117v163v191v328z" />
    <glyph glyph-name="eng" unicode="&#x14b;" horiz-adv-x="1605" 
d="M1102 1434h344v-1442q0 -113 -37 -203q-40 -97 -100 -160q-62 -65 -154 -104q-87 -37 -192 -37h-84v274h53q91 0 141 62q49 61 49 170l-293 397q-14 19 -104 148q-75 108 -104 147q-17 23 -44 61.5t-38 53.5l-33 45h-2v-39v-111v-168v-215v-315h-344v1432h323l305 -410
q27 -36 86 -119q13 -19 49 -68t54 -75q53 -75 86 -119l37 -49h2v45v117v163v191v328z" />
    <glyph glyph-name="Omacron" unicode="&#x14c;" horiz-adv-x="1632" 
d="M469 1825h711v-264h-711v264zM68 713l-7 -4q0 159 60 301q59 139 160 237t237 154q134 55 289 55t289 -55q136 -56 237 -154q103 -100 160 -235q59 -139 59 -301q0 -167 -57 -301q-58 -137 -160 -236q-101 -98 -237 -154q-136 -53 -289 -53t-289 53q-132 54 -235 154
q-100 97 -160 238q-57 134 -57 301zM430 717l-4 -4q0 -85 29 -164q27 -74 77 -127q48 -51 121 -82t158 -31q87 0 160 31q68 29 123 84q53 53 80 127q28 76 28 164q0 93 -26 164q-27 74 -80 127q-55 55 -123 84q-71 30 -160 30q-87 0 -158 -30t-120 -82q-51 -54 -78 -127
t-27 -164z" />
    <glyph glyph-name="omacron" unicode="&#x14d;" horiz-adv-x="1632" 
d="M465 1825h711v-264h-711v264zM68 713l-7 -4q0 159 60 301q59 139 160 237t237 154q134 55 289 55t289 -55q136 -56 237 -154q103 -100 160 -235q59 -139 59 -301q0 -167 -57 -301q-58 -137 -160 -236q-101 -98 -237 -154q-136 -53 -289 -53t-289 53q-132 54 -235 154
q-100 97 -160 238q-57 134 -57 301zM430 717l-4 -4q0 -85 29 -164q27 -74 77 -127q48 -51 121 -82t158 -31q87 0 160 31q68 29 123 84q53 53 80 127q28 76 28 164q0 93 -26 164q-27 74 -80 127q-55 55 -123 84q-71 30 -160 30q-87 0 -158 -30t-120 -82q-51 -54 -78 -127
t-27 -164z" />
    <glyph glyph-name="Ohungarumlaut" unicode="&#x150;" horiz-adv-x="1632" 
d="M797 1606l-301 -125l-99 180l490 262l78 -156l290 156l117 -231l-508 -211zM811 1458l-6 -4q155 0 289 -55q136 -56 237 -154q103 -100 160 -235q59 -139 59 -301q0 -167 -57 -301q-58 -137 -160 -236q-101 -98 -237 -154q-136 -53 -289 -53t-289 53q-132 54 -235 154
q-100 97 -160 238q-57 134 -57 301q0 162 59 301t160 237t237 154q134 55 289 55zM815 311l-4 -4q87 0 160 31q68 29 123 84q53 53 80 127q28 76 28 164q0 93 -26 164q-27 74 -80 127t-123 83q-73 31 -160 31q-85 0 -158 -31t-120 -81q-51 -54 -78 -127t-27 -164
q0 -85 29 -164q27 -73 78 -127q49 -52 120 -82q73 -31 158 -31z" />
    <glyph glyph-name="ohungarumlaut" unicode="&#x151;" horiz-adv-x="1632" 
d="M793 1606l-301 -125l-99 180l490 262l78 -156l290 156l117 -231l-508 -211zM811 1458l-6 -4q155 0 289 -55q136 -56 237 -154q103 -100 160 -235q59 -139 59 -301q0 -167 -57 -301q-58 -137 -160 -236q-101 -98 -237 -154q-136 -53 -289 -53t-289 53q-132 54 -235 154
q-100 97 -160 238q-57 134 -57 301q0 162 59 301t160 237t237 154q134 55 289 55zM815 311l-4 -4q87 0 160 31q68 29 123 84q53 53 80 127q28 76 28 164q0 93 -26 164q-27 74 -80 127t-123 83q-73 31 -160 31q-85 0 -158 -31t-120 -81q-51 -54 -78 -127t-27 -164
q0 -85 29 -164q27 -73 78 -127q49 -52 120 -82q73 -31 158 -31z" />
    <glyph glyph-name="OE" unicode="&#x152;" horiz-adv-x="2183" 
d="M1331 319h711v-315h-1045q-31 -4 -96 -4h-102q-155 0 -283 51q-127 50 -229 148q-98 93 -154 227q-55 131 -55 293t55 293q56 134 154 227q100 96 229 147q136 54 283 54h82q59 0 116 -8h1033v-322h-699v-236h547v-301h-547v-254zM995 367v700l2 -2q-78 35 -202 35
q-168 0 -267 -105q-98 -104 -98 -280q0 -85 25 -158q24 -71 71 -121q48 -51 115 -78q65 -26 152 -26q118 0 202 35z" />
    <glyph glyph-name="oe" unicode="&#x153;" horiz-adv-x="2183" 
d="M1331 319h711v-315h-1045q-31 -4 -96 -4h-102q-155 0 -283 51q-127 50 -229 148q-98 93 -154 227q-55 131 -55 293t55 293q56 134 154 227q100 96 229 147q136 54 283 54h82q59 0 116 -8h1033v-322h-699v-236h547v-301h-547v-254zM995 367v700l2 -2q-78 35 -202 35
q-168 0 -267 -105q-98 -104 -98 -280q0 -85 25 -158q24 -71 71 -121q48 -51 115 -78q65 -26 152 -26q118 0 202 35z" />
    <glyph glyph-name="Racute" unicode="&#x154;" horiz-adv-x="1392" 
d="M1018 1696l-508 -211l-98 180l489 262zM1329 -2h-385l-268 465h-176v-465h-344v1432h534q137 0 244 -37q111 -38 182 -101q75 -66 115 -153q41 -90 41 -201q0 -144 -68 -250q-69 -107 -192 -164zM504 1112v-340l235 -4q43 0 80 16q31 13 55 41q22 25 31 56q10 33 10 59
q0 32 -8 59q-10 33 -30 56q-24 27 -56 41q-37 16 -80 16h-237z" />
    <glyph glyph-name="racute" unicode="&#x155;" horiz-adv-x="1392" 
d="M1018 1696l-508 -211l-98 180l489 262zM1329 -2h-385l-268 465h-176v-465h-344v1432h534q137 0 244 -37q111 -38 182 -101q75 -66 115 -153q41 -90 41 -201q0 -144 -68 -250q-69 -107 -192 -164zM504 1112v-340l235 -4q43 0 80 16q31 13 55 41q22 25 31 56q10 33 10 59
q0 32 -8 59q-10 33 -30 56q-24 27 -56 41q-37 16 -80 16h-237z" />
    <glyph glyph-name="Rcommaaccent" unicode="&#x156;" horiz-adv-x="1392" 
d="M1018 522l317 -526h-387l-266 465h-176v-465h-344v1431h534q140 0 244 -36q111 -38 182 -101q75 -66 115 -153q41 -90 41 -201q0 -144 -68 -250q-69 -107 -192 -164zM510 1110v-340l235 -4q43 0 80 16q32 14 56 41q20 23 30 56q11 37 11 59q0 29 -9 59q-10 33 -30 56
q-24 27 -56 41q-37 16 -79 16h-238zM694 -358l-28 4l6 -2q-40 3 -74 37q-35 35 -35 92q0 59 43 102t105 43q60 0 102 -45q43 -46 43 -119q0 -39 -16 -92q-13 -42 -43 -94q-23 -40 -68 -88q-43 -46 -86 -78h-113q28 17 50 45q28 35 43 64q20 38 30 67q13 37 13 55z" />
    <glyph glyph-name="rcommaaccent" unicode="&#x157;" horiz-adv-x="1392" 
d="M1018 522l317 -526h-387l-266 465h-176v-465h-344v1431h534q140 0 244 -36q111 -38 182 -101q75 -66 115 -153q41 -90 41 -201q0 -144 -68 -250q-69 -107 -192 -164zM510 1110v-340l235 -4q43 0 80 16q32 14 56 41q20 23 30 56q11 37 11 59q0 29 -9 59q-10 33 -30 56
q-24 27 -56 41q-37 16 -79 16h-238zM711 -358l-29 4l6 -2q-40 3 -74 37t-34 92q0 59 43 102t104 43q60 0 102 -45q43 -46 43 -119q0 -39 -16 -92q-13 -42 -43 -94q-23 -40 -68 -88q-43 -46 -86 -78h-112q26 16 49 45q28 35 43 64q23 44 31 67q12 35 12 55z" />
    <glyph glyph-name="Rcaron" unicode="&#x158;" horiz-adv-x="1392" 
d="M1069 1819l-401 -342l-404 342l166 168l238 -197l237 197zM1329 -2h-385l-268 465h-176v-465h-344v1432h534q137 0 244 -37q111 -38 182 -101q75 -66 115 -153q41 -90 41 -201q0 -144 -68 -250q-69 -107 -192 -164zM504 1112v-340l235 -4q43 0 80 16q31 13 55 41
q22 25 31 56q10 33 10 59q0 32 -8 59q-10 33 -30 56q-24 27 -56 41q-37 16 -80 16h-237z" />
    <glyph glyph-name="rcaron" unicode="&#x159;" horiz-adv-x="1392" 
d="M1069 1819l-401 -342l-404 342l166 168l238 -197l237 197zM1329 -2h-385l-268 465h-176v-465h-344v1432h534q137 0 244 -37q111 -38 182 -101q75 -66 115 -153q41 -90 41 -201q0 -144 -68 -250q-69 -107 -192 -164zM504 1112v-340l235 -4q43 0 80 16q31 13 55 41
q22 25 31 56q10 33 10 59q0 32 -8 59q-10 33 -30 56q-24 27 -56 41q-37 16 -80 16h-237z" />
    <glyph glyph-name="Sacute" unicode="&#x15a;" horiz-adv-x="1257" 
d="M883 1931l116 -231l-507 -211l-99 180zM1194 1069l-332 -90h-8q-27 94 -98 141q-68 45 -148 45q-79 0 -119 -32q-43 -34 -43 -76q0 -35 25 -60q27 -27 68 -47q58 -28 100 -41q43 -13 123 -43q88 -30 158 -67q82 -44 139 -92q60 -51 98 -123q37 -70 37 -162
q0 -101 -39 -180q-41 -84 -113 -144q-70 -58 -178 -94q-108 -31 -229 -31q-229 0 -379 115q-155 118 -225 320l329 88q11 -29 41 -80q23 -39 62 -70q40 -32 84 -49q47 -18 104 -18q93 0 135 36q43 37 43 91q0 44 -30 71q-34 31 -80 53q-67 32 -117 48q-35 11 -143 49
q-54 20 -129 55q-63 30 -117 80q-51 48 -86 117q-33 65 -33 161q0 83 41 160q41 76 111 135q68 56 170 92q100 35 215 35q103 0 194 -30q95 -31 166 -82q73 -52 125 -125q55 -77 78 -156z" />
    <glyph glyph-name="sacute" unicode="&#x15b;" horiz-adv-x="1257" 
d="M903 1931l117 -231l-508 -211l-98 180zM1194 1069l-332 -90h-8q-27 94 -98 141q-68 45 -148 45q-79 0 -119 -32q-43 -34 -43 -76q0 -35 25 -60q27 -27 68 -47q58 -28 100 -41q43 -13 123 -43q88 -30 158 -67q82 -44 139 -92q60 -51 98 -123q37 -70 37 -162
q0 -101 -39 -180q-41 -84 -113 -144q-70 -58 -178 -94q-108 -31 -229 -31q-229 0 -379 115q-155 118 -225 320l329 88q11 -29 41 -80q23 -39 62 -70q40 -32 84 -49q47 -18 104 -18q93 0 135 36q43 37 43 91q0 44 -30 71q-34 31 -80 53q-67 32 -117 48q-35 11 -143 49
q-54 20 -129 55q-63 30 -117 80q-51 48 -86 117q-33 65 -33 161q0 83 41 160q41 76 111 135q68 56 170 92q100 35 215 35q103 0 194 -30q95 -31 166 -82q73 -52 125 -125q55 -77 78 -156z" />
    <glyph glyph-name="Scircumflex" unicode="&#x15c;" horiz-adv-x="1257" 
d="M238 1655l403 342l401 -342l-163 -168l-238 196l-238 -196zM1194 1069l-332 -90h-8q-27 94 -98 141q-68 45 -148 45q-79 0 -119 -32q-43 -34 -43 -76q0 -35 25 -60q27 -27 68 -47q58 -28 100 -41q43 -13 123 -43q88 -30 158 -67q82 -44 139 -92q60 -51 98 -123
q37 -70 37 -162q0 -101 -39 -180q-41 -84 -113 -144q-70 -58 -178 -94q-108 -31 -229 -31q-229 0 -379 115q-155 118 -225 320l329 88q11 -29 41 -80q23 -39 62 -70q40 -32 84 -49q47 -18 104 -18q93 0 135 36q43 37 43 91q0 44 -30 71q-34 31 -80 53q-67 32 -117 48
q-35 11 -143 49q-54 20 -129 55q-63 30 -117 80q-51 48 -86 117q-33 65 -33 161q0 83 41 160q41 76 111 135q68 56 170 92q100 35 215 35q103 0 194 -30q95 -31 166 -82q73 -52 125 -125q55 -77 78 -156z" />
    <glyph glyph-name="scircumflex" unicode="&#x15d;" horiz-adv-x="1257" 
d="M238 1655l403 342l401 -342l-163 -168l-238 196l-238 -196zM1194 1069l-332 -90h-8q-27 94 -98 141q-68 45 -148 45q-79 0 -119 -32q-43 -34 -43 -76q0 -35 25 -60q27 -27 68 -47q58 -28 100 -41q43 -13 123 -43q88 -30 158 -67q82 -44 139 -92q60 -51 98 -123
q37 -70 37 -162q0 -101 -39 -180q-41 -84 -113 -144q-70 -58 -178 -94q-108 -31 -229 -31q-229 0 -379 115q-155 118 -225 320l329 88q11 -29 41 -80q23 -39 62 -70q40 -32 84 -49q47 -18 104 -18q93 0 135 36q43 37 43 91q0 44 -30 71q-34 31 -80 53q-67 32 -117 48
q-35 11 -143 49q-54 20 -129 55q-63 30 -117 80q-51 48 -86 117q-33 65 -33 161q0 83 41 160q41 76 111 135q68 56 170 92q100 35 215 35q103 0 194 -30q95 -31 166 -82q73 -52 125 -125q55 -77 78 -156z" />
    <glyph glyph-name="Scedilla" unicode="&#x15e;" horiz-adv-x="1257" 
d="M1194 1069l-332 -90l-8 -2q-27 94 -98 141q-68 45 -148 45q-77 0 -119 -33q-43 -34 -43 -75q0 -35 25 -60q27 -27 68 -47q58 -28 100 -41q43 -13 123 -43q88 -30 158 -67q82 -44 139 -92q60 -51 98 -123q37 -70 37 -162q0 -84 -31 -160q-30 -73 -88 -131
q-57 -58 -137 -98q-76 -39 -180 -54l-35 -94q46 0 84 -14q41 -15 72 -43t49 -68t18 -92q0 -63 -20 -104q-20 -42 -56 -70q-35 -27 -77 -39q-43 -12 -93 -12h-254l70 178h184q37 0 48 14q12 15 12 33q0 21 -17 35q-13 11 -43 14h-219l90 260q-201 18 -338 131t-202 302
l329 88q11 -29 41 -80q23 -39 62 -70q40 -32 84 -49q47 -18 104 -18q93 0 135 36q43 37 43 91q0 44 -30 71q-34 31 -80 53q-67 32 -117 48q-35 11 -143 49q-54 20 -129 55q-63 30 -117 80q-51 48 -86 117q-33 65 -33 161q0 83 41 160q41 76 111 135q68 56 170 92
q100 35 215 35q103 0 194 -30q95 -31 166 -82q73 -52 125 -125q55 -77 78 -156z" />
    <glyph glyph-name="scedilla" unicode="&#x15f;" horiz-adv-x="1257" 
d="M1194 1069l-332 -90l-10 -6q-27 94 -98 141q-68 45 -148 45q-77 0 -119 -33q-43 -34 -43 -75q0 -35 25 -60q27 -27 68 -47q58 -28 100 -41q43 -13 123 -43q88 -30 158 -67q79 -42 139 -93q61 -52 98 -122t37 -162q0 -81 -31 -154q-30 -72 -82 -129q-51 -57 -129 -98
q-69 -37 -172 -53l-37 -99q46 0 84 -14q41 -15 72 -43t49 -68q19 -43 19 -92q0 -60 -21 -104q-21 -43 -55 -70q-35 -27 -78 -39q-44 -12 -92 -12h-254l70 178h184q36 0 47 14q12 15 12 33q0 22 -16 35q-13 11 -43 14h-219l88 260q-208 12 -348 125q-141 114 -209 308l329 88
q11 -29 41 -80q23 -39 62 -70q40 -32 84 -49q47 -18 104 -18q93 0 135 36q43 37 43 91q0 44 -30 71q-34 31 -80 53q-67 32 -117 48q-35 11 -143 49q-54 20 -129 55q-63 30 -117 80q-51 48 -86 117q-33 65 -33 161q0 83 41 160q41 76 111 135q68 56 170 92q100 35 215 35
q103 0 194 -30q95 -31 166 -82q73 -52 125 -125q55 -77 78 -156z" />
    <glyph glyph-name="Scaron" unicode="&#x160;" horiz-adv-x="1257" 
d="M862 979l332 90l-10 -6q-25 87 -76 158q-52 73 -125 125q-69 49 -166 81q-95 31 -192 31q-115 0 -215 -35q-102 -36 -170 -92q-70 -59 -111 -135q-39 -74 -39 -160q0 -94 35 -162q34 -67 86 -116q54 -50 117 -80q75 -35 129 -55q117 -41 145 -50q68 -21 117 -45
q51 -25 80 -51q30 -27 30 -71q0 -54 -43 -91q-42 -36 -135 -36q-57 0 -104 18q-44 17 -84 49q-39 31 -62 70q-25 42 -39 80l-329 -88q70 -202 225 -320q150 -115 379 -115q121 0 229 31q108 36 178 94q75 63 115 144q41 84 41 180q0 92 -37 162q-38 72 -98 123
q-57 48 -139 92q-70 37 -158 67q-80 30 -123 43q-42 13 -100 41q-41 20 -68 47q-24 24 -24 60q0 42 43 76q40 32 120 32t148 -45q71 -47 98 -141zM657 1481l-403 342l166 168l237 -197l238 197l164 -168z" />
    <glyph glyph-name="scaron" unicode="&#x161;" horiz-adv-x="1257" 
d="M862 979l332 90l-10 -6q-25 87 -76 158q-52 73 -125 125q-69 49 -166 81q-95 31 -192 31q-115 0 -215 -35q-102 -36 -170 -92q-70 -59 -111 -135q-39 -74 -39 -160q0 -94 35 -162q34 -67 86 -116q54 -50 117 -80q75 -35 129 -55q117 -41 145 -50q68 -21 117 -45
q51 -25 80 -51q30 -27 30 -71q0 -54 -43 -91q-42 -36 -135 -36q-57 0 -104 18q-44 17 -84 49q-39 31 -62 70q-25 42 -39 80l-329 -88q70 -202 225 -320q150 -115 379 -115q121 0 229 31q108 36 178 94q75 63 115 144q41 84 41 180q0 92 -37 162q-38 72 -98 123
q-57 48 -139 92q-70 37 -158 67q-80 30 -123 43q-42 13 -100 41q-41 20 -68 47q-24 24 -24 60q0 42 43 76q40 32 120 32t148 -45q71 -47 98 -141zM678 1481l-404 342l166 168l238 -197l237 197l164 -168z" />
    <glyph glyph-name="Tcommaaccent" unicode="&#x162;" horiz-adv-x="1251" 
d="M795 0h-103l-43 -117q46 0 84 -14q41 -15 72 -43t49 -68t18 -92q0 -63 -20 -104q-21 -43 -55 -70q-35 -27 -78 -39q-44 -12 -92 -12h-254l69 178h185q36 0 47 14q12 15 12 33q0 22 -16 35q-13 11 -43 14h-219l98 285h-55v1112h-431v322h1211v-322h-436v-1112z" />
    <glyph glyph-name="tcommaaccent" unicode="&#x163;" horiz-adv-x="1251" 
d="M795 0h-103l-43 -117q46 0 84 -14q41 -15 72 -43t49 -68t18 -92q0 -63 -20 -104q-21 -43 -55 -70q-35 -27 -78 -39q-44 -12 -92 -12h-254l69 178h185q36 0 47 14q12 15 12 33q0 22 -16 35q-13 11 -43 14h-219l98 285h-55v1112h-431v322h1211v-322h-436v-1112z" />
    <glyph glyph-name="Tcaron" unicode="&#x164;" horiz-adv-x="1251" 
d="M1061 1823l-402 -342l-403 342l166 168l237 -197l238 197zM20 1434h1211v-322h-436v-1112h-344v1112h-431v322z" />
    <glyph glyph-name="tcaron" unicode="&#x165;" horiz-adv-x="1251" 
d="M1061 1823l-402 -342l-403 342l166 168l237 -197l238 197zM20 1434h1211v-322h-436v-1112h-344v1112h-431v322z" />
    <glyph glyph-name="Tbar" unicode="&#x166;" horiz-adv-x="1251" 
d="M1231 1112h-436v-246h206v-260h-206v-606h-344v606h-207v260h207v246h-431v322h1211v-322z" />
    <glyph glyph-name="tbar" unicode="&#x167;" horiz-adv-x="1251" 
d="M1231 1112h-436v-246h206v-260h-206v-606h-344v606h-207v260h207v246h-431v322h1211v-322z" />
    <glyph glyph-name="Umacron" unicode="&#x16a;" horiz-adv-x="1531" 
d="M420 1829h710v-264h-710v264zM1055 1434h344l-2 -801q0 -166 -45 -285q-47 -124 -129 -209q-83 -86 -199 -129q-118 -41 -258 -41q-142 0 -260 41q-116 43 -199 129q-82 85 -129 209q-45 119 -45 287v797h344v-789q0 -187 74 -270q73 -82 215 -82q140 0 215 84
q74 83 74 270v789z" />
    <glyph glyph-name="umacron" unicode="&#x16b;" horiz-adv-x="1531" 
d="M420 1829h710v-264h-710v264zM1055 1434h344l-2 -801q0 -166 -45 -285q-47 -124 -129 -209q-83 -86 -199 -129q-118 -41 -258 -41q-142 0 -260 41q-116 43 -199 129q-82 85 -129 209q-45 119 -45 287v797h344v-789q0 -187 74 -270q73 -82 215 -82q140 0 215 84
q74 83 74 270v789z" />
    <glyph glyph-name="Ubreve" unicode="&#x16c;" horiz-adv-x="1531" 
d="M365 1835h249v-4q12 -40 52 -74q39 -33 100 -33q57 0 98 35q40 34 49 74h246q-15 -69 -53 -129q-37 -58 -88 -100q-54 -44 -117 -68q-67 -25 -135 -25q-73 0 -143 25q-65 23 -119 68q-48 40 -88 102q-35 55 -51 129zM1055 1434h344l-2 -801q0 -166 -45 -285
q-47 -124 -129 -209q-83 -86 -199 -129q-118 -41 -258 -41q-142 0 -260 41q-116 43 -199 129q-82 85 -129 209q-45 119 -45 287v797h344v-789q0 -187 74 -270q73 -82 215 -82q140 0 215 84q74 83 74 270v789z" />
    <glyph glyph-name="ubreve" unicode="&#x16d;" horiz-adv-x="1531" 
d="M365 1835h249v-4q12 -40 52 -74q39 -33 100 -33q57 0 98 35q40 34 49 74h246q-15 -69 -53 -129q-37 -58 -88 -100q-54 -44 -117 -68q-67 -25 -135 -25q-73 0 -143 25q-65 23 -119 68q-48 40 -88 102q-35 55 -51 129zM1055 1434h344l-2 -801q0 -166 -45 -285
q-47 -124 -129 -209q-83 -86 -199 -129q-118 -41 -258 -41q-142 0 -260 41q-116 43 -199 129q-82 85 -129 209q-45 119 -45 287v797h344v-789q0 -187 74 -270q73 -82 215 -82q140 0 215 84q74 83 74 270v789z" />
    <glyph glyph-name="Uring" unicode="&#x16e;" horiz-adv-x="1531" 
d="M766 1382h-4q-61 0 -119 25q-53 23 -98 68t-68 98q-24 55 -24 119q0 62 24 118q24 55 68 99q43 43 98 67q58 25 121 25t121 -25q56 -24 96 -67q43 -47 66 -99q24 -56 24 -118q0 -64 -24 -119q-22 -51 -66 -98q-41 -44 -96 -68q-58 -25 -119 -25zM766 1583q47 0 80 33
t33 76q0 47 -33 80q-32 32 -80 32q-44 0 -76 -32q-33 -33 -33 -80q0 -43 33 -76t76 -33zM1055 1434h344l-2 -801q0 -166 -45 -285q-47 -124 -129 -209q-83 -86 -199 -129q-118 -41 -258 -41q-142 0 -260 41q-116 43 -199 129q-82 85 -129 209q-45 119 -45 287v797h344v-789
q0 -187 74 -270q73 -82 215 -82q140 0 215 84q74 83 74 270v789z" />
    <glyph glyph-name="uring" unicode="&#x16f;" horiz-adv-x="1531" 
d="M766 1382h-4q-61 0 -119 25q-53 23 -98 68t-68 98q-24 55 -24 119q0 62 24 118q24 55 68 99q43 43 98 67q58 25 121 25t121 -25q56 -24 96 -67q43 -47 66 -99q24 -56 24 -118q0 -64 -24 -119q-22 -51 -66 -98q-41 -44 -96 -68q-58 -25 -119 -25zM766 1583q47 0 80 33
t33 76q0 47 -33 80q-32 32 -80 32q-44 0 -76 -32q-33 -33 -33 -80q0 -43 33 -76t76 -33zM1055 1434h344l-2 -801q0 -166 -45 -285q-47 -124 -129 -209q-83 -86 -199 -129q-118 -41 -258 -41q-142 0 -260 41q-116 43 -199 129q-82 85 -129 209q-45 119 -45 287v797h344v-789
q0 -187 74 -270q73 -82 215 -82q140 0 215 84q74 83 74 270v789z" />
    <glyph glyph-name="Uhungarumlaut" unicode="&#x170;" horiz-adv-x="1531" 
d="M748 1610l-302 -125l-98 180l490 262l77 -155l291 155l117 -231l-508 -211zM1055 1434h344l-2 -801q0 -166 -45 -285q-47 -124 -129 -209q-83 -86 -199 -129q-118 -41 -258 -41q-142 0 -260 41q-116 43 -199 129q-82 85 -129 209q-45 119 -45 287v797h344v-789
q0 -187 74 -270q73 -82 215 -82q140 0 215 84q74 83 74 270v789z" />
    <glyph glyph-name="uhungarumlaut" unicode="&#x171;" horiz-adv-x="1531" 
d="M748 1610l-302 -125l-98 180l490 262l77 -155l291 155l117 -231l-508 -211zM1055 1434h344l-2 -801q0 -166 -45 -285q-47 -124 -129 -209q-83 -86 -199 -129q-118 -41 -258 -41q-142 0 -260 41q-116 43 -199 129q-82 85 -129 209q-45 119 -45 287v797h344v-789
q0 -187 74 -270q73 -82 215 -82q140 0 215 84q74 83 74 270v789z" />
    <glyph glyph-name="Uogonek" unicode="&#x172;" horiz-adv-x="1531" 
d="M1399 1434v-797l-2 -4q0 -250 -101 -404t-278 -221q-34 -12 -66 -31q-37 -22 -55 -38q-23 -20 -39 -52q-14 -28 -14 -67q0 -46 30 -80q29 -33 91 -33q45 0 92 35t73 86l175 -115q-21 -44 -62 -88q-37 -40 -82 -69q-47 -30 -96 -45q-56 -17 -100 -17q-75 0 -140 21
q-66 21 -114 61q-54 44 -78 94q-29 60 -29 125q0 55 23 103q21 43 55 77q-129 12 -227 60q-100 48 -172 133q-70 81 -111 201q-39 113 -39 266v797h344v-789q0 -187 74 -270q73 -82 215 -82q140 0 215 84q74 83 74 270v789h344z" />
    <glyph glyph-name="uogonek" unicode="&#x173;" horiz-adv-x="1531" 
d="M1399 1434v-797l-2 -4q0 -250 -101 -404t-278 -221q-34 -12 -66 -31q-37 -22 -55 -38q-23 -20 -39 -52q-14 -28 -14 -67q0 -46 30 -80q29 -33 91 -33q45 0 92 35t73 86l175 -115q-21 -44 -62 -88q-37 -40 -82 -69q-47 -30 -96 -45q-56 -17 -100 -17q-75 0 -140 21
q-66 21 -114 61q-54 44 -78 94q-29 60 -29 125q0 55 23 103q21 43 55 77q-129 12 -227 60q-100 48 -172 133q-70 81 -111 201q-39 113 -39 266v797h344v-789q0 -187 74 -270q73 -82 215 -82q140 0 215 84q74 83 74 270v789h344z" />
    <glyph glyph-name="Wcircumflex" unicode="&#x174;" horiz-adv-x="2152" 
d="M649 1651l404 342l401 -342l-164 -168l-237 196l-238 -196zM1745 1434h366l-450 -1436h-324l-213 659q-36 113 -47 174q-12 68 -14 68h-2q-2 0 -14 -68q-10 -54 -48 -174l-213 -659h-323l-434 1432h366l176 -676q36 -137 43 -166q15 -64 19 -64h2q2 0 20 66q16 57 56 166
l198 540h322l199 -540q36 -98 55 -166q18 -64 20 -64h2q4 0 19 66q7 29 43 166z" />
    <glyph glyph-name="wcircumflex" unicode="&#x175;" horiz-adv-x="2152" 
d="M629 1651l403 342l402 -342l-164 -168l-238 196l-237 -196zM1745 1434h366l-450 -1436h-324l-213 659q-36 113 -47 174q-12 68 -14 68h-2q-2 0 -14 -68q-10 -54 -48 -174l-213 -659h-323l-434 1432h366l176 -676q36 -137 43 -166q15 -64 19 -64h2q2 0 20 66q16 57 56 166
l198 540h322l199 -540q36 -98 55 -166q18 -64 20 -64h2q4 0 19 66q7 29 43 166z" />
    <glyph glyph-name="Ycircumflex" unicode="&#x176;" horiz-adv-x="1480" 
d="M324 1655l403 342l401 -342l-163 -168l-238 196l-238 -196zM1075 1434h385l-553 -799v-635h-342v635l-549 799h385l261 -383q32 -49 51 -74q23 -29 24 -29h2q2 0 25 29q19 25 51 74z" />
    <glyph glyph-name="ycircumflex" unicode="&#x177;" horiz-adv-x="1480" 
d="M326 1655l403 342l401 -342l-163 -168l-238 196l-237 -196zM1075 1434h385l-553 -799v-635h-342v635l-549 799h385l261 -383q32 -49 51 -74q23 -29 24 -29h2q2 0 25 29q19 25 51 74z" />
    <glyph glyph-name="Ydieresis" unicode="&#x178;" horiz-adv-x="1480" 
d="M451 1571v-2q-66 0 -109 43t-43 106q0 66 43 109t109 43q63 0 106 -43t43 -107q0 -63 -43 -106t-106 -43zM1004 1573l-3 -2q-65 0 -108 43t-43 106q0 66 43 109t108 43q66 0 109 -43t43 -107q0 -63 -43 -106t-106 -43zM1075 1434h385l-553 -799v-635h-342v635l-549 799
h385l261 -383q32 -49 51 -74q23 -29 24 -29h2q2 0 25 29q19 25 51 74z" />
    <glyph glyph-name="Zacute" unicode="&#x179;" horiz-adv-x="1458" 
d="M981 1919l117 -231l-508 -211l-98 180zM1335 1434v-322l-612 -670l-49 -49l-43 -43l-31 -31l-12 -12l2 -2l8 1q7 0 23.5 1t35.5 2q86 4 158 4h518v-319h-1212v319l639 672q18 22 43 43q24 21 45 39q28 24 35 31l14 12l-2 2h-23h-55h-74h-73h-527v322h1192z" />
    <glyph glyph-name="zacute" unicode="&#x17a;" horiz-adv-x="1458" 
d="M981 1919l117 -231l-508 -211l-98 180zM1335 1434v-322l-612 -670l-49 -49l-43 -43l-31 -31l-12 -12l2 -2l8 1q7 0 23.5 1t35.5 2q86 4 158 4h518v-319h-1212v319l639 672q18 22 43 43q24 21 45 39q28 24 35 31l14 12l-2 2h-23h-55h-74h-73h-527v322h1192z" />
    <glyph glyph-name="Zdotaccent" unicode="&#x17b;" horiz-adv-x="1458" 
d="M748 1559l-5 -5q-63 0 -106 43t-43 109t43 109t108 43q66 0 109 -43t43 -107q0 -63 -43 -106t-106 -43zM1335 1434v-322l-612 -670l-49 -49l-43 -43l-31 -31l-12 -12l2 -2l8 1q7 0 23.5 1t35.5 2q86 4 158 4h518v-319h-1212v319l639 672q18 22 43 43q24 21 45 39
q28 24 35 31l14 12l-2 2h-23h-55h-74h-73h-527v322h1192z" />
    <glyph glyph-name="zdotaccent" unicode="&#x17c;" horiz-adv-x="1458" 
d="M748 1559l-5 -5q-63 0 -106 43t-43 109t43 109t108 43q66 0 109 -43t43 -107q0 -63 -43 -106t-106 -43zM1335 1434v-322l-612 -670l-49 -49l-43 -43l-31 -31l-12 -12l2 -2l8 1q7 0 23.5 1t35.5 2q86 4 158 4h518v-319h-1212v319l639 672q18 22 43 43q24 21 45 39
q28 24 35 31l14 12l-2 2h-23h-55h-74h-73h-527v322h1192z" />
    <glyph glyph-name="Zcaron" unicode="&#x17d;" horiz-adv-x="1458" 
d="M1335 1112v322l-1196 6v-322h527h73h74h55l23 2l2 -2l-12 -12q-19 -19 -33 -31q-21 -18 -45 -39q-25 -21 -43 -43l-639 -671v-322h1212v322h-518q-91 0 -156 -3q-43 -2 -67 -2l-2 2l12 13q4 4 14.5 14t16.5 16q5 6 19.5 21t23.5 23l49 49zM750 1481l-404 342l166 168
l238 -197l237 197l164 -168z" />
    <glyph glyph-name="zcaron" unicode="&#x17e;" horiz-adv-x="1458" 
d="M1335 1112v322l-1196 6v-322h527h73h74h55l23 2l2 -2l-12 -12q-19 -19 -33 -31q-21 -18 -45 -39q-25 -21 -43 -43l-639 -671v-322h1212v322h-518q-91 0 -156 -3q-43 -2 -67 -2l-2 2l12 13q4 4 14.5 14t16.5 16q5 6 19.5 21t23.5 23l49 49zM750 1481l-404 342l166 168
l238 -197l237 197l164 -168z" />
    <glyph glyph-name="florin" unicode="&#x192;" horiz-adv-x="811" 
d="M68 723v143l219 2l51 355q18 123 74 184q57 60 145 78q86 17 213 2v-156q-125 9 -180 -18q-56 -27 -68 -117l-47 -330h242v-143h-262l-111 -786q-18 -129 -82 -193q-47 -47 -119 -59q-73 -12 -172 0v151q74 -6 121 12q48 18 60 103l112 772h-196z" />
    <glyph glyph-name="Scommaaccent" unicode="&#x218;" horiz-adv-x="1257" 
d="M1200 1067l-332 -90h-8q-27 94 -98 141q-68 45 -148 45q-76 0 -118 -33q-43 -34 -43 -75q0 -36 24 -60q27 -27 68 -47q58 -28 100 -41q43 -13 123 -43q88 -30 158 -67q82 -44 139 -92q60 -51 98 -123q37 -70 37 -162q0 -101 -39 -180q-42 -85 -112 -144q-69 -58 -179 -94
q-108 -31 -229 -31q-229 0 -379 115q-155 118 -225 320l330 88q11 -29 41 -80q24 -40 61 -70q40 -32 84 -49q49 -19 104 -19q93 0 136 37t43 90q0 44 -31 72q-34 31 -80 53q-61 30 -117 47q-11 3 -143 50q-54 20 -129 55q-63 30 -117 80q-51 48 -86 117q-33 65 -33 161
q0 83 41 160q41 76 111 135q68 56 170 92q100 35 215 35q103 0 194 -30q95 -31 166 -82q73 -52 125 -125q55 -77 78 -156zM580 -367l28 9l-22 2q-40 3 -74 37q-35 35 -35 92q0 59 43 102t105 43q60 0 102 -45q43 -46 43 -119q0 -39 -16 -92q-13 -42 -43 -94q-23 -40 -68 -88
q-43 -46 -86 -78h-113q28 17 50 45q28 35 43 64q20 38 30 67q13 37 13 55z" />
    <glyph glyph-name="scommaaccent" unicode="&#x219;" horiz-adv-x="1257" 
d="M1200 1067l-332 -90h-8q-27 94 -98 141q-68 45 -148 45q-76 0 -118 -33q-43 -34 -43 -75q0 -36 24 -60q27 -27 68 -47q58 -28 100 -41q43 -13 123 -43q88 -30 158 -67q82 -44 139 -92q60 -51 98 -123q37 -70 37 -162q0 -101 -39 -180q-42 -85 -112 -144q-69 -58 -179 -94
q-108 -31 -229 -31q-229 0 -379 115q-155 118 -225 320l330 88q11 -29 41 -80q24 -40 61 -70q40 -32 84 -49q49 -19 104 -19q93 0 136 37t43 90q0 44 -31 72q-34 31 -80 53q-61 30 -117 47q-11 3 -143 50q-54 20 -129 55q-63 30 -117 80q-51 48 -86 117q-33 65 -33 161
q0 83 41 160q41 76 111 135q68 56 170 92q100 35 215 35q103 0 194 -30q95 -31 166 -82q73 -52 125 -125q55 -77 78 -156zM580 -367l28 9l-22 2q-40 3 -74 37q-35 35 -35 92q0 59 43 102t105 43q60 0 102 -45q43 -46 43 -119q0 -39 -16 -92q-13 -42 -43 -94q-23 -40 -68 -88
q-43 -46 -86 -78h-113q28 17 50 45q28 35 43 64q20 38 30 67q13 37 13 55z" />
    <glyph glyph-name="uni021A" unicode="&#x21a;" horiz-adv-x="1251" 
d="M27 1432h1210v-322h-436v-1110h-344v1110h-430v322zM635 -358l-29 4l6 -2q-39 3 -73 37q-35 35 -35 92q0 59 43 102t104 43t103 -45q43 -46 43 -119q0 -36 -17 -92q-13 -42 -43 -94q-25 -43 -67 -88q-43 -46 -86 -78h-113q26 16 49 45q28 35 43 64q23 44 31 67
q12 35 12 55z" />
    <glyph glyph-name="uni021B" unicode="&#x21b;" horiz-adv-x="1251" 
d="M27 1432h1210v-322h-436v-1110h-344v1110h-430v322zM573 -358l-28 4l6 -2q-40 3 -74 37q-35 35 -35 92q0 59 43 102t105 43q60 0 102 -45q43 -46 43 -119q0 -39 -16 -92q-13 -42 -43 -94q-23 -40 -68 -88q-43 -46 -86 -78h-112q26 16 49 45q28 35 43 64q20 38 30 67
q13 37 13 55z" />
    <glyph glyph-name="uni0237" unicode="&#x237;" horiz-adv-x="1390" 
d="M913 1434h344l-2 -805q0 -161 -47 -285q-46 -122 -133 -209q-86 -86 -205 -129q-121 -41 -260 -41q-96 0 -194 29q-88 23 -170 76q-78 51 -135 116q-58 66 -93 148l338 90q36 -62 103 -98q65 -35 153 -35q141 0 222 90q79 88 79 244v809z" />
    <glyph glyph-name="circumflex" unicode="&#x2c6;" horiz-adv-x="772" 
d="M-49 1655l401 342l402 -342l-164 -168l-238 196l-237 -196z" />
    <glyph glyph-name="caron" unicode="&#x2c7;" horiz-adv-x="772" 
d="M352 1481l-401 342l164 168l237 -197l238 197l164 -168z" />
    <glyph glyph-name="breve" unicode="&#x2d8;" horiz-adv-x="708" 
d="M-86 1839h248v-4q12 -41 51 -74q38 -32 100 -32q59 0 99 34t49 74h246q-14 -67 -54 -129q-37 -58 -88 -100q-54 -45 -116 -68q-65 -24 -136 -24q-75 0 -143 24q-65 23 -119 68q-44 36 -86 102q-35 55 -51 129z" />
    <glyph glyph-name="dotaccent" unicode="&#x2d9;" horiz-adv-x="354" 
d="M139 1571l-4 -4q-63 0 -106 43q-41 41 -41 108q0 68 41 109q43 43 108 43q66 0 109 -43t43 -107q0 -63 -43 -106t-107 -43z" />
    <glyph glyph-name="ring" unicode="&#x2da;" horiz-adv-x="598" 
d="M266 1325h-4q-61 0 -119 25q-55 24 -98 67q-39 39 -65 99q-25 58 -25 118q0 61 25 119t65 98q45 45 98 68q58 25 121 25t121 -25q55 -24 96 -68q44 -47 66 -98q24 -55 24 -119q0 -62 -24 -118q-23 -52 -66 -99q-40 -43 -96 -67q-58 -25 -119 -25zM266 1526q47 0 80 33
t33 75q0 47 -33 80t-80 33q-43 0 -76 -33q-32 -32 -32 -80q0 -43 32 -75q33 -33 76 -33z" />
    <glyph glyph-name="ogonek" unicode="&#x2db;" horiz-adv-x="1228" 
d="M702 -174l177 -117v-4q-59 -108 -156 -160q-100 -53 -199 -53q-76 0 -153 23q-70 21 -123 65t-80 105q-29 66 -29 141q0 66 29 129q24 52 68 96t81 62q46 22 72 22l223 -135q-32 0 -77 -10q-36 -8 -74 -31q-34 -20 -55 -51q-21 -30 -21 -76t35 -84q34 -37 104 -37
q52 0 103 31q46 28 75 84z" />
    <glyph glyph-name="tilde" unicode="&#x2dc;" horiz-adv-x="1050" 
d="M725 1835h266l2 -2q0 -71 -24 -129q-22 -54 -68 -100q-44 -44 -102 -68q-61 -25 -129 -25q-55 0 -101 19q-36 15 -80 43q-59 38 -69 43q-34 18 -68 18q-41 0 -65 -24q-25 -25 -25 -64h-264q0 75 22 129q24 59 68 103q43 43 102 67q61 25 129 25q57 0 103 -19
q36 -15 80 -43q5 -3 30 -19.5t37 -23.5q30 -18 66 -18q40 0 65 25t25 63z" />
    <glyph glyph-name="hungarumlaut" unicode="&#x2dd;" horiz-adv-x="1026" 
d="M967 1700l-508 -211l-68 125l-301 -125l-96 180l487 262l78 -155l291 155z" />
    <glyph glyph-name="uni0326" unicode="&#x326;" horiz-adv-x="0" 
d="M227 -367l29 9l-23 2q-39 3 -73 37q-35 35 -35 92q0 59 43 102t104 43t103 -45q43 -46 43 -119q0 -36 -17 -92q-13 -42 -43 -94q-25 -43 -67 -88q-43 -46 -86 -78h-113q26 16 49 45q28 35 43 64q23 44 31 67q12 35 12 55z" />
    <glyph glyph-name="Wgrave" unicode="&#x1e80;" horiz-adv-x="2152" 
d="M1169 1485l-507 211l116 231l490 -262zM1745 1434h366l-450 -1436h-324l-213 659q-36 113 -47 174q-12 68 -14 68h-2q-2 0 -14 -68q-10 -54 -48 -174l-213 -659h-323l-434 1432h366l176 -676q36 -137 43 -166q15 -64 19 -64h2q2 0 20 66q16 57 56 166l198 540h322
l199 -540q36 -98 55 -166q18 -64 20 -64h2q4 0 19 66q7 29 43 166z" />
    <glyph glyph-name="wgrave" unicode="&#x1e81;" horiz-adv-x="2152" 
d="M1149 1485l-508 211l117 231l489 -262zM1745 1434h366l-450 -1436h-324l-213 659q-36 113 -47 174q-12 68 -14 68h-2q-2 0 -14 -68q-10 -54 -48 -174l-213 -659h-323l-434 1432h366l176 -676q36 -137 43 -166q15 -64 19 -64h2q2 0 20 66q16 57 56 166l198 540h322
l199 -540q36 -98 55 -166q18 -64 20 -64h2q4 0 19 66q7 29 43 166z" />
    <glyph glyph-name="Wacute" unicode="&#x1e82;" horiz-adv-x="2152" 
d="M1294 1927l117 -231l-508 -211l-98 180zM1745 1434h366l-450 -1436h-324l-213 659q-36 113 -47 174q-12 68 -14 68h-2q-2 0 -14 -68q-10 -54 -48 -174l-213 -659h-323l-434 1432h366l176 -676q36 -137 43 -166q15 -64 19 -64h2q2 0 20 66q16 57 56 166l198 540h322
l199 -540q36 -98 55 -166q18 -64 20 -64h2q4 0 19 66q7 29 43 166z" />
    <glyph glyph-name="wacute" unicode="&#x1e83;" horiz-adv-x="2152" 
d="M1274 1927l117 -231l-508 -211l-99 180zM1745 1434h366l-450 -1436h-324l-213 659q-36 113 -47 174q-12 68 -14 68h-2q-2 0 -14 -68q-10 -54 -48 -174l-213 -659h-323l-434 1432h366l176 -676q36 -137 43 -166q15 -64 19 -64h2q2 0 20 66q16 57 56 166l198 540h322
l199 -540q36 -98 55 -166q18 -64 20 -64h2q4 0 19 66q7 29 43 166z" />
    <glyph glyph-name="Wdieresis" unicode="&#x1e84;" horiz-adv-x="2152" 
d="M776 1567v-2q-65 0 -108 43t-43 106q0 66 43 109t108 43q64 0 107 -43t43 -107q0 -63 -43 -106t-107 -43zM1329 1569l-2 -2q-65 0 -108 43t-43 106q0 66 43 109t108 43q66 0 109 -43t43 -107q0 -63 -43 -106t-107 -43zM1745 1434h366l-450 -1436h-324l-213 659
q-36 113 -47 174q-12 68 -14 68h-2q-2 0 -14 -68q-10 -54 -48 -174l-213 -659h-323l-434 1432h366l176 -676q36 -137 43 -166q15 -64 19 -64h2q2 0 20 66q16 57 56 166l198 540h322l199 -540q36 -98 55 -166q18 -64 20 -64h2q4 0 19 66q7 29 43 166z" />
    <glyph glyph-name="wdieresis" unicode="&#x1e85;" horiz-adv-x="2152" 
d="M756 1567v-2q-66 0 -109 43t-43 106q0 66 43 109t109 43q63 0 106 -43t43 -107q0 -63 -43 -106t-106 -43zM1309 1569l-2 -2q-66 0 -109 43t-43 106q0 66 43 109t109 43q65 0 108 -43t43 -107q0 -63 -43 -106t-106 -43zM1745 1434h366l-450 -1436h-324l-213 659
q-36 113 -47 174q-12 68 -14 68h-2q-2 0 -14 -68q-10 -54 -48 -174l-213 -659h-323l-434 1432h366l176 -676q36 -137 43 -166q15 -64 19 -64h2q2 0 20 66q16 57 56 166l198 540h322l199 -540q36 -98 55 -166q18 -64 20 -64h2q4 0 19 66q7 29 43 166z" />
    <glyph glyph-name="uni1E9E" unicode="&#x1e9e;" horiz-adv-x="1699" 
d="M160 1434h1331l-199 -385q-6 -12 -18.5 -34.5t-18.5 -33.5q-12 -23 -32 -63l-25 -50l-8 -18l2 -2h8q91 0 164 -33q78 -35 135 -92t92 -131q35 -75 35 -160q0 -94 -35 -178q-37 -87 -100 -148q-64 -61 -162 -100q-96 -35 -215 -35q-164 0 -297 76q-130 77 -201 201l326 88
q34 -37 72 -55q40 -19 86 -19q95 0 139 53q43 52 43 123q0 66 -49 115t-143 49h-234v248l59 127q4 8 12.5 24.5t12.5 24.5t11 22.5t10 20.5q3 7 8.5 17.5t7.5 13.5l6 14l-2 2q-16 0 -43 -2t-92 -2h-342v-1112h-344v1434z" />
    <glyph glyph-name="Ygrave" unicode="&#x1ef2;" horiz-adv-x="1480" 
d="M844 1489l-508 211l117 231l489 -262zM1075 1434h385l-553 -799v-635h-342v635l-549 799h385l261 -383q32 -49 51 -74q23 -29 24 -29h2q2 0 25 29q19 25 51 74z" />
    <glyph glyph-name="ygrave" unicode="&#x1ef3;" horiz-adv-x="1480" 
d="M846 1489l-508 211l117 231l489 -262zM1075 1434h385l-553 -799v-635h-342v635l-549 799h385l261 -383q32 -49 51 -74q23 -29 24 -29h2q2 0 25 29q19 25 51 74z" />
    <glyph glyph-name="uni2007" unicode="&#x2007;" 
 />
    <glyph glyph-name="uni2009" unicode="&#x2009;" horiz-adv-x="245" 
 />
    <glyph glyph-name="uni200A" unicode="&#x200a;" horiz-adv-x="81" 
 />
    <glyph glyph-name="endash" unicode="&#x2013;" horiz-adv-x="1202" 
d="M160 887h882v-322h-882v322z" />
    <glyph glyph-name="emdash" unicode="&#x2014;" horiz-adv-x="2121" 
d="M160 887h1802v-322h-1802v322z" />
    <glyph glyph-name="quoteleft" unicode="&#x2018;" horiz-adv-x="677" 
d="M362 1206l-30 -8l28 -6q44 -10 80 -43q39 -36 39 -102q0 -64 -47 -111t-115 -47q-64 0 -110 49q-47 50 -47 131q0 49 18 102q16 48 49 105q28 49 74 98q43 46 92 86h125q-29 -16 -55 -49q-34 -44 -49 -70q-27 -49 -37 -73q-15 -38 -15 -62z" />
    <glyph glyph-name="quoteright" unicode="&#x2019;" horiz-adv-x="677" 
d="M315 1141l31 8l-29 4q-39 6 -79 43q-39 36 -39 102q0 64 47 111t114 47q65 0 111 -49q47 -50 47 -131q0 -48 -18 -100q-16 -48 -49 -105q-28 -49 -74 -98q-43 -46 -92 -86h-125q29 16 55 49q34 44 49 70q27 49 37 73q14 35 14 62z" />
    <glyph glyph-name="quotesinglbase" unicode="&#x201a;" horiz-adv-x="677" 
d="M315 -16l31 8l-29 4q-41 6 -79 41q-39 36 -39 102q0 64 47 111t114 47q65 0 111 -49q47 -50 47 -131q0 -49 -18 -101q-16 -45 -49 -102q-28 -49 -74 -98q-43 -46 -92 -86h-125q29 16 55 49q36 47 49 69q26 46 37 74q14 35 14 62z" />
    <glyph glyph-name="quotedblleft" unicode="&#x201c;" horiz-adv-x="1148" 
d="M360 1204l-30 -8l28 -6q44 -10 80 -43q39 -36 39 -103q0 -63 -47 -110t-115 -47q-64 0 -110 49q-47 50 -47 131q0 49 18 102q16 48 49 105q28 49 74 98q43 46 92 86h125q-29 -16 -55 -49q-34 -44 -49 -70q-27 -49 -37 -73q-15 -38 -15 -62zM834 1206l-31 -8l28 -6
q44 -10 80 -43q39 -36 39 -102q0 -64 -47 -111t-115 -47q-64 0 -110 49q-47 50 -47 131q0 49 18 102q17 48 49 105q28 49 74 98q43 46 92 86h125q-29 -16 -55 -49q-34 -44 -49 -70q-27 -49 -37 -73q-14 -35 -14 -62z" />
    <glyph glyph-name="quotedblright" unicode="&#x201d;" horiz-adv-x="1148" 
d="M317 1141l31 8l-29 4q-39 6 -79 43q-39 36 -39 102q0 64 47 111t114 47q65 0 111 -49q47 -50 47 -131q0 -48 -18 -100q-17 -48 -49 -105q-28 -49 -74 -98q-43 -46 -92 -86h-125q29 16 55 49q34 44 49 70q27 49 37 73q14 35 14 62zM786 1141l31 8l-29 4q-39 6 -79 43
q-39 36 -39 102q0 64 47 111t114 47q65 0 111 -49q47 -50 47 -131q0 -48 -18 -100q-17 -48 -49 -105q-28 -49 -74 -98q-43 -46 -92 -86h-125q29 16 55 49q34 44 49 70q27 49 37 73q14 35 14 62z" />
    <glyph glyph-name="quotedblbase" unicode="&#x201e;" horiz-adv-x="1148" 
d="M317 -16l31 8l-29 4q-41 6 -79 41q-39 36 -39 102q0 64 47 111t114 47q65 0 111 -49q47 -50 47 -131q0 -49 -18 -101q-16 -45 -49 -102q-28 -49 -74 -98q-43 -46 -92 -86h-125q29 16 55 49q36 47 49 69q26 46 37 74q14 35 14 62zM786 -16l31 8l-29 4q-41 6 -79 41
q-39 36 -39 102q0 64 47 111t114 47q65 0 111 -49q47 -50 47 -131q0 -49 -18 -101q-16 -45 -49 -102q-28 -49 -74 -98q-43 -46 -92 -86h-125q29 16 55 49q36 47 49 69q26 46 37 74q14 35 14 62z" />
    <glyph glyph-name="dagger" unicode="&#x2020;" horiz-adv-x="1077" 
d="M1057 1106v-289l-377 -4v-195q0 -131 -6 -245q-6 -116 -12 -197q-4 -59 -13 -131l-6 -45h-221l-6 47q-8 69 -13 133q-6 81 -12 197q-6 114 -6 246v194h-365v289h365v328h303v-328h369z" />
    <glyph glyph-name="daggerdbl" unicode="&#x2021;" horiz-adv-x="1077" 
d="M688 817v-194l-4 -13h369v-288h-377q-8 -124 -19 -236q-9 -86 -12 -86h-221q-3 0 -12 88q-11 109 -19 238h-373v288h365v9v194h-365v289h365v328h303v-328h369v-289h-369z" />
    <glyph glyph-name="bullet" unicode="&#x2022;" horiz-adv-x="843" 
d="M424 463l-2 -2q-58 0 -105 20q-49 21 -86 58q-36 36 -57 86q-20 47 -20 104q0 54 20 98q22 49 57 84q37 37 86 58q47 20 105 20q54 0 98 -20q47 -21 84 -58q38 -38 58 -82t20 -98q0 -57 -20 -104q-21 -49 -58 -86q-38 -38 -82 -58t-98 -20z" />
    <glyph glyph-name="ellipsis" unicode="&#x2026;" horiz-adv-x="1597" 
d="M256 -25q-54 0 -94 37q-39 39 -39 94q0 54 39 93t94 39t94 -39t39 -93q0 -55 -39 -94q-40 -37 -94 -37zM788 -25q-54 0 -94 37q-39 39 -39 94q0 54 39 93t94 39q56 0 95 -39t39 -93q0 -55 -39 -94q-40 -37 -95 -37zM1341 -25q-54 0 -94 37q-39 39 -39 94q0 54 39 93
t94 39q56 0 95 -39t39 -93q0 -55 -39 -94q-40 -37 -95 -37z" />
    <glyph glyph-name="perthousand" unicode="&#x2030;" horiz-adv-x="2740" 
d="M430 618q-79 0 -149 31q-67 30 -117 86q-49 55 -76 129t-27 164t27 166t76 131q50 56 117 86q70 31 149 31q78 0 148 -31q67 -30 114 -86q48 -57 74 -131q27 -76 27 -166t-27 -164q-27 -72 -74 -129q-47 -56 -114 -86q-70 -31 -148 -31zM322 -4l1028 1431h221
l-1028 -1431h-221zM432 848l-2 -2q63 0 100 55t37 131q0 78 -37 133q-38 56 -100 56t-100 -56q-37 -55 -37 -131t37 -131t102 -55zM1466 -18q-79 0 -149 28q-67 30 -117 86q-49 55 -76 129q-26 71 -26 164q0 92 26 166q27 76 76 131q50 56 117 86q70 31 149 31q78 0 148 -31
q68 -30 115 -86q46 -55 73 -131t27 -166q0 -91 -27 -164q-27 -75 -73 -129q-47 -56 -115 -86q-70 -28 -148 -28zM2302 -18q-80 0 -150 28q-65 29 -116 86q-49 55 -76 129t-27 164t27 166t76 131q51 57 116 86q70 31 150 31q77 0 147 -31q68 -30 115 -86q48 -57 74 -131
t26 -166q0 -93 -26 -164q-27 -72 -74 -129q-47 -56 -115 -86q-70 -28 -147 -28zM1468 209l-2 -2q64 0 101 55t37 131q0 78 -37 133q-38 56 -101 56q-62 0 -100 -56q-37 -55 -37 -131t37 -131t102 -55zM2306 211l-2 -2q63 0 100 55t37 131q0 78 -37 133q-38 56 -100 56
t-100 -56q-37 -55 -37 -131t37 -131t102 -55z" />
    <glyph glyph-name="guilsinglleft" unicode="&#x2039;" horiz-adv-x="989" 
d="M160 721l483 479l184 -186l-307 -293l309 -293l-188 -188z" />
    <glyph glyph-name="guilsinglright" unicode="&#x203a;" horiz-adv-x="989" 
d="M346 1200l483 -479l-481 -481l-188 188l309 293l-307 293z" />
    <glyph glyph-name="fraction" unicode="&#x2044;" horiz-adv-x="266" 
d="M-489 0l1026 1434h221l-1026 -1434h-221z" />
    <glyph glyph-name="Euro" unicode="&#x20ac;" horiz-adv-x="1642" 
d="M1245 481l344 -86h-6q-46 -99 -110 -172t-154 -131q-86 -56 -189 -86q-110 -29 -215 -29q-109 0 -231 33q-112 35 -203 99q-91 65 -159 153q-67 87 -105 201h-147v221h106v31v30h-104v222h145q38 112 105 200q69 91 159 154q89 62 203 98q113 35 231 35q104 0 203 -27
q101 -27 180 -75q89 -54 152 -119q70 -73 115 -156l-348 -86q-49 61 -127 96t-170 35q-99 0 -181 -43q-85 -45 -141 -112h342v-222h-424q-2 -6 -2 -30q0 -25 2 -31h422v-221h-338q55 -70 139 -111q79 -39 183 -39q107 0 190 45q87 47 133 123z" />
    <glyph glyph-name="uni20B9" unicode="&#x20b9;" horiz-adv-x="1236" 
d="M1176 1174h-254v2q21 -40 36 -93h216v-249h-213q-30 -122 -117 -209t-217 -127l354 -496h-391l-330 477v250h164q51 0 98 29q45 28 68 73h-430v250h430q-28 45 -70 68q-45 25 -94 25h-266v260h1016v-260z" />
    <glyph glyph-name="afii61352" unicode="&#x2116;" horiz-adv-x="2267" 
d="M1544 1098h-4q0 72 29 141q27 65 73 111t111 73t137 27q74 0 138 -27q62 -26 112 -73q49 -46 76 -111q29 -69 29 -141q0 -78 -27 -142t-76 -110q-52 -49 -112 -74q-64 -27 -138 -27q-72 0 -137 27q-62 26 -110 74t-74 110q-27 64 -27 142zM1102 1434h344v-1440h-324
l-293 397q-14 19 -104 148q-75 108 -104 147q-17 23 -44 61.5t-38 53.5l-33 45h-2v-39v-111v-168v-215v-315h-344v1432h323l305 -410q27 -36 86 -119q13 -19 49 -68t54 -75q53 -75 86 -119l37 -49h2v45v117v163v191v328zM1749 1106q0 -67 41 -111q40 -43 104 -43
q65 0 105 43q41 44 41 111q0 69 -41 113q-40 43 -105 43q-64 0 -104 -43q-41 -44 -41 -113zM1565 641h661v-205h-661v205z" />
    <glyph glyph-name="trademark" unicode="&#x2122;" horiz-adv-x="1613" 
d="M20 1237v197h623v-197h-209v-469h-205v469h-209zM1286 1434h189v-666h-197v190q0 61 4 119q3 43 0 43h-2q-3 0 -27 -35q-3 -5 -24 -32.5t-33 -46.5l-51 -78h-84l-51 78q-43 65 -56 84q-21 30 -24 30h-2q-3 0 0 -43q4 -58 4 -119v-190h-197v666h189l108 -162
q40 -59 53 -92q15 -37 19 -37h2q3 0 18 37q12 30 54 92z" />
    <glyph glyph-name="oneeighth" unicode="&#x215b;" horiz-adv-x="1558" 
d="M317 1421h156l-2 -796h-219v364q0 59 6 105t6 49h-2q-2 0 -18 -25q-11 -17 -54 -57l-40 -37l-138 121zM125 -10l1028 1431h221l-1028 -1431h-221zM1380 412v-2l-4 -2q27 -9 56 -25q26 -14 49 -41q24 -28 37 -57q14 -32 14 -74q0 -46 -23 -94q-20 -41 -61 -76
q-40 -34 -96 -49q-59 -19 -121 -19t-121 19q-56 15 -96 49q-43 37 -62 76q-22 46 -22 94q0 42 14 74q13 29 37 57q23 27 49 41q30 17 55 25v2q-17 3 -38 18q-19 13 -39 37q-18 21 -31 53q-12 30 -12 68q0 46 18 86t55 67q41 29 86 43q56 17 109 17q50 0 106 -17
q45 -14 86 -43q39 -28 56 -67q18 -41 18 -86q0 -38 -12 -68q-11 -28 -31 -51q-20 -24 -39 -37q-21 -15 -37 -18zM1139 588l-4 -6q0 -34 28 -56q26 -20 68 -20q41 0 69 22q27 21 27 56q0 34 -27 55q-26 20 -67 20q-42 0 -68 -20t-26 -51zM1122 229v-4q0 -42 33 -65
q36 -25 80 -25q50 0 80 27q31 28 31 67q0 43 -33 66q-35 24 -80 24q-51 0 -80 -26q-31 -28 -31 -64z" />
    <glyph glyph-name="threeeighths" unicode="&#x215c;" horiz-adv-x="1681" 
d="M227 1155l-182 49l-4 -10q21 107 104 172q82 64 203 64q136 0 213 -68q78 -69 78 -168q0 -38 -16 -70q-15 -30 -39 -51q-25 -22 -52 -31q-30 -10 -49 -10v-2q32 0 62 -12q32 -13 55 -33q28 -24 41 -51q16 -32 16 -72q0 -53 -22 -102q-20 -44 -62 -80q-41 -35 -96 -53
q-59 -19 -121 -19q-55 0 -110 19q-50 17 -96 49q-44 30 -74 74t-39 92l186 51q9 -46 41 -72q30 -24 92 -24q42 0 70 22q27 21 27 55q0 39 -29 62q-28 22 -74 22h-71v152h71q36 0 62 23q24 21 24 53q0 28 -24 49q-23 20 -60 20q-49 0 -78 -20q-32 -23 -47 -80zM248 -10
l1028 1431h221l-1028 -1431h-221zM1503 412v-2l-4 -2q25 -8 55 -25q27 -15 50 -41q22 -25 36 -57q15 -35 15 -74q0 -46 -23 -94q-20 -41 -61 -76q-40 -34 -96 -49q-59 -19 -121 -19t-121 19q-56 15 -96 49q-43 37 -62 76q-22 46 -22 94q0 42 14 74q13 29 37 57q23 27 49 41
q30 17 55 25v2q-18 3 -39 18q-19 13 -39 37q-16 19 -30 53q-13 33 -13 68q0 43 19 86q18 40 55 67q41 29 86 43q56 17 109 17q50 0 106 -17q45 -14 86 -43q39 -28 56 -67q18 -41 18 -86q0 -38 -12 -68q-11 -28 -31 -51q-20 -24 -39 -37q-21 -15 -37 -18zM1262 588l-5 -6
q0 -33 29 -56q26 -20 68 -20q41 0 69 22q27 21 27 56q0 34 -27 55q-26 20 -67 20q-42 0 -68 -20t-26 -51zM1245 229v-4q0 -42 33 -65q36 -25 80 -25q50 0 80 27t30 67q0 44 -32 66q-34 24 -80 24q-51 0 -80 -26q-31 -28 -31 -64z" />
    <glyph glyph-name="fiveeighths" unicode="&#x215d;" horiz-adv-x="1634" 
d="M248 1126l2 -2l-2 -4q13 13 28 23q18 12 60 12q141 0 221 -74t80 -192q0 -56 -25 -111q-24 -51 -63 -88q-43 -40 -94 -59q-55 -21 -119 -21q-62 0 -117 19q-48 16 -92 49q-42 31 -66 72t-30 79l192 54q8 -32 35 -62q23 -26 72 -26t80 28q30 27 30 72q0 47 -30 74
q-31 28 -80 28q-72 0 -99 -59l-178 49l78 434h461v-190h-309q-7 -33 -23 -72q-12 -30 -12 -33zM1229 1421h221l-1028 -1431h-221zM1456 412v-2l-4 -2q25 -8 55 -25q26 -14 49 -41q24 -28 37 -57q15 -35 15 -74q0 -46 -23 -94q-20 -41 -61 -76q-39 -33 -97 -49
q-59 -19 -120 -19q-62 0 -121 19q-56 15 -96 49q-43 37 -62 76q-22 46 -22 94q0 42 14 74q13 29 37 57q23 27 49 41q30 17 55 25v2q-18 3 -39 18q-19 13 -39 37q-17 19 -30 53q-13 33 -13 68q0 43 19 86q18 40 55 67q41 29 86 43q56 17 109 17q50 0 106 -17q45 -14 86 -43
q37 -27 55 -67q19 -43 19 -86q0 -38 -12 -68q-11 -28 -31 -51q-20 -24 -39 -37q-21 -15 -37 -18zM1311 662l-4 -7q-42 0 -68 -20q-27 -21 -27 -51q0 -33 29 -56q26 -20 68 -20q41 0 69 22q27 21 27 56q0 34 -27 55t-67 21zM1311 137v-4q50 0 80 27t30 67q0 44 -32 66
q-34 24 -80 24q-51 0 -80 -26q-31 -28 -31 -64q0 -42 33 -65q36 -25 80 -25z" />
    <glyph glyph-name="seveneighths" unicode="&#x215e;" horiz-adv-x="1435" 
d="M0 -12l1028 1431h221l-1028 -1431h-221zM12 1421h615l-2 -121l-369 -673h-215l254 465q40 69 67 104q7 9 15 18.5t11 13.5t3 5l-2 2q-16 0 -45 -2t-108 -2h-224v190zM1257 412v-2l-4 -2q28 -9 56 -25q26 -14 49 -41q24 -28 37 -57q14 -32 14 -74q0 -46 -23 -94
q-20 -41 -61 -76q-40 -34 -96 -49q-59 -19 -121 -19t-121 19q-56 15 -96 49q-43 37 -62 76q-22 46 -22 94q0 42 14 74q13 29 37 57q23 27 49 41q28 16 56 25v2q-18 3 -39 18q-19 13 -39 37q-18 21 -31 53q-12 30 -12 68q0 46 18 86t55 67q41 29 86 43q56 17 109 17
q51 0 107 -17q45 -14 86 -43q37 -27 55 -67q18 -41 18 -86q0 -38 -12 -68q-11 -28 -31 -51q-20 -24 -39 -37q-21 -15 -37 -18zM1016 588l-4 -6q0 -34 28 -56q26 -20 68 -20t70 22q26 20 26 56q0 35 -26 55t-68 20t-68 -20t-26 -51zM999 229v-4q0 -42 33 -65q36 -25 80 -25
q50 0 80 27q31 28 31 67q0 43 -33 66q-34 24 -80 24q-51 0 -80 -26q-31 -28 -31 -64z" />
    <glyph glyph-name="minus" unicode="&#x2212;" 
d="M252 866h928v-280h-928v280z" />
    <glyph glyph-name="notequal" unicode="&#x2260;" 
d="M1180 811h-262l-107 -211h369v-281h-510l-103 -200h-284l102 200h-133v281h278l107 211h-385v281h530l113 221h276l-112 -221h121v-281z" />
    <glyph glyph-name="lessequal" unicode="&#x2264;" 
d="M248 262h928v-278h-928v278zM657 752l357 -353h-400l-376 353l540 499h389z" />
    <glyph glyph-name="greaterequal" unicode="&#x2265;" 
d="M416 399l356 353l-510 499h389l541 -499l-377 -353h-399zM254 262h928v-278h-928v278z" />
    <glyph glyph-name="lozenge" unicode="&#x25ca;" horiz-adv-x="1490" 
d="M745 -27l-745 744l745 745l746 -745zM745 1075l-358 -358l358 -359l359 359z" />
    <glyph glyph-name="glyph1" horiz-adv-x="0" 
 />
    <glyph glyph-name="glyph2" horiz-adv-x="0" 
 />
    <glyph glyph-name="glyph242" horiz-adv-x="1544" 
d="M899 1985l250 -140l-252 -370l-213 120zM1466 1081l-350 -92l-12 -14q-49 61 -131 98q-81 37 -168 37t-160 -31q-70 -30 -121 -84q-46 -49 -75 -127q-27 -74 -27 -161t29 -166q28 -76 79 -127q53 -53 123 -80t154 -27q105 0 194 47t136 121l348 -90q-49 -99 -113 -172
q-70 -79 -153 -133q-89 -58 -191 -84q-108 -31 -217 -31q-153 0 -289 53q-132 54 -235 154q-100 97 -160 238q-57 134 -57 301q0 162 59 301t160 237t237 154q134 55 289 55q110 0 205 -26q98 -27 180 -76q89 -54 152 -119q68 -71 114 -156z" />
    <glyph glyph-name="glyph243" horiz-adv-x="1060" 
d="M702 301h287v-301h-917v301h286v832h-278v301h901v-301h-279v-832z" />
    <glyph glyph-name="glyph244" horiz-adv-x="2420" 
d="M700 1124v-831h287v-299h-917v299h286v831h-278v301h901v-301h-279zM1944 1434h344l-2 -805q0 -158 -48 -285q-46 -122 -133 -209q-86 -86 -204 -129q-121 -41 -261 -41q-96 0 -194 29q-88 23 -170 76q-78 51 -135 116q-56 64 -92 148l337 90q36 -62 103 -98
q65 -35 153 -35q141 0 222 90q80 89 80 244v809z" />
    <glyph glyph-name="glyph245" horiz-adv-x="2410" 
d="M700 1124v-831h287v-299h-917v299h286v831h-278v301h901v-301h-279zM1333 1434h944l-2 -805q0 -161 -47 -285q-46 -122 -133 -209q-86 -86 -205 -129q-121 -41 -260 -41q-96 0 -194 29q-88 23 -170 76q-81 52 -136 116q-56 64 -92 148l338 90q36 -62 103 -98
q65 -35 153 -35q140 0 221 90q80 89 80 244v487h-600v322z" />
    <glyph glyph-name="glyph246" horiz-adv-x="2013" 
d="M158 -6v1431h344v-1431h-344zM936 1434h944l-2 -805q0 -161 -47 -285q-46 -122 -133 -209q-86 -86 -205 -129q-121 -41 -260 -41q-97 0 -195 29q-88 23 -170 76q-78 51 -135 116q-56 64 -92 148l338 90q37 -63 102 -98t154 -35q140 0 221 90q80 89 80 244v487h-600v322z
" />
    <glyph glyph-name="glyph247" horiz-adv-x="1060" 
d="M885 1700l-508 -211l-98 180l489 262zM702 301h287v-301h-917v301h286v832h-278v301h901v-301h-279v-832z" />
    <glyph glyph-name="glyph248" horiz-adv-x="1060" 
d="M526 1683l-237 -196l-166 168l403 342l402 -342l-164 -168zM702 301h287v-301h-917v301h286v832h-278v301h901v-301h-279v-832z" />
    <glyph glyph-name="glyph249" horiz-adv-x="1060" 
d="M250 1571v-2q-66 0 -109 43t-43 106q0 66 43 109t109 43q63 0 106 -43t43 -107q0 -63 -43 -106t-106 -43zM803 1573l-2 -2q-66 0 -109 43t-43 106q0 66 43 109t109 43q65 0 108 -43t43 -107q0 -63 -43 -106t-106 -43zM702 301h287v-301h-917v301h286v832h-278v301h901
v-301h-279v-832z" />
    <glyph glyph-name="glyph250" horiz-adv-x="1060" 
d="M535 1571l-5 -4q-63 0 -106 43t-43 108q0 66 43 109t108 43q66 0 109 -43t43 -107q0 -63 -43 -106t-106 -43zM702 301h287v-301h-917v301h286v832h-278v301h901v-301h-279v-832z" />
    <glyph glyph-name="glyph251" horiz-adv-x="1060" 
d="M741 1669l-98 -180l-508 211l117 231zM702 301h287v-301h-917v301h286v832h-278v301h901v-301h-279v-832z" />
    <glyph glyph-name="glyph252" horiz-adv-x="1060" 
d="M981 1833v-264h-901v264h901zM702 301h287v-301h-917v301h286v832h-278v301h901v-301h-279v-832z" />
    <glyph glyph-name="glyph253" horiz-adv-x="1060" 
d="M989 0h-500l3 2q-42 0 -78 -8t-74 -31q-34 -20 -55 -51q-21 -30 -21 -76t35 -84q34 -37 104 -37q52 0 103 31q48 29 76 84l176 -117q-58 -107 -156 -159q-102 -54 -199 -54q-76 0 -153 23q-70 21 -123 65t-80 105q-29 66 -29 141q0 43 17 92q16 46 37 76v299h286v832
h-278v301h901v-301h-279v-832h287v-301z" />
    <glyph glyph-name="glyph254" horiz-adv-x="1390" 
d="M313 1434h944l-2 -805q0 -161 -47 -285q-46 -122 -133 -209q-86 -86 -205 -129q-121 -41 -260 -41q-96 0 -194 29q-88 23 -170 76q-78 51 -135 116q-58 66 -93 148l338 90q36 -62 103 -98q65 -35 153 -35q141 0 222 90q79 88 79 244v487h-600v322z" />
    <glyph glyph-name="glyph255" horiz-adv-x="1390" 
d="M752 1675l-238 -196l-166 168l404 342l401 -342l-164 -168zM313 1434h944l-2 -805q0 -161 -47 -285q-46 -122 -133 -209q-86 -86 -205 -129q-121 -41 -260 -41q-96 0 -194 29q-88 23 -170 76q-78 51 -135 116q-58 66 -93 148l338 90q36 -62 103 -98q65 -35 153 -35
q141 0 222 90q79 88 79 244v487h-600v322z" />
    <glyph glyph-name="glyph256" horiz-adv-x="1605" 
d="M1102 1434h344l-8 -1440h-344v463l-258 219q-55 50 -119 104q-22 19 -111 97q-47 41 -80 71l-30 29h-2v-10q1 -10 2 -31.5t2 -46.5q4 -114 4 -217v-678h-344v1431h323l226 -204q94 -86 141 -127q116 -101 127 -111q70 -62 92 -80l37 -31h2q0 31 -2 86t-2 216v260z" />
    <glyph glyph-name="glyph257" horiz-adv-x="1605" 
d="M901 1991l250 -140l-252 -370l-213 121zM1102 1434h344v-1440h-324l-293 397q-14 19 -104 148q-75 108 -104 147q-17 23 -44 61.5t-38 53.5l-33 45h-2v-39v-111v-168v-215v-315h-344v1432h323l305 -410q27 -36 86 -119q13 -19 49 -68t54 -75q53 -75 86 -119l37 -49h2v45
v117v163v191v328z" />
    <glyph glyph-name="glyph258" horiz-adv-x="1605" 
d="M893 1991l250 -140l-252 -370l-213 121zM1102 1434h344l-8 -1440h-344v463l-258 219q-55 50 -119 104q-22 19 -111 97q-47 41 -80 71l-30 29h-2v-10q1 -10 2 -31.5t2 -46.5q4 -114 4 -217v-678h-344v1431h323l226 -204q94 -86 141 -127q116 -101 127 -111q70 -62 92 -80
l37 -31h2q0 31 -2 86t-2 216v260z" />
    <glyph glyph-name="glyph259" horiz-adv-x="1605" 
d="M1028 1923l117 -231l-508 -211l-98 180zM1102 1434h344l-8 -1440h-344v463l-258 219q-55 50 -119 104q-22 19 -111 97q-47 41 -80 71l-30 29h-2v-10q1 -10 2 -31.5t2 -46.5q4 -114 4 -217v-678h-344v1431h323l226 -204q94 -86 141 -127q116 -101 127 -111q70 -62 92 -80
l37 -31h2q0 31 -2 86t-2 216v260z" />
    <glyph glyph-name="glyph260" horiz-adv-x="1605" 
d="M1446 1434h-344l-4 -256q-2 -98 2 -215q2 -55 2 -86h-2l-35 30q-22 18 -92 80q-100 89 -125 111q-47 41 -141 127l-226 205h-323v-1432h344v678q0 162 -2 219t-2 90h2l32 -29q33 -30 80 -71q89 -78 111 -97q105 -89 121 -104l258 -219v-465h344v1434zM803 1481l-404 342
l166 168l238 -197l237 197l164 -168z" />
    <glyph glyph-name="glyph261" horiz-adv-x="1605" 
d="M1108 1432h344l-8 -1440h-344v463l-258 219q-55 50 -119 104q-61 52 -111 96l-80 72l-30 29h-2v-10q1 -10 2 -31.5t2 -46.5q4 -114 4 -217v-678h-344v1431h323l226 -204q94 -86 141 -127q116 -101 127 -111q70 -62 92 -80l37 -31h2q0 31 -2 86t-2 215v261zM776 -367l29 9
l-23 2q-39 3 -73 37q-35 35 -35 92q0 59 43 102t104 43t103 -45q43 -46 43 -119q0 -36 -17 -92q-13 -42 -43 -94q-25 -43 -67 -88q-43 -46 -86 -78h-113q26 16 49 45q28 35 43 64q23 44 31 67q12 35 12 55z" />
    <glyph glyph-name="glyph262" horiz-adv-x="1605" 
d="M1030 1827h266l2 -2q0 -71 -24 -129q-23 -56 -68 -101q-43 -43 -102 -67q-61 -25 -129 -25q-55 0 -101 19q-33 14 -79 43q-55 35 -70 43q-34 18 -68 18q-41 0 -65 -24q-25 -25 -25 -64h-266q0 68 25 129q24 59 67 102q44 44 103 68q61 25 129 25q56 0 102 -19
q36 -15 80 -43q5 -3 30 -19.5t37 -23.5q30 -18 66 -18q42 0 66 24t24 64zM1102 1434h344l-8 -1440h-344v463l-258 219q-55 50 -119 104q-22 19 -111 97q-47 41 -80 71l-30 29h-2v-10q1 -10 2 -31.5t2 -46.5q4 -114 4 -217v-678h-344v1431h323l226 -204q94 -86 141 -127
q116 -101 127 -111q70 -62 92 -80l37 -31h2q0 31 -2 86t-2 216v260z" />
    <glyph glyph-name="glyph263" horiz-adv-x="1632" 
d="M913 1991l250 -140l-252 -370l-213 121zM68 713l-7 -4q0 159 60 301q59 139 160 237t237 154q134 55 289 55t289 -55q136 -56 237 -154q103 -100 160 -235q59 -139 59 -301q0 -167 -57 -301q-58 -137 -160 -236q-101 -98 -237 -154q-136 -53 -289 -53t-289 53
q-132 54 -235 154q-100 97 -160 238q-57 134 -57 301zM430 717l-4 -4q0 -85 29 -164q27 -74 77 -127q48 -51 121 -82t158 -31q87 0 160 31q68 29 123 84q53 53 80 127q28 76 28 164q0 93 -26 164q-27 74 -80 127q-55 55 -123 84q-71 30 -160 30q-87 0 -158 -30t-120 -82
q-51 -54 -78 -127t-27 -164z" />
    <glyph glyph-name="glyph264" horiz-adv-x="1693" 
d="M1583 334h47l-6 -342h-819q-160 0 -289 53q-132 54 -235 154q-102 99 -160 233t-58 295q0 157 60 295q58 134 160 233q103 100 235 154q134 55 289 55t289 -55q136 -56 237 -154q102 -99 160 -233q59 -136 59 -295q0 -115 -30 -217q-30 -101 -88 -186l2 -2q2 0 32 6
t115 6zM430 731l-2 -4q0 -91 31 -164q30 -71 82 -123q53 -53 123 -80q68 -26 149 -26q82 0 150 26t122 80q55 55 84 123q31 73 31 164q0 88 -31 164q-30 73 -82 125q-54 54 -122 80q-73 28 -150 28q-81 0 -149 -26q-70 -27 -123 -80q-52 -52 -82 -125q-31 -76 -31 -162z" />
    <glyph glyph-name="glyph265" horiz-adv-x="1257" 
d="M748 1999l249 -139l-252 -371l-213 121zM1194 1069l-332 -90h-8q-27 94 -98 141q-68 45 -148 45q-79 0 -119 -32q-43 -34 -43 -76q0 -35 25 -60q27 -27 68 -47q58 -28 100 -41q43 -13 123 -43q88 -30 158 -67q82 -44 139 -92q60 -51 98 -123q37 -70 37 -162
q0 -101 -39 -180q-41 -84 -113 -144q-70 -58 -178 -94q-108 -31 -229 -31q-229 0 -379 115q-155 118 -225 320l329 88q11 -29 41 -80q23 -39 62 -70q40 -32 84 -49q47 -18 104 -18q93 0 135 36q43 37 43 91q0 44 -30 71q-34 31 -80 53q-67 32 -117 48q-35 11 -143 49
q-54 20 -129 55q-63 30 -117 80q-51 48 -86 117q-33 65 -33 161q0 83 41 160q41 76 111 135q68 56 170 92q100 35 215 35q103 0 194 -30q95 -31 166 -82q73 -52 125 -125q55 -77 78 -156z" />
    <glyph glyph-name="glyph266" horiz-adv-x="1480" 
d="M1460 1434l-483 -703h205v-280h-275v-451h-342v451h-270v280h205l-484 703h385l261 -383q32 -49 51 -74q23 -29 24 -29h2q2 0 25 29q19 25 51 74l260 383h385z" />
    <glyph glyph-name="glyph267" horiz-adv-x="1480" 
d="M1085 1700l-507 -211l-99 180l490 262zM1460 1434l-483 -703h205v-280h-275v-451h-342v451h-270v280h205l-484 703h385l261 -383q32 -49 51 -74q23 -29 24 -29h2q2 0 25 29q19 25 51 74l260 383h385z" />
    <glyph glyph-name="glyph268" horiz-adv-x="1480" 
d="M727 1683l-238 -196l-165 168l403 342l401 -342l-163 -168zM1460 1434l-483 -703h205v-280h-275v-451h-342v451h-270v280h205l-484 703h385l261 -383q32 -49 51 -74q23 -29 24 -29h2q2 0 25 29q19 25 51 74l260 383h385z" />
    <glyph glyph-name="glyph269" horiz-adv-x="1480" 
d="M451 1571v-2q-66 0 -109 43t-43 106q0 66 43 109t109 43q63 0 106 -43t43 -107q0 -63 -43 -106t-106 -43zM1004 1573l-3 -2q-65 0 -108 43t-43 106q0 66 43 109t108 43q66 0 109 -43t43 -107q0 -63 -43 -106t-106 -43zM1460 1434l-483 -703h205v-280h-275v-451h-342v451
h-270v280h205l-484 703h385l261 -383q32 -49 51 -74q23 -29 24 -29h2q2 0 25 29q19 25 51 74l260 383h385z" />
    <glyph glyph-name="glyph270" horiz-adv-x="1480" 
d="M942 1669l-98 -180l-508 211l117 231zM1460 1434l-483 -703h205v-280h-275v-451h-342v451h-270v280h205l-484 703h385l261 -383q32 -49 51 -74q23 -29 24 -29h2q2 0 25 29q19 25 51 74l260 383h385z" />
    <glyph glyph-name="glyph271" horiz-adv-x="1458" 
d="M846 1987l250 -140l-252 -370l-213 120zM1335 1434v-322l-612 -670l-49 -49l-43 -43l-31 -31l-12 -12l2 -2l8 1q7 0 23.5 1t35.5 2q86 4 158 4h518v-319h-1212v319l639 672q18 22 43 43q24 21 45 39q28 24 35 31l14 12l-2 2h-23h-55h-74h-73h-527v322h1192z" />
    <glyph glyph-name="glyph272" horiz-adv-x="1544" 
d="M899 1985l250 -140l-252 -370l-213 120zM1466 1081l-350 -92l-12 -14q-49 61 -131 98q-81 37 -168 37t-160 -31q-70 -30 -121 -84q-46 -49 -75 -127q-27 -74 -27 -161t29 -166q28 -76 79 -127q53 -53 123 -80t154 -27q105 0 194 47t136 121l348 -90q-49 -99 -113 -172
q-70 -79 -153 -133q-89 -58 -191 -84q-108 -31 -217 -31q-153 0 -289 53q-132 54 -235 154q-100 97 -160 238q-57 134 -57 301q0 162 59 301t160 237t237 154q134 55 289 55q110 0 205 -26q98 -27 180 -76q89 -54 152 -119q68 -71 114 -156z" />
    <glyph glyph-name="glyph273" horiz-adv-x="1390" 
d="M313 1434h944l-2 -805q0 -161 -47 -285q-46 -122 -133 -209q-86 -86 -205 -129q-121 -41 -260 -41q-96 0 -194 29q-88 23 -170 76q-78 51 -135 116q-58 66 -93 148l338 90q36 -62 103 -98q65 -35 153 -35q141 0 222 90q79 88 79 244v487h-600v322z" />
    <glyph glyph-name="glyph274" horiz-adv-x="1060" 
d="M702 301h287v-301h-917v301h286v832h-278v301h901v-301h-279v-832z" />
    <glyph glyph-name="glyph275" horiz-adv-x="1060" 
d="M885 1700l-508 -211l-98 180l489 262zM702 301h287v-301h-917v301h286v832h-278v301h901v-301h-279v-832z" />
    <glyph glyph-name="glyph276" horiz-adv-x="1060" 
d="M526 1683l-237 -196l-166 168l403 342l402 -342l-164 -168zM702 301h287v-301h-917v301h286v832h-278v301h901v-301h-279v-832z" />
    <glyph glyph-name="glyph277" horiz-adv-x="1060" 
d="M250 1571v-2q-66 0 -109 43t-43 106q0 66 43 109t109 43q63 0 106 -43t43 -107q0 -63 -43 -106t-106 -43zM803 1573l-2 -2q-66 0 -109 43t-43 106q0 66 43 109t109 43q65 0 108 -43t43 -107q0 -63 -43 -106t-106 -43zM702 301h287v-301h-917v301h286v832h-278v301h901
v-301h-279v-832z" />
    <glyph glyph-name="glyph278" horiz-adv-x="1060" 
d="M535 1571l-5 -4q-63 0 -106 43t-43 108q0 66 43 109t108 43q66 0 109 -43t43 -107q0 -63 -43 -106t-106 -43zM702 301h287v-301h-917v301h286v832h-278v301h901v-301h-279v-832z" />
    <glyph glyph-name="glyph279" horiz-adv-x="1060" 
d="M741 1669l-98 -180l-508 211l117 231zM702 301h287v-301h-917v301h286v832h-278v301h901v-301h-279v-832z" />
    <glyph glyph-name="glyph280" horiz-adv-x="2420" 
d="M700 1124v-831h287v-299h-917v299h286v831h-278v301h901v-301h-279zM1944 1434h344l-2 -805q0 -158 -48 -285q-46 -122 -133 -209q-86 -86 -204 -129q-121 -41 -261 -41q-96 0 -194 29q-88 23 -170 76q-78 51 -135 116q-56 64 -92 148l337 90q36 -62 103 -98
q65 -35 153 -35q141 0 222 90q80 89 80 244v809z" />
    <glyph glyph-name="glyph281" horiz-adv-x="2410" 
d="M700 1124v-831h287v-299h-917v299h286v831h-278v301h901v-301h-279zM1333 1434h944l-2 -805q0 -161 -47 -285q-46 -122 -133 -209q-86 -86 -205 -129q-121 -41 -260 -41q-96 0 -194 29q-88 23 -170 76q-81 52 -136 116q-56 64 -92 148l338 90q36 -62 103 -98
q65 -35 153 -35q140 0 221 90q80 89 80 244v487h-600v322z" />
    <glyph glyph-name="glyph282" horiz-adv-x="2013" 
d="M158 -6v1431h344v-1431h-344zM936 1434h944l-2 -805q0 -161 -47 -285q-46 -122 -133 -209q-86 -86 -205 -129q-121 -41 -260 -41q-97 0 -195 29q-88 23 -170 76q-78 51 -135 116q-56 64 -92 148l338 90q37 -63 102 -98t154 -35q140 0 221 90q80 89 80 244v487h-600v322z
" />
    <glyph glyph-name="glyph283" horiz-adv-x="1060" 
d="M981 1833v-264h-901v264h901zM702 301h287v-301h-917v301h286v832h-278v301h901v-301h-279v-832z" />
    <glyph glyph-name="glyph284" horiz-adv-x="1060" 
d="M989 0h-500l3 2q-42 0 -78 -8t-74 -31q-34 -20 -55 -51q-21 -30 -21 -76t35 -84q34 -37 104 -37q52 0 103 31q48 29 76 84l176 -117q-58 -107 -156 -159q-102 -54 -199 -54q-76 0 -153 23q-70 21 -123 65t-80 105q-29 66 -29 141q0 43 17 92q16 46 37 76v299h286v832
h-278v301h901v-301h-279v-832h287v-301z" />
    <glyph glyph-name="glyph285" horiz-adv-x="1390" 
d="M313 1434h944l-2 -805q0 -161 -47 -285q-46 -122 -133 -209q-86 -86 -205 -129q-121 -41 -260 -41q-96 0 -194 29q-88 23 -170 76q-78 51 -135 116q-58 66 -93 148l338 90q36 -62 103 -98q65 -35 153 -35q141 0 222 90q79 88 79 244v487h-600v322z" />
    <glyph glyph-name="glyph286" horiz-adv-x="1390" 
d="M752 1675l-238 -196l-166 168l404 342l401 -342l-164 -168zM313 1434h944l-2 -805q0 -161 -47 -285q-46 -122 -133 -209q-86 -86 -205 -129q-121 -41 -260 -41q-96 0 -194 29q-88 23 -170 76q-78 51 -135 116q-58 66 -93 148l338 90q36 -62 103 -98q65 -35 153 -35
q141 0 222 90q79 88 79 244v487h-600v322z" />
    <glyph glyph-name="glyph287" horiz-adv-x="1605" 
d="M1102 1434h344l-8 -1440h-344v463l-258 219q-55 50 -119 104q-22 19 -111 97q-47 41 -80 71l-30 29h-2v-10q1 -10 2 -31.5t2 -46.5q4 -114 4 -217v-678h-344v1431h323l226 -204q94 -86 141 -127q116 -101 127 -111q70 -62 92 -80l37 -31h2q0 31 -2 86t-2 216v260z" />
    <glyph glyph-name="glyph288" horiz-adv-x="1605" 
d="M901 1991l250 -140l-252 -370l-213 121zM1102 1434h344v-1440h-324l-293 397q-14 19 -104 148q-75 108 -104 147q-17 23 -44 61.5t-38 53.5l-33 45h-2v-39v-111v-168v-215v-315h-344v1432h323l305 -410q27 -36 86 -119q13 -19 49 -68t54 -75q53 -75 86 -119l37 -49h2v45
v117v163v191v328z" />
    <glyph glyph-name="glyph289" horiz-adv-x="1605" 
d="M893 1991l250 -140l-252 -370l-213 121zM1102 1434h344l-8 -1440h-344v463l-258 219q-55 50 -119 104q-22 19 -111 97q-47 41 -80 71l-30 29h-2v-10q1 -10 2 -31.5t2 -46.5q4 -114 4 -217v-678h-344v1431h323l226 -204q94 -86 141 -127q116 -101 127 -111q70 -62 92 -80
l37 -31h2q0 31 -2 86t-2 216v260z" />
    <glyph glyph-name="glyph290" horiz-adv-x="1605" 
d="M1028 1923l117 -231l-508 -211l-98 180zM1102 1434h344l-8 -1440h-344v463l-258 219q-55 50 -119 104q-22 19 -111 97q-47 41 -80 71l-30 29h-2v-10q1 -10 2 -31.5t2 -46.5q4 -114 4 -217v-678h-344v1431h323l226 -204q94 -86 141 -127q116 -101 127 -111q70 -62 92 -80
l37 -31h2q0 31 -2 86t-2 216v260z" />
    <glyph glyph-name="glyph291" horiz-adv-x="1605" 
d="M1446 1434h-344l-4 -256q-2 -98 2 -215q2 -55 2 -86h-2l-35 30q-22 18 -92 80q-100 89 -125 111q-47 41 -141 127l-226 205h-323v-1432h344v678q0 162 -2 219t-2 90h2l32 -29q33 -30 80 -71q89 -78 111 -97q105 -89 121 -104l258 -219v-465h344v1434zM803 1481l-404 342
l166 168l238 -197l237 197l164 -168z" />
    <glyph glyph-name="glyph292" horiz-adv-x="1605" 
d="M1108 1432h344l-8 -1440h-344v463l-258 219q-55 50 -119 104q-61 52 -111 96l-80 72l-30 29h-2v-10q1 -10 2 -31.5t2 -46.5q4 -114 4 -217v-678h-344v1431h323l226 -204q94 -86 141 -127q116 -101 127 -111q70 -62 92 -80l37 -31h2q0 31 -2 86t-2 215v261zM776 -367l29 9
l-23 2q-39 3 -73 37q-35 35 -35 92q0 59 43 102t104 43t103 -45q43 -46 43 -119q0 -36 -17 -92q-13 -42 -43 -94q-25 -43 -67 -88q-43 -46 -86 -78h-113q26 16 49 45q28 35 43 64q23 44 31 67q12 35 12 55z" />
    <glyph glyph-name="glyph293" horiz-adv-x="1605" 
d="M1030 1827h266l2 -2q0 -71 -24 -129q-23 -56 -68 -101q-43 -43 -102 -67q-61 -25 -129 -25q-55 0 -101 19q-33 14 -79 43q-55 35 -70 43q-34 18 -68 18q-41 0 -65 -24q-25 -25 -25 -64h-266q0 68 25 129q24 59 67 102q44 44 103 68q61 25 129 25q56 0 102 -19
q36 -15 80 -43q5 -3 30 -19.5t37 -23.5q30 -18 66 -18q42 0 66 24t24 64zM1102 1434h344l-8 -1440h-344v463l-258 219q-55 50 -119 104q-22 19 -111 97q-47 41 -80 71l-30 29h-2v-10q1 -10 2 -31.5t2 -46.5q4 -114 4 -217v-678h-344v1431h323l226 -204q94 -86 141 -127
q116 -101 127 -111q70 -62 92 -80l37 -31h2q0 31 -2 86t-2 216v260z" />
    <glyph glyph-name="glyph294" horiz-adv-x="1632" 
d="M913 1991l250 -140l-252 -370l-213 121zM68 713l-7 -4q0 159 60 301q59 139 160 237t237 154q134 55 289 55t289 -55q136 -56 237 -154q103 -100 160 -235q59 -139 59 -301q0 -167 -57 -301q-58 -137 -160 -236q-101 -98 -237 -154q-136 -53 -289 -53t-289 53
q-132 54 -235 154q-100 97 -160 238q-57 134 -57 301zM430 717l-4 -4q0 -85 29 -164q27 -74 77 -127q48 -51 121 -82t158 -31q87 0 160 31q68 29 123 84q53 53 80 127q28 76 28 164q0 93 -26 164q-27 74 -80 127q-55 55 -123 84q-71 30 -160 30q-87 0 -158 -30t-120 -82
q-51 -54 -78 -127t-27 -164z" />
    <glyph glyph-name="glyph295" horiz-adv-x="1693" 
d="M1583 334h47l-6 -342h-819q-160 0 -289 53q-132 54 -235 154q-102 99 -160 233t-58 295q0 157 60 295q58 134 160 233q103 100 235 154q134 55 289 55t289 -55q136 -56 237 -154q102 -99 160 -233q59 -136 59 -295q0 -115 -30 -217q-30 -101 -88 -186l2 -2q2 0 32 6
t115 6zM430 731l-2 -4q0 -91 31 -164q30 -71 82 -123q53 -53 123 -80q68 -26 149 -26q82 0 150 26t122 80q55 55 84 123q31 73 31 164q0 88 -31 164q-30 73 -82 125q-54 54 -122 80q-73 28 -150 28q-81 0 -149 -26q-70 -27 -123 -80q-52 -52 -82 -125q-31 -76 -31 -162z" />
    <glyph glyph-name="glyph296" horiz-adv-x="1257" 
d="M748 1999l249 -139l-252 -371l-213 121zM1194 1069l-332 -90h-8q-27 94 -98 141q-68 45 -148 45q-79 0 -119 -32q-43 -34 -43 -76q0 -35 25 -60q27 -27 68 -47q58 -28 100 -41q43 -13 123 -43q88 -30 158 -67q82 -44 139 -92q60 -51 98 -123q37 -70 37 -162
q0 -101 -39 -180q-41 -84 -113 -144q-70 -58 -178 -94q-108 -31 -229 -31q-229 0 -379 115q-155 118 -225 320l329 88q11 -29 41 -80q23 -39 62 -70q40 -32 84 -49q47 -18 104 -18q93 0 135 36q43 37 43 91q0 44 -30 71q-34 31 -80 53q-67 32 -117 48q-35 11 -143 49
q-54 20 -129 55q-63 30 -117 80q-51 48 -86 117q-33 65 -33 161q0 83 41 160q41 76 111 135q68 56 170 92q100 35 215 35q103 0 194 -30q95 -31 166 -82q73 -52 125 -125q55 -77 78 -156z" />
    <glyph glyph-name="glyph297" horiz-adv-x="1480" 
d="M1460 1434l-483 -703h205v-280h-275v-451h-342v451h-270v280h205l-484 703h385l261 -383q32 -49 51 -74q23 -29 24 -29h2q2 0 25 29q19 25 51 74l260 383h385z" />
    <glyph glyph-name="glyph298" horiz-adv-x="1480" 
d="M1085 1700l-507 -211l-99 180l490 262zM1460 1434l-483 -703h205v-280h-275v-451h-342v451h-270v280h205l-484 703h385l261 -383q32 -49 51 -74q23 -29 24 -29h2q2 0 25 29q19 25 51 74l260 383h385z" />
    <glyph glyph-name="glyph299" horiz-adv-x="1480" 
d="M727 1683l-238 -196l-165 168l403 342l401 -342l-163 -168zM1460 1434l-483 -703h205v-280h-275v-451h-342v451h-270v280h205l-484 703h385l261 -383q32 -49 51 -74q23 -29 24 -29h2q2 0 25 29q19 25 51 74l260 383h385z" />
    <glyph glyph-name="glyph300" horiz-adv-x="1480" 
d="M451 1571v-2q-66 0 -109 43t-43 106q0 66 43 109t109 43q63 0 106 -43t43 -107q0 -63 -43 -106t-106 -43zM1004 1573l-3 -2q-65 0 -108 43t-43 106q0 66 43 109t108 43q66 0 109 -43t43 -107q0 -63 -43 -106t-106 -43zM1460 1434l-483 -703h205v-280h-275v-451h-342v451
h-270v280h205l-484 703h385l261 -383q32 -49 51 -74q23 -29 24 -29h2q2 0 25 29q19 25 51 74l260 383h385z" />
    <glyph glyph-name="glyph301" horiz-adv-x="1480" 
d="M942 1669l-98 -180l-508 211l117 231zM1460 1434l-483 -703h205v-280h-275v-451h-342v451h-270v280h205l-484 703h385l261 -383q32 -49 51 -74q23 -29 24 -29h2q2 0 25 29q19 25 51 74l260 383h385z" />
    <glyph glyph-name="glyph302" horiz-adv-x="1458" 
d="M846 1987l250 -140l-252 -370l-213 120zM1335 1434v-322l-612 -670l-49 -49l-43 -43l-31 -31l-12 -12l2 -2l8 1q7 0 23.5 1t35.5 2q86 4 158 4h518v-319h-1212v319l639 672q18 22 43 43q24 21 45 39q28 24 35 31l14 12l-2 2h-23h-55h-74h-73h-527v322h1192z" />
    <glyph glyph-name="glyph326" horiz-adv-x="1468" 
d="M735 1462l-4 -4q157 0 277 -57q125 -59 209 -160q87 -104 133 -237q47 -136 47 -289q0 -158 -45 -289q-48 -139 -131 -238t-209 -159q-124 -56 -277 -56q-147 0 -276 58q-126 60 -209 159t-131 238q-45 131 -45 289t45 289q47 137 131 237q84 101 209 160q124 59 276 59z
M477 471l379 627q-52 24 -121 24q-79 0 -137 -30q-55 -28 -94 -86q-37 -54 -55 -129q-19 -78 -19 -160q0 -71 12 -133q10 -50 35 -113zM991 958l-377 -624h2q57 -23 119 -23q77 0 137 31q56 29 95 86q37 54 55 129q18 74 18 160q0 69 -12 131q-11 56 -37 110z" />
    <glyph glyph-name="glyph327" horiz-adv-x="768" 
d="M383 954q-80 0 -150 31q-65 29 -116 86q-49 55 -76 129t-27 164t27 166t76 131q51 57 116 86q70 31 150 31q77 0 147 -31q68 -30 115 -86q48 -57 74 -131t26 -166q0 -93 -26 -164q-27 -72 -74 -129q-47 -56 -115 -86q-70 -31 -147 -31zM385 1184l-2 -2q63 0 100 55
t37 131q0 78 -37 133t-100 55t-100 -55t-37 -131t37 -131t102 -55z" />
    <glyph glyph-name="glyph328" horiz-adv-x="737" 
d="M688 1284v-180h-84v-135h-194v135h-387v149l413 508h168v-477h84zM328 1284h80l2 111v47v28h-2q-4 0 -13 -12q-12 -16 -24 -28l-95 -109q-10 -11 -23 -27l-15 -16l2 -2q1 0 4.5 0.5t10 1.5t13.5 2q32 4 60 4z" />
    <glyph glyph-name="glyph329" horiz-adv-x="700" 
d="M256 1470l2 -2l-2 -4q11 11 29 23t59 12q141 0 221 -74t80 -192q0 -59 -24 -111q-23 -50 -64 -88q-43 -40 -94 -59q-56 -21 -119 -21q-62 0 -117 19q-48 17 -92 49q-40 29 -65 72q-26 43 -31 80l192 53q8 -32 35 -62q23 -26 72 -26t80 28t31 72q0 46 -31 74t-80 28
q-71 0 -98 -59l-179 49l78 434h461v-190h-309q-7 -33 -23 -72q-12 -30 -12 -33z" />
    <glyph glyph-name="glyph330" horiz-adv-x="694" 
d="M532 1765l-204 -274l-2 -4q3 3 16 6q16 4 27 4q62 0 112 -20q49 -19 86 -60q38 -41 54 -86q18 -49 18 -104q0 -58 -25 -113q-24 -53 -63 -86q-41 -35 -96 -53q-59 -19 -121 -19q-61 0 -123 19q-56 17 -100 55q-46 40 -68 88q-25 55 -25 117q0 95 37 168t99 156l155 206
h223zM332 1139q51 0 80 26q30 27 30 74t-30 74q-29 26 -80 26t-80 -26q-31 -28 -31 -74t31 -74q29 -26 80 -26z" />
    <glyph glyph-name="glyph331" horiz-adv-x="645" 
d="M20 1765h615l-2 -120l-369 -674h-215l254 465q37 64 68 104q28 36 28 37l-2 2q-16 0 -45 -2t-108 -2h-224v190z" />
    <glyph glyph-name="glyph332" horiz-adv-x="647" 
d="M469 1384v-2l-4 -2q29 -10 55 -24t49 -41t37 -58q15 -35 15 -73q0 -46 -23 -94q-20 -41 -61 -76q-37 -32 -97 -51q-59 -19 -121 -19q-61 0 -120 19q-60 19 -97 51q-41 35 -61 76q-23 48 -23 94q0 38 15 73q14 31 37 58t49 41q25 14 55 24v2q-16 3 -39 19q-19 13 -39 37
q-16 19 -30 53q-13 32 -13 68q0 43 19 86q18 40 55 67q41 29 86 43q56 17 109 17q50 0 106 -17q45 -14 86 -43q37 -27 55 -67q19 -43 19 -86q0 -36 -13 -68q-12 -30 -30 -51q-20 -24 -39 -37q-23 -16 -37 -19zM227 1561l-4 -7q0 -32 29 -55q26 -20 67 -20q42 0 70 22
q27 21 27 55q0 35 -27 56q-26 20 -67 20q-42 0 -68 -20q-27 -21 -27 -51zM211 1202v-4q0 -42 33 -65q36 -25 80 -25q49 0 79 27q31 28 31 67q0 43 -33 66q-34 24 -79 24q-51 0 -80 -26q-31 -28 -31 -64z" />
    <glyph glyph-name="glyph333" horiz-adv-x="663" 
d="M104 973l238 274l-8 -2q-3 -3 -19 -6q-20 -4 -24 -4q-58 0 -113 22q-49 19 -86 60q-36 39 -53 86q-19 52 -19 104q0 58 25 113q22 49 66 86q41 35 96 53q59 19 121 19q61 0 123 -19q56 -17 100 -55t67 -88q25 -55 25 -117q0 -93 -35 -168q-37 -78 -98 -151l-170 -207
h-236zM326 1602q-50 0 -80 -27q-31 -28 -31 -74t31 -74q29 -26 80 -26t80 26q30 27 30 74t-30 74t-80 27z" />
    <glyph glyph-name="glyph334" 
d="M713 1458l-6 -12q155 0 268 -64q117 -66 188 -168q74 -106 111 -239t37 -273q0 -139 -37 -272q-38 -135 -111 -240q-70 -100 -188 -167q-115 -62 -266 -62q-148 0 -267 64q-111 63 -186 170q-74 106 -111 239q-36 130 -36 275q0 144 36 274q37 135 111 240t188 170
q115 65 269 65zM713 1122v-4q-80 0 -129 -43q-51 -45 -74 -104q-25 -64 -31 -133q-6 -70 -6 -125t6 -125q6 -69 31 -133q24 -61 74 -105q49 -43 129 -43q81 0 127 43t73 105q28 64 37 133q8 63 8 127t-8 127q-9 69 -37 133q-27 61 -73 104t-127 43z" />
    <glyph glyph-name="glyph335" 
d="M973 322h334v-324h-1018v319h340v369v80q0 32 4 78q2 23 2 59v25h-2q-2 0 -37 -41t-80 -86l-63 -64l-211 203l491 494h240v-1112z" />
    <glyph glyph-name="glyph336" 
d="M475 979l-317 84l-4 4q25 88 73 160q51 76 117 127q69 54 158 84t196 30q122 0 213 -36q98 -39 164 -99q67 -61 105 -147q37 -84 37 -185q0 -99 -31 -178q-30 -76 -82 -137q-52 -62 -117 -111q-22 -17 -129 -94q-15 -10 -43 -30.5t-43 -30.5q-16 -11 -42.5 -29.5
t-35.5 -25.5q-15 -11 -55 -39l-21 -15l3 -2q3 0 98 6q110 7 258 7h244v-322h-1053v281q55 49 295 260t295 260q114 99 114 194q0 66 -49 115t-135 49q-48 0 -86 -18q-37 -18 -61 -45q-25 -28 -41 -60q-18 -36 -25 -57z" />
    <glyph glyph-name="glyph337" 
d="M485 979l-307 82l-12 -12q24 90 74 165q51 76 120 127q71 53 160 80q95 29 195 29q129 0 219 -33q99 -36 162 -88q67 -55 102 -133t35 -166q0 -70 -27 -125t-67 -92q-39 -36 -88 -57q-53 -22 -88 -25v-2q59 0 112 -20q55 -21 99 -62q43 -40 67 -98q25 -61 25 -131
q0 -103 -39 -182q-41 -84 -113 -144q-75 -63 -172 -92q-95 -33 -217 -33q-99 0 -197 31q-90 26 -172 82q-73 50 -131 127q-53 70 -75 160l311 86q24 -77 86 -127t160 -50q34 0 75 13q37 12 64 33q29 22 43 51q16 32 16 71q0 70 -55 113t-150 43h-120v268h120q97 0 140 43
t43 103q0 64 -49 104q-50 41 -132 41q-79 0 -131 -43t-86 -137z" />
    <glyph glyph-name="glyph338" 
d="M1307 557v-299h-154v-258h-324v258h-716v258l757 918h283v-877h154zM668 557h155l6 70v114v109q0 12 -0.5 30t-0.5 31t1 23l2 33h-2l-14 -19q-30 -36 -37 -45q-5 -7 -20.5 -27.5t-24.5 -31.5q-43 -53 -45 -56l-115 -135l-77 -94v-2h55h117z" />
    <glyph glyph-name="glyph339" 
d="M537 909l2 -2l-9 -2q27 15 64 23q48 10 100 10q111 0 211 -35q98 -34 172 -96t115 -148q41 -87 41 -188q0 -106 -41 -199q-40 -92 -111 -159q-70 -67 -170 -105q-100 -35 -213 -35q-102 0 -200 29q-90 30 -162 80q-69 48 -117 115q-47 66 -65 135l315 84q7 -18 25 -51
q15 -27 41 -50q24 -21 61 -36t86 -15q87 0 147 60q58 58 58 147q0 90 -60 147q-59 56 -141 56q-42 0 -80 -10q-32 -8 -55 -25q-21 -15 -33 -33t-18 -33l-297 82l129 777h815v-322h-567l-5 -20q-20 -102 -30 -142q-8 -33 -8 -39z" />
    <glyph glyph-name="glyph340" 
d="M1055 1432l-381 -508l2 -11q12 8 37 25q20 14 80 14q112 0 202 -41q93 -43 152 -110q58 -66 94 -162q33 -88 33 -193q0 -109 -43 -196q-45 -92 -119 -154q-80 -67 -180 -96q-107 -35 -223 -35q-112 0 -215 35q-100 29 -179 96q-76 64 -120 160q-43 93 -43 215
q0 87 18 160t53 145q39 80 80 142q47 70 105 147l276 367h371zM723 272v-2q101 0 164 60q61 58 61 147q0 94 -63 148q-64 55 -162 55q-104 0 -164 -57q-61 -58 -61 -148q0 -93 63 -147q65 -56 162 -56z" />
    <glyph glyph-name="glyph341" 
d="M225 1434h1098l-2 -203l-692 -1233h-369l436 766q45 78 74 125q12 20 35 56.5t33 53.5q32 53 51 80l20 31l-2 2h-20h-53h-66h-61h-482v322z" />
    <glyph glyph-name="glyph342" 
d="M979 764v-2l8 -6q45 -11 98 -43t91 -76q41 -48 65 -105q25 -61 25 -133q0 -92 -41 -172q-39 -76 -115 -137q-77 -62 -174 -90q-103 -35 -221 -35t-221 35q-98 29 -175 90q-73 58 -114 139q-41 80 -41 172q0 75 24 136q21 55 66 106q41 47 90 74q57 31 98 41v2
q-25 6 -65 31q-32 21 -70 65q-31 37 -57 96q-25 58 -25 123q0 84 37 154q39 73 100 123q63 51 154 82q88 30 195 30q105 0 194 -30q91 -31 154 -82q61 -50 100 -123q37 -70 37 -154q0 -65 -25 -123q-24 -55 -57 -94q-32 -37 -72 -63q-41 -26 -63 -31zM522 1059h-2
q0 -64 55 -107t140 -43q87 0 139 43q53 44 53 107q0 72 -55 115t-137 43q-88 0 -140 -46q-53 -47 -53 -112zM494 418q0 -80 61 -129t158 -49q101 0 161 51q62 53 62 129q0 79 -62 129q-61 49 -157 49q-102 0 -162 -51q-61 -52 -61 -129z" />
    <glyph glyph-name="glyph343" 
d="M258 0l442 502l-2 6q-14 -17 -47 -27q-27 -8 -63 -8q-122 0 -215 41q-92 41 -154 109t-92 157q-31 91 -31 191q0 115 43 205q43 91 119 155q77 65 180 99t226 34q114 0 215 -34t178 -99q76 -64 123 -160q45 -91 45 -215q0 -121 -54 -266q-53 -142 -184 -297l-338 -393
h-391zM655 1159v-2q-103 0 -163 -57q-62 -59 -62 -148q0 -92 64 -147t161 -55q102 0 164 59t62 147q0 93 -64 148t-162 55z" />
    <glyph glyph-name="glyph344" 
d="M707 1466l-7 -12q158 0 269 -63q117 -66 188 -168q73 -105 111 -240q37 -133 37 -272q0 -140 -37 -273t-111 -239q-71 -102 -188 -168q-115 -62 -267 -62q-147 0 -266 64q-111 63 -186 170q-74 106 -111 239t-37 275q0 141 37 274q37 135 111 240t188 170q115 65 269 65z
M487 522l340 563l-2 5q-21 15 -51 24q-33 10 -67 10q-80 0 -129 -43q-51 -45 -74 -104q-25 -64 -31 -133q-6 -70 -6 -125q0 -22 4 -92q3 -47 16 -105zM938 897l-336 -557h-4q50 -29 111 -29q81 0 127 43t73 105q28 64 37 133q8 63 8 127q0 24 -4 86q-3 45 -12 92z" />
    <glyph glyph-name="glyph345" horiz-adv-x="768" 
d="M383 1448q77 0 147 -31q68 -30 115 -86q48 -57 74 -131t26 -166q0 -93 -26 -164q-27 -72 -74 -129q-47 -56 -115 -86t-147 -30q-83 0 -150 30q-65 29 -116 86q-49 55 -76 129t-27 164t27 166t76 131q51 57 116 86q70 31 150 31zM264 940l164 272h-2q-15 9 -43 9
q-62 0 -100 -56q-37 -55 -37 -131q0 -54 18 -94zM508 1122l-160 -264v-2q18 -6 37 -6q63 0 100 55t37 131q0 54 -14 86z" />
    <glyph glyph-name="glyph346" horiz-adv-x="768" 
d="M383 807q77 0 147 -31q68 -30 115 -86q48 -57 74 -131t26 -166q0 -93 -26 -164q-27 -72 -74 -129q-47 -56 -115 -86q-70 -28 -147 -28q-80 0 -150 28q-65 29 -116 86q-49 55 -76 129q-27 73 -27 164q0 89 27 166q27 76 76 131q51 57 116 86q70 31 150 31zM264 299
l164 272h-2q-15 9 -43 9q-62 0 -100 -56q-37 -55 -37 -131q0 -53 18 -94zM508 481l-160 -264v-2q18 -6 37 -6q63 0 100 55t37 131q0 54 -14 86z" />
    <glyph glyph-name="glyph347" horiz-adv-x="768" 
d="M383 1780q77 0 147 -31q68 -30 115 -86q48 -57 74 -131t26 -166q0 -93 -26 -164q-27 -72 -74 -129q-47 -56 -115 -86q-70 -31 -147 -31q-80 0 -150 31q-65 29 -116 86q-49 55 -76 129t-27 164t27 166t76 131q51 57 116 86q70 31 150 31zM264 1272l164 272h-2q-13 8 -43 8
q-63 0 -100 -55t-37 -131q0 -54 18 -94zM508 1454l-160 -264v-2q18 -6 37 -6q63 0 100 55t37 131q0 54 -14 86z" />
    <glyph glyph-name="glyph348" horiz-adv-x="768" 
d="M383 -16q-80 0 -150 28q-65 29 -116 86q-49 55 -76 129q-27 73 -27 164q0 89 27 166q27 76 76 131q51 57 116 86q70 31 150 31q77 0 147 -31q68 -30 115 -86q48 -57 74 -131t26 -166q0 -93 -26 -164q-27 -72 -74 -129q-47 -56 -115 -86q-70 -28 -147 -28zM385 211l-2 -2
q63 0 100 55t37 131q0 78 -37 133q-38 56 -100 56t-100 -56q-37 -55 -37 -131t37 -131t102 -55z" />
    <glyph glyph-name="glyph349" horiz-adv-x="542" 
d="M326 793h155l-2 -795h-219v362q0 58 6 105t6 49h-2q-2 0 -18 -25q-12 -19 -53 -57l-41 -37l-138 121z" />
    <glyph glyph-name="glyph350" horiz-adv-x="696" 
d="M330 176l2 -2l-17 -6q9 0 64 8t158 8h90v-188h-594v141l250 215q34 29 94 84q39 36 39 90q0 34 -25 56q-23 20 -57 20q-31 0 -49 -12q-19 -12 -31 -31q-11 -17 -18 -37l-11 -33l-192 52q8 42 37 92q28 48 67 84q40 37 92 61q55 25 117 25q64 0 119 -21t94 -57
q42 -39 62 -86q22 -52 22 -107q0 -74 -37 -129q-38 -55 -84 -96q-32 -32 -80 -63q-9 -5 -38 -22.5t-42 -24.5q-32 -17 -32 -21z" />
    <glyph glyph-name="glyph351" horiz-adv-x="686" 
d="M236 526l-183 49l-4 -10q21 106 105 172q82 64 202 64q136 0 213 -68q78 -69 78 -168q0 -37 -16 -69t-39 -52q-24 -21 -51 -30q-33 -11 -49 -11v-2q31 0 61 -12q32 -13 55 -33q28 -24 41 -51q17 -34 17 -72q0 -51 -23 -102q-21 -46 -61 -80q-43 -36 -97 -51
q-55 -18 -120 -18q-59 0 -111 18q-48 14 -96 47q-44 30 -74 74t-39 92l186 51q9 -45 41 -71q31 -25 93 -25q41 0 69 22q27 21 27 56q0 38 -29 61q-30 23 -74 23h-71v151h71q36 0 62 23q24 21 24 53q0 28 -24 49t-60 21q-47 0 -77 -21q-32 -23 -47 -80z" />
    <glyph glyph-name="glyph352" horiz-adv-x="737" 
d="M688 311v-180h-84v-133h-194v133h-387v150l413 507h168v-477h84zM328 311h80l2 111v47v29h-2q-3 0 -13 -13q-12 -16 -24 -28l-95 -109q-10 -11 -23 -27l-15 -16l2 -2q1 0 4.5 0.5t10 1.5t13.5 2q32 4 60 4z" />
    <glyph glyph-name="glyph353" horiz-adv-x="700" 
d="M256 498l2 -2l-2 -4q8 8 29 22q18 12 59 12q142 0 221 -73q80 -74 80 -193q0 -58 -24 -110t-64 -89q-43 -40 -94 -59q-55 -18 -119 -18q-61 0 -117 16q-48 16 -92 49q-40 29 -65 72q-26 43 -31 80l192 53q8 -31 35 -61q24 -27 72 -27t80 29q31 28 31 71q0 46 -31 74
q-32 29 -80 29q-70 0 -98 -60l-179 49l78 435h461v-191h-309q-7 -33 -23 -72q-12 -30 -12 -32z" />
    <glyph glyph-name="glyph354" horiz-adv-x="694" 
d="M532 793l-204 -275l-2 -4q3 3 16 6q16 4 27 4q62 0 112 -20q49 -19 86 -60q38 -41 54 -86q18 -49 18 -104q0 -58 -25 -113q-24 -53 -63 -86q-41 -35 -96 -53q-59 -16 -121 -16q-61 0 -123 16q-56 17 -100 55q-46 40 -68 88q-25 55 -25 117q0 95 37 168q37 74 99 156
l155 207h223zM332 166q50 0 80 27t30 73q0 47 -30 74t-80 27t-80 -27q-31 -28 -31 -74q0 -45 31 -73q30 -27 80 -27z" />
    <glyph glyph-name="glyph355" horiz-adv-x="645" 
d="M20 793h615l-2 -121l-369 -672h-215l254 463q37 64 68 104q28 36 28 37l-2 2q-16 0 -45 -2t-108 -2h-224v191z" />
    <glyph glyph-name="glyph356" horiz-adv-x="647" 
d="M469 412v-2l-4 -2q25 -8 55 -25q26 -14 49 -41q24 -28 37 -57q15 -34 15 -74q0 -46 -23 -94q-20 -41 -61 -76q-39 -33 -97 -49q-59 -19 -121 -19q-61 0 -120 19q-58 16 -97 49q-41 35 -61 76q-23 48 -23 94q0 39 15 74q13 29 37 57q23 27 49 41q30 17 55 25v2
q-18 3 -39 18q-19 13 -39 37q-16 19 -30 53q-13 33 -13 68q0 43 19 86q18 40 55 67q41 29 86 43q56 17 109 17q50 0 106 -17q45 -14 86 -43q37 -27 55 -67q19 -43 19 -86q0 -36 -13 -68q-12 -30 -30 -51q-20 -24 -39 -37q-21 -15 -37 -18zM227 588l-4 -6q0 -33 29 -56
q26 -20 67 -20q42 0 70 22q27 21 27 56q0 34 -27 55q-26 20 -67 20q-42 0 -68 -20q-27 -21 -27 -51zM211 229v-4q0 -42 33 -65q36 -25 80 -25q49 0 79 27q31 28 31 67q0 43 -33 66q-34 24 -79 24q-51 0 -80 -26q-31 -28 -31 -64z" />
    <glyph glyph-name="glyph357" horiz-adv-x="663" 
d="M104 0l238 274l-8 -2q-3 -3 -19 -6q-20 -4 -24 -4q-55 0 -113 23q-50 20 -86 59t-53 86q-19 52 -19 105q0 57 25 112q22 49 66 86q41 35 96 53q59 19 121 19q61 0 123 -19q56 -17 100 -55t67 -88q25 -55 25 -117q0 -93 -35 -168q-37 -78 -98 -151l-170 -207h-236z
M326 629q-50 0 -80 -27q-31 -28 -31 -74q0 -45 31 -73q30 -27 80 -27t80 27t30 73q0 47 -30 74t-80 27z" />
    <glyph glyph-name="glyph358" horiz-adv-x="768" 
d="M383 623q-83 0 -150 30q-65 29 -116 86q-49 55 -76 129t-27 164t27 166t76 131q51 57 116 86q70 31 150 31q77 0 147 -31q68 -30 115 -86q48 -57 74 -131t26 -166q0 -93 -26 -164q-27 -72 -74 -129q-47 -56 -115 -86t-147 -30zM385 852l-2 -2q63 0 100 55t37 131
q0 78 -37 133q-38 56 -100 56t-100 -56q-37 -55 -37 -131t37 -131t102 -55z" />
    <glyph glyph-name="glyph359" horiz-adv-x="542" 
d="M326 1434h155l-2 -797h-219v364q0 59 6 105t6 49h-2q-2 0 -18 -25q-12 -19 -53 -57l-41 -37l-138 121z" />
    <glyph glyph-name="glyph360" horiz-adv-x="696" 
d="M330 817l2 -2l-17 -6q9 0 64 8t158 8h90v-190h-594v143l250 215q34 29 94 84q39 36 39 90q0 34 -25 56q-23 20 -57 20q-31 0 -49 -12q-19 -12 -31 -31q-11 -17 -18 -37l-11 -33l-192 52q8 42 37 92q28 48 67 84q40 37 92 61q55 25 117 25q64 0 119 -21t94 -57
q42 -39 62 -86q22 -52 22 -106q0 -75 -37 -130q-38 -56 -84 -96q-32 -32 -80 -63q-9 -5 -38 -22.5t-42 -24.5q-32 -17 -32 -21z" />
    <glyph glyph-name="glyph361" horiz-adv-x="716" 
d="M236 1167l-183 50l-4 -11q21 106 105 172q82 64 202 64q136 0 213 -68q78 -69 78 -168q0 -37 -16 -69t-39 -52q-24 -21 -51 -30q-33 -11 -49 -11v-2q31 0 61 -12q32 -13 55 -33q28 -24 41 -51q17 -34 17 -72q0 -51 -23 -102q-21 -46 -61 -80q-41 -35 -97 -53
q-55 -18 -120 -18q-59 0 -111 18q-50 17 -96 49q-44 30 -74 74t-39 92l186 51q9 -45 41 -71q31 -25 93 -25q41 0 69 22q27 21 27 56q0 38 -29 61q-30 23 -74 23h-71v151h71q36 0 62 23q24 21 24 53q0 28 -24 49t-60 21q-47 0 -77 -21q-32 -23 -47 -80z" />
    <glyph glyph-name="glyph362" horiz-adv-x="737" 
d="M688 952v-180h-84v-135h-194v135h-387v150l413 508h168v-478h84zM328 952h80l2 111v47v29h-2q-3 0 -13 -13q-12 -16 -24 -28l-95 -109q-10 -11 -23 -27l-15 -16l2 -2q1 0 4.5 0.5t10 1.5t13.5 2q32 4 60 4z" />
    <glyph glyph-name="glyph363" horiz-adv-x="700" 
d="M256 1139l2 -2l-2 -4q8 8 29 22q18 12 59 12q142 0 221 -73q80 -74 80 -193q0 -57 -24 -110q-24 -52 -64 -89q-43 -40 -94 -59q-53 -20 -119 -20q-64 0 -117 18q-48 16 -92 49q-40 29 -65 72q-26 43 -31 80l192 53q8 -31 35 -61q24 -27 72 -27t80 29q31 28 31 71
q0 46 -31 74q-32 29 -80 29q-70 0 -98 -60l-179 49l78 435h461v-191h-309q-7 -33 -23 -72q-12 -30 -12 -32z" />
    <glyph glyph-name="glyph364" horiz-adv-x="694" 
d="M532 1434l-204 -275l-2 -4q3 3 16 6q16 4 27 4q62 0 112 -20q49 -19 86 -60q38 -41 54 -86q18 -50 18 -104q0 -58 -25 -113q-24 -53 -63 -86q-41 -35 -96 -53t-121 -18q-64 0 -123 18q-56 17 -100 55q-46 40 -68 88q-25 55 -25 117q0 95 37 168t99 156l155 207h223z
M332 807q50 0 80 27t30 73q0 47 -30 74t-80 27t-80 -27q-31 -28 -31 -74q0 -45 31 -73q30 -27 80 -27z" />
    <glyph glyph-name="glyph365" horiz-adv-x="645" 
d="M20 1434h615l-2 -121l-369 -674h-215l254 465q37 64 68 104q28 36 28 37l-2 2q-16 0 -45 -2t-108 -2h-224v191z" />
    <glyph glyph-name="glyph366" horiz-adv-x="647" 
d="M469 1053v-2l-4 -2q25 -8 55 -25q26 -14 49 -41q24 -28 37 -57q15 -34 15 -74q0 -46 -23 -94q-20 -41 -61 -76q-37 -32 -97 -51q-59 -19 -121 -19q-61 0 -120 19q-60 19 -97 51q-41 35 -61 76q-23 48 -23 94q0 40 15 74q13 29 37 57q23 27 49 41q30 17 55 25v2
q-18 3 -39 18q-19 13 -39 37q-16 19 -30 53q-13 33 -13 68q0 43 19 86q18 40 55 67q41 29 86 43q56 17 109 17q50 0 106 -17q45 -14 86 -43q37 -27 55 -67q19 -43 19 -86q0 -35 -13 -68q-12 -30 -30 -51q-20 -24 -39 -37q-21 -15 -37 -18zM227 1229l-4 -6q0 -33 29 -56
q26 -20 67 -20q42 0 70 22q27 21 27 56q0 34 -27 55q-26 20 -67 20q-42 0 -68 -20q-27 -21 -27 -51zM211 870v-4q0 -42 33 -65q36 -25 80 -25q49 0 79 27q31 28 31 67q0 43 -33 66q-36 25 -79 25q-50 0 -80 -27q-31 -28 -31 -64z" />
    <glyph glyph-name="glyph367" horiz-adv-x="663" 
d="M104 641l238 274l-8 -2q-3 -3 -19 -6q-20 -4 -24 -4q-55 0 -113 23q-50 20 -86 59t-53 86q-19 52 -19 105q0 57 25 112q22 49 66 86q41 35 96 53q59 19 121 19q61 0 123 -19q56 -17 100 -55t67 -88q25 -55 25 -117q0 -93 -35 -168q-37 -78 -98 -151l-170 -207h-236z
M326 1270q-50 0 -80 -27q-31 -28 -31 -74q0 -45 31 -73q30 -27 80 -27t80 27t30 73q0 47 -30 74t-80 27z" />
    <glyph glyph-name="glyph368" 
d="M1276 1069l-332 -90l-6 -4q-27 94 -98 141q-68 45 -148 45q-77 0 -119 -33q-43 -34 -43 -75q0 -35 25 -60q27 -27 68 -47q58 -28 100 -41q43 -13 123 -43q88 -30 158 -67q79 -42 139 -93q61 -52 98 -122t37 -162q0 -80 -27 -150q-27 -72 -75 -125q-45 -50 -121 -94
q-71 -41 -160 -59v-174h-344v176q-160 38 -270 145q-109 106 -168 271l329 88q11 -29 41 -80q23 -39 62 -70q40 -32 84 -49q47 -18 104 -18q93 0 135 36q43 37 43 91q0 44 -30 71q-34 31 -80 53q-67 32 -117 48q-35 11 -143 49q-54 20 -129 55q-63 30 -117 80
q-51 48 -86 117q-33 65 -33 161q0 67 29 136q25 60 78 116q50 53 118 92q72 41 156 62v174h344v-182q140 -44 238 -142q96 -96 137 -227z" />
    <glyph glyph-name="glyph369" 
d="M1141 1430l-293 -660l-2 -2q72 35 153 35q78 0 148 -31q68 -30 115 -86q46 -55 73 -131t27 -166q0 -91 -27 -164q-27 -75 -73 -129q-47 -56 -115 -86q-70 -28 -148 -28q-69 0 -133 22q-57 22 -106 68q-46 43 -76 104q-33 67 -41 135l-141 -313h-221l299 670
q-77 -47 -179 -47q-81 0 -149 30q-67 30 -117 86q-49 55 -76 129q-26 71 -26 164q0 92 26 166q27 76 76 131q50 56 117 86q70 31 149 31q77 0 142 -27q64 -27 110 -76q48 -51 74 -116q29 -73 35 -148l158 353h221zM403 850l-2 -2q64 0 101 55t37 131q0 78 -37 133
q-38 56 -101 56q-62 0 -100 -56q-37 -55 -37 -131t37 -131t102 -55zM1006 211l-2 -2q63 0 100 55t37 131q0 78 -37 133q-38 56 -100 56q-63 0 -101 -56q-37 -55 -37 -131t37 -131t103 -55z" />
    <glyph glyph-name="glyph370" 
d="M948 580l301 -82l-6 -2q-47 -124 -147 -211q-103 -89 -234 -119v-195h-274v197q-85 20 -162 72q-74 50 -129 120t-86 158t-31 189q0 100 31 188t86 158q57 73 129 121q74 50 164 71v219h274v-217q119 -26 221 -108q97 -78 150 -193l-301 -78q-37 50 -82 72
q-52 25 -119 25q-110 0 -172 -68q-61 -67 -61 -190q0 -124 61 -191t172 -67q151 0 215 131z" />
    <glyph glyph-name="glyph371" 
d="M580 313l2 -2l-7 -10q5 0 87 6t225 6h381v-319h-1094v319q40 8 70 25t41 39q13 26 16 59q3 34 0 80l-2 31h-123v268h96l-16 172q-9 98 27 178q39 86 104 148q66 63 158 102q90 38 188 41q62 3 148 -16q81 -18 159 -68q81 -52 142 -125q65 -78 92 -190l-289 -80
q-27 85 -86 135q-57 48 -143 45q-83 -3 -123 -61q-37 -54 -31 -133l14 -140h385v-268h-360l2 -20q9 -80 -10 -138q-18 -57 -53 -84z" />
    <glyph glyph-name="glyph372" 
d="M1022 1155l139 139l170 -170l-141 -141q86 -133 86 -295q0 -84 -25 -164q-24 -78 -67 -141l135 -135l-168 -168l-137 137q-59 -37 -142 -63q-80 -25 -159 -25q-162 0 -295 86l-135 -135l-168 168l133 133q-44 68 -68 145q-24 76 -24 164q0 81 22 158q21 74 62 139
l-140 139l168 168l140 -139q133 92 301 92q85 0 165 -24t148 -68zM713 954v-4q-53 0 -99 -18t-79 -51q-36 -36 -56 -80t-20 -105q0 -60 20 -104t56 -80q33 -33 79 -51q49 -19 99 -19q49 0 98 19q44 17 80 53q34 34 55 80t21 104t-21 105q-21 46 -55 80q-36 36 -80 53
q-46 18 -98 18z" />
    <glyph glyph-name="glyph373" 
d="M1434 1434l-320 -465h174v-221h-330l-43 -62h373v-221h-407v-465h-342v465h-406v221h371l-43 62h-328v221h176l-317 465h383l260 -383q32 -49 51 -74q23 -29 25 -29h2q1 0 24 29q19 25 51 74l261 383h385z" />
    <glyph glyph-name="glyph374" 
d="M1063 477l326 -82l-9 -8q-80 -192 -245 -305t-400 -113q-101 0 -217 33q-105 34 -186 98q-87 68 -146 156q-58 86 -94 205h-96v221h61v31v30h-59v222h94q34 111 96 204q59 88 146 156q80 62 188 98q107 35 219 35q224 0 379 -104q160 -108 244 -277l-334 -82
q-48 73 -125 109q-78 37 -174 37q-88 0 -162 -39q-78 -41 -123 -137h334v-222h-381v-30v-31h379v-221h-329q47 -96 122 -133t164 -37q107 0 195 49q91 51 133 137z" />
    <glyph glyph-name="glyph375" 
d="M1237 1174h-254v2q23 -45 37 -93h215v-249h-213q-30 -122 -117 -209t-217 -127l354 -496h-391l-329 477v250h163q52 0 99 29q43 27 67 73h-430v250h430q-28 46 -69 68q-45 25 -95 25h-266v260h1016v-260z" />
    <glyph glyph-name="glyph414" horiz-adv-x="567" 
d="M285 836q-68 0 -115 47t-47 114q0 64 47 111t115 47q63 0 110 -47t47 -111q0 -67 -47 -114t-110 -47zM285 242q-68 0 -115 47t-47 114q0 64 47 111t115 47q63 0 110 -47t47 -111q0 -67 -47 -114t-110 -47z" />
    <glyph glyph-name="glyph415" horiz-adv-x="604" 
d="M324 825q-68 0 -115 47t-47 115q0 64 47 111t115 47q63 0 110 -47t47 -111q0 -68 -47 -115t-110 -47zM279 238l30 8l-28 4q-40 6 -80 43q-39 36 -39 102q0 64 47 111t115 47q64 0 110 -49q47 -50 47 -131q0 -49 -18 -101q-16 -46 -49 -104q-28 -49 -74 -98t-92 -84h-125
q32 18 55 47q36 47 49 69q26 46 37 74q15 38 15 62z" />
    <glyph glyph-name="glyph470" horiz-adv-x="1585" 
d="M1022 -4q12 0 12 10q0 12 -12 12t-12 -12q0 -10 12 -10zM1157 49q0 -33 25 -33q22 0 22 33q0 35 -22 35q-25 0 -25 -35zM1341 -2v80l-22 -78h-21l-22 78v-80h-31l8 106h39l17 -69l18 69h39l4 -106h-29zM903 -2l-26 106h30l15 -73l12 73h31l12 -73l14 73h29l-27 -106h-32
l-13 70l-14 -70h-31zM864 39h-39v-21h43v-20h-73v106h73v-22h-43v-21h39v-22zM778 104v-106h-30v106h30zM670 -2l-35 106h33l18 -79l21 79h30l-35 -106h-32zM559 104v-41h37v41h29v-106h-29v41h-37v-41h-31v106h31zM463 82h-29v22h84v-22h-29v-84h-26v84zM328 -2v106h37
l32 -65v65h27v-106h-31l-39 70v-70h-26zM254 -2v39l-35 67h35l14 -47l17 47h32l-34 -67v-39h-29zM1245 45l-8 4q0 -29 -14 -43q-15 -12 -39 -12q-27 0 -41 14q-13 16 -13 37q0 26 15 41q16 16 43 16t43 -16q14 -14 14 -41zM1141 100l-8 -24l-9 -2q-6 6 -18 6q-13 0 -21 -8
t-8 -25q0 -33 31 -33q12 0 18 6l7 -22q-16 -4 -29 -4q-29 0 -43 14q-12 15 -12 37q0 28 18 43q19 16 43 16q19 0 31 -4zM227 100l-6 -24v-2q-4 4 -8 6q-8 4 -14 4q-15 0 -15 -8q0 -5 23 -15q29 -10 29 -30q0 -15 -13 -25q-11 -8 -39 -8q-16 0 -32 4l8 25q4 -4 10 -7
q4 -2 16 -2q15 0 15 11q0 6 -19 12q-30 9 -30 31q0 15 12 24q13 10 33 10q21 0 30 -6zM608 358l183 162l176 -162q27 -5 110 -8q70 -3 166 -6q-3 93 -6 160q-3 74 -6 104l-166 187l166 182q3 35 6 110q2 59 6 164q-85 -3 -162 -6q-76 -3 -106 -6l-187 -166l-180 166
q-30 3 -106 6q-70 3 -166 6q3 -96 6 -166q3 -76 6 -106l162 -182l-162 -183q-3 -35 -6 -110q-3 -76 -6 -162q105 4 164 6q72 3 108 10zM1425 168h-90v-4q-157 0 -245 6q-91 6 -136 12q-42 5 -61 17q-17 11 -25 18l-55 47l-27 21l-22 -21l-55 -47q-7 -7 -25 -18
q-19 -12 -61 -17q-57 -7 -136 -10q-118 -4 -241 -4h-88v88q0 128 4 246q3 78 10 135q6 44 16 61q9 15 19 25l49 55l20 25l-20 22l-49 56q-11 11 -19 24t-14 62q-7 57 -10 135q-4 118 -4 244v90h88q158 0 246 -6q72 -5 135 -13q48 -6 61 -14q15 -9 25 -19l41 -38l37 -33
l34 33l41 34q10 10 25 19t61 18q53 10 136 13q118 4 245 4h90v-91q0 -157 -6 -245t-12 -135q-6 -45 -16 -62q-7 -13 -19 -24l-45 -54l-22 -24l22 -27l51 -59l15 -25q8 -13 14 -61t12 -131q6 -85 6 -236v-92z" />
  </font>
</defs>
</svg>
