<?xml version="1.0" standalone="no"?>
<!DOCTYPE svg PUBLIC "-//W3C//DTD SVG 1.1//EN" "http://www.w3.org/Graphics/SVG/1.1/DTD/svg11.dtd" >
<svg xmlns="http://www.w3.org/2000/svg" xmlns:xlink="http://www.w3.org/1999/xlink" version="1.1">
<metadata>
Created by FontForge 20170731 at Fri Apr 23 18:15:12 2021
 By Aleksey,,,
Copyright 2012 Adobe Systems Incorporated. All rights reserved.
</metadata>
<defs>
<font id="Novecento-WideNormal" horiz-adv-x="1429" >
  <font-face 
    font-family="Novecento Wide Normal"
    font-weight="400"
    font-stretch="normal"
    units-per-em="2048"
    panose-1="0 0 0 0 0 0 0 0 0 0"
    ascent="1726"
    descent="-322"
    x-height="1434"
    cap-height="1434"
    bbox="-430 -512 2714 1921"
    underline-thickness="145"
    underline-position="-482"
    unicode-range="U+0020-25CA"
  />
<missing-glyph horiz-adv-x="1406" 
d="M193 174v1086v-3q0 83 49 129q51 48 125 48h675q77 0 125 -45q50 -47 50 -129v-1086q0 -85 -50 -129q-49 -43 -125 -43h-675q-76 0 -125 43t-49 129zM389 41h627h2q77 0 115 35q36 33 36 121v1040q0 87 -43 121q-44 35 -131 35h-585q-98 0 -136 -35q-36 -33 -36 -121
v-1040q0 -86 41 -121t110 -35zM999 1120l111 -110l-297 -295l297 -297l-113 -111l-295 297l-294 -295l-111 111l295 295l-295 295l111 108l294 -293z" />
    <glyph glyph-name=".notdef" horiz-adv-x="1406" 
d="M193 174v1086v-3q0 83 49 129q51 48 125 48h675q77 0 125 -45q50 -47 50 -129v-1086q0 -85 -50 -129q-49 -43 -125 -43h-675q-76 0 -125 43t-49 129zM389 41h627h2q77 0 115 35q36 33 36 121v1040q0 87 -43 121q-44 35 -131 35h-585q-98 0 -136 -35q-36 -33 -36 -121
v-1040q0 -86 41 -121t110 -35zM999 1120l111 -110l-297 -295l297 -297l-113 -111l-295 297l-294 -295l-111 111l295 295l-295 295l111 108l294 -293z" />
    <glyph glyph-name=".null" horiz-adv-x="0" 
 />
    <glyph glyph-name="nonmarkingreturn" horiz-adv-x="682" 
 />
    <glyph glyph-name="space" unicode=" " horiz-adv-x="512" 
 />
    <glyph glyph-name="exclam" unicode="!" horiz-adv-x="548" 
d="M190 467v967h168v-967h-168zM190 0v322h168v-322h-168z" />
    <glyph glyph-name="quotedbl" unicode="&#x22;" horiz-adv-x="892" 
d="M190 989v445h164v-445h-164zM539 989v445h163v-445h-163z" />
    <glyph glyph-name="numbersign" unicode="#" horiz-adv-x="1757" 
d="M1626 942h-260l-217 -432h258l-74 -141h-254l-186 -369h-170l188 369h-444l-186 -369h-170l188 369h-240l76 141h236l221 432h-240l76 141h238l178 351h160l-177 -351h451l178 351h158l-176 -351h262zM983 510l221 432h-448l-217 -432h444z" />
    <glyph glyph-name="dollar" unicode="$" horiz-adv-x="1220" 
d="M1120 1079l-159 -43l-21 -16q-12 62 -43 117q-28 48 -80 88q-50 38 -106 55q-59 18 -127 18q-144 0 -232 -61q-90 -63 -90 -170q0 -57 35 -98t90 -68q62 -30 125 -49q24 -7 70.5 -21.5t70.5 -21.5q58 -16 160 -53q83 -30 154 -80q70 -49 116 -119q47 -71 47 -176
q0 -83 -30 -154q-28 -66 -90 -125q-58 -55 -142 -90q-90 -33 -184 -41v-159h-166v161q-94 12 -172 47q-76 38 -135 93q-56 53 -94 125q-35 66 -51 153l161 43q8 -57 37 -119q24 -53 78 -100q50 -44 117 -68q68 -24 157 -24q160 0 252 74q93 75 93 188q0 78 -43 127
q-44 51 -107 84q-62 33 -145 55q-39 10 -156 47q-57 17 -131 45q-66 25 -131 68q-61 40 -101 104q-38 61 -38 156q0 77 30 141t86 117q53 50 133 86q75 34 170 43v160h166v-162q167 -21 281 -123q115 -103 145 -254z" />
    <glyph glyph-name="percent" unicode="%" horiz-adv-x="1826" 
d="M389 600v-8q-86 0 -151 33q-68 35 -117 90q-50 56 -74 133q-24 76 -24 162q0 88 24 164q24 77 74 133q49 55 117 90q65 33 151 33q87 0 152 -33q69 -35 116 -88q50 -56 74 -133q25 -80 25 -162t-25 -162q-23 -74 -74 -131q-47 -53 -116 -88q-65 -33 -152 -33zM354 -14
l979 1431h121l-977 -1431h-123zM393 725l-4 -4q59 0 105 24q48 25 77 64q35 47 50 94q18 55 18 115q0 62 -18 115q-16 46 -50 92q-32 43 -75 65q-48 25 -105 25q-56 0 -104 -25q-47 -25 -76 -63q-33 -44 -49 -92q-19 -55 -19 -115q0 -54 19 -113q16 -50 49 -94
q27 -37 78 -63q48 -25 104 -25zM1425 -18v-9q-81 0 -151 31q-68 34 -117 90q-50 56 -74 133t-24 162q0 88 24 164q24 77 74 133q49 56 117 90q65 33 151 33q87 0 152 -33q71 -36 117 -88q48 -54 73 -133q25 -80 25 -162t-25 -162q-24 -76 -73 -131q-46 -52 -117 -88
q-68 -30 -152 -30zM1430 104l-5 -4q57 0 105 25q51 26 78 63q32 44 49 95q18 55 18 114q0 63 -18 115q-17 48 -49 92q-32 43 -76 66q-46 24 -105 24q-57 0 -104 -24q-46 -24 -76 -64q-33 -44 -49 -92q-18 -53 -18 -115q0 -57 18 -112q16 -50 49 -94q28 -38 78 -64
q48 -25 105 -25z" />
    <glyph glyph-name="ampersand" unicode="&#x26;" horiz-adv-x="1452" 
d="M1419 807v-135l-268 4v-168q0 -117 -31 -219q-30 -98 -94 -168q-65 -71 -166 -111q-101 -37 -250 -37q-108 0 -209 29q-95 30 -163 86t-105 135q-37 78 -37 176q0 72 25 136q24 61 67 104t99 70q53 26 116 32v2q-44 6 -96 31q-47 23 -88 64q-40 40 -67 96t-27 129
q0 68 25 141q24 70 83 129q54 54 148 94q87 37 215 37q99 0 178 -26q83 -27 148 -80q63 -51 110 -129q46 -76 64 -174l-146 -41q-37 152 -123 229q-85 76 -233 76q-90 0 -148 -27t-92 -67q-33 -38 -45 -86q-12 -47 -12 -82q0 -55 20 -99q19 -43 62 -79q44 -38 100 -54
q62 -18 142 -18h798zM989 512v162l-377 -2q-68 0 -141 -17q-65 -15 -111 -49q-47 -35 -73 -86q-27 -53 -27 -119q0 -63 27 -116t73 -90q45 -37 111 -58q61 -20 141 -20q110 0 181 26q70 26 116 78q44 50 62 123q18 74 18 168z" />
    <glyph glyph-name="quotesingle" unicode="'" horiz-adv-x="544" 
d="M190 989v445h164v-445h-164z" />
    <glyph glyph-name="parenleft" unicode="(" horiz-adv-x="737" 
d="M623 1726l49 -155v-10q-210 -71 -312 -277t-102 -577q0 -373 102 -578q102 -203 312 -274l-49 -154q-108 38 -201 111q-99 77 -170 190q-74 120 -117 295q-43 173 -43 416q0 240 43 413q43 175 117 295q73 120 170 195q91 71 201 110z" />
    <glyph glyph-name="parenright" unicode=")" horiz-adv-x="741" 
d="M70 1571l49 155v7q106 -38 200 -111q100 -78 170 -192q74 -120 117 -295q43 -173 43 -414t-43 -414q-43 -175 -117 -295q-71 -113 -170 -190q-94 -73 -200 -111l-49 154q210 71 311 274q102 206 102 578q0 371 -102 577t-311 277z" />
    <glyph glyph-name="asterisk" unicode="*" horiz-adv-x="1071" 
d="M844 1247l35 -108l-256 -76l161 -219l-90 -68l-159 225l-156 -225l-92 68l159 219l-256 76l37 108l250 -82v269h113v-269z" />
    <glyph glyph-name="plus" unicode="+" 
d="M1190 799v-142h-397v-399h-152v399h-399v142h397v393h152v-393h399z" />
    <glyph glyph-name="comma" unicode="," horiz-adv-x="448" 
d="M211 -31l20 11l-22 -3q-29 0 -62 23q-30 24 -30 72q0 46 30 73q32 29 74 29q45 0 74 -33q31 -36 31 -86q0 -40 -13 -90q-10 -38 -34 -88q-15 -32 -50 -80q-24 -34 -59 -65h-74q45 39 80 108q35 68 35 129z" />
    <glyph glyph-name="hyphen" unicode="-" horiz-adv-x="1329" 
d="M190 799h949v-142h-949v142z" />
    <glyph glyph-name="period" unicode="." horiz-adv-x="448" 
d="M225 -25l-2 -4q-41 0 -73 29q-31 31 -31 72q0 42 31 73t73 31q41 0 72 -31t31 -71q0 -44 -31 -72q-34 -27 -70 -27z" />
    <glyph glyph-name="slash" unicode="/" horiz-adv-x="966" 
d="M37 0l733 1434h160l-721 -1434h-172z" />
    <glyph glyph-name="zero" unicode="0" horiz-adv-x="1470" 
d="M733 1462l-4 -4q156 0 275 -61q121 -62 202 -162q84 -103 127 -238q43 -133 43 -284q0 -152 -43 -285q-45 -139 -125 -238q-79 -98 -202 -161q-123 -60 -273 -60q-151 0 -274 60q-120 62 -203 164q-81 100 -125 237q-43 133 -43 285q0 151 43 284q45 139 125 238
q83 102 203 164q119 61 274 61zM735 1298h-2q-120 0 -209 -47q-87 -46 -147 -127q-58 -79 -88 -184q-31 -108 -31 -221t31 -221q31 -107 88 -185q60 -81 147 -127q89 -47 209 -47t209 47t148 127q61 83 90 185q30 105 30 221t-30 221t-88 184q-59 80 -148 127t-209 47z" />
    <glyph glyph-name="one" unicode="1" horiz-adv-x="841" 
d="M532 1434h119l2 -1434h-168v973v76q0 31 4 71q3 30 3 49v21h-3l-12 -12l-31 -31q-18 -18 -36 -39q-24 -28 -33 -37l-182 -180l-105 102z" />
    <glyph glyph-name="two" unicode="2" horiz-adv-x="1175" 
d="M248 1038l-156 43l-4 -10q56 193 193 287q140 96 331 96q112 0 197 -33q94 -37 154 -94q62 -59 100 -143q37 -81 37 -178q0 -110 -37 -191q-38 -83 -92 -149q-53 -65 -123 -119q-21 -17 -129 -98q-43 -35 -133 -105q-89 -69 -125 -96q-63 -49 -131 -98l2 -3l8 1q9 1 27 2
t39 2q94 4 192 4h504v-156h-996v135q317 268 326 275q63 52 326 274q72 60 123 145q49 82 49 183q0 63 -25 121q-24 56 -67 96t-101 61q-64 23 -129 23q-149 0 -237 -76q-89 -77 -123 -199z" />
    <glyph glyph-name="three" unicode="3" horiz-adv-x="1222" 
d="M270 1036l-151 41l-17 -2q40 181 172 283t332 102q133 0 221 -33q98 -37 152 -88q60 -57 86 -125q29 -76 29 -141q0 -75 -27 -133q-27 -59 -70 -102q-45 -45 -98 -68q-56 -24 -113 -27v-2q64 -3 123 -24t105 -64t73 -104q29 -66 29 -137q0 -104 -37 -185
q-38 -84 -104 -141q-68 -59 -160 -86q-95 -31 -201 -31q-97 0 -192 31q-86 25 -162 82q-69 51 -119 129q-47 73 -63 168l151 41q13 -71 45 -123q32 -51 84 -94q50 -41 115 -62q61 -20 141 -20q85 0 146 24t104 64q46 43 66 96q22 58 22 117q0 127 -94 188q-95 62 -252 62
h-127v137h129q157 0 242 61q86 62 86 195q0 41 -18 84q-17 41 -56 80q-37 37 -98 61q-64 25 -150 25q-144 0 -227 -74t-117 -205z" />
    <glyph glyph-name="four" unicode="4" horiz-adv-x="1286" 
d="M1212 510v-150h-194v-360h-158v360h-768v121l795 953h131v-924h194zM522 510h336l2 381v117v98v68l2 26h-2l-12 -16q-4 -5 -9 -12t-13 -17t-13 -16q-7 -9 -23.5 -30t-25.5 -32q-10 -13 -30.5 -38.5t-26.5 -32.5l-295 -351q-67 -78 -101 -112q-26 -26 -26 -31l2 -2h30h60
h74h71z" />
    <glyph glyph-name="five" unicode="5" horiz-adv-x="1202" 
d="M311 813l2 -2l-12 2q15 21 43 43q32 25 68 41q45 20 90 31q50 12 108 12q111 0 201 -37q95 -39 160 -98q64 -58 106 -150q39 -85 39 -192q0 -106 -37 -193q-38 -90 -104 -153q-69 -66 -160 -103q-90 -34 -201 -34q-104 0 -196 28q-85 29 -156 84q-66 51 -110 123
q-44 71 -62 154l154 41q27 -124 121 -209q91 -82 249 -82q74 0 136 24q59 23 108 72q48 48 72 109q24 62 24 135t-24 137q-23 62 -72 111q-47 47 -108 71q-64 25 -136 25q-74 0 -133 -19q-54 -17 -92 -45q-39 -28 -59 -57q-24 -34 -35 -59l-145 39l124 772h766v-158h-639
l-39 -219q-21 -115 -36 -178q-15 -61 -15 -66z" />
    <glyph glyph-name="six" unicode="6" horiz-adv-x="1214" 
d="M823 1427l-456 -602l-9 -14q39 50 109 86q68 35 172 35q115 0 205 -37q95 -39 160 -104q66 -66 104 -156q37 -87 37 -191q0 -111 -39 -196q-41 -90 -111 -154t-168 -98q-98 -37 -215 -37q-116 0 -209 37q-95 34 -165 102q-70 67 -111 160q-39 88 -39 203q0 71 12 133
q11 59 37 121q24 59 62 121q44 73 86 127l354 464h184zM627 121l-4 -6q81 0 149 24q65 23 117 72q49 46 76 111q27 64 30 141q0 77 -24 139t-74 109q-47 44 -117 69t-151 25q-82 0 -152 -25t-117 -69q-48 -45 -75 -107t-27 -137q0 -77 27 -141q28 -67 75 -111
q49 -46 117 -70q67 -24 150 -24z" />
    <glyph glyph-name="seven" unicode="7" horiz-adv-x="1136" 
d="M70 1434h1022l-5 -109l-747 -1329h-180l602 1061q3 5 47 80q9 15 23.5 38t19.5 31q15 25 31 49l12 19l-2 2h-19h-47h-61h-64h-632v158z" />
    <glyph glyph-name="eight" unicode="8" horiz-adv-x="1249" 
d="M811 762v-2l-4 -2q60 -8 125 -37q59 -26 110 -74t80 -110q31 -67 31 -144q0 -98 -39 -172q-42 -80 -110 -133q-72 -57 -168 -86q-106 -29 -218 -29q-111 0 -217 29q-96 29 -168 86q-68 53 -110 133q-39 74 -39 172q0 79 31 146q29 62 80 110t110 74q68 30 125 35v2
q-32 3 -82 24q-47 20 -92 62t-74 98q-30 58 -30 135q0 79 34 146q35 68 97 121q59 50 147 81t191 31q102 0 190 -31t147 -81q64 -55 97 -119q35 -68 35 -146q0 -75 -31 -135q-29 -57 -76 -98q-49 -42 -92 -62q-47 -21 -80 -24zM297 1077q0 -52 25 -100q24 -46 67 -76
q45 -31 103 -49t129 -18t129 18q56 17 102 49q43 30 68 78q24 47 24 98q0 57 -24 103q-23 44 -68 80q-45 35 -102 53q-58 18 -129 18t-129 -18q-59 -18 -103 -53t-67 -80q-25 -48 -25 -103zM250 399l-4 -2q0 -138 100 -213q107 -80 277 -80q171 0 276 82q100 78 100 213
q0 130 -100 205q-101 76 -272 76q-176 0 -277 -76q-100 -75 -100 -205z" />
    <glyph glyph-name="nine" unicode="9" horiz-adv-x="1226" 
d="M344 0l516 602l-14 2q-55 -62 -125 -90q-76 -31 -160 -31q-124 0 -217 37q-95 38 -160 103q-63 63 -98 153q-33 85 -33 191q0 111 41 204q40 90 115 156q72 63 172 98t213 35q116 0 211 -33q100 -35 172 -98q74 -65 117 -155t43 -213q0 -69 -15 -134q-15 -66 -49 -135
q-35 -72 -86 -149q-53 -79 -129 -168l-321 -375h-193zM596 1313h2q-74 0 -141 -21q-69 -21 -119 -63q-52 -43 -82 -111q-31 -70 -31 -155q0 -87 31 -154q28 -61 84 -107q50 -42 119 -63q67 -21 141 -21q71 0 145 23q65 20 117 66q53 47 78 106q29 69 29 148q0 87 -31 157
q-30 68 -82 111q-50 42 -119 63q-67 21 -141 21z" />
    <glyph glyph-name="colon" unicode=":" horiz-adv-x="448" 
d="M223 604l-2 -4q-43 0 -74 31q-30 30 -30 71q0 44 30 74q31 31 74 31q41 0 72 -31t31 -71q0 -44 -31 -72q-32 -29 -70 -29zM225 -25l-2 -4q-41 0 -73 29q-31 31 -31 72q0 42 31 73t73 31q41 0 72 -31t31 -71q0 -44 -31 -72q-34 -27 -70 -27z" />
    <glyph glyph-name="semicolon" unicode=";" horiz-adv-x="479" 
d="M248 604l-2 -4q-43 0 -74 31t-31 71q0 43 31 74t74 31q40 0 71 -31t31 -71q0 -44 -31 -72q-32 -29 -69 -29zM238 -35l20 10l-22 -2q-31 0 -62 25q-31 22 -31 70q0 45 31 73q32 29 74 29q45 0 74 -33q30 -35 30 -86q0 -43 -12 -90q-9 -33 -35 -88q-17 -36 -49 -80
q-24 -34 -59 -65h-74q45 39 80 108q35 68 35 129z" />
    <glyph glyph-name="less" unicode="&#x3c;" 
d="M459 752l721 -500h-219l-732 500l732 499h219z" />
    <glyph glyph-name="equal" unicode="=" 
d="M242 983h948v-141h-948v141zM242 600h948v-141h-948v141z" />
    <glyph glyph-name="greater" unicode="&#x3e;" 
d="M250 252l721 500l-721 499h219l731 -499l-731 -500h-219z" />
    <glyph glyph-name="question" unicode="?" horiz-adv-x="1173" 
d="M479 467v207l-2 -4q130 57 203 98q82 46 135 90t74 90q22 49 22 103q0 43 -14 86q-16 49 -51 84q-37 37 -98 61q-64 25 -154 25q-161 0 -246 -70t-123 -203l-141 41q40 180 176 283q135 102 336 102q133 0 221 -33q95 -36 150 -88q59 -56 86 -129q28 -76 28 -149
q0 -98 -39 -166q-42 -74 -100 -123q-57 -48 -139 -92q-58 -31 -154 -74v-139h-170zM479 0v322h170v-322h-170z" />
    <glyph glyph-name="at" unicode="@" horiz-adv-x="1628" 
d="M1026 1090h117l-4 -558q0 -62 30 -100q30 -37 84 -37q43 0 74 25q34 27 53 67q21 43 33 103q12 59 12 127q0 138 -47 256t-129 203q-83 86 -196 135t-246 49t-246 -49t-196 -135q-82 -85 -129 -203q-46 -116 -46 -256q0 -134 48 -258q47 -121 129 -209q84 -91 196 -139
q115 -50 246 -50q113 0 190 21q68 19 123 47q43 22 68 47q21 21 29 21l81 -45q-3 -3 -30 -33t-88 -64q-62 -35 -154 -59q-91 -27 -221 -27q-156 0 -289 56q-135 60 -227 159q-95 102 -150 240q-55 137 -55 295q0 161 55 295q53 130 152 233q93 98 227 154q131 55 289 55
t289 -55q134 -56 227 -154q99 -103 152 -233q55 -134 55 -295q0 -78 -19 -156q-18 -73 -55 -131t-92 -92q-53 -33 -125 -33q-77 0 -135 49q-59 50 -68 138l-2 2q-12 -31 -43 -70q-26 -33 -63 -57q-39 -25 -80 -39q-44 -15 -88 -15q-76 0 -148 29q-65 26 -116 80
q-49 52 -76 125t-27 162q0 93 27 170q28 79 76 133q51 58 118 86q70 30 154 30q64 0 111 -18q45 -17 77 -43q37 -30 48 -45q14 -20 18 -31h2v97zM1030 702v93l-4 2q0 53 -20 92q-21 41 -56 65q-37 26 -78 37q-47 13 -88 13q-54 0 -100 -21q-47 -21 -80 -57q-36 -39 -53 -92
q-19 -59 -19 -125q0 -65 21 -115t55 -84q36 -36 80 -53q49 -19 98 -19q99 0 170 68q74 71 74 196z" />
    <glyph glyph-name="A" unicode="A" horiz-adv-x="1472" 
d="M1255 0l-159 375h-719l-160 -375h-180l622 1434h154l623 -1434h-181zM440 524h592l-227 533q-22 50 -25 57q-6 15 -20 57q-1 3 -17 43l-6 17h-2l-6 -17q-10 -25 -16 -43q-9 -27 -21 -57t-24 -57z" />
    <glyph glyph-name="B" unicode="B" horiz-adv-x="1325" 
d="M184 1432h539v-2q88 0 168 -25q72 -23 131 -72q57 -48 86 -110q31 -67 31 -142q0 -55 -21 -104q-20 -47 -55 -88q-38 -44 -76 -68q-46 -29 -86 -37v-2q50 -6 111 -37q62 -32 108 -75q50 -47 80 -111q31 -67 31 -141q0 -91 -31 -170q-30 -77 -92 -133t-150 -86
q-86 -29 -202 -29h-572v1432zM352 836h338q61 0 113 18q47 16 88 49q34 27 57 72q21 41 21 86q0 103 -76 164t-203 61h-338v-450zM358 145h394l-7 -2q62 0 121 19q56 18 99 55q44 38 67 88q25 55 25 117q0 58 -25 113q-24 53 -67 90q-45 39 -101 59q-58 21 -123 21h-383
v-560z" />
    <glyph glyph-name="C" unicode="C" horiz-adv-x="1558" 
d="M1485 1085l-170 -43l-12 2q-75 122 -203 189t-279 67q-123 0 -227 -43q-106 -44 -180 -118t-119 -185q-43 -107 -43 -235q0 -129 43 -236q42 -105 121 -184q74 -74 182 -119q104 -43 225 -43q165 0 301 80q137 81 207 215l166 -45q-49 -99 -113 -172q-65 -74 -153 -131
t-189 -84q-105 -31 -215 -31q-149 0 -288 54q-136 56 -236 153t-160 238q-57 134 -57 301q0 162 59 301t160 237q100 97 238 154q134 55 288 55q108 0 203 -26q103 -28 183 -76q87 -52 151 -119q68 -71 117 -156z" />
    <glyph glyph-name="D" unicode="D" horiz-adv-x="1626" 
d="M186 1434h605l-5 -7q153 0 289 -53q133 -52 236 -147q98 -91 159 -228q60 -135 60 -294q0 -163 -57 -289q-60 -132 -156 -221q-98 -91 -232 -144q-128 -51 -282 -51h-617v1434zM358 158h449h-4q114 0 215 37t178 108t123 172q45 99 45 232t-45 235q-46 104 -123 178
q-79 76 -180 115q-106 41 -221 41h-437v-1118z" />
    <glyph glyph-name="E" unicode="E" horiz-adv-x="1288" 
d="M358 158h801v-158h-969v1434h957v-158h-789v-442h633v-150h-633v-526z" />
    <glyph glyph-name="F" unicode="F" horiz-adv-x="1196" 
d="M1126 1276h-768v-485h613v-152h-613v-639h-168v1434h936v-158z" />
    <glyph glyph-name="G" unicode="G" horiz-adv-x="1628" 
d="M1360 213h-2l-2 -4q-21 -26 -72 -74q-45 -42 -110 -80q-66 -38 -150 -59q-89 -25 -190 -25q-150 0 -289 54q-136 56 -236 153q-99 96 -159 238q-58 137 -58 301q0 159 60 301q60 140 159 237q100 97 238 154q134 55 289 55q224 -3 389 -104q169 -104 262 -270l-170 -43
q-74 120 -203 188q-130 68 -278 68q-124 0 -228 -43t-180 -119q-74 -74 -119 -185q-43 -107 -43 -235q0 -133 43 -240q42 -105 121 -184q74 -74 182 -119q104 -43 228 -43q98 0 190 29q85 27 152 72q64 43 110 92q47 51 68 96v178h-438v139h583v-741h-147v102v66v35v10z" />
    <glyph glyph-name="H" unicode="H" horiz-adv-x="1501" 
d="M1143 1434h166v-1434h-166v664h-785v-664h-168v1434h168v-613h785v613z" />
    <glyph glyph-name="I" unicode="I" horiz-adv-x="548" 
d="M358 0h-168v1434h168v-1434z" />
    <glyph glyph-name="J" unicode="J" horiz-adv-x="1341" 
d="M1022 1434h168l-8 -840q0 -151 -39 -264q-41 -118 -117 -197t-188 -123q-112 -41 -254 -41q-96 0 -191 29q-82 22 -162 76q-73 49 -125 116q-51 66 -79 148l166 45q44 -124 149 -190q109 -68 246 -68q212 0 323 123t111 336v850z" />
    <glyph glyph-name="K" unicode="K" horiz-adv-x="1411" 
d="M1333 0h-198l-543 739l-234 -233v-502h-168v1434h168v-383q0 -346 -2 -346h2l23 22l55 55l78 78l84 84l485 486h207l-585 -586z" />
    <glyph glyph-name="L" unicode="L" horiz-adv-x="1167" 
d="M358 158h768v-158h-936v1434h168v-1276z" />
    <glyph glyph-name="M" unicode="M" horiz-adv-x="1705" 
d="M1358 1434h158v-1440h-166v643q0 113 2 172q4 118 4 164q0 17 -0.5 44t-0.5 45.5t1 33.5l2 49h-2l-13 -21q-15 -26 -30 -55q-3 -5 -39 -70l-18 -31.5t-21 -37.5l-334 -582h-88l-334 582q-7 13 -21.5 37t-19.5 34q-4 8 -19 33.5t-22 38.5q-15 29 -30 55l-13 23h-2l2 -47
v-123q0 -46 4 -164q2 -59 2 -172v-645h-165v1434h157l357 -607q43 -71 73 -129q9 -17 23.5 -44.5t19.5 -37.5q6 -11 14 -25.5t9 -17.5l6 -12h2l6 12q1 3 9 17.5t14 25.5q5 10 19.5 37.5t23.5 44.5q30 58 73 129z" />
    <glyph glyph-name="N" unicode="N" horiz-adv-x="1556" 
d="M1198 1434h168v-1436h-158l-637 856q-69 95 -86 119q-35 48 -67 96q-6 10 -21.5 32.5t-21.5 31.5l-17 24h-2v-31v-86v-129v-159v-752h-168v1434h158l637 -856q74 -102 78 -107q63 -88 67 -94q11 -17 50 -68l18 -24h2v32v89v126v148v754z" />
    <glyph glyph-name="O" unicode="O" horiz-adv-x="1667" 
d="M84 715l-6 -4q0 162 59 301t160 237q100 97 238 154q134 55 288 55q155 0 289 -55q138 -57 238 -154q101 -98 159 -235q60 -142 60 -301q0 -164 -58 -301q-59 -139 -159 -236q-99 -96 -238 -153q-139 -54 -289 -54q-149 0 -288 54q-136 56 -236 153t-160 238
q-57 134 -57 301zM262 717l-6 -2q0 -129 43 -236q42 -105 121 -184q74 -74 182 -119q104 -43 227 -43q122 0 226 43q108 45 182 119q79 79 121 184q43 107 43 238q0 132 -43 239t-121 185q-76 76 -180 119t-226 43q-123 0 -227 -43t-180 -119q-74 -74 -119 -185
q-43 -107 -43 -239z" />
    <glyph glyph-name="P" unicode="P" horiz-adv-x="1224" 
d="M193 1434h440v2q249 0 391 -121q141 -120 141 -336q0 -215 -141 -338t-391 -123h-273v-518h-167v1434zM358 676h269h2q178 0 270 80t92 221q0 145 -98 221q-101 78 -266 78h-269v-600z" />
    <glyph glyph-name="Q" unicode="Q" horiz-adv-x="1667" 
d="M741 -270v245l-4 -2q-144 16 -258 74q-122 62 -209 160q-91 102 -139 227q-49 128 -49 281q0 162 59 301t160 237q100 97 238 154q134 55 288 55q155 0 289 -55q138 -57 238 -154q101 -98 159 -235q60 -142 60 -301q0 -156 -51 -281t-142 -227q-88 -99 -211 -160
q-117 -58 -260 -74v-245h-168zM834 135l-7 -2q122 0 226 43q108 45 182 119q79 79 121 184q43 107 43 238q0 132 -43 239t-121 185q-76 76 -180 119t-226 43q-123 0 -227 -43t-180 -119q-74 -74 -119 -185q-43 -107 -43 -239q0 -129 43 -236q42 -105 121 -184
q74 -74 182 -119q104 -43 228 -43z" />
    <glyph glyph-name="R" unicode="R" horiz-adv-x="1304" 
d="M1214 0h-188l-326 535q-15 -3 -34 -3h-37h-269v-532h-167v1432h436q254 0 395 -123t141 -332q0 -151 -78 -258q-77 -105 -221 -152zM358 684h285l2 -2q175 0 262 84q86 83 86 213q0 137 -92 217t-258 80h-285v-592z" />
    <glyph glyph-name="S" unicode="S" horiz-adv-x="1220" 
d="M1120 1079l-159 -43l-21 -8q-12 62 -43 117q-28 48 -80 88q-50 38 -106 55q-62 19 -127 19q-143 0 -232 -62q-90 -63 -90 -170q0 -57 35 -98t90 -68q62 -30 125 -49q24 -7 70.5 -21.5t70.5 -21.5q58 -16 160 -53q83 -30 154 -80q70 -49 116 -119q47 -71 47 -176
q0 -93 -36 -166q-37 -75 -105 -131q-67 -55 -164 -86q-101 -29 -215 -29q-108 0 -209 29q-92 29 -161 86q-64 53 -113 133q-46 75 -61 166l161 43q8 -57 37 -119q24 -53 78 -100q50 -44 117 -68q68 -24 157 -24q160 0 252 74q93 75 93 188q0 78 -43 127q-44 51 -107 84
q-62 33 -145 55q-39 10 -156 47q-57 17 -131 45q-66 25 -131 68q-61 40 -101 104q-38 61 -38 156q0 86 36 154q37 69 103 123q62 51 158 82q92 30 200 30q103 0 185 -26t153 -78q64 -47 113 -121q44 -67 63 -156z" />
    <glyph glyph-name="T" unicode="T" horiz-adv-x="1216" 
d="M45 1434h1126v-158h-481v-1276h-166v1276h-479v158z" />
    <glyph glyph-name="U" unicode="U" horiz-adv-x="1480" 
d="M1161 1434h168l2 -840q0 -306 -153 -465q-152 -158 -437 -158q-284 0 -436 158q-153 159 -153 465v840h167v-842q0 -465 420 -465q422 0 422 465v842z" />
    <glyph glyph-name="V" unicode="V" horiz-adv-x="1470" 
d="M1251 1434h181l-617 -1434h-170l-612 1432h182l432 -1026q5 -13 15.5 -40t15.5 -40q13 -34 27 -70q10 -25 18 -49l8 -19h2l8 21q2 6 9.5 23t11.5 26q4 11 13 36t13 36l29 78z" />
    <glyph glyph-name="W" unicode="W" horiz-adv-x="2007" 
d="M1780 1434h174l-488 -1442h-147l-238 751q-37 113 -61 218q-15 63 -19 63h-2q-3 0 -18 -63q-18 -77 -61 -216l-238 -751h-147l-486 1431h174l324 -968q21 -64 43 -150q15 -57 18 -57h2q5 0 17 59q5 23 47 152l254 776h147l254 -776q43 -132 47 -150q12 -57 17 -57h2
q3 0 18 59q25 96 43 152z" />
    <glyph glyph-name="X" unicode="X" horiz-adv-x="1368" 
d="M686 610h-2l-20 -18q-7 -12 -25 -37q-13 -18 -31 -47q-18 -28 -30 -43l-353 -465h-202l548 741l-505 691h202l316 -428q3 -4 11 -16t13 -19t15.5 -21.5t15.5 -21.5q22 -30 27 -37l12 -17h2l12 17q5 7 27 37l29 45q5 7 13 19t11 16l315 428h205l-508 -691l549 -743h-203
l-352 467q-13 15 -30 43q-25 40 -29 47q-5 8 -13 21t-10 16z" />
    <glyph glyph-name="Y" unicode="Y" horiz-adv-x="1343" 
d="M1118 1434h193l-566 -734v-702h-165v702l-555 730h190l360 -469q5 -6 15.5 -18.5t15.5 -18.5q25 -30 29 -35q3 -4 11 -13t11 -14l11 -10h2l10 12q18 24 22 29t29 35q22 26 29 37z" />
    <glyph glyph-name="Z" unicode="Z" horiz-adv-x="1413" 
d="M1290 1434v-156l-841 -1010q-62 -70 -76 -84q-31 -31 -31 -32l2 -2q1 0 7 0.5t19.5 1.5t28.5 2q70 4 129 4h760v-158h-1167v156l852 1011q10 12 35 37q6 6 17.5 18t16.5 17t15 14t14 13l12 12l-2 2q-20 0 -55 -2t-131 -2h-752v158h1147z" />
    <glyph glyph-name="bracketleft" unicode="[" horiz-adv-x="694" 
d="M362 1595v-1745h275v-157h-447v2060h447v-158h-275z" />
    <glyph glyph-name="backslash" unicode="\" horiz-adv-x="966" 
d="M197 1434l733 -1434h-170l-723 1434h160z" />
    <glyph glyph-name="bracketright" unicode="]" horiz-adv-x="714" 
d="M352 -150v1745h-274v158h446v-2060h-446v157h274z" />
    <glyph glyph-name="asciicircum" unicode="^" horiz-adv-x="1341" 
d="M1149 977l-82 -78l-395 408l-398 -408l-84 78l480 481l75 -76z" />
    <glyph glyph-name="underscore" unicode="_" horiz-adv-x="1560" 
d="M190 0h1180v-129h-1180v129z" />
    <glyph glyph-name="grave" unicode="`" horiz-adv-x="628" 
d="M500 1511l-449 213l64 119l438 -237z" />
    <glyph glyph-name="a" unicode="a" horiz-adv-x="1472" 
d="M1255 0l-159 375h-719l-160 -375h-180l622 1434h154l623 -1434h-181zM440 524h592l-227 533q-22 50 -25 57q-6 15 -20 57q-1 3 -17 43l-6 17h-2l-6 -17q-10 -25 -16 -43q-9 -27 -21 -57t-24 -57z" />
    <glyph glyph-name="b" unicode="b" horiz-adv-x="1325" 
d="M184 1432h539v-2q88 0 168 -25q72 -23 131 -72q57 -48 86 -110q31 -67 31 -142q0 -55 -21 -104q-20 -47 -55 -88q-38 -44 -76 -68q-46 -29 -86 -37v-2q50 -6 111 -37q62 -32 108 -75q50 -47 80 -111q31 -67 31 -141q0 -91 -31 -170q-30 -77 -92 -133t-150 -86
q-86 -29 -202 -29h-572v1432zM352 836h338q61 0 113 18q47 16 88 49q34 27 57 72q21 41 21 86q0 103 -76 164t-203 61h-338v-450zM358 145h394l-7 -2q62 0 121 19q56 18 99 55q44 38 67 88q25 55 25 117q0 58 -25 113q-24 53 -67 90q-45 39 -101 59q-58 21 -123 21h-383
v-560z" />
    <glyph glyph-name="c" unicode="c" horiz-adv-x="1558" 
d="M1485 1085l-170 -43l-12 2q-75 122 -203 189t-279 67q-123 0 -227 -43q-106 -44 -180 -118t-119 -185q-43 -107 -43 -235q0 -129 43 -236q42 -105 121 -184q74 -74 182 -119q104 -43 225 -43q165 0 301 80q137 81 207 215l166 -45q-49 -99 -113 -172q-65 -74 -153 -131
t-189 -84q-105 -31 -215 -31q-149 0 -288 54q-136 56 -236 153t-160 238q-57 134 -57 301q0 162 59 301t160 237q100 97 238 154q134 55 288 55q108 0 203 -26q103 -28 183 -76q87 -52 151 -119q68 -71 117 -156z" />
    <glyph glyph-name="d" unicode="d" horiz-adv-x="1626" 
d="M186 1434h605l-5 -7q153 0 289 -53q133 -52 236 -147q98 -91 159 -228q60 -135 60 -294q0 -163 -57 -289q-60 -132 -156 -221q-98 -91 -232 -144q-128 -51 -282 -51h-617v1434zM358 158h449h-4q114 0 215 37t178 108t123 172q45 99 45 232t-45 235q-46 104 -123 178
q-79 76 -180 115q-106 41 -221 41h-437v-1118z" />
    <glyph glyph-name="e" unicode="e" horiz-adv-x="1288" 
d="M358 158h801v-158h-969v1434h957v-158h-789v-442h633v-150h-633v-526z" />
    <glyph glyph-name="f" unicode="f" horiz-adv-x="1196" 
d="M1126 1276h-768v-485h613v-152h-613v-639h-168v1434h936v-158z" />
    <glyph glyph-name="g" unicode="g" horiz-adv-x="1628" 
d="M1360 213h-2l-2 -4q-21 -26 -72 -74q-45 -42 -110 -80q-66 -38 -150 -59q-89 -25 -190 -25q-150 0 -289 54q-136 56 -236 153q-99 96 -159 238q-58 137 -58 301q0 159 60 301q60 140 159 237q100 97 238 154q134 55 289 55q224 -3 389 -104q169 -104 262 -270l-170 -43
q-74 120 -203 188q-130 68 -278 68q-124 0 -228 -43t-180 -119q-74 -74 -119 -185q-43 -107 -43 -235q0 -133 43 -240q42 -105 121 -184q74 -74 182 -119q104 -43 228 -43q98 0 190 29q85 27 152 72q64 43 110 92q47 51 68 96v178h-438v139h583v-741h-147v102v66v35v10z" />
    <glyph glyph-name="h" unicode="h" horiz-adv-x="1501" 
d="M1143 1434h166v-1434h-166v664h-785v-664h-168v1434h168v-613h785v613z" />
    <glyph glyph-name="i" unicode="i" horiz-adv-x="548" 
d="M358 0h-168v1434h168v-1434z" />
    <glyph glyph-name="j" unicode="j" horiz-adv-x="1341" 
d="M1022 1434h168l-8 -840q0 -151 -39 -264q-41 -118 -117 -197t-188 -123q-112 -41 -254 -41q-96 0 -191 29q-82 22 -162 76q-73 49 -125 116q-51 66 -79 148l166 45q44 -124 149 -190q109 -68 246 -68q212 0 323 123t111 336v850z" />
    <glyph glyph-name="k" unicode="k" horiz-adv-x="1411" 
d="M1333 0h-198l-543 739l-234 -233v-502h-168v1434h168v-383q0 -346 -2 -346h2l23 22l55 55l78 78l84 84l485 486h207l-585 -586z" />
    <glyph glyph-name="l" unicode="l" horiz-adv-x="1167" 
d="M358 158h768v-158h-936v1434h168v-1276z" />
    <glyph glyph-name="m" unicode="m" horiz-adv-x="1705" 
d="M1358 1434h158v-1440h-166v643q0 113 2 172q4 118 4 164q0 17 -0.5 44t-0.5 45.5t1 33.5l2 49h-2l-13 -21q-15 -26 -30 -55q-3 -5 -39 -70l-18 -31.5t-21 -37.5l-334 -582h-88l-334 582q-7 13 -21.5 37t-19.5 34q-4 8 -19 33.5t-22 38.5q-15 29 -30 55l-13 23h-2l2 -47
v-123q0 -46 4 -164q2 -59 2 -172v-645h-165v1434h157l357 -607q43 -71 73 -129q9 -17 23.5 -44.5t19.5 -37.5q6 -11 14 -25.5t9 -17.5l6 -12h2l6 12q1 3 9 17.5t14 25.5q5 10 19.5 37.5t23.5 44.5q30 58 73 129z" />
    <glyph glyph-name="n" unicode="n" horiz-adv-x="1556" 
d="M1198 1434h168v-1436h-158l-637 856q-69 95 -86 119q-35 48 -67 96q-6 10 -21.5 32.5t-21.5 31.5l-17 24h-2v-31v-86v-129v-159v-752h-168v1434h158l637 -856q74 -102 78 -107q63 -88 67 -94q11 -17 50 -68l18 -24h2v32v89v126v148v754z" />
    <glyph glyph-name="o" unicode="o" horiz-adv-x="1667" 
d="M84 715l-6 -4q0 162 59 301t160 237q100 97 238 154q134 55 288 55q155 0 289 -55q138 -57 238 -154q101 -98 159 -235q60 -142 60 -301q0 -164 -58 -301q-59 -139 -159 -236q-99 -96 -238 -153q-139 -54 -289 -54q-149 0 -288 54q-136 56 -236 153t-160 238
q-57 134 -57 301zM262 717l-6 -2q0 -129 43 -236q42 -105 121 -184q74 -74 182 -119q104 -43 227 -43q122 0 226 43q108 45 182 119q79 79 121 184q43 107 43 238q0 132 -43 239t-121 185q-76 76 -180 119t-226 43q-123 0 -227 -43t-180 -119q-74 -74 -119 -185
q-43 -107 -43 -239z" />
    <glyph glyph-name="p" unicode="p" horiz-adv-x="1224" 
d="M193 1434h440v2q249 0 391 -121q141 -120 141 -336q0 -215 -141 -338t-391 -123h-273v-518h-167v1434zM358 676h269h2q178 0 270 80t92 221q0 145 -98 221q-101 78 -266 78h-269v-600z" />
    <glyph glyph-name="q" unicode="q" horiz-adv-x="1667" 
d="M741 -270v245l-4 -2q-144 16 -258 74q-122 62 -209 160q-91 102 -139 227q-49 128 -49 281q0 162 59 301t160 237q100 97 238 154q134 55 288 55q155 0 289 -55q138 -57 238 -154q101 -98 159 -235q60 -142 60 -301q0 -156 -51 -281t-142 -227q-88 -99 -211 -160
q-117 -58 -260 -74v-245h-168zM834 135l-7 -2q122 0 226 43q108 45 182 119q79 79 121 184q43 107 43 238q0 132 -43 239t-121 185q-76 76 -180 119t-226 43q-123 0 -227 -43t-180 -119q-74 -74 -119 -185q-43 -107 -43 -239q0 -129 43 -236q42 -105 121 -184
q74 -74 182 -119q104 -43 228 -43z" />
    <glyph glyph-name="r" unicode="r" horiz-adv-x="1304" 
d="M1214 0h-188l-326 535q-15 -3 -34 -3h-37h-269v-532h-167v1432h436q254 0 395 -123t141 -332q0 -151 -78 -258q-77 -105 -221 -152zM358 684h285l2 -2q175 0 262 84q86 83 86 213q0 137 -92 217t-258 80h-285v-592z" />
    <glyph glyph-name="s" unicode="s" horiz-adv-x="1220" 
d="M1120 1079l-159 -43l-21 -8q-12 62 -43 117q-28 48 -80 88q-50 38 -106 55q-62 19 -127 19q-143 0 -232 -62q-90 -63 -90 -170q0 -57 35 -98t90 -68q62 -30 125 -49q24 -7 70.5 -21.5t70.5 -21.5q58 -16 160 -53q83 -30 154 -80q70 -49 116 -119q47 -71 47 -176
q0 -93 -36 -166q-37 -75 -105 -131q-67 -55 -164 -86q-101 -29 -215 -29q-108 0 -209 29q-92 29 -161 86q-64 53 -113 133q-46 75 -61 166l161 43q8 -57 37 -119q24 -53 78 -100q50 -44 117 -68q68 -24 157 -24q160 0 252 74q93 75 93 188q0 78 -43 127q-44 51 -107 84
q-62 33 -145 55q-39 10 -156 47q-57 17 -131 45q-66 25 -131 68q-61 40 -101 104q-38 61 -38 156q0 86 36 154q37 69 103 123q62 51 158 82q92 30 200 30q103 0 185 -26t153 -78q64 -47 113 -121q44 -67 63 -156z" />
    <glyph glyph-name="t" unicode="t" horiz-adv-x="1216" 
d="M45 1434h1126v-158h-481v-1276h-166v1276h-479v158z" />
    <glyph glyph-name="u" unicode="u" horiz-adv-x="1480" 
d="M1161 1434h168l2 -840q0 -306 -153 -465q-152 -158 -437 -158q-284 0 -436 158q-153 159 -153 465v840h167v-842q0 -465 420 -465q422 0 422 465v842z" />
    <glyph glyph-name="v" unicode="v" horiz-adv-x="1470" 
d="M1251 1434h181l-617 -1434h-170l-612 1432h182l432 -1026q5 -13 15.5 -40t15.5 -40q13 -34 27 -70q10 -25 18 -49l8 -19h2l8 21q2 6 9.5 23t11.5 26q4 11 13 36t13 36l29 78z" />
    <glyph glyph-name="w" unicode="w" horiz-adv-x="2007" 
d="M1780 1434h174l-488 -1442h-147l-238 751q-37 113 -61 218q-15 63 -19 63h-2q-3 0 -18 -63q-18 -77 -61 -216l-238 -751h-147l-486 1431h174l324 -968q21 -64 43 -150q15 -57 18 -57h2q5 0 17 59q5 23 47 152l254 776h147l254 -776q43 -132 47 -150q12 -57 17 -57h2
q3 0 18 59q25 96 43 152z" />
    <glyph glyph-name="x" unicode="x" horiz-adv-x="1368" 
d="M686 610h-2l-20 -18q-7 -12 -25 -37q-13 -18 -31 -47q-18 -28 -30 -43l-353 -465h-202l548 741l-505 691h202l316 -428q3 -4 11 -16t13 -19t15.5 -21.5t15.5 -21.5q22 -30 27 -37l12 -17h2l12 17q5 7 27 37l29 45q5 7 13 19t11 16l315 428h205l-508 -691l549 -743h-203
l-352 467q-13 15 -30 43q-25 40 -29 47q-5 8 -13 21t-10 16z" />
    <glyph glyph-name="y" unicode="y" horiz-adv-x="1343" 
d="M1118 1434h193l-566 -734v-702h-165v702l-555 730h190l360 -469q5 -6 15.5 -18.5t15.5 -18.5q25 -30 29 -35q3 -4 11 -13t11 -14l11 -10h2l10 12q18 24 22 29t29 35q22 26 29 37z" />
    <glyph glyph-name="z" unicode="z" horiz-adv-x="1413" 
d="M1290 1434v-156l-841 -1010q-62 -70 -76 -84q-31 -31 -31 -32l2 -2q1 0 7 0.5t19.5 1.5t28.5 2q70 4 129 4h760v-158h-1167v156l852 1011q10 12 35 37q6 6 17.5 18t16.5 17t15 14t14 13l12 12l-2 2q-20 0 -55 -2t-131 -2h-752v158h1147z" />
    <glyph glyph-name="braceleft" unicode="{" horiz-adv-x="798" 
d="M492 1286v-239l-7 -7q0 -104 -14 -161q-14 -56 -35 -97q-17 -32 -37 -49q-18 -15 -24 -18q3 -1 24 -19q21 -17 37 -51q23 -47 35 -98q16 -66 16 -162v-238q0 -99 25 -163q25 -66 63 -99q42 -36 89 -47q50 -12 100 -12v-156q-206 0 -324 115q-116 113 -116 358v256
q0 105 -21 166q-22 63 -45 97q-29 40 -68 55q39 15 68 55q28 40 47 96q23 67 23 166v256q0 248 116 361q117 114 324 114v-155q-46 0 -100 -13q-46 -11 -88 -47q-40 -34 -64 -98q-24 -65 -24 -166z" />
    <glyph glyph-name="bar" unicode="|" horiz-adv-x="520" 
d="M330 -150h-140v1737h140v-1737z" />
    <glyph glyph-name="braceright" unicode="}" horiz-adv-x="798" 
d="M307 1047v239l-4 2q0 102 -24 166t-64 98q-42 36 -88 47q-54 13 -100 13v155q206 0 323 -114t117 -361v-256q0 -107 20 -166q19 -57 50 -96q27 -40 67 -55q-40 -15 -67 -55q-30 -38 -50 -97t-20 -166v-256q0 -244 -117 -358q-118 -115 -321 -115v156q51 0 100 12
q46 11 88 47q40 34 64 99q24 62 24 164v237q0 94 17 164q13 55 34 98q16 34 37 51q19 16 25 19q-9 4 -25 18q-20 17 -37 49q-19 37 -34 97q-15 61 -15 164z" />
    <glyph glyph-name="asciitilde" unicode="~" 
d="M1047 836l143 -39l-6 -2q-15 -106 -92 -162q-76 -55 -172 -55q-64 0 -117 24q-33 15 -94 53q-12 8 -40.5 26.5t-43.5 27.5q-40 24 -86 24q-76 0 -109 -39q-34 -40 -37 -88l-141 37q15 109 96 166q79 55 176 55q64 0 117 -24q44 -20 96 -56q54 -37 84 -55q41 -24 84 -24
q71 0 105 40t37 91z" />
    <glyph glyph-name="uni00A0" unicode="&#xa0;" horiz-adv-x="512" 
 />
    <glyph glyph-name="exclamdown" unicode="&#xa1;" horiz-adv-x="548" 
d="M190 1434h168v-322h-168v322zM190 967h168v-967h-168v967z" />
    <glyph glyph-name="cent" unicode="&#xa2;" horiz-adv-x="1161" 
d="M965 535l143 -41l-6 -13q-69 -139 -164 -209q-112 -83 -254 -98v-211h-137v211q-103 12 -182 57q-86 49 -146 117t-98 162q-37 90 -37 199q0 108 37 198q38 94 98 162t146 117q79 44 178 57v215h139v-215q131 -15 242 -90q108 -73 166 -190l-146 -39q-53 87 -135 133
q-83 47 -191 47q-82 0 -149 -27q-65 -26 -117 -78t-78 -122q-26 -71 -26 -162q0 -87 28 -160q26 -68 78 -123q50 -53 117 -80q65 -26 152 -26q118 0 206 55q90 57 136 154z" />
    <glyph glyph-name="sterling" unicode="&#xa3;" horiz-adv-x="1343" 
d="M836 158h415l-8 -158h-1061v158q62 11 101 43q37 29 55 80q17 46 20 114q2 40 -6 148l-10 114h-147v138h135l-19 211q-9 95 21 178q30 82 88 143q56 59 139 98q76 36 176 39q65 3 142 -16q72 -18 141 -62q70 -45 123 -118q58 -79 84 -191l-146 -39q-47 153 -131 217
q-86 65 -207 62q-63 -3 -116 -27q-52 -24 -86 -67q-36 -45 -50 -101t-8 -123l19 -198h481v-137h-469l10 -111q15 -179 -14 -268q-30 -92 -96 -127l2 -2l35 2h92h135h160z" />
    <glyph glyph-name="currency" unicode="&#xa4;" horiz-adv-x="1339" 
d="M989 1122l148 146l77 -97l-145 -145q56 -64 92 -154q33 -82 33 -184q0 -89 -31 -174q-30 -82 -82 -149l150 -150l-88 -88l-148 149q-69 -57 -155 -92q-79 -32 -185 -32q-105 0 -182 32q-87 36 -154 92l-149 -149l-86 88l149 150q-49 63 -81 151q-31 85 -31 176
q0 103 33 185q36 90 92 157l-146 144l88 88l148 -146q72 56 149 84q85 31 174 31q94 0 179 -31q86 -31 151 -82zM670 1090l-6 -3q-80 0 -150 -30q-71 -30 -123 -82t-82 -123q-30 -70 -30 -154q0 -82 30 -153t82 -123t123 -82q73 -31 152 -31q78 0 151 31q71 30 123 82
q55 55 84 123q31 73 31 153q0 81 -31 154q-30 71 -82 123q-55 55 -123 84q-73 31 -149 31z" />
    <glyph glyph-name="yen" unicode="&#xa5;" horiz-adv-x="1341" 
d="M1311 1434l-428 -562l282 -4v-120h-383l-37 -48v-32h420v-121h-420v-549h-165v549h-406v121h406v32l-37 48h-369v120h279l-428 562h190l360 -469q5 -6 15.5 -18.5t15.5 -18.5q25 -30 29 -35q3 -4 11 -13t11 -14l11 -10h2l10 12q18 24 22 29t29 35q22 26 29 37l358 469
h193z" />
    <glyph glyph-name="brokenbar" unicode="&#xa6;" horiz-adv-x="520" 
d="M190 1587h140v-573h-140v573zM190 442h140v-592h-140v592z" />
    <glyph glyph-name="section" unicode="&#xa7;" horiz-adv-x="1077" 
d="M973 1194l-142 -37l3 -12q-15 88 -97 139q-79 49 -192 49q-120 0 -191 -39q-73 -40 -73 -110q0 -40 28 -68q27 -27 74 -45q52 -20 102 -31q87 -19 115 -26q37 -9 131 -37q72 -22 129 -55q61 -36 96 -82q37 -49 37 -123q0 -83 -55 -135q-56 -53 -154 -80q89 -36 148 -92
q61 -58 61 -154q0 -70 -32 -121q-35 -57 -95 -96q-56 -37 -143 -59q-90 -23 -184 -23q-98 0 -181 25q-85 26 -139 63q-59 41 -96 96q-35 52 -51 121l139 37q9 -45 33 -86q26 -44 67 -72q47 -32 101 -49q58 -18 135 -18q140 0 217 51q80 53 80 129q0 56 -37 90q-39 36 -92 59
q-65 28 -123 41q-20 4 -42.5 9.5t-49 12t-41.5 9.5q-53 15 -117 33q-59 16 -119 49q-54 29 -92 76q-37 46 -37 112q0 82 60 142q61 61 159 90q-71 26 -129 78q-55 49 -55 133q0 57 31 108q30 49 86 84t133 56q73 20 166 20q161 0 280 -72q118 -71 148 -190zM242 762l-4 -8
q0 -45 30 -72q33 -30 80 -47q50 -18 111 -33l123 -29q10 -2 34 -6q17 -3 35 -10q86 15 142 59q55 43 55 109q0 55 -35 90q-34 34 -90 55q-61 23 -121 37q-19 4 -40.5 9.5t-47 12t-39.5 9.5q-35 -6 -80 -18q-40 -11 -76 -33q-34 -20 -55 -51q-22 -31 -22 -74z" />
    <glyph glyph-name="dieresis" unicode="&#xa8;" horiz-adv-x="811" 
d="M150 1567h-3q-43 0 -71 28q-29 29 -29 72q0 39 29 68q28 28 71 28q41 0 72 -28t31 -68q0 -44 -31 -72t-69 -28zM635 1567h-2q-39 0 -70 28t-31 72q0 40 31 68t72 28q44 0 72 -28t28 -68q0 -44 -28 -72t-72 -28z" />
    <glyph glyph-name="copyright" unicode="&#xa9;" horiz-adv-x="1667" 
d="M825 1444l-6 -4q153 0 289 -56q139 -57 238 -153q100 -97 159 -236q60 -142 60 -301q0 -164 -58 -301t-159 -235q-100 -97 -238 -154q-136 -53 -289 -53t-289 53q-132 54 -235 154q-101 98 -160 237q-57 134 -57 301q0 162 59 301q60 141 160 238t238 154q134 55 288 55z
M831 1325l-6 -4q-135 0 -245 -45q-117 -48 -197 -125q-81 -79 -129 -195q-45 -110 -45 -256q0 -136 47 -251q48 -116 129 -195q80 -77 197 -125q110 -45 245 -45q137 0 244 45q112 47 195 127q81 79 129 195q47 115 47 251q0 141 -47 256q-48 116 -129 195q-85 82 -193 127
q-107 45 -242 45zM1069 598l107 -31l-2 -14q-16 -41 -54 -86q-36 -43 -80 -68q-51 -30 -98 -43q-56 -16 -106 -16q-73 0 -142 29q-64 27 -114 77q-49 49 -76 117t-27 146q0 73 29 145q26 65 78 117t114 78q67 28 142 28q54 0 100 -14q44 -13 92 -43q45 -28 78 -64
q35 -39 55 -79l-106 -31q-28 51 -90 88q-56 33 -129 33q-111 0 -181 -70q-69 -69 -69 -186q0 -118 69 -187t181 -69q75 0 137 39q66 41 92 104z" />
    <glyph glyph-name="ordfeminine" unicode="&#xaa;" horiz-adv-x="722" 
d="M223 928l-59 -160h-117l268 682h95l268 -682h-119l-59 160h-277zM319 1186l-63 -170h211l-64 170q-11 31 -16 51q-7 31 -12 49q-2 7 -8 37l-2 14h-3l-2 -14q-6 -30 -8 -37l-14 -49q-1 -3 -19 -51zM41 633h641v-111h-641v111z" />
    <glyph glyph-name="guillemotleft" unicode="&#xab;" horiz-adv-x="1540" 
d="M770 721l483 479l95 -94l-392 -385l394 -385l-99 -94zM190 721l484 479l94 -94l-391 -385l393 -385l-98 -94z" />
    <glyph glyph-name="uni00AD" unicode="&#xad;" horiz-adv-x="1329" 
d="M190 799h949v-142h-949v142z" />
    <glyph glyph-name="registered" unicode="&#xae;" horiz-adv-x="1667" 
d="M827 1456l-6 -4q155 0 289 -55q138 -57 238 -154q101 -98 159 -235q60 -142 60 -301q0 -164 -58 -301q-59 -139 -159 -236t-238 -154q-136 -53 -289 -53q-152 0 -288 53q-134 55 -236 154q-100 97 -160 238q-57 134 -57 301q0 162 59 301t160 237q100 97 238 154
q134 55 288 55zM834 94l-7 -4q137 0 244 45q112 47 195 127q81 79 129 195q47 115 47 252q0 141 -47 256t-129 194q-85 82 -193 127q-107 45 -242 45t-245 -45q-117 -48 -197 -125q-82 -79 -129 -194q-45 -110 -45 -256q0 -137 47 -252q48 -116 129 -195q80 -77 197 -125
q110 -45 246 -45zM606 1083h232v-2q129 0 202 -61q74 -62 74 -168q0 -78 -39 -129q-42 -55 -110 -78l180 -293h-117l-166 275h-24h-125v-275h-107v731zM713 717h133q162 0 162 135q0 65 -39 98q-41 35 -123 35h-133v-268z" />
    <glyph glyph-name="macron" unicode="&#xaf;" horiz-adv-x="755" 
d="M37 1546h659v-131h-659v131z" />
    <glyph glyph-name="degree" unicode="&#xb0;" horiz-adv-x="600" 
d="M301 1200v-4q-45 0 -86 18q-40 18 -72 50q-31 31 -49 71q-18 41 -18 86t18 86t49 72t72 49q43 19 86 19t86 -19q41 -18 72 -49q32 -32 49 -70q18 -41 18 -86t-18 -86q-16 -36 -49 -69q-31 -31 -72 -49q-43 -19 -86 -19zM301 1311v-4q50 0 86 36q37 37 37 84q0 52 -37 86
q-38 35 -86 35q-51 0 -86 -32q-37 -34 -37 -86q0 -45 37 -82t86 -37z" />
    <glyph glyph-name="plusminus" unicode="&#xb1;" 
d="M791 799h399v-142h-397v-344h-152v344h-399v142h397v393h152v-393zM242 -18v139h948v-139h-948z" />
    <glyph glyph-name="uni00B2" unicode="&#xb2;" horiz-adv-x="673" 
d="M199 1061l2 -2h-4q10 0 22 2q14 2 47 6q25 3 62 6q23 2 71 2h219v-106h-567v84l328 264q54 42 90 92q37 52 37 111q0 67 -49 110t-121 43q-89 0 -131 -45q-43 -46 -64 -117l-108 29q26 112 108 178q81 66 195 66q61 0 113 -21q54 -21 92 -57q41 -38 61 -82
q23 -51 23 -102q0 -84 -43 -148q-41 -61 -103 -110q-50 -43 -82 -68q-15 -11 -43 -34t-43 -34q-46 -34 -80 -49q-32 -14 -32 -18z" />
    <glyph glyph-name="uni00B3" unicode="&#xb3;" horiz-adv-x="677" 
d="M160 1524l-105 28l-16 -4q21 104 98 166t195 62q68 0 123 -19q49 -17 86 -49q34 -30 49 -70q16 -43 16 -82q0 -41 -14 -73q-13 -30 -41 -58q-23 -23 -55 -36q-30 -12 -64 -15v-2q39 -3 70 -14q29 -10 61 -35q29 -22 43 -55q17 -39 17 -74q0 -54 -21 -100t-61 -80
q-38 -33 -92 -51q-55 -19 -113 -19q-56 0 -111 19q-48 17 -92 49q-38 28 -67 78q-27 46 -33 102l106 27q6 -76 62 -123q54 -45 141 -45q86 0 129 43t43 102t-49 96t-127 37h-80v90h80q77 0 123 37q47 38 47 96q0 24 -8 43q-9 21 -29 41q-19 19 -49 31t-76 12q-80 0 -125 -39
q-46 -40 -61 -116z" />
    <glyph glyph-name="acute" unicode="&#xb4;" horiz-adv-x="628" 
d="M492 1843l61 -119l-449 -213l-53 95z" />
    <glyph glyph-name="paragraph" unicode="&#xb6;" horiz-adv-x="1327" 
d="M545 1434h592v-1434h-168v1274h-174v-1274h-160v690h-90q-219 0 -338 98t-119 275q0 174 119 272q120 99 338 99z" />
    <glyph glyph-name="periodcentered" unicode="&#xb7;" horiz-adv-x="448" 
d="M225 608l-2 -4q-42 0 -73 31t-31 72q0 42 31 73t73 31q41 0 72 -31t31 -71q0 -44 -31 -72q-32 -29 -70 -29z" />
    <glyph glyph-name="cedilla" unicode="&#xb8;" horiz-adv-x="493" 
d="M244 0l-39 -100l-6 4q92 3 153 -49q62 -53 62 -142q0 -93 -62 -143q-61 -49 -153 -49h-150l41 98h109q53 0 84 25q30 24 30 65q0 43 -30 70q-29 26 -82 26h-131l69 195h105z" />
    <glyph glyph-name="uni00B9" unicode="&#xb9;" horiz-adv-x="454" 
d="M295 1765h82l-6 -807h-119v478q0 33 2 53q3 30 6 57q4 33 6 47l2 21h-2q-1 0 -20 -25q-12 -16 -45 -49l-97 -96l-75 69z" />
    <glyph glyph-name="ordmasculine" unicode="&#xba;" horiz-adv-x="751" 
d="M14 1106h-8q0 72 29 141q27 65 76 111q52 49 112 74q62 26 139 26q78 0 140 -26q60 -25 112 -74t78 -111q29 -69 29 -141t-29 -141q-27 -65 -76 -111q-52 -49 -112 -74q-62 -26 -137 -26q-76 0 -138 26q-60 25 -112 74q-49 46 -76 111t-27 141zM133 1106h-6q0 -52 18 -98
t52 -80q33 -33 77 -51q46 -19 97 -19q49 0 98 19q51 20 78 51q33 37 49 80q18 46 18 98t-18 98q-16 43 -49 80q-28 33 -76 51q-49 19 -98 19q-48 0 -94 -19q-43 -18 -76 -51t-51 -80q-19 -49 -19 -98zM43 633h668v-111h-668v111z" />
    <glyph glyph-name="guillemotright" unicode="&#xbb;" horiz-adv-x="1540" 
d="M287 1200l483 -479l-481 -479l-99 94l394 385l-391 385zM866 1200l484 -479l-482 -479l-98 94l393 385l-391 385z" />
    <glyph glyph-name="onequarter" unicode="&#xbc;" horiz-adv-x="1382" 
d="M264 1284h-2l-6 -6q-1 0 -20 -25q-9 -12 -46 -49l-96 -96l-76 70l267 252h82v-801h-119v477q0 33 2 53q4 40 6 58q4 33 6 47zM1092 1434h120l-976 -1434h-121zM1331 295v-102h-104v-193h-109v193h-418v81l441 527h86v-506h104zM965 293h159l-6 174q-1 36 4 121
q1 14 2 25.5t1.5 17t0.5 6.5h-2l-10 -14q-13 -21 -24 -37q-5 -7 -35 -47q-11 -15 -37 -45l-105 -121q-33 -37 -57 -56q-31 -25 -31 -26l2 -2q16 0 43 2t95 2z" />
    <glyph glyph-name="onehalf" unicode="&#xbd;" horiz-adv-x="1462" 
d="M291 1434h82l-6 -807h-119v477q0 33 2 53q3 30 6 57q4 36 6 48l2 20h-2q-1 0 -20 -25q-12 -16 -45 -49l-97 -96l-75 70zM117 0l977 1434h120l-976 -1434h-121zM987 96l2 -2h-4q11 0 23 2q14 2 47 6q3 0 25 3t36 4q23 2 72 2h219v-107h-567v84l327 264q54 42 90 92
q37 52 37 111q0 68 -49 111t-121 43q-89 0 -131 -45q-41 -44 -63 -117l-109 28q27 112 109 179q80 65 194 65q63 0 113 -20q52 -21 92 -58q43 -40 62 -82q22 -49 22 -102q0 -83 -43 -147q-44 -64 -102 -111q-50 -43 -82 -68q-15 -11 -43.5 -33.5t-42.5 -33.5
q-46 -34 -80 -49q-33 -14 -33 -19z" />
    <glyph glyph-name="threequarters" unicode="&#xbe;" horiz-adv-x="1533" 
d="M440 1049v-2l-16 -5q39 -3 70 -14q29 -10 61 -35q29 -22 43 -55q16 -37 16 -74q0 -56 -20 -100t-62 -80q-38 -33 -92 -51q-55 -19 -112 -19q-56 0 -111 19q-48 17 -92 49q-40 30 -68 78q-26 44 -32 102l106 27q6 -76 62 -123q54 -45 141 -45q86 0 129 43t43 102
q0 60 -49 97q-48 36 -127 36h-80v91h80q78 0 123 36q47 38 47 97q0 24 -8 43q-9 21 -29 41q-17 17 -49 30q-33 13 -76 13q-80 0 -125 -39q-46 -40 -61 -117l-105 29q21 104 98 166q76 61 195 61q70 0 123 -18q47 -16 86 -50q35 -30 49 -69q16 -43 16 -82q0 -42 -14 -74
q-12 -28 -41 -57q-25 -25 -55 -37q-27 -11 -64 -14zM1243 1434h121l-977 -1434h-123zM1483 295v-102h-105v-193h-108v193h-418v81l440 527h86v-506h105zM1116 293h160l-6 174q-1 36 4 121q1 14 2 25.5t1.5 17t0.5 6.5h-2l-10 -14q-8 -13 -25 -37q-5 -7 -35 -47
q-11 -15 -37 -45l-104 -121q-33 -37 -57 -56q-31 -25 -31 -26l2 -2q16 0 43 2t94 2z" />
    <glyph glyph-name="questiondown" unicode="&#xbf;" horiz-adv-x="1173" 
d="M690 1423v-321h-170v321h170zM694 967v-207l-4 -10q-122 -53 -203 -99q-90 -51 -135 -88q-52 -43 -73 -90q-23 -51 -23 -102q0 -43 14 -86q14 -44 52 -82q39 -39 98 -62q62 -24 153 -24q160 0 246 71q85 70 123 203l141 -41q-40 -179 -176 -282q-131 -99 -334 -99
q-120 0 -221 33q-90 34 -149 90t-86 129t-27 152q0 98 39 166q41 71 102 123q55 47 140 92q51 27 153 73v140h170z" />
    <glyph glyph-name="Agrave" unicode="&#xc0;" horiz-adv-x="1472" 
d="M903 1606l-53 -95l-449 213l64 119zM1255 0l-159 375h-719l-160 -375h-180l622 1434h154l623 -1434h-181zM440 524h592l-227 533q-22 50 -25 57q-6 15 -20 57q-1 3 -17 43l-6 17h-2l-6 -17q-10 -25 -16 -43q-9 -27 -21 -57t-24 -57z" />
    <glyph glyph-name="Aacute" unicode="&#xc1;" horiz-adv-x="1472" 
d="M1038 1724l-448 -213l-53 95l440 237zM1255 0l-159 375h-719l-160 -375h-180l622 1434h154l623 -1434h-181zM440 524h592l-227 533q-22 50 -25 57q-6 15 -20 57q-1 3 -17 43l-6 17h-2l-6 -17q-10 -25 -16 -43q-9 -27 -21 -57t-24 -57z" />
    <glyph glyph-name="Acircumflex" unicode="&#xc2;" horiz-adv-x="1472" 
d="M733 1735l-256 -215l-86 88l342 288l340 -288l-84 -88zM1255 0l-159 375h-719l-160 -375h-180l622 1434h154l623 -1434h-181zM440 524h592l-227 533q-22 50 -25 57q-6 15 -20 57q-1 3 -17 43l-6 17h-2l-6 -17q-10 -25 -16 -43q-9 -27 -21 -57t-24 -57z" />
    <glyph glyph-name="Atilde" unicode="&#xc3;" horiz-adv-x="1472" 
d="M967 1763h135l4 -4q0 -43 -16 -86q-14 -38 -46 -67t-73 -43q-49 -17 -92 -17q-42 0 -82 19q-30 14 -68 41q-44 31 -61 41q-30 18 -64 18q-47 0 -74 -27q-28 -28 -28 -67h-135q0 93 63 153q65 62 162 62q46 0 86 -19q27 -13 67 -41l60 -40q28 -19 61 -19q43 0 72 29t29 67
zM1255 0l-159 375h-719l-160 -375h-180l622 1434h154l623 -1434h-181zM440 524h592l-227 533q-22 50 -25 57q-6 15 -20 57q-1 3 -17 43l-6 17h-2l-6 -17q-10 -25 -16 -43q-9 -27 -21 -57t-24 -57z" />
    <glyph glyph-name="Adieresis" unicode="&#xc4;" horiz-adv-x="1472" 
d="M487 1567h-2q-43 0 -71 28q-29 29 -29 72q0 39 29 68q28 28 71 28q41 0 72 -28t31 -68q0 -44 -31 -72t-70 -28zM973 1567h-2q-39 0 -70 28t-31 72q0 40 31 68t72 28q43 0 71 -28q29 -29 29 -68q0 -43 -29 -72q-28 -28 -71 -28zM1255 0l-159 375h-719l-160 -375h-180
l622 1434h154l623 -1434h-181zM440 524h592l-227 533q-22 50 -25 57q-6 15 -20 57q-1 3 -17 43l-6 17h-2l-6 -17q-10 -25 -16 -43q-9 -27 -21 -57t-24 -57z" />
    <glyph glyph-name="Aring" unicode="&#xc5;" horiz-adv-x="1472" 
d="M1255 -2l-159 373l-723 2l-160 -373h-180l620 1425q-63 23 -104 80q-39 53 -39 127q0 46 18 86t50 72q31 31 71 49q43 19 86 19t86 -19q41 -18 72 -49t49 -72q19 -43 19 -86q0 -70 -41 -129t-105 -80l621 -1425h-181zM616 1636v-4q0 -45 37 -82t86 -37t86 37t37 84
q0 52 -37 86q-38 35 -86 35q-50 0 -86 -33q-37 -34 -37 -86zM440 524h592l-227 533q-22 50 -25 57q-6 15 -20 57q-1 3 -17 43l-6 17h-2l-6 -17q-10 -25 -16 -43q-9 -27 -21 -57t-24 -57z" />
    <glyph glyph-name="AE" unicode="&#xc6;" horiz-adv-x="2027" 
d="M1100 156h801v-156h-967v373h-551l-164 -373h-182l639 1432h1212v-158h-788v-443h635v-149h-635v-526zM934 524v752l-164 -2l-12 -29q-25 -57 -29 -67q-11 -30 -37 -91q-5 -11 -17.5 -42t-19.5 -46l-206 -475h485z" />
    <glyph glyph-name="Ccedilla" unicode="&#xc7;" horiz-adv-x="1558" 
d="M1339 434l166 -45l-12 8q-42 -89 -109 -168q-63 -74 -147 -131q-85 -57 -180 -86q-107 -29 -205 -32l-29 -74q93 3 154 -49t61 -142q0 -94 -61 -143t-156 -49h-147l39 98h108q53 0 84 25t31 65q0 42 -31 70q-29 26 -82 26h-129l62 173q-147 13 -264 71q-127 63 -216 160
q-90 98 -143 227q-51 125 -51 281q0 162 59 301t160 237q100 97 238 154q134 55 288 55q108 0 203 -26q101 -28 182 -76q89 -54 152 -119q69 -72 117 -155l-170 -43q-74 120 -203 188q-130 68 -279 68q-123 0 -227 -43t-180 -119q-74 -74 -119 -185q-43 -107 -43 -235
q0 -129 43 -236q42 -105 121 -184q74 -74 182 -119q104 -43 225 -43q166 0 302 80q135 80 206 215z" />
    <glyph glyph-name="Egrave" unicode="&#xc8;" horiz-adv-x="1288" 
d="M846 1606l-53 -95l-449 213l64 119zM358 158h801v-158h-969v1434h957v-158h-789v-442h633v-150h-633v-526z" />
    <glyph glyph-name="Eacute" unicode="&#xc9;" horiz-adv-x="1288" 
d="M981 1724l-449 -213l-53 95l441 237zM358 158h801v-158h-969v1434h957v-158h-789v-442h633v-150h-633v-526z" />
    <glyph glyph-name="Ecircumflex" unicode="&#xca;" horiz-adv-x="1288" 
d="M676 1735l-256 -215l-86 88l342 288l340 -288l-84 -88zM358 158h801v-158h-969v1434h957v-158h-789v-442h633v-150h-633v-526z" />
    <glyph glyph-name="Edieresis" unicode="&#xcb;" horiz-adv-x="1288" 
d="M430 1567h-2q-44 0 -72 28t-28 72q0 40 28 68t72 28q41 0 72 -28q30 -27 30 -68q0 -45 -30 -72q-31 -28 -70 -28zM915 1567h-2q-38 0 -69 28t-31 72q0 40 31 68t71 28q44 0 72 -28q29 -29 29 -68q0 -43 -29 -72q-28 -28 -72 -28zM358 158h801v-158h-969v1434h957v-158
h-789v-442h633v-150h-633v-526z" />
    <glyph glyph-name="Igrave" unicode="&#xcc;" horiz-adv-x="548" 
d="M387 1511l-446 213l61 119l438 -237zM358 0h-168v1434h168v-1434z" />
    <glyph glyph-name="Iacute" unicode="&#xcd;" horiz-adv-x="548" 
d="M514 1843l61 -119l-448 -213l-53 95zM358 0h-168v1434h168v-1434z" />
    <glyph glyph-name="Icircumflex" unicode="&#xce;" horiz-adv-x="548" 
d="M-70 1608l340 288l340 -288l-84 -88l-256 215l-256 -215zM358 0h-168v1434h168v-1434z" />
    <glyph glyph-name="Idieresis" unicode="&#xcf;" horiz-adv-x="548" 
d="M25 1567h-2q-42 0 -70 28q-29 29 -29 72q0 39 29 68q28 28 70 28q40 0 71 -28t31 -68q0 -44 -31 -72t-69 -28zM510 1567h-2q-39 0 -70 28q-30 27 -30 72q0 41 30 68q31 28 72 28q44 0 72 -28t28 -68q0 -44 -28 -72t-72 -28zM358 0h-168v1434h168v-1434z" />
    <glyph glyph-name="Eth" unicode="&#xd0;" horiz-adv-x="1636" 
d="M197 1434h604l-4 -7q152 0 288 -53q133 -52 236 -147q100 -93 160 -228q59 -133 59 -294q0 -163 -57 -289q-60 -132 -156 -221q-99 -91 -231 -144q-128 -51 -283 -51h-616v653h-111v152h111v629zM369 158h448h-4q114 0 215 37t178 108t123 172q45 99 45 232t-45 235
q-46 104 -123 178q-79 76 -180 115q-106 41 -221 41h-436v-471h364v-152h-364v-495z" />
    <glyph glyph-name="Ntilde" unicode="&#xd1;" horiz-adv-x="1556" 
d="M1012 1759h135l4 -4q0 -43 -16 -86q-15 -40 -45 -67q-31 -28 -74 -43q-49 -17 -92 -17q-42 0 -82 19q-30 14 -68 41q-34 24 -61 40q-32 19 -64 19q-47 0 -74 -27q-28 -28 -28 -67h-135q0 93 63 153q65 62 162 62q46 0 86 -19q30 -14 68 -41q50 -35 59 -41q27 -18 61 -18
q43 0 72 29t29 67zM1198 1434h168v-1436h-158l-637 856q-69 95 -86 119q-35 48 -67 96q-6 10 -21.5 32.5t-21.5 31.5l-17 24h-2v-31v-86v-129v-159v-752h-168v1434h158l637 -856q74 -102 78 -107q63 -88 67 -94q11 -17 50 -68l18 -24h2v32v89v126v148v754z" />
    <glyph glyph-name="Ograve" unicode="&#xd2;" horiz-adv-x="1667" 
d="M944 1505l-448 213l63 119l438 -238zM84 715l-6 -4q0 162 59 301t160 237q100 97 238 154q134 55 288 55q155 0 289 -55q138 -57 238 -154q101 -98 159 -235q60 -142 60 -301q0 -164 -58 -301q-59 -139 -159 -236q-99 -96 -238 -153q-139 -54 -289 -54q-149 0 -288 54
q-136 56 -236 153t-160 238q-57 134 -57 301zM262 717l-6 -2q0 -129 43 -236q42 -105 121 -184q74 -74 182 -119q104 -43 227 -43q122 0 226 43q108 45 182 119q79 79 121 184q43 107 43 238q0 132 -43 239t-121 185q-76 76 -180 119t-226 43q-123 0 -227 -43t-180 -119
q-74 -74 -119 -185q-43 -107 -43 -239z" />
    <glyph glyph-name="Oacute" unicode="&#xd3;" horiz-adv-x="1667" 
d="M1071 1837l62 -119l-449 -213l-53 94zM84 715l-6 -4q0 162 59 301t160 237q100 97 238 154q134 55 288 55q155 0 289 -55q138 -57 238 -154q101 -98 159 -235q60 -142 60 -301q0 -164 -58 -301q-59 -139 -159 -236q-99 -96 -238 -153q-139 -54 -289 -54q-149 0 -288 54
q-136 56 -236 153t-160 238q-57 134 -57 301zM262 717l-6 -2q0 -129 43 -236q42 -105 121 -184q74 -74 182 -119q104 -43 227 -43q122 0 226 43q108 45 182 119q79 79 121 184q43 107 43 238q0 132 -43 239t-121 185q-76 76 -180 119t-226 43q-123 0 -227 -43t-180 -119
q-74 -74 -119 -185q-43 -107 -43 -239z" />
    <glyph glyph-name="Ocircumflex" unicode="&#xd4;" horiz-adv-x="1667" 
d="M485 1602l342 288l340 -288l-84 -89l-256 216l-256 -216zM84 715l-6 -4q0 162 59 301t160 237q100 97 238 154q134 55 288 55q155 0 289 -55q138 -57 238 -154q101 -98 159 -235q60 -142 60 -301q0 -164 -58 -301q-59 -139 -159 -236q-99 -96 -238 -153
q-139 -54 -289 -54q-149 0 -288 54q-136 56 -236 153t-160 238q-57 134 -57 301zM262 717l-6 -2q0 -129 43 -236q42 -105 121 -184q74 -74 182 -119q104 -43 227 -43q122 0 226 43q108 45 182 119q79 79 121 184q43 107 43 238q0 132 -43 239t-121 185q-76 76 -180 119
t-226 43q-123 0 -227 -43t-180 -119q-74 -74 -119 -185q-43 -107 -43 -239z" />
    <glyph glyph-name="Otilde" unicode="&#xd5;" horiz-adv-x="1667" 
d="M1061 1757h135l4 -4q0 -43 -16 -86q-15 -41 -45 -68q-31 -28 -74 -43q-46 -16 -92 -16q-42 0 -82 19q-35 17 -68 40q-44 31 -61 41q-32 19 -64 19q-46 0 -73 -27q-29 -29 -29 -67h-135q0 93 63 153q65 62 162 62q46 0 86 -19q30 -14 68 -41q50 -35 59 -41q27 -18 62 -18
q42 0 71 29t29 67zM84 715l-6 -4q0 162 59 301t160 237q100 97 238 154q134 55 288 55q155 0 289 -55q138 -57 238 -154q101 -98 159 -235q60 -142 60 -301q0 -164 -58 -301q-59 -139 -159 -236q-99 -96 -238 -153q-139 -54 -289 -54q-149 0 -288 54q-136 56 -236 153
t-160 238q-57 134 -57 301zM262 717l-6 -2q0 -129 43 -236q42 -105 121 -184q74 -74 182 -119q104 -43 227 -43q122 0 226 43q108 45 182 119q79 79 121 184q43 107 43 238q0 132 -43 239t-121 185q-76 76 -180 119t-226 43q-123 0 -227 -43t-180 -119q-74 -74 -119 -185
q-43 -107 -43 -239z" />
    <glyph glyph-name="Odieresis" unicode="&#xd6;" horiz-adv-x="1667" 
d="M582 1561h-2q-44 0 -72 28q-29 29 -29 72q0 39 29 68q28 28 72 28q40 0 71 -28t31 -68q0 -44 -31 -72t-69 -28zM1067 1561h-2q-39 0 -70 28q-30 27 -30 72q0 41 30 68q31 28 72 28q44 0 72 -28t28 -68q0 -44 -28 -72t-72 -28zM84 715l-6 -4q0 162 59 301t160 237
q100 97 238 154q134 55 288 55q155 0 289 -55q138 -57 238 -154q101 -98 159 -235q60 -142 60 -301q0 -164 -58 -301q-59 -139 -159 -236q-99 -96 -238 -153q-139 -54 -289 -54q-149 0 -288 54q-136 56 -236 153t-160 238q-57 134 -57 301zM262 717l-6 -2q0 -129 43 -236
q42 -105 121 -184q74 -74 182 -119q104 -43 227 -43q122 0 226 43q108 45 182 119q79 79 121 184q43 107 43 238q0 132 -43 239t-121 185q-76 76 -180 119t-226 43q-123 0 -227 -43t-180 -119q-74 -74 -119 -185q-43 -107 -43 -239z" />
    <glyph glyph-name="multiply" unicode="&#xd7;" 
d="M1012 1139l110 -111l-297 -295l297 -297l-112 -110l-295 297l-295 -295l-111 110l295 295l-295 295l111 109l295 -293z" />
    <glyph glyph-name="Oslash" unicode="&#xd8;" horiz-adv-x="1667" 
d="M1425 1370l-79 -104l-7 -9q110 -104 170 -239q62 -139 62 -307q0 -164 -58 -301q-59 -139 -159 -236t-238 -154q-136 -53 -289 -53q-105 0 -204 27q-96 23 -185 78l-76 -99l-118 88l75 101q-112 103 -172 241q-61 140 -61 312q0 162 59 301t160 237q100 97 238 154
q134 55 288 55q113 0 211 -26q100 -26 187 -80l78 102zM428 295l705 926l-5 4q-129 75 -294 75q-124 0 -228 -43q-106 -44 -180 -118t-119 -185q-43 -107 -43 -239q0 -129 43 -236q42 -105 121 -184zM1247 1130l-702 -923l2 -2q129 -72 289 -72q121 0 225 43q108 45 182 119
q79 79 121 184q43 107 43 238q0 129 -43 233q-42 102 -117 180z" />
    <glyph glyph-name="Ugrave" unicode="&#xd9;" horiz-adv-x="1480" 
d="M860 1511l-448 213l63 119l438 -237zM1161 1434h168l2 -840q0 -306 -153 -465q-152 -158 -437 -158q-284 0 -436 158q-153 159 -153 465v840h167v-842q0 -465 420 -465q422 0 422 465v842z" />
    <glyph glyph-name="Uacute" unicode="&#xda;" horiz-adv-x="1480" 
d="M987 1843l62 -119l-449 -213l-53 95zM1161 1434h168l2 -840q0 -306 -153 -465q-152 -158 -437 -158q-284 0 -436 158q-153 159 -153 465v840h167v-842q0 -465 420 -465q422 0 422 465v842z" />
    <glyph glyph-name="Ucircumflex" unicode="&#xdb;" horiz-adv-x="1480" 
d="M401 1608l342 288l340 -288l-84 -88l-256 215l-256 -215zM1161 1434h168l2 -840q0 -306 -153 -465q-152 -158 -437 -158q-284 0 -436 158q-153 159 -153 465v840h167v-842q0 -465 420 -465q422 0 422 465v842z" />
    <glyph glyph-name="Udieresis" unicode="&#xdc;" horiz-adv-x="1480" 
d="M498 1567h-2q-44 0 -72 28q-29 29 -29 72q0 39 29 68q28 28 72 28q40 0 71 -28t31 -68q0 -44 -31 -72t-69 -28zM983 1567h-2q-39 0 -70 28q-30 27 -30 72q0 41 30 68q31 28 72 28q44 0 72 -28t28 -68q0 -44 -28 -72t-72 -28zM1161 1434h168l2 -840q0 -306 -153 -465
q-152 -158 -437 -158q-284 0 -436 158q-153 159 -153 465v840h167v-842q0 -465 420 -465q422 0 422 465v842z" />
    <glyph glyph-name="Yacute" unicode="&#xdd;" horiz-adv-x="1343" 
d="M903 1839l62 -119l-449 -213l-53 95zM1118 1434h193l-566 -734v-702h-165v702l-555 730h190l360 -469q5 -6 15.5 -18.5t15.5 -18.5q25 -30 29 -35q3 -4 11 -13t11 -14l11 -10h2l10 12q18 24 22 29t29 35q22 26 29 37z" />
    <glyph glyph-name="Thorn" unicode="&#xde;" horiz-adv-x="1243" 
d="M360 1174h310q111 0 196 -33q94 -37 154 -94q63 -60 98 -144t35 -184t-35 -184t-98 -144q-60 -57 -154 -94q-85 -33 -196 -33h-310v-264h-167v1432h167v-258zM358 424h314l2 -2q143 0 225 82q84 84 84 215q0 63 -22 121q-19 51 -62 94q-40 40 -98 61q-64 23 -129 23h-314
v-594z" />
    <glyph glyph-name="germandbls" unicode="&#xdf;" horiz-adv-x="1576" 
d="M190 1434h1158l-246 -443q-4 -7 -14 -25.5t-15 -29.5q-13 -27 -31 -55q-12 -20 -24 -43l-10 -19l2 -2h14q102 0 190 -31q86 -30 148 -86q59 -53 94 -131t35 -166q0 -96 -33 -172q-34 -78 -96 -137q-60 -57 -150 -92q-91 -31 -196 -31q-76 0 -154 19q-71 14 -137 53
q-65 37 -117 90q-50 50 -86 117l160 47q49 -85 133 -135q82 -49 191 -49q68 0 129 22q54 19 98 60q40 37 61 90q23 57 23 114q0 52 -19 107q-17 50 -59 92q-40 40 -98 64q-59 24 -137 24h-154v129l164 305q4 7 12.5 23.5t13.5 25.5q1 2 12.5 22t16.5 30q8 16 23 41l10 16
l-2 2q-16 0 -45 -2t-107 -2h-590v-1276h-168v1434z" />
    <glyph glyph-name="agrave" unicode="&#xe0;" horiz-adv-x="1472" 
d="M903 1606l-53 -95l-449 213l64 119zM1255 0l-159 375h-719l-160 -375h-180l622 1434h154l623 -1434h-181zM440 524h592l-227 533q-22 50 -25 57q-6 15 -20 57q-1 3 -17 43l-6 17h-2l-6 -17q-10 -25 -16 -43q-9 -27 -21 -57t-24 -57z" />
    <glyph glyph-name="aacute" unicode="&#xe1;" horiz-adv-x="1472" 
d="M1038 1724l-448 -213l-53 95l440 237zM1255 0l-159 375h-719l-160 -375h-180l622 1434h154l623 -1434h-181zM440 524h592l-227 533q-22 50 -25 57q-6 15 -20 57q-1 3 -17 43l-6 17h-2l-6 -17q-10 -25 -16 -43q-9 -27 -21 -57t-24 -57z" />
    <glyph glyph-name="acircumflex" unicode="&#xe2;" horiz-adv-x="1472" 
d="M733 1735l-256 -215l-86 88l342 288l340 -288l-84 -88zM1255 0l-159 375h-719l-160 -375h-180l622 1434h154l623 -1434h-181zM440 524h592l-227 533q-22 50 -25 57q-6 15 -20 57q-1 3 -17 43l-6 17h-2l-6 -17q-10 -25 -16 -43q-9 -27 -21 -57t-24 -57z" />
    <glyph glyph-name="atilde" unicode="&#xe3;" horiz-adv-x="1472" 
d="M967 1763h135l4 -4q0 -43 -16 -86q-14 -38 -46 -67t-73 -43q-49 -17 -92 -17q-42 0 -82 19q-30 14 -68 41q-44 31 -61 41q-30 18 -64 18q-47 0 -74 -27q-28 -28 -28 -67h-135q0 93 63 153q65 62 162 62q46 0 86 -19q27 -13 67 -41l60 -40q28 -19 61 -19q43 0 72 29t29 67
zM1255 0l-159 375h-719l-160 -375h-180l622 1434h154l623 -1434h-181zM440 524h592l-227 533q-22 50 -25 57q-6 15 -20 57q-1 3 -17 43l-6 17h-2l-6 -17q-10 -25 -16 -43q-9 -27 -21 -57t-24 -57z" />
    <glyph glyph-name="adieresis" unicode="&#xe4;" horiz-adv-x="1472" 
d="M487 1567h-2q-43 0 -71 28q-29 29 -29 72q0 39 29 68q28 28 71 28q41 0 72 -28t31 -68q0 -44 -31 -72t-70 -28zM973 1567h-2q-39 0 -70 28t-31 72q0 40 31 68t72 28q43 0 71 -28q29 -29 29 -68q0 -43 -29 -72q-28 -28 -71 -28zM1255 0l-159 375h-719l-160 -375h-180
l622 1434h154l623 -1434h-181zM440 524h592l-227 533q-22 50 -25 57q-6 15 -20 57q-1 3 -17 43l-6 17h-2l-6 -17q-10 -25 -16 -43q-9 -27 -21 -57t-24 -57z" />
    <glyph glyph-name="aring" unicode="&#xe5;" horiz-adv-x="1472" 
d="M1255 -2l-159 373l-723 2l-160 -373h-180l620 1425q-63 23 -104 80q-39 53 -39 127q0 46 18 86t50 72q31 31 71 49q43 19 86 19t86 -19q41 -18 72 -49t49 -72q19 -43 19 -86q0 -70 -41 -129t-105 -80l621 -1425h-181zM616 1636v-4q0 -45 37 -82t86 -37t86 37t37 84
q0 52 -37 86q-38 35 -86 35q-50 0 -86 -33q-37 -34 -37 -86zM440 524h592l-227 533q-22 50 -25 57q-6 15 -20 57q-1 3 -17 43l-6 17h-2l-6 -17q-10 -25 -16 -43q-9 -27 -21 -57t-24 -57z" />
    <glyph glyph-name="ae" unicode="&#xe6;" horiz-adv-x="2027" 
d="M1100 156h801v-156h-967v373h-551l-164 -373h-182l639 1432h1212v-158h-788v-443h635v-149h-635v-526zM934 524v752l-164 -2l-12 -29q-25 -57 -29 -67q-11 -30 -37 -91q-5 -11 -17.5 -42t-19.5 -46l-206 -475h485z" />
    <glyph glyph-name="ccedilla" unicode="&#xe7;" horiz-adv-x="1558" 
d="M1339 434l166 -45l-12 8q-42 -89 -109 -168q-63 -74 -147 -131q-85 -57 -180 -86q-107 -29 -205 -32l-29 -74q93 3 154 -49t61 -142q0 -94 -61 -143t-156 -49h-147l39 98h108q53 0 84 25t31 65q0 42 -31 70q-29 26 -82 26h-129l62 173q-147 13 -264 71q-127 63 -216 160
q-90 98 -143 227q-51 125 -51 281q0 162 59 301t160 237q100 97 238 154q134 55 288 55q108 0 203 -26q101 -28 182 -76q89 -54 152 -119q69 -72 117 -155l-170 -43q-74 120 -203 188q-130 68 -279 68q-123 0 -227 -43t-180 -119q-74 -74 -119 -185q-43 -107 -43 -235
q0 -129 43 -236q42 -105 121 -184q74 -74 182 -119q104 -43 225 -43q166 0 302 80q135 80 206 215z" />
    <glyph glyph-name="egrave" unicode="&#xe8;" horiz-adv-x="1288" 
d="M840 1606l-54 -95l-448 213l63 119zM358 158h801v-158h-969v1434h957v-158h-789v-442h633v-150h-633v-526z" />
    <glyph glyph-name="eacute" unicode="&#xe9;" horiz-adv-x="1288" 
d="M975 1724l-449 -213l-53 95l440 237zM358 158h801v-158h-969v1434h957v-158h-789v-442h633v-150h-633v-526z" />
    <glyph glyph-name="ecircumflex" unicode="&#xea;" horiz-adv-x="1288" 
d="M670 1735l-256 -215l-86 88l342 288l340 -288l-84 -88zM358 158h801v-158h-969v1434h957v-158h-789v-442h633v-150h-633v-526z" />
    <glyph glyph-name="edieresis" unicode="&#xeb;" horiz-adv-x="1288" 
d="M424 1567h-2q-44 0 -72 28t-28 72q0 40 28 68t72 28q41 0 72 -28q30 -27 30 -68q0 -45 -30 -72q-31 -28 -70 -28zM909 1567h-2q-38 0 -69 28t-31 72q0 40 31 68t71 28q44 0 72 -28q29 -29 29 -68q0 -43 -29 -72q-28 -28 -72 -28zM358 158h801v-158h-969v1434h957v-158
h-789v-442h633v-150h-633v-526z" />
    <glyph glyph-name="igrave" unicode="&#xec;" horiz-adv-x="548" 
d="M387 1511l-446 213l61 119l438 -237zM358 0h-168v1434h168v-1434z" />
    <glyph glyph-name="iacute" unicode="&#xed;" horiz-adv-x="548" 
d="M514 1843l61 -119l-448 -213l-53 95zM358 0h-168v1434h168v-1434z" />
    <glyph glyph-name="icircumflex" unicode="&#xee;" horiz-adv-x="548" 
d="M-70 1608l340 288l340 -288l-84 -88l-256 215l-256 -215zM358 0h-168v1434h168v-1434z" />
    <glyph glyph-name="idieresis" unicode="&#xef;" horiz-adv-x="548" 
d="M25 1567h-2q-42 0 -70 28q-29 29 -29 72q0 39 29 68q28 28 70 28q40 0 71 -28t31 -68q0 -44 -31 -72t-69 -28zM510 1567h-2q-39 0 -70 28q-30 27 -30 72q0 41 30 68q31 28 72 28q44 0 72 -28t28 -68q0 -44 -28 -72t-72 -28zM358 0h-168v1434h168v-1434z" />
    <glyph glyph-name="eth" unicode="&#xf0;" horiz-adv-x="1636" 
d="M197 1434h604l-4 -7q152 0 288 -53q133 -52 236 -147q100 -93 160 -228q59 -133 59 -294q0 -163 -57 -289q-60 -132 -156 -221q-99 -91 -231 -144q-128 -51 -283 -51h-616v653h-111v152h111v629zM369 158h448h-4q114 0 215 37t178 108t123 172q45 99 45 232t-45 235
q-46 104 -123 178q-79 76 -180 115q-106 41 -221 41h-436v-471h364v-152h-364v-495z" />
    <glyph glyph-name="ntilde" unicode="&#xf1;" horiz-adv-x="1556" 
d="M1012 1759h135l4 -4q0 -43 -16 -86q-15 -40 -45 -67q-31 -28 -74 -43q-49 -17 -92 -17q-42 0 -82 19q-30 14 -68 41q-34 24 -61 40q-32 19 -64 19q-47 0 -74 -27q-28 -28 -28 -67h-135q0 93 63 153q65 62 162 62q46 0 86 -19q30 -14 68 -41q50 -35 59 -41q27 -18 61 -18
q43 0 72 29t29 67zM1198 1434h168v-1436h-158l-637 856q-69 95 -86 119q-35 48 -67 96q-6 10 -21.5 32.5t-21.5 31.5l-17 24h-2v-31v-86v-129v-159v-752h-168v1434h158l637 -856q74 -102 78 -107q63 -88 67 -94q11 -17 50 -68l18 -24h2v32v89v126v148v754z" />
    <glyph glyph-name="ograve" unicode="&#xf2;" horiz-adv-x="1667" 
d="M940 1505l-448 213l63 119l438 -238zM84 715l-6 -4q0 162 59 301t160 237q100 97 238 154q134 55 288 55q155 0 289 -55q138 -57 238 -154q101 -98 159 -235q60 -142 60 -301q0 -164 -58 -301q-59 -139 -159 -236q-99 -96 -238 -153q-139 -54 -289 -54q-149 0 -288 54
q-136 56 -236 153t-160 238q-57 134 -57 301zM262 717l-6 -2q0 -129 43 -236q42 -105 121 -184q74 -74 182 -119q104 -43 227 -43q122 0 226 43q108 45 182 119q79 79 121 184q43 107 43 238q0 132 -43 239t-121 185q-76 76 -180 119t-226 43q-123 0 -227 -43t-180 -119
q-74 -74 -119 -185q-43 -107 -43 -239z" />
    <glyph glyph-name="oacute" unicode="&#xf3;" horiz-adv-x="1667" 
d="M1067 1837l61 -119l-448 -213l-53 94zM84 715l-6 -4q0 162 59 301t160 237q100 97 238 154q134 55 288 55q155 0 289 -55q138 -57 238 -154q101 -98 159 -235q60 -142 60 -301q0 -164 -58 -301q-59 -139 -159 -236q-99 -96 -238 -153q-139 -54 -289 -54q-149 0 -288 54
q-136 56 -236 153t-160 238q-57 134 -57 301zM262 717l-6 -2q0 -129 43 -236q42 -105 121 -184q74 -74 182 -119q104 -43 227 -43q122 0 226 43q108 45 182 119q79 79 121 184q43 107 43 238q0 132 -43 239t-121 185q-76 76 -180 119t-226 43q-123 0 -227 -43t-180 -119
q-74 -74 -119 -185q-43 -107 -43 -239z" />
    <glyph glyph-name="ocircumflex" unicode="&#xf4;" horiz-adv-x="1667" 
d="M481 1602l342 288l340 -288l-84 -89l-256 216l-256 -216zM84 715l-6 -4q0 162 59 301t160 237q100 97 238 154q134 55 288 55q155 0 289 -55q138 -57 238 -154q101 -98 159 -235q60 -142 60 -301q0 -164 -58 -301q-59 -139 -159 -236q-99 -96 -238 -153
q-139 -54 -289 -54q-149 0 -288 54q-136 56 -236 153t-160 238q-57 134 -57 301zM262 717l-6 -2q0 -129 43 -236q42 -105 121 -184q74 -74 182 -119q104 -43 227 -43q122 0 226 43q108 45 182 119q79 79 121 184q43 107 43 238q0 132 -43 239t-121 185q-76 76 -180 119
t-226 43q-123 0 -227 -43t-180 -119q-74 -74 -119 -185q-43 -107 -43 -239z" />
    <glyph glyph-name="otilde" unicode="&#xf5;" horiz-adv-x="1667" 
d="M1057 1757h135l4 -4q0 -43 -16 -86q-15 -41 -45 -68q-31 -28 -74 -43q-46 -16 -92 -16q-42 0 -82 19q-35 17 -68 40q-44 31 -61 41q-32 19 -64 19q-46 0 -73 -27q-29 -29 -29 -67h-135q0 93 63 153q65 62 162 62q46 0 86 -19q30 -14 68 -41q50 -35 59 -41q27 -18 61 -18
q43 0 72 29t29 67zM84 715l-6 -4q0 162 59 301t160 237q100 97 238 154q134 55 288 55q155 0 289 -55q138 -57 238 -154q101 -98 159 -235q60 -142 60 -301q0 -164 -58 -301q-59 -139 -159 -236q-99 -96 -238 -153q-139 -54 -289 -54q-149 0 -288 54q-136 56 -236 153
t-160 238q-57 134 -57 301zM262 717l-6 -2q0 -129 43 -236q42 -105 121 -184q74 -74 182 -119q104 -43 227 -43q122 0 226 43q108 45 182 119q79 79 121 184q43 107 43 238q0 132 -43 239t-121 185q-76 76 -180 119t-226 43q-123 0 -227 -43t-180 -119q-74 -74 -119 -185
q-43 -107 -43 -239z" />
    <glyph glyph-name="odieresis" unicode="&#xf6;" horiz-adv-x="1667" 
d="M578 1561h-3q-43 0 -71 28q-29 29 -29 72q0 39 29 68q28 28 71 28q41 0 72 -28t31 -68q0 -44 -31 -72t-69 -28zM1063 1561h-2q-39 0 -70 28q-30 27 -30 72q0 41 30 68q31 28 72 28q44 0 72 -28t28 -68q0 -44 -28 -72t-72 -28zM84 715l-6 -4q0 162 59 301t160 237
q100 97 238 154q134 55 288 55q155 0 289 -55q138 -57 238 -154q101 -98 159 -235q60 -142 60 -301q0 -164 -58 -301q-59 -139 -159 -236q-99 -96 -238 -153q-139 -54 -289 -54q-149 0 -288 54q-136 56 -236 153t-160 238q-57 134 -57 301zM262 717l-6 -2q0 -129 43 -236
q42 -105 121 -184q74 -74 182 -119q104 -43 227 -43q122 0 226 43q108 45 182 119q79 79 121 184q43 107 43 238q0 132 -43 239t-121 185q-76 76 -180 119t-226 43q-123 0 -227 -43t-180 -119q-74 -74 -119 -185q-43 -107 -43 -239z" />
    <glyph glyph-name="divide" unicode="&#xf7;" 
d="M700 1079l-2 -4q-42 0 -73 31t-31 72q0 42 31 73t73 31q41 0 72 -31t31 -71q0 -44 -31 -72q-32 -29 -70 -29zM231 795h949v-142h-949v142zM702 176l-2 -4q-42 0 -73 31t-31 71q0 43 31 74t73 31q41 0 72 -31t31 -72q0 -43 -31 -71q-32 -29 -70 -29z" />
    <glyph glyph-name="oslash" unicode="&#xf8;" horiz-adv-x="1667" 
d="M1425 1370l-79 -104l-7 -9q110 -104 170 -239q62 -139 62 -307q0 -164 -58 -301q-59 -139 -159 -236t-238 -154q-136 -53 -289 -53q-105 0 -204 27q-96 23 -185 78l-76 -99l-118 88l75 101q-112 103 -172 241q-61 140 -61 312q0 162 59 301t160 237q100 97 238 154
q134 55 288 55q113 0 211 -26q100 -26 187 -80l78 102zM428 295l705 926l-5 4q-129 75 -294 75q-124 0 -228 -43q-106 -44 -180 -118t-119 -185q-43 -107 -43 -239q0 -129 43 -236q42 -105 121 -184zM1247 1130l-702 -923l2 -2q129 -72 289 -72q121 0 225 43q108 45 182 119
q79 79 121 184q43 107 43 238q0 129 -43 233q-42 102 -117 180z" />
    <glyph glyph-name="ugrave" unicode="&#xf9;" horiz-adv-x="1480" 
d="M860 1511l-448 213l63 119l438 -237zM1161 1434h168l2 -840q0 -306 -153 -465q-152 -158 -437 -158q-284 0 -436 158q-153 159 -153 465v840h167v-842q0 -465 420 -465q422 0 422 465v842z" />
    <glyph glyph-name="uacute" unicode="&#xfa;" horiz-adv-x="1480" 
d="M987 1843l62 -119l-449 -213l-53 95zM1161 1434h168l2 -840q0 -306 -153 -465q-152 -158 -437 -158q-284 0 -436 158q-153 159 -153 465v840h167v-842q0 -465 420 -465q422 0 422 465v842z" />
    <glyph glyph-name="ucircumflex" unicode="&#xfb;" horiz-adv-x="1480" 
d="M401 1608l342 288l340 -288l-84 -88l-256 215l-256 -215zM1161 1434h168l2 -840q0 -306 -153 -465q-152 -158 -437 -158q-284 0 -436 158q-153 159 -153 465v840h167v-842q0 -465 420 -465q422 0 422 465v842z" />
    <glyph glyph-name="udieresis" unicode="&#xfc;" horiz-adv-x="1480" 
d="M498 1567h-2q-44 0 -72 28q-29 29 -29 72q0 39 29 68q28 28 72 28q40 0 71 -28t31 -68q0 -44 -31 -72t-69 -28zM983 1567h-2q-39 0 -70 28q-30 27 -30 72q0 41 30 68q31 28 72 28q44 0 72 -28t28 -68q0 -44 -28 -72t-72 -28zM1161 1434h168l2 -840q0 -306 -153 -465
q-152 -158 -437 -158q-284 0 -436 158q-153 159 -153 465v840h167v-842q0 -465 420 -465q422 0 422 465v842z" />
    <glyph glyph-name="yacute" unicode="&#xfd;" horiz-adv-x="1343" 
d="M903 1839l62 -119l-449 -213l-53 95zM1118 1434h193l-566 -734v-702h-165v702l-555 730h190l360 -469q5 -6 15.5 -18.5t15.5 -18.5q25 -30 29 -35q3 -4 11 -13t11 -14l11 -10h2l10 12q18 24 22 29t29 35q22 26 29 37z" />
    <glyph glyph-name="thorn" unicode="&#xfe;" horiz-adv-x="1243" 
d="M360 1174h310q111 0 196 -33q94 -37 154 -94q63 -60 98 -144t35 -184t-35 -184t-98 -144q-60 -57 -154 -94q-85 -33 -196 -33h-310v-264h-167v1432h167v-258zM358 424h314l2 -2q143 0 225 82q84 84 84 215q0 63 -22 121q-19 51 -62 94q-40 40 -98 61q-64 23 -129 23h-314
v-594z" />
    <glyph glyph-name="ydieresis" unicode="&#xff;" horiz-adv-x="1343" 
d="M414 1563h-2q-44 0 -72 28q-29 29 -29 72q0 39 29 68q28 28 72 28q40 0 71 -28t31 -68q0 -44 -31 -72t-69 -28zM899 1563h-2q-39 0 -70 28q-30 27 -30 72q0 41 30 68q31 28 72 28q44 0 72 -28t28 -68q0 -44 -28 -72t-72 -28zM1118 1434h193l-566 -734v-702h-165v702
l-555 730h190l360 -469q5 -6 15.5 -18.5t15.5 -18.5q25 -30 29 -35q3 -4 11 -13t11 -14l11 -10h2l10 12q18 24 22 29t29 35q22 26 29 37z" />
    <glyph glyph-name="Amacron" unicode="&#x100;" horiz-adv-x="1472" 
d="M1077 1726v-131h-661v131h661zM1255 0l-159 375h-719l-160 -375h-180l622 1434h154l623 -1434h-181zM440 524h592l-227 533q-22 50 -25 57q-6 15 -20 57q-1 3 -17 43l-6 17h-2l-6 -17q-10 -25 -16 -43q-9 -27 -21 -57t-24 -57z" />
    <glyph glyph-name="amacron" unicode="&#x101;" horiz-adv-x="1472" 
d="M1077 1726v-131h-661v131h661zM1255 0l-159 375h-719l-160 -375h-180l622 1434h154l623 -1434h-181zM440 524h592l-227 533q-22 50 -25 57q-6 15 -20 57q-1 3 -17 43l-6 17h-2l-6 -17q-10 -25 -16 -43q-9 -27 -21 -57t-24 -57z" />
    <glyph glyph-name="Abreve" unicode="&#x102;" horiz-adv-x="1472" 
d="M924 1776h123l-5 -4q-9 -54 -36 -101q-25 -44 -68 -80q-38 -33 -92 -51q-52 -18 -107 -18q-59 0 -108 18q-48 18 -90 53q-43 36 -68 80q-29 49 -37 101h123q15 -58 64 -101t118 -43q68 0 117 43q51 45 66 103zM1255 0l-159 375h-719l-160 -375h-180l622 1434h154
l623 -1434h-181zM440 524h592l-227 533q-22 50 -25 57q-6 15 -20 57q-1 3 -17 43l-6 17h-2l-6 -17q-10 -25 -16 -43q-9 -27 -21 -57t-24 -57z" />
    <glyph glyph-name="abreve" unicode="&#x103;" horiz-adv-x="1472" 
d="M924 1776h123l-5 -4q-9 -54 -36 -101q-25 -44 -68 -80q-38 -33 -92 -51q-52 -18 -107 -18q-59 0 -108 18q-48 18 -90 53q-43 36 -68 80q-29 49 -37 101h123q15 -58 64 -101t118 -43q68 0 117 43q51 45 66 103zM1255 0l-159 375h-719l-160 -375h-180l622 1434h154
l623 -1434h-181zM440 524h592l-227 533q-22 50 -25 57q-6 15 -20 57q-1 3 -17 43l-6 17h-2l-6 -17q-10 -25 -16 -43q-9 -27 -21 -57t-24 -57z" />
    <glyph glyph-name="Aogonek" unicode="&#x104;" horiz-adv-x="1472" 
d="M1464 -240l97 -53l-7 -6q-41 -87 -116 -141q-77 -56 -191 -56q-67 0 -123 21q-55 21 -94 57q-41 38 -61 88q-23 58 -23 113q0 62 25 117t63 90q46 39 88 57q52 22 97 25l-127 297h-719l-160 -373h-180l622 1431h154l623 -1431h-80q-50 0 -99 -12q-47 -11 -90 -37
q-40 -24 -65 -66t-25 -98q0 -69 47 -119q46 -49 133 -49t136 43q47 41 75 102zM440 524h592l-227 533q-22 50 -25 57q-6 15 -20 57q-1 3 -17 43l-6 17h-2l-6 -17q-10 -25 -16 -43q-9 -27 -21 -57t-24 -57z" />
    <glyph glyph-name="aogonek" unicode="&#x105;" horiz-adv-x="1472" 
d="M1464 -240l97 -53l-7 -6q-41 -87 -116 -141q-77 -56 -191 -56q-67 0 -123 21q-55 21 -94 57q-41 38 -61 88q-23 58 -23 113q0 62 25 117t63 90q46 39 88 57q52 22 97 25l-127 297h-719l-160 -373h-180l622 1431h154l623 -1431h-80q-50 0 -99 -12q-47 -11 -90 -37
q-40 -24 -65 -66t-25 -98q0 -69 47 -119q46 -49 133 -49t136 43q47 41 75 102zM440 524h592l-227 533q-22 50 -25 57q-6 15 -20 57q-1 3 -17 43l-6 17h-2l-6 -17q-10 -25 -16 -43q-9 -27 -21 -57t-24 -57z" />
    <glyph glyph-name="Cacute" unicode="&#x106;" horiz-adv-x="1558" 
d="M1051 1845l61 -119l-448 -213l-54 95zM1485 1085l-170 -43l-12 2q-75 122 -203 189t-279 67q-123 0 -227 -43q-106 -44 -180 -118t-119 -185q-43 -107 -43 -235q0 -129 43 -236q42 -105 121 -184q74 -74 182 -119q104 -43 225 -43q165 0 301 80q137 81 207 215l166 -45
q-49 -99 -113 -172q-65 -74 -153 -131t-189 -84q-105 -31 -215 -31q-149 0 -288 54q-136 56 -236 153t-160 238q-57 134 -57 301q0 162 59 301t160 237q100 97 238 154q134 55 288 55q108 0 203 -26q103 -28 183 -76q87 -52 151 -119q68 -71 117 -156z" />
    <glyph glyph-name="cacute" unicode="&#x107;" horiz-adv-x="1558" 
d="M1051 1845l61 -119l-448 -213l-54 95zM1485 1085l-170 -43l-12 2q-75 122 -203 189t-279 67q-123 0 -227 -43q-106 -44 -180 -118t-119 -185q-43 -107 -43 -235q0 -129 43 -236q42 -105 121 -184q74 -74 182 -119q104 -43 225 -43q165 0 301 80q137 81 207 215l166 -45
q-49 -99 -113 -172q-65 -74 -153 -131t-189 -84q-105 -31 -215 -31q-149 0 -288 54q-136 56 -236 153t-160 238q-57 134 -57 301q0 162 59 301t160 237q100 97 238 154q134 55 288 55q108 0 203 -26q103 -28 183 -76q87 -52 151 -119q68 -71 117 -156z" />
    <glyph glyph-name="Cdotaccent" unicode="&#x10a;" horiz-adv-x="1558" 
d="M811 1569l-2 -2q-39 0 -70 28q-30 27 -30 68q0 42 30 72t72 30q41 0 68 -30q28 -31 28 -70q0 -40 -28 -68t-68 -28zM1485 1085l-170 -43l-12 2q-75 122 -203 189t-279 67q-123 0 -227 -43q-106 -44 -180 -118t-119 -185q-43 -107 -43 -235q0 -129 43 -236
q42 -105 121 -184q74 -74 182 -119q104 -43 225 -43q165 0 301 80q137 81 207 215l166 -45q-49 -99 -113 -172q-65 -74 -153 -131t-189 -84q-105 -31 -215 -31q-149 0 -288 54q-136 56 -236 153t-160 238q-57 134 -57 301q0 162 59 301t160 237q100 97 238 154
q134 55 288 55q108 0 203 -26q103 -28 183 -76q87 -52 151 -119q68 -71 117 -156z" />
    <glyph glyph-name="cdotaccent" unicode="&#x10b;" horiz-adv-x="1558" 
d="M811 1569l-2 -2q-39 0 -70 28q-30 27 -30 68q0 42 30 72t72 30q41 0 68 -30q28 -31 28 -70q0 -40 -28 -68t-68 -28zM1485 1085l-170 -43l-12 2q-75 122 -203 189t-279 67q-123 0 -227 -43q-106 -44 -180 -118t-119 -185q-43 -107 -43 -235q0 -129 43 -236
q42 -105 121 -184q74 -74 182 -119q104 -43 225 -43q165 0 301 80q137 81 207 215l166 -45q-49 -99 -113 -172q-65 -74 -153 -131t-189 -84q-105 -31 -215 -31q-149 0 -288 54q-136 56 -236 153t-160 238q-57 134 -57 301q0 162 59 301t160 237q100 97 238 154
q134 55 288 55q108 0 203 -26q103 -28 183 -76q87 -52 151 -119q68 -71 117 -156z" />
    <glyph glyph-name="Ccaron" unicode="&#x10c;" horiz-adv-x="1558" 
d="M1315 1042l170 43l-10 -12q-49 85 -117 156q-63 65 -152 119q-79 47 -180 75q-99 27 -203 27q-154 0 -288 -55t-236 -154q-103 -100 -160 -235q-57 -134 -57 -301q0 -163 59 -302q57 -135 160 -235q100 -97 238 -154q136 -53 288 -53q110 0 215 31q101 27 189 84t153 131
q69 78 115 172l-166 45q-71 -136 -205 -215q-136 -80 -301 -80q-121 0 -225 43t-180 119q-79 79 -121 184q-43 107 -43 238q0 130 43 237t121 185q73 73 182 118q104 43 227 43q153 0 281 -67q130 -68 203 -187zM823 1491l-342 289l86 88l256 -215l256 215l84 -88z" />
    <glyph glyph-name="ccaron" unicode="&#x10d;" horiz-adv-x="1558" 
d="M1315 1042l170 43l-10 -12q-49 85 -117 156q-63 65 -152 119q-79 47 -180 75q-99 27 -203 27q-154 0 -288 -55t-236 -154q-103 -100 -160 -235q-57 -134 -57 -301q0 -163 59 -302q57 -135 160 -235q100 -97 238 -154q136 -53 288 -53q110 0 215 31q101 27 189 84t153 131
q69 78 115 172l-166 45q-71 -136 -205 -215q-136 -80 -301 -80q-121 0 -225 43t-180 119q-79 79 -121 184q-43 107 -43 238q0 130 43 237t121 185q73 73 182 118q104 43 227 43q153 0 281 -67q130 -68 203 -187zM823 1491l-342 289l86 88l256 -215l256 215l84 -88z" />
    <glyph glyph-name="Dcaron" unicode="&#x10e;" horiz-adv-x="1626" 
d="M807 162h-449l2 1112h437q120 0 221 -39q108 -41 182 -113q77 -74 123 -178q45 -102 45 -235q0 -131 -45 -230q-46 -101 -123 -172t-178 -108t-215 -37zM795 1434h-605v-1430h617q155 0 283 51t231 146q99 92 158 221q57 126 57 289q0 166 -57 295q-59 134 -160 227
q-103 95 -236 147q-139 54 -288 54zM782 1491l-342 289l86 88l256 -215l256 215l84 -88z" />
    <glyph glyph-name="dcaron" unicode="&#x10f;" horiz-adv-x="1626" 
d="M807 162h-449l2 1112h437q120 0 221 -39q108 -41 182 -113q77 -74 123 -178q45 -102 45 -235q0 -131 -45 -230q-46 -101 -123 -172t-178 -108t-215 -37zM795 1434h-605v-1430h617q155 0 283 51t231 146q99 92 158 221q57 126 57 289q0 166 -57 295q-59 134 -160 227
q-103 95 -236 147q-139 54 -288 54zM782 1491l-342 289l86 88l256 -215l256 215l84 -88z" />
    <glyph glyph-name="Dcroat" unicode="&#x110;" horiz-adv-x="1636" 
d="M197 1434h604l-4 -7q152 0 288 -53q133 -52 236 -147q100 -93 160 -228q59 -133 59 -294q0 -163 -57 -289q-60 -132 -156 -221q-99 -91 -231 -144q-128 -51 -283 -51h-616v653h-111v152h111v629zM369 158h448h-4q114 0 215 37t178 108t123 172q45 99 45 232t-45 235
q-46 104 -123 178q-79 76 -180 115q-106 41 -221 41h-436v-471h364v-152h-364v-495z" />
    <glyph glyph-name="dcroat" unicode="&#x111;" horiz-adv-x="1636" 
d="M197 1434h604l-4 -7q152 0 288 -53q133 -52 236 -147q100 -93 160 -228q59 -133 59 -294q0 -163 -57 -289q-60 -132 -156 -221q-99 -91 -231 -144q-128 -51 -283 -51h-616v653h-111v152h111v629zM369 158h448h-4q114 0 215 37t178 108t123 172q45 99 45 232t-45 235
q-46 104 -123 178q-79 76 -180 115q-106 41 -221 41h-436v-471h364v-152h-364v-495z" />
    <glyph glyph-name="Emacron" unicode="&#x112;" horiz-adv-x="1288" 
d="M1020 1726v-131h-662v131h662zM358 158h801v-158h-969v1434h957v-158h-789v-442h633v-150h-633v-526z" />
    <glyph glyph-name="emacron" unicode="&#x113;" horiz-adv-x="1288" 
d="M1014 1726v-131h-662v131h662zM358 158h801v-158h-969v1434h957v-158h-789v-442h633v-150h-633v-526z" />
    <glyph glyph-name="Edotaccent" unicode="&#x116;" horiz-adv-x="1288" 
d="M680 1567l-2 -2q-39 0 -70 28q-30 27 -30 68q0 42 30 72t72 30q41 0 68 -30q28 -31 28 -70q0 -40 -28 -68t-68 -28zM358 158h801v-158h-969v1434h957v-158h-789v-442h633v-150h-633v-526z" />
    <glyph glyph-name="edotaccent" unicode="&#x117;" horiz-adv-x="1288" 
d="M680 1567l-2 -2q-39 0 -70 28q-30 27 -30 68q0 42 30 72t72 30q41 0 68 -30q28 -31 28 -70q0 -40 -28 -68t-68 -28zM358 158h801v-158h-969v1434h957v-158h-789v-442h633v-150h-633v-526z" />
    <glyph glyph-name="Eogonek" unicode="&#x118;" horiz-adv-x="1288" 
d="M1079 -240l97 -53l-5 -10q-31 -79 -116 -141q-77 -56 -191 -56q-68 0 -123 21t-94 57q-41 38 -61 88q-23 57 -23 113q0 69 27 125t69 92h-473v1431h957v-157h-789v-443h633v-149h-633v-526h801v-156h-188q-49 0 -99 -12q-47 -11 -90 -37q-40 -24 -65 -66t-25 -98
q0 -69 47 -119q46 -49 133 -49t136 43q47 41 75 102z" />
    <glyph glyph-name="eogonek" unicode="&#x119;" horiz-adv-x="1288" 
d="M1118 -240l96 -53l-4 -10q-31 -79 -116 -141q-77 -56 -191 -56q-67 0 -123 21q-55 21 -94 57q-41 38 -61 88q-23 57 -23 113q0 69 27 125t69 92h-512v1431h957v-157h-789v-443h633v-149h-633v-526h801v-156h-149q-50 0 -99 -12q-47 -11 -90 -37q-40 -24 -65 -66t-25 -98
q0 -69 47 -119q46 -49 133 -49q86 0 135 43t76 102z" />
    <glyph glyph-name="Ecaron" unicode="&#x11a;" horiz-adv-x="1288" 
d="M1020 1780l-340 -289l-342 289l86 88l256 -215l256 215zM358 158h801v-158h-969v1434h957v-158h-789v-442h633v-150h-633v-526z" />
    <glyph glyph-name="ecaron" unicode="&#x11b;" horiz-adv-x="1288" 
d="M1014 1780l-340 -289l-342 289l86 88l256 -215l256 215zM358 158h801v-158h-969v1434h957v-158h-789v-442h633v-150h-633v-526z" />
    <glyph glyph-name="Gcircumflex" unicode="&#x11c;" horiz-adv-x="1628" 
d="M469 1604l342 288l340 -288l-84 -88l-256 215l-256 -215zM1360 213h-2l-2 -4q-21 -26 -72 -74q-45 -42 -110 -80q-66 -38 -150 -59q-89 -25 -190 -25q-150 0 -289 54q-136 56 -236 153q-99 96 -159 238q-58 137 -58 301q0 159 60 301q60 140 159 237q100 97 238 154
q134 55 289 55q224 -3 389 -104q169 -104 262 -270l-170 -43q-74 120 -203 188q-130 68 -278 68q-124 0 -228 -43t-180 -119q-74 -74 -119 -185q-43 -107 -43 -235q0 -133 43 -240q42 -105 121 -184q74 -74 182 -119q104 -43 228 -43q98 0 190 29q85 27 152 72q64 43 110 92
q47 51 68 96v178h-438v139h583v-741h-147v102v66v35v10z" />
    <glyph glyph-name="gcircumflex" unicode="&#x11d;" horiz-adv-x="1628" 
d="M469 1604l342 288l340 -288l-84 -88l-256 215l-256 -215zM1360 213h-2l-2 -4q-21 -26 -72 -74q-45 -42 -110 -80q-66 -38 -150 -59q-89 -25 -190 -25q-150 0 -289 54q-136 56 -236 153q-99 96 -159 238q-58 137 -58 301q0 159 60 301q60 140 159 237q100 97 238 154
q134 55 289 55q224 -3 389 -104q169 -104 262 -270l-170 -43q-74 120 -203 188q-130 68 -278 68q-124 0 -228 -43t-180 -119q-74 -74 -119 -185q-43 -107 -43 -235q0 -133 43 -240q42 -105 121 -184q74 -74 182 -119q104 -43 228 -43q98 0 190 29q85 27 152 72q64 43 110 92
q47 51 68 96v178h-438v139h583v-741h-147v102v66v35v10z" />
    <glyph glyph-name="Gbreve" unicode="&#x11e;" horiz-adv-x="1628" 
d="M514 1772h123l-4 -5q15 -58 63 -100q49 -43 119 -43q68 0 117 43q50 44 65 102h123q-8 -50 -37 -100q-26 -45 -67 -80q-38 -33 -92 -51q-53 -18 -107 -18q-59 0 -108 18q-50 18 -91 53t-67 80q-29 49 -37 101zM1360 213h-2l-2 -4q-21 -26 -72 -74q-45 -42 -110 -80
q-66 -38 -150 -59q-89 -25 -190 -25q-150 0 -289 54q-136 56 -236 153q-99 96 -159 238q-58 137 -58 301q0 159 60 301q60 140 159 237q100 97 238 154q134 55 289 55q224 -3 389 -104q169 -104 262 -270l-170 -43q-74 120 -203 188q-130 68 -278 68q-124 0 -228 -43
t-180 -119q-74 -74 -119 -185q-43 -107 -43 -235q0 -133 43 -240q42 -105 121 -184q74 -74 182 -119q104 -43 228 -43q98 0 190 29q85 27 152 72q64 43 110 92q47 51 68 96v178h-438v139h583v-741h-147v102v66v35v10z" />
    <glyph glyph-name="gbreve" unicode="&#x11f;" horiz-adv-x="1628" 
d="M514 1772h123l-4 -5q15 -58 63 -100q49 -43 119 -43q68 0 117 43q50 44 65 102h123q-8 -50 -37 -100q-26 -45 -67 -80q-38 -33 -92 -51q-53 -18 -107 -18q-59 0 -108 18q-50 18 -91 53t-67 80q-29 49 -37 101zM1360 213h-2l-2 -4q-21 -26 -72 -74q-45 -42 -110 -80
q-66 -38 -150 -59q-89 -25 -190 -25q-150 0 -289 54q-136 56 -236 153q-99 96 -159 238q-58 137 -58 301q0 159 60 301q60 140 159 237q100 97 238 154q134 55 289 55q224 -3 389 -104q169 -104 262 -270l-170 -43q-74 120 -203 188q-130 68 -278 68q-124 0 -228 -43
t-180 -119q-74 -74 -119 -185q-43 -107 -43 -235q0 -133 43 -240q42 -105 121 -184q74 -74 182 -119q104 -43 228 -43q98 0 190 29q85 27 152 72q64 43 110 92q47 51 68 96v178h-438v139h583v-741h-147v102v66v35v10z" />
    <glyph glyph-name="Gdotaccent" unicode="&#x120;" horiz-adv-x="1628" 
d="M815 1563l-2 -2q-39 0 -70 28q-30 27 -30 68q0 42 30 72t72 30q41 0 68 -30q28 -31 28 -70q0 -40 -28 -68t-68 -28zM1360 213h-2l-2 -4q-21 -26 -72 -74q-45 -42 -110 -80q-66 -38 -150 -59q-89 -25 -190 -25q-150 0 -289 54q-136 56 -236 153q-99 96 -159 238
q-58 137 -58 301q0 159 60 301q60 140 159 237q100 97 238 154q134 55 289 55q224 -3 389 -104q169 -104 262 -270l-170 -43q-74 120 -203 188q-130 68 -278 68q-124 0 -228 -43t-180 -119q-74 -74 -119 -185q-43 -107 -43 -235q0 -133 43 -240q42 -105 121 -184
q74 -74 182 -119q104 -43 228 -43q98 0 190 29q85 27 152 72q64 43 110 92q47 51 68 96v178h-438v139h583v-741h-147v102v66v35v10z" />
    <glyph glyph-name="gdotaccent" unicode="&#x121;" horiz-adv-x="1628" 
d="M815 1563l-2 -2q-39 0 -70 28q-30 27 -30 68q0 42 30 72t72 30q41 0 68 -30q28 -31 28 -70q0 -40 -28 -68t-68 -28zM1360 213h-2l-2 -4q-21 -26 -72 -74q-45 -42 -110 -80q-66 -38 -150 -59q-89 -25 -190 -25q-150 0 -289 54q-136 56 -236 153q-99 96 -159 238
q-58 137 -58 301q0 159 60 301q60 140 159 237q100 97 238 154q134 55 289 55q224 -3 389 -104q169 -104 262 -270l-170 -43q-74 120 -203 188q-130 68 -278 68q-124 0 -228 -43t-180 -119q-74 -74 -119 -185q-43 -107 -43 -235q0 -133 43 -240q42 -105 121 -184
q74 -74 182 -119q104 -43 228 -43q98 0 190 29q85 27 152 72q64 43 110 92q47 51 68 96v178h-438v139h583v-741h-147v102v66v35v10z" />
    <glyph glyph-name="Gcommaaccent" unicode="&#x122;" horiz-adv-x="1628" 
d="M1352 211h-2l-2 -4q-21 -26 -72 -74q-44 -41 -111 -80t-149 -59q-89 -25 -191 -25q-149 0 -288 54q-136 56 -236 153t-160 238q-57 134 -57 301q0 162 59 301t160 237q100 97 238 154q134 55 288 55q225 -3 390 -104q168 -103 262 -271l-170 -43q-75 122 -203 189
t-279 67q-123 0 -227 -43q-106 -44 -180 -118t-119 -185q-43 -107 -43 -235q0 -133 43 -240q42 -105 121 -184q74 -74 182 -119q104 -43 228 -43q98 0 190 29q88 28 152 71q62 42 110 93q47 51 68 96v178h-439v139h584v-741h-147v102v66v35v10zM805 -281l20 9h-28
q-29 0 -56 24q-28 25 -28 70t30 72q31 28 72 28q43 0 72 -33q31 -36 31 -86q0 -93 -50 -176q-54 -89 -106 -139h-72q22 22 43 49q20 25 37 60q17 33 25 61q10 33 10 61z" />
    <glyph glyph-name="gcommaaccent" unicode="&#x123;" horiz-adv-x="1628" 
d="M1352 211h-2l-2 -4q-21 -26 -72 -74q-44 -41 -111 -80t-149 -59q-89 -25 -191 -25q-149 0 -288 54q-136 56 -236 153t-160 238q-57 134 -57 301q0 162 59 301t160 237q100 97 238 154q134 55 288 55q225 -3 390 -104q168 -103 262 -271l-170 -43q-75 122 -203 189
t-279 67q-123 0 -227 -43q-106 -44 -180 -118t-119 -185q-43 -107 -43 -235q0 -133 43 -240q42 -105 121 -184q74 -74 182 -119q104 -43 228 -43q98 0 190 29q88 28 152 71q62 42 110 93q47 51 68 96v178h-439v139h584v-741h-147v102v66v35v10zM805 -281l20 9h-28
q-29 0 -56 24q-28 25 -28 70t30 72q31 28 72 28q43 0 72 -33q31 -36 31 -86q0 -93 -50 -176q-54 -89 -106 -139h-72q22 22 43 49q20 25 37 60q17 33 25 61q10 33 10 61z" />
    <glyph glyph-name="Hcircumflex" unicode="&#x124;" horiz-adv-x="1501" 
d="M745 1735l-256 -215l-86 88l342 288l340 -288l-84 -88zM1143 1434h166v-1434h-166v664h-785v-664h-168v1434h168v-613h785v613z" />
    <glyph glyph-name="hcircumflex" unicode="&#x125;" horiz-adv-x="1501" 
d="M745 1735l-256 -215l-86 88l342 288l340 -288l-84 -88zM1143 1434h166v-1434h-166v664h-785v-664h-168v1434h168v-613h785v613z" />
    <glyph glyph-name="Hbar" unicode="&#x126;" horiz-adv-x="1501" 
d="M1442 1278v-143h-133v-1135h-166v664h-785v-664h-168v1135h-131v143h131v156h168v-156h785v156h166v-156h133zM1143 821v314h-785v-314h785z" />
    <glyph glyph-name="hbar" unicode="&#x127;" horiz-adv-x="1501" 
d="M1442 1278v-143h-133v-1135h-166v664h-785v-664h-168v1135h-131v143h131v156h168v-156h785v156h166v-156h133zM1143 821v314h-785v-314h785z" />
    <glyph glyph-name="Imacron" unicode="&#x12a;" horiz-adv-x="548" 
d="M-45 1726h659v-131h-659v131zM358 0h-168v1434h168v-1434z" />
    <glyph glyph-name="imacron" unicode="&#x12b;" horiz-adv-x="548" 
d="M-45 1726h659v-131h-659v131zM358 0h-168v1434h168v-1434z" />
    <glyph glyph-name="Iogonek" unicode="&#x12e;" horiz-adv-x="548" 
d="M418 -240l96 -53l-4 -10q-31 -78 -117 -141q-77 -56 -190 -56q-67 0 -123 21t-92 57q-43 39 -62 88q-22 55 -22 113q0 72 26 123q27 52 68 90q40 37 90 57q56 22 98 25v1353h168v-1431h-49q-49 0 -98 -12q-47 -11 -90 -37q-41 -25 -66 -66q-24 -41 -24 -98q0 -69 47 -119
q46 -49 133 -49q86 0 135 43t76 102z" />
    <glyph glyph-name="iogonek" unicode="&#x12f;" horiz-adv-x="548" 
d="M418 -240l96 -53l-4 -10q-31 -78 -117 -141q-77 -56 -190 -56q-67 0 -123 21t-92 57q-43 39 -62 88q-22 55 -22 113q0 72 26 123q27 52 68 90q40 37 90 57q56 22 98 25v1353h168v-1431h-49q-49 0 -98 -12q-47 -11 -90 -37q-41 -25 -66 -66q-24 -41 -24 -98q0 -69 47 -119
q46 -49 133 -49q86 0 135 43t76 102z" />
    <glyph glyph-name="Idotaccent" unicode="&#x130;" horiz-adv-x="548" 
d="M274 1567l-2 -2q-38 0 -69 28t-31 68q0 41 31 72q30 30 71 30t68 -30q29 -32 29 -70q0 -39 -29 -68q-28 -28 -68 -28zM358 0h-168v1434h168v-1434z" />
    <glyph glyph-name="dotlessi" unicode="&#x131;" horiz-adv-x="548" 
d="M358 0h-168v1434h168v-1434z" />
    <glyph glyph-name="IJ" unicode="&#x132;" horiz-adv-x="1865" 
d="M350 0h-168v1434h168v-1434zM1546 1434h168l-8 -840q0 -151 -39 -264q-41 -118 -117 -197t-188 -123q-112 -41 -254 -41q-95 0 -190 29q-82 22 -162 76q-73 49 -125 116q-53 68 -80 148l166 45q44 -124 149 -190q109 -68 246 -68q213 0 324 123q110 122 110 336v850z" />
    <glyph glyph-name="ij" unicode="&#x133;" horiz-adv-x="1865" 
d="M350 0h-168v1434h168v-1434zM1546 1434h168l-8 -840q0 -151 -39 -264q-41 -118 -117 -197t-188 -123q-112 -41 -254 -41q-95 0 -190 29q-82 22 -162 76q-73 49 -125 116q-53 68 -80 148l166 45q44 -124 149 -190q109 -68 246 -68q213 0 324 123q110 122 110 336v850z" />
    <glyph glyph-name="Jcircumflex" unicode="&#x134;" horiz-adv-x="1341" 
d="M750 1608l342 288l340 -288l-84 -88l-256 215l-256 -215zM1022 1434h168l-8 -840q0 -151 -39 -264q-41 -118 -117 -197t-188 -123q-112 -41 -254 -41q-96 0 -191 29q-82 22 -162 76q-73 49 -125 116q-51 66 -79 148l166 45q44 -124 149 -190q109 -68 246 -68
q212 0 323 123t111 336v850z" />
    <glyph glyph-name="jcircumflex" unicode="&#x135;" horiz-adv-x="1341" 
d="M750 1608l342 288l340 -288l-84 -88l-256 215l-256 -215zM1022 1434h168l-8 -840q0 -151 -39 -264q-41 -118 -117 -197t-188 -123q-112 -41 -254 -41q-96 0 -191 29q-82 22 -162 76q-73 49 -125 116q-51 66 -79 148l166 45q44 -124 149 -190q109 -68 246 -68
q212 0 323 123t111 336v850z" />
    <glyph glyph-name="Kcommaaccent" unicode="&#x136;" horiz-adv-x="1411" 
d="M696 846l629 -846l-199 2l-542 735l-234 -233v-502h-168v1434h168v-383q0 -346 -2 -346h2l23 22l55 55l78 78l84 84l485 486h207zM711 -272l-21 2l-8 -2q-28 0 -55 24q-29 26 -29 70t31 72t71 28q43 0 72 -33q31 -36 31 -86q0 -94 -49 -176q-52 -87 -107 -139h-72
q22 22 43 49q20 25 37 60q17 33 25 61q10 33 10 61z" />
    <glyph glyph-name="kcommaaccent" unicode="&#x137;" horiz-adv-x="1411" 
d="M696 846l629 -846l-199 2l-542 735l-234 -233v-502h-168v1434h168v-383q0 -346 -2 -346h2l23 22l55 55l78 78l84 84l485 486h207zM729 -272l-20 2l-9 -2q-28 0 -55 24q-29 26 -29 70t31 72t72 28q43 0 72 -33q30 -34 30 -86q0 -94 -49 -176q-54 -89 -106 -139h-72
q22 22 43 49q20 25 37 60q14 29 24 61q11 37 11 61z" />
    <glyph glyph-name="Lacute" unicode="&#x139;" horiz-adv-x="1167" 
d="M518 1843l62 -119l-449 -213l-53 95zM358 158h768v-158h-936v1434h168v-1276z" />
    <glyph glyph-name="lacute" unicode="&#x13a;" horiz-adv-x="1167" 
d="M518 1843l62 -119l-449 -213l-53 95zM358 158h768v-158h-936v1434h168v-1276z" />
    <glyph glyph-name="Lcommaaccent" unicode="&#x13b;" horiz-adv-x="1167" 
d="M350 156h768v-156h-936v1432h168v-1276zM657 -272l-20 2l-8 -2q-29 0 -56 24q-28 25 -28 70t30 72q31 28 72 28q43 0 72 -33q31 -36 31 -86q0 -93 -50 -176q-54 -89 -106 -139h-72q22 22 43 49q20 25 37 60q17 33 25 61q10 33 10 61z" />
    <glyph glyph-name="lcommaaccent" unicode="&#x13c;" horiz-adv-x="1167" 
d="M350 156h768v-156h-936v1432h168v-1276zM635 -272l-21 2l-8 -2q-28 0 -55 24q-29 26 -29 70t31 72t72 28q42 0 71 -33q31 -36 31 -86q0 -94 -49 -176q-52 -87 -107 -139h-71q22 22 43 49q20 25 37 60q14 29 24 61q10 33 10 61z" />
    <glyph glyph-name="Lcaron" unicode="&#x13d;" horiz-adv-x="1167" 
d="M723 1262l-21 2l-2 -4q-31 0 -61 24q-31 25 -31 72q0 46 31 74t74 28q42 0 71 -33q31 -36 31 -86q0 -45 -12 -92q-9 -33 -35 -88q-17 -36 -49 -80q-28 -39 -57 -65h-74q45 39 80 108q34 67 34 129zM358 158h768v-158h-936v1434h168v-1276z" />
    <glyph glyph-name="lcaron" unicode="&#x13e;" horiz-adv-x="1167" 
d="M651 1276l-22 2l-6 -4q-33 0 -60 24q-28 25 -28 72t30 74q32 29 74 29q45 0 74 -33q30 -34 30 -86q0 -46 -12 -92q-9 -33 -35 -88q-18 -36 -49 -80q-26 -37 -59 -66h-74q44 38 80 109q35 68 35 129zM358 158h768v-158h-936v1434h168v-1276z" />
    <glyph glyph-name="Ldot" unicode="&#x13f;" horiz-adv-x="1167" 
d="M358 154h768v-156h-936v1432h168v-1276zM778 682v-4q-39 0 -67 31q-29 32 -29 71q0 40 29 72q28 31 67 31q40 0 68 -31t28 -70q0 -38 -28 -69t-68 -31z" />
    <glyph glyph-name="ldot" unicode="&#x140;" horiz-adv-x="1167" 
d="M358 154h768v-156h-936v1432h168v-1276zM778 682v-4q-39 0 -67 31q-29 32 -29 71q0 40 29 72q28 31 67 31q40 0 68 -31t28 -70q0 -38 -28 -69t-68 -31z" />
    <glyph glyph-name="Lslash" unicode="&#x141;" horiz-adv-x="1167" 
d="M358 158h768v-158h-936v1434h168v-689l570 291v-159l-570 -289v-430z" />
    <glyph glyph-name="lslash" unicode="&#x142;" horiz-adv-x="1167" 
d="M358 158h768v-158h-936v1434h168v-689l570 291v-159l-570 -289v-430z" />
    <glyph glyph-name="Nacute" unicode="&#x143;" horiz-adv-x="1556" 
d="M1022 1839l61 -119l-448 -213l-53 95zM1198 1434h168v-1436h-158l-637 856q-69 95 -86 119q-35 48 -67 96q-6 10 -21.5 32.5t-21.5 31.5l-17 24h-2v-31v-86v-129v-159v-752h-168v1434h158l637 -856q74 -102 78 -107q63 -88 67 -94q11 -17 50 -68l18 -24h2v32v89v126v148
v754z" />
    <glyph glyph-name="nacute" unicode="&#x144;" horiz-adv-x="1556" 
d="M1022 1839l61 -119l-448 -213l-53 95zM1198 1434h168v-1436h-158l-637 856q-69 95 -86 119q-35 48 -67 96q-6 10 -21.5 32.5t-21.5 31.5l-17 24h-2v-31v-86v-129v-159v-752h-168v1434h158l637 -856q74 -102 78 -107q63 -88 67 -94q11 -17 50 -68l18 -24h2v32v89v126v148
v754z" />
    <glyph glyph-name="Ncommaaccent" unicode="&#x145;" horiz-adv-x="1556" 
d="M1190 1432h168v-1436h-158l-637 856q-69 95 -86 119q-35 48 -67 96q-8 12 -23 33t-20 30l-17 25h-2v-31v-86v-129v-159v-750h-168v1432h158l637 -857q10 -14 37 -50t41 -56q63 -88 67 -94q23 -33 49 -68l19 -24h2v32v88v127v148v754zM778 -281l21 9h-29q-28 0 -55 24
q-29 26 -29 70t31 72t71 28q43 0 72 -33q31 -36 31 -86q0 -94 -49 -176q-52 -87 -107 -139h-71q22 22 43 49q17 22 36 60q17 33 25 61q10 33 10 61z" />
    <glyph glyph-name="ncommaaccent" unicode="&#x146;" horiz-adv-x="1556" 
d="M1190 1432h168v-1436h-158l-637 856q-69 95 -86 119q-35 48 -67 96q-8 12 -23 33t-20 30l-17 25h-2v-31v-86v-129v-159v-750h-168v1432h158l637 -857q10 -14 37 -50t41 -56q63 -88 67 -94q23 -33 49 -68l19 -24h2v32v88v127v148v754zM778 -281l21 9h-29q-28 0 -55 24
q-29 26 -29 70t31 72t71 28q43 0 72 -33q31 -36 31 -86q0 -94 -49 -176q-52 -87 -107 -139h-71q22 22 43 49q17 22 36 60q17 33 25 61q10 33 10 61z" />
    <glyph glyph-name="Ncaron" unicode="&#x147;" horiz-adv-x="1556" 
d="M1366 1434h-168v-760v-148v-127v-88v-32h-2l-18 26q-39 51 -50 68q-4 6 -67 94q-37 53 -78 108l-637 857h-158v-1432h168v750v159v129v86v33h2l17 -22q3 -4 43 -64q17 -25 67 -94q17 -24 86 -119l637 -858h158v1434zM782 1491l-342 289l86 88l256 -215l256 215l84 -88z
" />
    <glyph glyph-name="ncaron" unicode="&#x148;" horiz-adv-x="1556" 
d="M1366 1434h-168v-760v-148v-127v-88v-32h-2l-18 26q-39 51 -50 68q-4 6 -67 94q-37 53 -78 108l-637 857h-158v-1432h168v750v159v129v86v33h2l17 -22q3 -4 43 -64q17 -25 67 -94q17 -24 86 -119l637 -858h158v1434zM782 1491l-342 289l86 88l256 -215l256 215l84 -88z
" />
    <glyph glyph-name="Eng" unicode="&#x14a;" horiz-adv-x="1556" 
d="M1198 1434h168l-4 -1440q0 -86 -29 -168q-25 -72 -78 -131q-51 -57 -116 -86q-70 -31 -150 -31h-84v139h72q102 0 168 78q63 75 63 203l-637 856q-69 95 -86 119q-35 48 -67 96q-6 10 -21.5 32.5t-21.5 31.5l-17 24h-2v-31v-86v-129v-159v-752h-168v1434h158l637 -856
q74 -102 78 -107q63 -88 67 -94q11 -17 50 -68l18 -24h2v32v89v126v148v754z" />
    <glyph glyph-name="eng" unicode="&#x14b;" horiz-adv-x="1556" 
d="M1198 1434h168l-4 -1440q0 -86 -29 -168q-25 -72 -78 -131q-51 -57 -116 -86q-70 -31 -150 -31h-84v139h72q102 0 168 78q63 75 63 203l-637 856q-69 95 -86 119q-35 48 -67 96q-6 10 -21.5 32.5t-21.5 31.5l-17 24h-2v-31v-86v-129v-159v-752h-168v1434h158l637 -856
q74 -102 78 -107q63 -88 67 -94q11 -17 50 -68l18 -24h2v32v89v126v148v754z" />
    <glyph glyph-name="Omacron" unicode="&#x14c;" horiz-adv-x="1667" 
d="M510 1720h661v-131h-661v131zM84 715l-6 -4q0 162 59 301t160 237q100 97 238 154q134 55 288 55q155 0 289 -55q138 -57 238 -154q101 -98 159 -235q60 -142 60 -301q0 -164 -58 -301q-59 -139 -159 -236q-99 -96 -238 -153q-139 -54 -289 -54q-149 0 -288 54
q-136 56 -236 153t-160 238q-57 134 -57 301zM262 717l-6 -2q0 -129 43 -236q42 -105 121 -184q74 -74 182 -119q104 -43 227 -43q122 0 226 43q108 45 182 119q79 79 121 184q43 107 43 238q0 132 -43 239t-121 185q-76 76 -180 119t-226 43q-123 0 -227 -43t-180 -119
q-74 -74 -119 -185q-43 -107 -43 -239z" />
    <glyph glyph-name="omacron" unicode="&#x14d;" horiz-adv-x="1667" 
d="M506 1720h661v-131h-661v131zM84 715l-6 -4q0 162 59 301t160 237q100 97 238 154q134 55 288 55q155 0 289 -55q138 -57 238 -154q101 -98 159 -235q60 -142 60 -301q0 -164 -58 -301q-59 -139 -159 -236q-99 -96 -238 -153q-139 -54 -289 -54q-149 0 -288 54
q-136 56 -236 153t-160 238q-57 134 -57 301zM262 717l-6 -2q0 -129 43 -236q42 -105 121 -184q74 -74 182 -119q104 -43 227 -43q122 0 226 43q108 45 182 119q79 79 121 184q43 107 43 238q0 132 -43 239t-121 185q-76 76 -180 119t-226 43q-123 0 -227 -43t-180 -119
q-74 -74 -119 -185q-43 -107 -43 -239z" />
    <glyph glyph-name="Ohungarumlaut" unicode="&#x150;" horiz-adv-x="1667" 
d="M920 1837l61 -119l-449 -213l-53 94zM1329 1837l62 -119l-449 -213l-53 94zM84 715l-6 -4q0 162 59 301t160 237q100 97 238 154q134 55 288 55q155 0 289 -55q138 -57 238 -154q101 -98 159 -235q60 -142 60 -301q0 -164 -58 -301q-59 -139 -159 -236q-99 -96 -238 -153
q-139 -54 -289 -54q-149 0 -288 54q-136 56 -236 153t-160 238q-57 134 -57 301zM262 717l-6 -2q0 -129 43 -236q42 -105 121 -184q74 -74 182 -119q104 -43 227 -43q122 0 226 43q108 45 182 119q79 79 121 184q43 107 43 238q0 132 -43 239t-121 185q-76 76 -180 119
t-226 43q-123 0 -227 -43t-180 -119q-74 -74 -119 -185q-43 -107 -43 -239z" />
    <glyph glyph-name="ohungarumlaut" unicode="&#x151;" horiz-adv-x="1667" 
d="M915 1837l62 -119l-449 -213l-53 94zM1325 1837l61 -119l-448 -213l-53 94zM84 715l-6 -4q0 162 59 301t160 237q100 97 238 154q134 55 288 55q155 0 289 -55q138 -57 238 -154q101 -98 159 -235q60 -142 60 -301q0 -164 -58 -301q-59 -139 -159 -236q-99 -96 -238 -153
q-139 -54 -289 -54q-149 0 -288 54q-136 56 -236 153t-160 238q-57 134 -57 301zM262 717l-6 -2q0 -129 43 -236q42 -105 121 -184q74 -74 182 -119q104 -43 227 -43q122 0 226 43q108 45 182 119q79 79 121 184q43 107 43 238q0 132 -43 239t-121 185q-76 76 -180 119
t-226 43q-123 0 -227 -43t-180 -119q-74 -74 -119 -185q-43 -107 -43 -239z" />
    <glyph glyph-name="OE" unicode="&#x152;" horiz-adv-x="2052" 
d="M1122 158h801l-4 -158h-965q-46 -4 -71 -6t-76 -2q-157 0 -285 51q-129 51 -229 147q-98 93 -154 230q-55 134 -55 295t55 295q55 135 154 229q100 96 229 147q136 54 287 54h68q37 0 81 -6h953v-158h-789v-442h633v-150h-633v-526zM961 180v1073h-3q-64 25 -147 25
q-123 0 -221 -39q-101 -40 -174 -113q-72 -72 -113 -178t-41 -233q0 -124 41 -230q40 -103 115 -178q71 -71 174 -112q98 -39 221 -39q87 0 148 24z" />
    <glyph glyph-name="oe" unicode="&#x153;" horiz-adv-x="2052" 
d="M1122 158h801l-4 -158h-965q-46 -4 -71 -6t-76 -2q-157 0 -285 51q-129 51 -229 147q-98 93 -154 230q-55 134 -55 295t55 295q55 135 154 229q100 96 229 147q136 54 287 54h68q37 0 81 -6h953v-158h-789v-442h633v-150h-633v-526zM961 180v1073h-3q-64 25 -147 25
q-123 0 -221 -39q-101 -40 -174 -113q-72 -72 -113 -178t-41 -233q0 -124 41 -230q40 -103 115 -178q71 -71 174 -112q98 -39 221 -39q87 0 148 24z" />
    <glyph glyph-name="Racute" unicode="&#x154;" horiz-adv-x="1304" 
d="M913 1722l-448 -213l-53 95l440 237zM1214 0h-188l-326 535q-15 -3 -34 -3h-37h-269v-532h-167v1432h436q254 0 395 -123t141 -332q0 -151 -78 -258q-77 -105 -221 -152zM358 684h285l2 -2q175 0 262 84q86 83 86 213q0 137 -92 217t-258 80h-285v-592z" />
    <glyph glyph-name="racute" unicode="&#x155;" horiz-adv-x="1304" 
d="M963 1722l-449 -213l-53 95l440 237zM1214 0h-188l-326 535q-15 -3 -34 -3h-37h-269v-532h-167v1432h436q254 0 395 -123t141 -332q0 -151 -78 -258q-77 -105 -221 -152zM358 684h285l2 -2q175 0 262 84q86 83 86 213q0 137 -92 217t-258 80h-285v-592z" />
    <glyph glyph-name="Rcommaaccent" unicode="&#x156;" horiz-adv-x="1304" 
d="M858 565l348 -567h-190l-324 534q-10 -2 -35 -2h-36h-269v-532h-168v1432h437q254 0 395 -123t141 -332q0 -151 -78 -258q-77 -105 -221 -152zM350 682h285l2 -2q175 0 262 84q86 83 86 213q0 137 -92 217t-258 80h-285v-592zM649 -272l-20 2l-8 -2q-29 0 -56 24
q-28 25 -28 70t30 72q31 28 72 28q43 0 72 -33q30 -34 30 -86q0 -94 -49 -176q-54 -89 -106 -139h-72q22 22 43 49q20 25 37 60q14 29 24 61q11 37 11 61z" />
    <glyph glyph-name="rcommaaccent" unicode="&#x157;" horiz-adv-x="1304" 
d="M858 565l348 -567h-190l-324 534q-10 -2 -35 -2h-36h-269v-532h-168v1432h437q254 0 395 -123t141 -332q0 -151 -78 -258q-77 -105 -221 -152zM350 682h285l2 -2q175 0 262 84q86 83 86 213q0 137 -92 217t-258 80h-285v-592zM690 -272l-20 2l-8 -2q-29 0 -56 24
q-28 25 -28 70t30 72q31 28 72 28q43 0 72 -33q30 -34 30 -86q0 -94 -49 -176q-54 -89 -106 -139h-72q22 22 43 49q20 25 37 60q14 29 24 61q11 37 11 61z" />
    <glyph glyph-name="Rcaron" unicode="&#x158;" horiz-adv-x="1304" 
d="M952 1778l-340 -289l-342 289l86 88l256 -215l256 215zM1214 0h-188l-326 535q-15 -3 -34 -3h-37h-269v-532h-167v1432h436q254 0 395 -123t141 -332q0 -151 -78 -258q-77 -105 -221 -152zM358 684h285l2 -2q175 0 262 84q86 83 86 213q0 137 -92 217t-258 80h-285v-592z
" />
    <glyph glyph-name="rcaron" unicode="&#x159;" horiz-adv-x="1304" 
d="M952 1778l-340 -289l-342 289l86 88l256 -215l256 215zM1214 0h-188l-326 535q-15 -3 -34 -3h-37h-269v-532h-167v1432h436q254 0 395 -123t141 -332q0 -151 -78 -258q-77 -105 -221 -152zM358 684h285l2 -2q175 0 262 84q86 83 86 213q0 137 -92 217t-258 80h-285v-592z
" />
    <glyph glyph-name="Sacute" unicode="&#x15a;" horiz-adv-x="1220" 
d="M838 1835l61 -119l-448 -213l-54 94zM1120 1079l-159 -43l-21 -8q-12 62 -43 117q-28 48 -80 88q-50 38 -106 55q-62 19 -127 19q-143 0 -232 -62q-90 -63 -90 -170q0 -57 35 -98t90 -68q62 -30 125 -49q24 -7 70.5 -21.5t70.5 -21.5q58 -16 160 -53q83 -30 154 -80
q70 -49 116 -119q47 -71 47 -176q0 -93 -36 -166q-37 -75 -105 -131q-67 -55 -164 -86q-101 -29 -215 -29q-108 0 -209 29q-92 29 -161 86q-64 53 -113 133q-46 75 -61 166l161 43q8 -57 37 -119q24 -53 78 -100q50 -44 117 -68q68 -24 157 -24q160 0 252 74q93 75 93 188
q0 78 -43 127q-44 51 -107 84q-62 33 -145 55q-39 10 -156 47q-57 17 -131 45q-66 25 -131 68q-61 40 -101 104q-38 61 -38 156q0 86 36 154q37 69 103 123q62 51 158 82q92 30 200 30q103 0 185 -26t153 -78q64 -47 113 -121q44 -67 63 -156z" />
    <glyph glyph-name="sacute" unicode="&#x15b;" horiz-adv-x="1220" 
d="M846 1835l61 -119l-448 -213l-53 94zM1120 1079l-159 -43l-21 -8q-12 62 -43 117q-28 48 -80 88q-50 38 -106 55q-62 19 -127 19q-143 0 -232 -62q-90 -63 -90 -170q0 -57 35 -98t90 -68q62 -30 125 -49q24 -7 70.5 -21.5t70.5 -21.5q58 -16 160 -53q83 -30 154 -80
q70 -49 116 -119q47 -71 47 -176q0 -93 -36 -166q-37 -75 -105 -131q-67 -55 -164 -86q-101 -29 -215 -29q-108 0 -209 29q-92 29 -161 86q-64 53 -113 133q-46 75 -61 166l161 43q8 -57 37 -119q24 -53 78 -100q50 -44 117 -68q68 -24 157 -24q160 0 252 74q93 75 93 188
q0 78 -43 127q-44 51 -107 84q-62 33 -145 55q-39 10 -156 47q-57 17 -131 45q-66 25 -131 68q-61 40 -101 104q-38 61 -38 156q0 86 36 154q37 69 103 123q62 51 158 82q92 30 200 30q103 0 185 -26t153 -78q64 -47 113 -121q44 -67 63 -156z" />
    <glyph glyph-name="Scircumflex" unicode="&#x15c;" horiz-adv-x="1220" 
d="M252 1599l342 289l340 -289l-84 -88l-256 215l-256 -215zM1120 1079l-159 -43l-21 -8q-12 62 -43 117q-28 48 -80 88q-50 38 -106 55q-62 19 -127 19q-143 0 -232 -62q-90 -63 -90 -170q0 -57 35 -98t90 -68q62 -30 125 -49q24 -7 70.5 -21.5t70.5 -21.5q58 -16 160 -53
q83 -30 154 -80q70 -49 116 -119q47 -71 47 -176q0 -93 -36 -166q-37 -75 -105 -131q-67 -55 -164 -86q-101 -29 -215 -29q-108 0 -209 29q-92 29 -161 86q-64 53 -113 133q-46 75 -61 166l161 43q8 -57 37 -119q24 -53 78 -100q50 -44 117 -68q68 -24 157 -24q160 0 252 74
q93 75 93 188q0 78 -43 127q-44 51 -107 84q-62 33 -145 55q-39 10 -156 47q-57 17 -131 45q-66 25 -131 68q-61 40 -101 104q-38 61 -38 156q0 86 36 154q37 69 103 123q62 51 158 82q92 30 200 30q103 0 185 -26t153 -78q64 -47 113 -121q44 -67 63 -156z" />
    <glyph glyph-name="scircumflex" unicode="&#x15d;" horiz-adv-x="1220" 
d="M252 1599l342 289l340 -289l-84 -88l-256 215l-256 -215zM1120 1079l-159 -43l-21 -8q-12 62 -43 117q-28 48 -80 88q-50 38 -106 55q-62 19 -127 19q-143 0 -232 -62q-90 -63 -90 -170q0 -57 35 -98t90 -68q62 -30 125 -49q24 -7 70.5 -21.5t70.5 -21.5q58 -16 160 -53
q83 -30 154 -80q70 -49 116 -119q47 -71 47 -176q0 -93 -36 -166q-37 -75 -105 -131q-67 -55 -164 -86q-101 -29 -215 -29q-108 0 -209 29q-92 29 -161 86q-64 53 -113 133q-46 75 -61 166l161 43q8 -57 37 -119q24 -53 78 -100q50 -44 117 -68q68 -24 157 -24q160 0 252 74
q93 75 93 188q0 78 -43 127q-44 51 -107 84q-62 33 -145 55q-39 10 -156 47q-57 17 -131 45q-66 25 -131 68q-61 40 -101 104q-38 61 -38 156q0 86 36 154q37 69 103 123q62 51 158 82q92 30 200 30q103 0 185 -26t153 -78q64 -47 113 -121q44 -67 63 -156z" />
    <glyph glyph-name="Scedilla" unicode="&#x15e;" horiz-adv-x="1220" 
d="M1120 1079l-159 -43l-25 -4q-12 62 -43 117q-28 48 -80 88q-50 38 -106 55q-62 19 -127 19q-143 0 -232 -62q-90 -63 -90 -170q0 -57 35 -98t90 -68q62 -30 125 -49q23 -7 70 -21.5t71 -21.5q58 -16 160 -53q83 -30 154 -80q70 -49 116 -119q47 -71 47 -176
q0 -87 -32 -155q-34 -74 -93 -129q-57 -54 -143 -89q-89 -31 -190 -40l-29 -76q93 3 154 -49t61 -142q0 -94 -61 -143t-156 -49h-148l39 98h109q53 0 84 25t31 65q0 42 -31 70q-29 26 -82 26h-129l59 168q-96 5 -192 39q-89 36 -152 90t-104 129q-40 72 -55 160l161 43
q8 -57 37 -119q24 -53 78 -100q50 -44 117 -68q68 -24 157 -24q160 0 252 74q93 75 93 188q0 78 -43 127q-44 51 -107 84q-62 33 -145 55q-39 10 -156 47q-57 17 -131 45q-66 25 -131 68q-61 40 -101 104q-38 61 -38 156q0 86 36 154q37 69 103 123q62 51 158 82
q92 30 200 30q103 0 185 -26t153 -78q64 -47 113 -121q44 -67 63 -156z" />
    <glyph glyph-name="scedilla" unicode="&#x15f;" horiz-adv-x="1220" 
d="M1120 1079l-159 -43l-27 -6q-12 62 -43 117q-28 48 -80 88q-50 38 -106 55q-62 19 -127 19q-143 0 -232 -62q-90 -63 -90 -170q0 -57 35 -98t90 -68q62 -30 125 -49q24 -7 71 -21.5t70 -21.5q58 -16 160 -53q83 -30 154 -80q70 -49 116 -119q47 -71 47 -176
q0 -83 -30 -153q-28 -66 -90 -125q-58 -55 -142 -90q-75 -31 -184 -41l-29 -78q93 3 154 -49t61 -142q0 -94 -61 -143t-156 -49h-147l39 98h108q53 0 84 25t31 65q0 42 -31 70q-29 26 -82 26h-129l60 168q-102 3 -197 35q-90 35 -154 90q-60 52 -106 129q-41 69 -57 164
l161 43q8 -57 37 -119q24 -53 78 -100q50 -44 117 -68q68 -24 157 -24q160 0 252 74q93 75 93 188q0 78 -43 127q-44 51 -107 84q-62 33 -145 55q-39 10 -156 47q-57 17 -131 45q-66 25 -131 68q-61 40 -101 104q-38 61 -38 156q0 86 36 154q37 69 103 123q62 51 158 82
q92 30 200 30q103 0 185 -26t153 -78q64 -47 113 -121q44 -67 63 -156z" />
    <glyph glyph-name="Scaron" unicode="&#x160;" horiz-adv-x="1220" 
d="M961 1036l159 43l-8 -2q-19 92 -63 158q-49 74 -113 121q-70 52 -154 78q-89 28 -184 28q-107 0 -199 -30q-91 -30 -155 -82q-66 -54 -103 -123q-37 -70 -37 -154q0 -90 41 -155q40 -63 103 -105q62 -41 133 -68q67 -26 133 -45q117 -37 156 -47q83 -22 145 -55
q66 -36 109 -84q43 -49 43 -127q0 -111 -93 -186q-92 -74 -251 -74q-86 0 -156 25q-68 24 -117 67q-54 47 -78 100q-27 59 -36 119l-162 -43q15 -91 61 -166q47 -77 115 -133q67 -55 164 -86q98 -28 209 -28q117 0 215 28q95 30 163 86q67 55 105 133q37 75 37 166
q0 108 -45 176q-48 72 -117 121q-71 50 -154 80q-105 38 -159 53q-24 7 -71 21.5t-71 21.5q-57 17 -125 50q-53 26 -88 67q-32 38 -32 98q0 107 90 170q89 62 231 62q65 0 127 -19q61 -19 109 -55q52 -40 80 -88q31 -55 43 -117zM618 1491l-342 289l86 88l256 -215l256 215
l84 -88z" />
    <glyph glyph-name="scaron" unicode="&#x161;" horiz-adv-x="1220" 
d="M961 1036l159 43l-8 -2q-19 92 -63 158q-49 74 -113 121q-70 52 -154 78q-89 28 -184 28q-107 0 -199 -30q-91 -30 -155 -82q-66 -54 -103 -123q-37 -70 -37 -154q0 -90 41 -155q40 -63 103 -105q62 -41 133 -68q67 -26 133 -45q117 -37 156 -47q83 -22 145 -55
q66 -36 109 -84q43 -49 43 -127q0 -111 -93 -186q-92 -74 -251 -74q-86 0 -156 25q-68 24 -117 67q-54 47 -78 100q-27 59 -36 119l-162 -43q15 -91 61 -166q47 -77 115 -133q67 -55 164 -86q98 -28 209 -28q117 0 215 28q95 30 163 86q67 55 105 133q37 75 37 166
q0 108 -45 176q-48 72 -117 121q-71 50 -154 80q-105 38 -159 53q-24 7 -71 21.5t-71 21.5q-57 17 -125 50q-53 26 -88 67q-32 38 -32 98q0 107 90 170q89 62 231 62q65 0 127 -19q61 -19 109 -55q52 -40 80 -88q31 -55 43 -117zM627 1491l-342 289l86 88l256 -215l256 215
l84 -88z" />
    <glyph glyph-name="Tcommaaccent" unicode="&#x162;" horiz-adv-x="1216" 
d="M690 0h-39l-45 -96q93 3 154 -49t61 -142q0 -94 -61 -143t-156 -49h-147l39 98h108q53 0 84 25t31 65q0 42 -31 70q-29 26 -82 26h-129l70 195h-23v1276h-479v158h1126v-158h-481v-1276z" />
    <glyph glyph-name="tcommaaccent" unicode="&#x163;" horiz-adv-x="1216" 
d="M690 0h-39l-45 -96q93 3 154 -49t61 -142q0 -94 -61 -143t-156 -49h-147l39 98h108q53 0 84 25t31 65q0 42 -31 70q-29 26 -82 26h-129l70 195h-23v1276h-479v158h1126v-158h-481v-1276z" />
    <glyph glyph-name="Tcaron" unicode="&#x164;" horiz-adv-x="1216" 
d="M961 1780l-340 -289l-342 289l86 88l256 -215l256 215zM45 1434h1126v-158h-481v-1276h-166v1276h-479v158z" />
    <glyph glyph-name="tcaron" unicode="&#x165;" horiz-adv-x="1216" 
d="M961 1780l-340 -289l-342 289l86 88l256 -215l256 215zM45 1434h1126v-158h-481v-1276h-166v1276h-479v158z" />
    <glyph glyph-name="Tbar" unicode="&#x166;" horiz-adv-x="1216" 
d="M1171 1276h-481v-430h254v-131h-254v-715h-166v715h-256v131h256v430h-479v158h1126v-158z" />
    <glyph glyph-name="tbar" unicode="&#x167;" horiz-adv-x="1216" 
d="M1171 1276h-481v-430h254v-131h-254v-715h-166v715h-256v131h256v430h-479v158h1126v-158z" />
    <glyph glyph-name="Umacron" unicode="&#x16a;" horiz-adv-x="1480" 
d="M426 1726h661v-131h-661v131zM1161 1434h168l2 -840q0 -306 -153 -465q-152 -158 -437 -158q-284 0 -436 158q-153 159 -153 465v840h167v-842q0 -465 420 -465q422 0 422 465v842z" />
    <glyph glyph-name="umacron" unicode="&#x16b;" horiz-adv-x="1480" 
d="M426 1726h661v-131h-661v131zM1161 1434h168l2 -840q0 -306 -153 -465q-152 -158 -437 -158q-284 0 -436 158q-153 159 -153 465v840h167v-842q0 -465 420 -465q422 0 422 465v842z" />
    <glyph glyph-name="Ubreve" unicode="&#x16c;" horiz-adv-x="1480" 
d="M446 1776h123l-4 -4q15 -58 64 -101t119 -43q67 0 116 43q51 45 66 103h123q-8 -52 -37 -101q-25 -44 -68 -80q-38 -33 -92 -51q-53 -18 -106 -18q-60 0 -109 18q-48 18 -90 53q-43 36 -68 80q-29 49 -37 101zM1161 1434h168l2 -840q0 -306 -153 -465
q-152 -158 -437 -158q-284 0 -436 158q-153 159 -153 465v840h167v-842q0 -465 420 -465q422 0 422 465v842z" />
    <glyph glyph-name="ubreve" unicode="&#x16d;" horiz-adv-x="1480" 
d="M446 1776h123l-4 -4q15 -58 64 -101t119 -43q67 0 116 43q51 45 66 103h123q-8 -52 -37 -101q-25 -44 -68 -80q-38 -33 -92 -51q-53 -18 -106 -18q-60 0 -109 18q-48 18 -90 53q-43 36 -68 80q-29 49 -37 101zM1161 1434h168l2 -840q0 -306 -153 -465
q-152 -158 -437 -158q-284 0 -436 158q-153 159 -153 465v840h167v-842q0 -465 420 -465q422 0 422 465v842z" />
    <glyph glyph-name="Uring" unicode="&#x16e;" horiz-adv-x="1480" 
d="M748 1409l-3 -2q-45 0 -86 18q-34 15 -69 50q-31 31 -49 71q-19 43 -19 86t19 86q18 41 49 72t72 49q43 19 86 19t86 -19q40 -18 71 -49t49 -72q19 -43 19 -86t-19 -86q-16 -36 -49 -69t-71 -50q-41 -18 -86 -18zM748 1518v-5q49 0 86 37q36 36 36 84q0 53 -36 86
q-38 35 -86 35q-50 0 -86 -33q-37 -34 -37 -86q0 -45 37 -82q36 -36 86 -36zM1161 1434h168l2 -840q0 -306 -153 -465q-152 -158 -437 -158q-284 0 -436 158q-153 159 -153 465v840h167v-842q0 -465 420 -465q422 0 422 465v842z" />
    <glyph glyph-name="uring" unicode="&#x16f;" horiz-adv-x="1480" 
d="M748 1409l-3 -2q-45 0 -86 18q-34 15 -69 50q-31 31 -49 71q-19 43 -19 86t19 86q18 41 49 72t72 49q43 19 86 19t86 -19q40 -18 71 -49t49 -72q19 -43 19 -86t-19 -86q-16 -36 -49 -69t-71 -50q-41 -18 -86 -18zM748 1518v-5q49 0 86 37q36 36 36 84q0 53 -36 86
q-38 35 -86 35q-50 0 -86 -33q-37 -34 -37 -86q0 -45 37 -82q36 -36 86 -36zM1161 1434h168l2 -840q0 -306 -153 -465q-152 -158 -437 -158q-284 0 -436 158q-153 159 -153 465v840h167v-842q0 -465 420 -465q422 0 422 465v842z" />
    <glyph glyph-name="Uhungarumlaut" unicode="&#x170;" horiz-adv-x="1480" 
d="M836 1843l61 -119l-448 -213l-54 95zM1245 1843l62 -119l-449 -213l-53 95zM1161 1434h168l2 -840q0 -306 -153 -465q-152 -158 -437 -158q-284 0 -436 158q-153 159 -153 465v840h167v-842q0 -465 420 -465q422 0 422 465v842z" />
    <glyph glyph-name="uhungarumlaut" unicode="&#x171;" horiz-adv-x="1480" 
d="M836 1843l61 -119l-448 -213l-54 95zM1245 1843l62 -119l-449 -213l-53 95zM1161 1434h168l2 -840q0 -306 -153 -465q-152 -158 -437 -158q-284 0 -436 158q-153 159 -153 465v840h167v-842q0 -465 420 -465q422 0 422 465v842z" />
    <glyph glyph-name="Uogonek" unicode="&#x172;" horiz-adv-x="1480" 
d="M1161 1434h168l-2 -848q0 -258 -106 -408q-108 -153 -310 -196q-36 -13 -77 -33q-38 -18 -66 -43q-27 -24 -45 -58q-18 -35 -18 -75q0 -70 47 -117q45 -45 127 -45q63 0 118 43q57 45 80 92l90 -59q-14 -33 -45 -68q-29 -33 -69 -57q-51 -30 -82 -41q-43 -15 -90 -15
q-60 0 -119 19q-51 17 -94 53t-62 82q-22 52 -22 109q0 71 34 120q36 52 80 80q-265 12 -405 170q-141 159 -141 455v840h167v-842q0 -465 420 -465q422 0 422 465v842z" />
    <glyph glyph-name="uogonek" unicode="&#x173;" horiz-adv-x="1480" 
d="M1161 1434h168l-2 -848q0 -258 -106 -408q-108 -153 -310 -196q-36 -13 -77 -33q-38 -18 -66 -43q-27 -24 -45 -58q-18 -35 -18 -75q0 -70 47 -117q45 -45 127 -45q63 0 118 43q57 45 80 92l90 -59q-14 -33 -45 -68q-29 -33 -69 -57q-51 -30 -82 -41q-43 -15 -90 -15
q-60 0 -119 19q-51 17 -94 53t-62 82q-22 52 -22 109q0 71 34 120q36 52 80 80q-265 12 -405 170q-141 159 -141 455v840h167v-842q0 -465 420 -465q422 0 422 465v842z" />
    <glyph glyph-name="Wcircumflex" unicode="&#x174;" horiz-adv-x="2007" 
d="M649 1597l342 289l340 -289l-84 -88l-256 215l-256 -215zM1780 1434h174l-488 -1442h-147l-238 751q-37 113 -61 218q-15 63 -19 63h-2q-3 0 -18 -63q-18 -77 -61 -216l-238 -751h-147l-486 1431h174l324 -968q21 -64 43 -150q15 -57 18 -57h2q5 0 17 59q5 23 47 152
l254 776h147l254 -776q43 -132 47 -150q12 -57 17 -57h2q3 0 18 59q25 96 43 152z" />
    <glyph glyph-name="wcircumflex" unicode="&#x175;" horiz-adv-x="2007" 
d="M655 1597l342 289l340 -289l-84 -88l-256 215l-256 -215zM1780 1434h174l-488 -1442h-147l-238 751q-37 113 -61 218q-15 63 -19 63h-2q-3 0 -18 -63q-18 -77 -61 -216l-238 -751h-147l-486 1431h174l324 -968q21 -64 43 -150q15 -57 18 -57h2q5 0 17 59q5 23 47 152
l254 776h147l254 -776q43 -132 47 -150q12 -57 17 -57h2q3 0 18 59q25 96 43 152z" />
    <glyph glyph-name="Ycircumflex" unicode="&#x176;" horiz-adv-x="1343" 
d="M317 1604l342 288l340 -288l-84 -88l-256 215l-256 -215zM1118 1434h193l-566 -734v-702h-165v702l-555 730h190l360 -469q5 -6 15.5 -18.5t15.5 -18.5q25 -30 29 -35q3 -4 11 -13t11 -14l11 -10h2l10 12q18 24 22 29t29 35q22 26 29 37z" />
    <glyph glyph-name="ycircumflex" unicode="&#x177;" horiz-adv-x="1343" 
d="M317 1604l342 288l340 -288l-84 -88l-256 215l-256 -215zM1118 1434h193l-566 -734v-702h-165v702l-555 730h190l360 -469q5 -6 15.5 -18.5t15.5 -18.5q25 -30 29 -35q3 -4 11 -13t11 -14l11 -10h2l10 12q18 24 22 29t29 35q22 26 29 37z" />
    <glyph glyph-name="Ydieresis" unicode="&#x178;" horiz-adv-x="1343" 
d="M414 1563h-2q-44 0 -72 28q-29 29 -29 72q0 39 29 68q28 28 72 28q40 0 71 -28t31 -68q0 -44 -31 -72t-69 -28zM899 1563h-2q-39 0 -70 28q-30 27 -30 72q0 41 30 68q31 28 72 28q44 0 72 -28t28 -68q0 -44 -28 -72t-72 -28zM1118 1434h193l-566 -734v-702h-165v702
l-555 730h190l360 -469q5 -6 15.5 -18.5t15.5 -18.5q25 -30 29 -35q3 -4 11 -13t11 -14l11 -10h2l10 12q18 24 22 29t29 35q22 26 29 37z" />
    <glyph glyph-name="Zacute" unicode="&#x179;" horiz-adv-x="1413" 
d="M952 1839l62 -119l-449 -213l-53 95zM1290 1434v-156l-841 -1010q-62 -70 -76 -84q-31 -31 -31 -32l2 -2q1 0 7 0.5t19.5 1.5t28.5 2q70 4 129 4h760v-158h-1167v156l852 1011q10 12 35 37q6 6 17.5 18t16.5 17t15 14t14 13l12 12l-2 2q-20 0 -55 -2t-131 -2h-752v158
h1147z" />
    <glyph glyph-name="zacute" unicode="&#x17a;" horiz-adv-x="1413" 
d="M952 1839l62 -119l-449 -213l-53 95zM1290 1434v-156l-841 -1010q-62 -70 -76 -84q-31 -31 -31 -32l2 -2q1 0 7 0.5t19.5 1.5t28.5 2q70 4 129 4h760v-158h-1167v156l852 1011q10 12 35 37q6 6 17.5 18t16.5 17t15 14t14 13l12 12l-2 2q-20 0 -55 -2t-131 -2h-752v158
h1147z" />
    <glyph glyph-name="Zdotaccent" unicode="&#x17b;" horiz-adv-x="1413" 
d="M713 1563l-2 -2q-39 0 -70 28t-31 68q0 41 31 72q30 30 72 30q40 0 67 -30q29 -32 29 -70q0 -39 -29 -68q-28 -28 -67 -28zM1290 1434v-156l-841 -1010q-62 -70 -76 -84q-31 -31 -31 -32l2 -2q1 0 7 0.5t19.5 1.5t28.5 2q70 4 129 4h760v-158h-1167v156l852 1011
q10 12 35 37q6 6 17.5 18t16.5 17t15 14t14 13l12 12l-2 2q-20 0 -55 -2t-131 -2h-752v158h1147z" />
    <glyph glyph-name="zdotaccent" unicode="&#x17c;" horiz-adv-x="1413" 
d="M713 1563l-2 -2q-39 0 -70 28t-31 68q0 41 31 72q30 30 72 30q40 0 67 -30q29 -32 29 -70q0 -39 -29 -68q-28 -28 -67 -28zM1290 1434v-156l-841 -1010q-62 -70 -76 -84q-31 -31 -31 -32l2 -2q1 0 7 0.5t19.5 1.5t28.5 2q70 4 129 4h760v-158h-1167v156l852 1011
q10 12 35 37q6 6 17.5 18t16.5 17t15 14t14 13l12 12l-2 2q-20 0 -55 -2t-131 -2h-752v158h1147z" />
    <glyph glyph-name="Zcaron" unicode="&#x17d;" horiz-adv-x="1413" 
d="M1290 1278v156l-1153 -4v-158h752q98 0 133 2t55 2l2 -2l-10 -10l-27 -27q-5 -5 -16.5 -17t-17.5 -18q-13 -13 -33 -37l-852 -1011v-154h1167v156h-760q-94 0 -129 -2t-55 -2l-2 2q0 3 31 34q14 14 76 84zM715 1491l-342 289l86 88l256 -215l256 215l84 -88z" />
    <glyph glyph-name="zcaron" unicode="&#x17e;" horiz-adv-x="1413" 
d="M1290 1278v156l-1153 -4v-158h752q98 0 133 2t55 2l2 -2l-10 -10l-27 -27q-5 -5 -16.5 -17t-17.5 -18q-13 -13 -33 -37l-852 -1011v-154h1167v156h-760q-94 0 -129 -2t-55 -2l-2 2q0 3 31 34q14 14 76 84zM715 1491l-342 289l86 88l256 -215l256 215l84 -88z" />
    <glyph glyph-name="florin" unicode="&#x192;" horiz-adv-x="811" 
d="M68 723v143l219 2l51 355q18 123 74 184q57 60 145 78q86 17 213 2v-156q-125 9 -180 -18q-56 -27 -68 -117l-47 -330h242v-143h-262l-111 -786q-18 -129 -82 -193q-47 -47 -119 -59q-73 -12 -172 0v151q74 -6 121 12q48 18 60 103l112 772h-196z" />
    <glyph glyph-name="Scommaaccent" unicode="&#x218;" horiz-adv-x="1220" 
d="M1112 1077l-160 -43l-20 -8q-12 62 -43 117q-28 48 -80 88q-49 37 -107 55q-62 19 -127 19q-142 0 -231 -62q-90 -63 -90 -170q0 -57 35 -98t90 -68q62 -30 125 -49q23 -7 70 -21.5t71 -21.5q58 -16 160 -53q81 -29 153 -80q72 -50 117 -119q47 -71 47 -176
q0 -91 -37 -166q-37 -76 -104 -131t-164 -86q-101 -29 -215 -29q-108 0 -209 29q-94 30 -162 86q-62 51 -112 133q-47 77 -62 166l162 43q8 -57 37 -119q24 -53 78 -100q50 -44 117 -68t157 -24q160 0 252 74t92 188q0 78 -43 127q-45 52 -106 84t-146 55q-33 9 -155 47
q-57 17 -131 45q-66 25 -131 68q-61 40 -101 104q-39 62 -39 156q0 84 37 154q37 69 103 123q61 49 157 81q95 31 201 31q102 0 184 -26q84 -26 154 -78q64 -47 113 -121q44 -67 63 -156zM588 -281l20 9h-28q-29 0 -56 24q-28 25 -28 70t30 72q31 28 72 28q43 0 72 -33
q30 -34 30 -86q0 -94 -49 -176q-54 -89 -106 -139h-72q22 22 43 49q20 25 37 60q17 33 25 61q10 33 10 61z" />
    <glyph glyph-name="scommaaccent" unicode="&#x219;" horiz-adv-x="1220" 
d="M1112 1077l-160 -43l-20 -8q-12 62 -43 117q-28 48 -80 88q-49 37 -107 55q-62 19 -127 19q-142 0 -231 -62q-90 -63 -90 -170q0 -57 35 -98t90 -68q62 -30 125 -49q23 -7 70 -21.5t71 -21.5q58 -16 160 -53q81 -29 153 -80q72 -50 117 -119q47 -71 47 -176
q0 -91 -37 -166q-37 -76 -104 -131t-164 -86q-101 -29 -215 -29q-108 0 -209 29q-94 30 -162 86q-62 51 -112 133q-47 77 -62 166l162 43q8 -57 37 -119q24 -53 78 -100q50 -44 117 -68t157 -24q160 0 252 74t92 188q0 78 -43 127q-45 52 -106 84t-146 55q-33 9 -155 47
q-57 17 -131 45q-66 25 -131 68q-61 40 -101 104q-39 62 -39 156q0 84 37 154q37 69 103 123q61 49 157 81q95 31 201 31q102 0 184 -26q84 -26 154 -78q64 -47 113 -121q44 -67 63 -156zM588 -281l20 9h-28q-29 0 -56 24q-28 25 -28 70t30 72q31 28 72 28q43 0 72 -33
q30 -34 30 -86q0 -94 -49 -176q-54 -89 -106 -139h-72q22 22 43 49q20 25 37 60q17 33 25 61q10 33 10 61z" />
    <glyph glyph-name="uni021A" unicode="&#x21a;" horiz-adv-x="1216" 
d="M37 1432h1126v-158h-481v-1274h-166v1274h-479v158zM625 -272l-21 2l-8 -2q-28 0 -55 24q-29 26 -29 70t31 72t71 28q43 0 72 -33q31 -36 31 -86q0 -94 -49 -176q-52 -87 -107 -139h-72q22 22 43 49q20 25 37 60q17 33 25 61q10 33 10 61z" />
    <glyph glyph-name="uni021B" unicode="&#x21b;" horiz-adv-x="1216" 
d="M37 1432h1126v-158h-481v-1274h-166v1274h-479v158zM588 -272l-21 2l-8 -2q-28 0 -55 24q-29 26 -29 70t31 72t72 28q42 0 71 -33q31 -36 31 -86q0 -94 -49 -176q-52 -87 -107 -139h-71q22 22 43 49q17 22 36 60q17 33 25 61q10 33 10 61z" />
    <glyph glyph-name="uni0237" unicode="&#x237;" horiz-adv-x="1341" 
d="M1022 1434h168l-8 -840q0 -151 -39 -264q-41 -118 -117 -197t-188 -123q-112 -41 -254 -41q-96 0 -191 29q-82 22 -162 76q-73 49 -125 116q-51 66 -79 148l166 45q44 -124 149 -190q109 -68 246 -68q212 0 323 123t111 336v850z" />
    <glyph glyph-name="circumflex" unicode="&#x2c6;" horiz-adv-x="776" 
d="M35 1608l342 288l340 -288l-84 -88l-256 215l-256 -215z" />
    <glyph glyph-name="caron" unicode="&#x2c7;" horiz-adv-x="776" 
d="M377 1491l-342 289l86 88l256 -215l256 215l84 -88z" />
    <glyph glyph-name="breve" unicode="&#x2d8;" horiz-adv-x="681" 
d="M20 1776h123l-4 -4q15 -58 64 -101t119 -43q67 0 116 43q51 45 66 103h123q-8 -52 -37 -101q-25 -44 -68 -80q-38 -33 -92 -51q-53 -18 -106 -18q-60 0 -109 18q-48 18 -90 53q-43 36 -68 80q-29 49 -37 101z" />
    <glyph glyph-name="dotaccent" unicode="&#x2d9;" horiz-adv-x="325" 
d="M147 1567l-2 -2q-38 0 -69 28t-31 68q0 41 31 72q30 30 71 30t68 -30q29 -32 29 -70q0 -39 -29 -68q-28 -28 -68 -28z" />
    <glyph glyph-name="ring" unicode="&#x2da;" horiz-adv-x="548" 
d="M262 1364l-2 -4q-46 0 -86 18q-38 17 -70 49q-31 31 -49 72t-18 86t18 86t49 72t72 49q40 18 86 18t86 -18q41 -18 72 -49q32 -32 49 -70q18 -40 18 -86q0 -45 -18 -86q-16 -36 -49 -69q-32 -32 -72 -50t-86 -18zM262 1475v-5q49 0 86 37t37 84q0 52 -37 86
q-38 35 -86 35q-51 0 -84 -33q-35 -35 -35 -86q0 -44 35 -82q33 -36 84 -36z" />
    <glyph glyph-name="ogonek" unicode="&#x2db;" horiz-adv-x="1228" 
d="M743 -240l99 -53l-11 -4q-41 -87 -116 -141q-77 -56 -191 -56q-68 0 -123 21t-94 57q-41 38 -61 88q-23 58 -23 113q0 65 29 125q26 54 72 90q43 37 96 55q55 19 102 19l109 -78q-49 0 -99 -12q-47 -11 -90 -37q-40 -24 -65 -66t-25 -98q0 -69 47 -119q46 -49 133 -49
t136 43q47 41 75 102z" />
    <glyph glyph-name="tilde" unicode="&#x2dc;" horiz-adv-x="864" 
d="M653 1763h135l5 -4q0 -40 -17 -86q-15 -40 -45 -67q-31 -28 -74 -43q-49 -17 -92 -17q-42 0 -82 19q-27 13 -67 41q-38 27 -62 41q-30 18 -63 18q-47 0 -74 -27q-29 -29 -29 -67h-135q0 92 64 153q65 62 162 62q46 0 86 -19q27 -13 67 -41l19.5 -13l22.5 -15l18 -12
q28 -19 61 -19q43 0 72 29q28 28 28 67z" />
    <glyph glyph-name="hungarumlaut" unicode="&#x2dd;" horiz-adv-x="1038" 
d="M492 1843l61 -119l-449 -213l-53 95zM901 1843l62 -119l-449 -213l-53 95z" />
    <glyph glyph-name="uni0326" unicode="&#x326;" horiz-adv-x="0" 
d="M207 -283l20 11l-22 -2q-33 0 -60 24q-28 25 -28 72q0 42 30 69t72 27q40 0 68 -31t28 -84q0 -93 -47 -176q-49 -87 -104 -139h-72q22 22 43 49q24 31 37 57q16 32 25 62q10 33 10 61z" />
    <glyph glyph-name="Wgrave" unicode="&#x1e80;" horiz-adv-x="2007" 
d="M1108 1501l-449 213l64 119l438 -238zM1780 1434h174l-488 -1442h-147l-238 751q-37 113 -61 218q-15 63 -19 63h-2q-3 0 -18 -63q-18 -77 -61 -216l-238 -751h-147l-486 1431h174l324 -968q21 -64 43 -150q15 -57 18 -57h2q5 0 17 59q5 23 47 152l254 776h147l254 -776
q43 -132 47 -150q12 -57 17 -57h2q3 0 18 59q25 96 43 152z" />
    <glyph glyph-name="wgrave" unicode="&#x1e81;" horiz-adv-x="2007" 
d="M1114 1501l-448 213l63 119l438 -238zM1780 1434h174l-488 -1442h-147l-238 751q-37 113 -61 218q-15 63 -19 63h-2q-3 0 -18 -63q-18 -77 -61 -216l-238 -751h-147l-486 1431h174l324 -968q21 -64 43 -150q15 -57 18 -57h2q5 0 17 59q5 23 47 152l254 776h147l254 -776
q43 -132 47 -150q12 -57 17 -57h2q3 0 18 59q25 96 43 152z" />
    <glyph glyph-name="Wacute" unicode="&#x1e82;" horiz-adv-x="2007" 
d="M1235 1833l61 -119l-448 -213l-53 94zM1780 1434h174l-488 -1442h-147l-238 751q-37 113 -61 218q-15 63 -19 63h-2q-3 0 -18 -63q-18 -77 -61 -216l-238 -751h-147l-486 1431h174l324 -968q21 -64 43 -150q15 -57 18 -57h2q5 0 17 59q5 23 47 152l254 776h147l254 -776
q43 -132 47 -150q12 -57 17 -57h2q3 0 18 59q25 96 43 152z" />
    <glyph glyph-name="wacute" unicode="&#x1e83;" horiz-adv-x="2007" 
d="M1241 1833l62 -119l-449 -213l-53 94zM1780 1434h174l-488 -1442h-147l-238 751q-37 113 -61 218q-15 63 -19 63h-2q-3 0 -18 -63q-18 -77 -61 -216l-238 -751h-147l-486 1431h174l324 -968q21 -64 43 -150q15 -57 18 -57h2q5 0 17 59q5 23 47 152l254 776h147l254 -776
q43 -132 47 -150q12 -57 17 -57h2q3 0 18 59q25 96 43 152z" />
    <glyph glyph-name="Wdieresis" unicode="&#x1e84;" horiz-adv-x="2007" 
d="M745 1556h-2q-42 0 -71 29t-29 72q0 38 29 67t71 29q40 0 72 -29q31 -28 31 -67q0 -44 -31 -72q-32 -29 -70 -29zM1231 1556h-2q-38 0 -70 29q-31 28 -31 72q0 39 31 67q32 29 72 29q43 0 72 -29q28 -28 28 -67q0 -44 -28 -72q-29 -29 -72 -29zM1780 1434h174l-488 -1442
h-147l-238 751q-37 113 -61 218q-15 63 -19 63h-2q-3 0 -18 -63q-18 -77 -61 -216l-238 -751h-147l-486 1431h174l324 -968q21 -64 43 -150q15 -57 18 -57h2q5 0 17 59q5 23 47 152l254 776h147l254 -776q43 -132 47 -150q12 -57 17 -57h2q3 0 18 59q25 96 43 152z" />
    <glyph glyph-name="wdieresis" unicode="&#x1e85;" horiz-adv-x="2007" 
d="M752 1556h-2q-43 0 -72 29t-29 72q0 38 29 67t72 29q39 0 71 -29q31 -28 31 -67q0 -44 -31 -72q-32 -29 -69 -29zM1237 1556h-2q-38 0 -70 29q-30 27 -30 72q0 40 30 67q32 29 72 29q43 0 72 -29q28 -28 28 -67q0 -44 -28 -72q-29 -29 -72 -29zM1780 1434h174l-488 -1442
h-147l-238 751q-37 113 -61 218q-15 63 -19 63h-2q-3 0 -18 -63q-18 -77 -61 -216l-238 -751h-147l-486 1431h174l324 -968q21 -64 43 -150q15 -57 18 -57h2q5 0 17 59q5 23 47 152l254 776h147l254 -776q43 -132 47 -150q12 -57 17 -57h2q3 0 18 59q25 96 43 152z" />
    <glyph glyph-name="uni1E9E" unicode="&#x1e9e;" horiz-adv-x="1576" 
d="M190 1434h1158l-246 -443q-4 -7 -14 -25.5t-15 -29.5q-13 -27 -31 -55q-12 -20 -24 -43l-10 -19l2 -2h14q102 0 190 -31q86 -30 148 -86q59 -53 94 -131t35 -166q0 -96 -33 -172q-34 -78 -96 -137q-60 -57 -150 -92q-91 -31 -196 -31q-76 0 -154 19q-71 14 -137 53
q-65 37 -117 90q-50 50 -86 117l160 47q49 -85 133 -135q82 -49 191 -49q68 0 129 22q54 19 98 60q40 37 61 90q23 57 23 114q0 52 -19 107q-17 50 -59 92q-40 40 -98 64q-59 24 -137 24h-154v129l164 305q4 7 12.5 23.5t13.5 25.5q1 2 12.5 22t16.5 30q8 16 23 41l10 16
l-2 2q-16 0 -45 -2t-107 -2h-590v-1276h-168v1434z" />
    <glyph glyph-name="Ygrave" unicode="&#x1ef2;" horiz-adv-x="1343" 
d="M776 1507l-448 213l63 119l438 -237zM1118 1434h193l-566 -734v-702h-165v702l-555 730h190l360 -469q5 -6 15.5 -18.5t15.5 -18.5q25 -30 29 -35q3 -4 11 -13t11 -14l11 -10h2l10 12q18 24 22 29t29 35q22 26 29 37z" />
    <glyph glyph-name="ygrave" unicode="&#x1ef3;" horiz-adv-x="1343" 
d="M776 1507l-448 213l63 119l438 -237zM1118 1434h193l-566 -734v-702h-165v702l-555 730h190l360 -469q5 -6 15.5 -18.5t15.5 -18.5q25 -30 29 -35q3 -4 11 -13t11 -14l11 -10h2l10 12q18 24 22 29t29 35q22 26 29 37z" />
    <glyph glyph-name="uni2007" unicode="&#x2007;" 
 />
    <glyph glyph-name="uni2009" unicode="&#x2009;" horiz-adv-x="245" 
 />
    <glyph glyph-name="uni200A" unicode="&#x200a;" horiz-adv-x="81" 
 />
    <glyph glyph-name="endash" unicode="&#x2013;" horiz-adv-x="1228" 
d="M190 805h848v-158h-848v158z" />
    <glyph glyph-name="emdash" unicode="&#x2014;" horiz-adv-x="2088" 
d="M190 805h1708v-158h-1708v158z" />
    <glyph glyph-name="quoteleft" unicode="&#x2018;" horiz-adv-x="614" 
d="M309 1221l-20 -9l22 -2q32 0 62 -24t30 -72q0 -47 -30 -74q-29 -26 -74 -26q-44 0 -74 35t-30 86q0 45 12 92q9 33 35 88q18 36 49 80q24 34 59 65h74q-45 -39 -80 -108q-35 -68 -35 -131z" />
    <glyph glyph-name="quoteright" unicode="&#x2019;" horiz-adv-x="614" 
d="M307 1251l21 11l-29 -2q-31 -3 -61 24q-29 26 -29 72t31 74t73 28q45 0 74 -33q31 -36 31 -86q0 -45 -12 -92q-9 -33 -35 -88q-17 -36 -49 -80q-23 -31 -60 -65h-74q43 37 82 108q37 67 37 129z" />
    <glyph glyph-name="quotesinglbase" unicode="&#x201a;" horiz-adv-x="614" 
d="M307 -31l21 11l-29 -3q-28 -2 -61 23q-29 26 -29 72q0 45 31 73q32 29 73 29q45 0 74 -33q31 -36 31 -86q0 -43 -12 -90q-9 -33 -35 -88q-17 -36 -49 -80q-23 -31 -60 -65h-74q43 37 82 108q37 67 37 129z" />
    <glyph glyph-name="quotedblleft" unicode="&#x201c;" horiz-adv-x="991" 
d="M315 1221l-20 -9l22 -2q32 0 62 -24q31 -25 31 -72q0 -46 -31 -74q-29 -26 -74 -26q-44 0 -74 35t-30 86q0 45 12 92q9 33 35 88q18 36 49 80q24 34 59 65h74q-45 -39 -80 -108q-35 -68 -35 -131zM684 1221l-20 -9l26 -2q37 -4 62 -24q30 -24 30 -72q0 -47 -30 -74
q-29 -26 -74 -26q-44 0 -74 35q-31 36 -31 86q0 42 13 92q9 33 35 88q17 36 49 80q24 34 59 65h74q-43 -37 -82 -108q-37 -67 -37 -131z" />
    <glyph glyph-name="quotedblright" unicode="&#x201d;" horiz-adv-x="991" 
d="M307 1247l21 10l-29 -2q-30 -3 -61 25q-29 26 -29 72q0 45 31 73q32 29 73 29q45 0 74 -33q31 -36 31 -86q0 -45 -12 -92q-9 -33 -35 -88q-17 -36 -49 -80q-23 -31 -60 -65h-74q43 37 82 108q37 67 37 129zM682 1251l20 11l-20 -2q-31 0 -61 24q-31 25 -31 72q0 46 31 74
t73 28q43 0 72 -33q31 -36 31 -86q0 -42 -13 -92q-10 -38 -34 -88q-15 -32 -50 -80q-24 -34 -59 -65h-74q45 39 80 108q35 68 35 129z" />
    <glyph glyph-name="quotedblbase" unicode="&#x201e;" horiz-adv-x="962" 
d="M299 -31l20 8h-28q-34 3 -62 25q-28 25 -28 70q0 46 30 73q32 29 74 29q45 0 74 -33q31 -36 31 -88q0 -40 -13 -90q-9 -33 -35 -88q-18 -36 -49 -80q-24 -34 -59 -65h-74q43 37 82 108q37 67 37 131zM655 -29l21 9h-29q-34 3 -61 24q-29 26 -29 70q0 45 31 73
q32 29 74 29q44 0 73 -33q31 -36 31 -88q0 -43 -12 -90q-9 -33 -35 -88q-18 -36 -49 -80q-22 -31 -60 -65h-73q41 35 81 108q37 67 37 131z" />
    <glyph glyph-name="dagger" unicode="&#x2020;" horiz-adv-x="1024" 
d="M977 1057v-146l-397 -4v-286q0 -150 -2 -224q-1 -44 -4 -117t-3 -83q-3 -89 -6 -144l-4 -53h-108l-4 53q-5 102 -7 146q-3 87 -6 200q-2 74 -2 226v286h-389v146h389v377h152v-377h391z" />
    <glyph glyph-name="daggerdbl" unicode="&#x2021;" horiz-adv-x="1024" 
d="M586 911v-286l2 -11h391v-145h-393q-4 -107 -6 -178q-1 -25 -2 -52t-2.5 -55.5t-2.5 -42.5q-3 -62 -6 -104l-2 -37h-108l-2 37q-3 42 -6 104q-1 14 -2.5 42.5t-2.5 55.5t-2 52q-2 71 -6 178h-391v145h389v11v286h-389v146h389v377h152v-377h391v-146h-391z" />
    <glyph glyph-name="bullet" unicode="&#x2022;" horiz-adv-x="774" 
d="M387 530l-2 -2q-83 0 -141 58t-58 141q0 84 58 139q59 56 141 56q83 0 139 -56t56 -137q0 -82 -56 -141q-55 -58 -137 -58z" />
    <glyph glyph-name="ellipsis" unicode="&#x2026;" horiz-adv-x="1499" 
d="M207 -31v-2q-35 0 -60 25q-24 21 -24 57t24 60t60 24q35 0 59 -24q25 -25 25 -58q0 -35 -25 -57q-25 -25 -59 -25zM739 -29v-2q-34 0 -59 25q-25 22 -25 57t25 60q24 24 59 24q36 0 60 -24t24 -58q0 -36 -24 -57q-25 -25 -60 -25zM1292 -27v-2q-34 0 -59 25
q-25 22 -25 57t25 60q24 24 59 24q36 0 60 -24t24 -58q0 -36 -24 -57q-25 -25 -60 -25z" />
    <glyph glyph-name="perthousand" unicode="&#x2030;" horiz-adv-x="2813" 
d="M446 588v-8q-88 0 -151 32q-67 34 -117 90q-49 55 -74 134q-24 76 -24 161q0 87 24 164t74 133t117 90q65 33 151 33q87 0 152 -33q71 -36 117 -88q48 -54 73 -133q25 -80 25 -162q0 -81 -25 -161q-24 -76 -73 -131q-46 -52 -117 -88q-65 -33 -152 -33zM412 -27l979 1432
h120l-976 -1432h-123zM451 713l-5 -4q58 0 105 24q50 26 78 64q33 44 49 94q18 55 18 115q0 62 -18 114q-16 48 -49 92q-32 43 -76 66q-48 25 -104 25q-57 0 -105 -25q-46 -24 -76 -64q-32 -44 -49 -92q-18 -52 -18 -114q0 -58 18 -113q16 -50 49 -94q28 -38 78 -64
q46 -24 105 -24zM1483 -31v-8q-87 0 -152 33q-64 28 -117 88q-48 54 -73 133q-25 80 -25 162q0 84 25 164q25 79 73 133q50 56 117 90q65 33 152 33q86 0 151 -33q71 -36 117 -88q50 -56 74 -133t24 -162t-24 -162q-23 -74 -74 -131q-46 -52 -117 -88q-70 -31 -151 -31z
M2347 -23v-8q-82 0 -152 31q-66 34 -116 90t-74 133q-25 80 -25 162q0 84 25 164q24 77 74 133t116 90q65 33 152 33t152 -33q69 -35 116 -88q50 -56 74 -133q25 -80 25 -162t-25 -162q-23 -74 -74 -131q-47 -53 -116 -88q-70 -31 -152 -31zM1487 100l-4 -4q56 0 104 25
q51 26 78 63q32 44 49 95q19 59 19 114q0 60 -19 115q-17 48 -49 92q-32 43 -76 66q-47 24 -104 24q-59 0 -105 -24q-45 -23 -75 -64q-34 -46 -50 -92q-18 -52 -18 -115q0 -57 18 -112q16 -49 50 -95q28 -38 77 -63q48 -25 105 -25zM2355 104l-4 -4q57 0 105 25q49 25 77 63
q34 46 50 95q18 55 18 114q0 63 -18 115q-16 46 -50 92q-33 44 -75 66q-46 24 -105 24q-57 0 -104 -24q-46 -24 -76 -64q-33 -44 -49 -92q-19 -55 -19 -115q0 -53 19 -112q16 -50 49 -94q28 -38 78 -64q48 -25 104 -25z" />
    <glyph glyph-name="guilsinglleft" unicode="&#x2039;" horiz-adv-x="960" 
d="M190 721l484 479l94 -94l-391 -385l393 -385l-98 -94z" />
    <glyph glyph-name="guilsinglright" unicode="&#x203a;" horiz-adv-x="960" 
d="M287 1200l483 -479l-481 -479l-99 94l394 385l-391 385z" />
    <glyph glyph-name="fraction" unicode="&#x2044;" horiz-adv-x="237" 
d="M-430 0l977 1434h121l-975 -1434h-123z" />
    <glyph glyph-name="Euro" unicode="&#x20ac;" horiz-adv-x="1640" 
d="M1421 434l166 -43v-10q-46 -99 -110 -172q-66 -75 -154 -129q-87 -53 -188 -80q-105 -31 -213 -31q-131 0 -252 41q-123 45 -215 119q-95 77 -162 184t-94 236h-107v119h92q-2 6 -2 22v23v22q0 17 2 23h-92v116h107q27 129 92 238q63 105 160 184q92 74 215 119
q119 43 252 43q214 0 380 -100q171 -103 265 -277l-172 -43q-72 122 -197 189t-279 67q-101 0 -190 -30q-87 -30 -162 -86q-73 -55 -125 -131q-51 -74 -76 -173h578v-116h-596q-2 -6 -2 -21v-20v-23q0 -16 2 -22h596v-119h-578q24 -93 78 -172q50 -73 127 -131
q71 -54 164 -82q95 -29 189 -29q166 0 299 80q131 79 202 215z" />
    <glyph glyph-name="uni20B9" unicode="&#x20b9;" horiz-adv-x="1187" 
d="M1098 1434v-134l-260 -6q63 -51 98 -123h166v-131h-123q4 -20 4 -30v-31q0 -100 -37 -178q-40 -84 -100 -139q-64 -58 -154 -93q-87 -34 -196 -37l440 -532h-203l-440 537v133h192q71 0 129 24q59 24 103 68q43 43 67 98q25 58 25 121q0 33 -6 63h-610v132h550
q-43 58 -110 92q-63 32 -148 32h-295v134h908z" />
    <glyph glyph-name="afii61352" unicode="&#x2116;" horiz-adv-x="2291" 
d="M1538 1102h-8q0 72 29 141q28 67 75 111q49 46 113 73q65 27 139 27t139 -27q64 -27 113 -73q52 -49 78 -111q29 -69 29 -141t-29 -141q-27 -65 -76 -111q-52 -49 -112 -74q-62 -26 -138 -26q-75 0 -137 26t-113 74q-47 44 -75 111q-27 65 -27 141zM1192 1434h168v-1436
h-158l-637 856q-69 95 -86 119q-35 48 -67 96q-6 10 -21.5 32.5t-21.5 31.5l-17 24h-2v-31v-86v-129v-159v-752h-168v1434h158l637 -856q74 -102 78 -107q63 -88 67 -94q23 -33 49 -68l19 -24h2v32v89v126v148v754zM1657 1106h-6q0 -52 18 -98q18 -47 51 -80q32 -32 78 -51
t96 -19t99 19q51 20 78 51q33 37 49 80q18 47 18 98q0 52 -18 98q-16 43 -49 80q-28 33 -76 51q-49 19 -99 19q-48 0 -94 -19q-43 -18 -76 -51t-51 -80t-18 -98zM1567 633h667v-111h-667v111z" />
    <glyph glyph-name="trademark" unicode="&#x2122;" horiz-adv-x="1609" 
d="M41 1325v109h586v-109h-238v-557h-110v557h-238zM1321 1434h104l-4 -666h-110v270q0 53 2 80q3 46 6 72q4 40 4 49l2 21h-2q-3 0 -20 -33q-7 -13 -24.5 -43t-25.5 -43l-135 -223h-57l-135 223q-12 20 -30.5 49.5t-21.5 34.5q-18 30 -20 30h-2l2 -18v-49q0 -18 4 -72
q2 -27 2 -80v-270h-108v666h104l170 -283q41 -71 45 -82q12 -31 14 -31h2q5 0 17 31q2 6 47 84z" />
    <glyph glyph-name="oneeighth" unicode="&#x215b;" horiz-adv-x="1449" 
d="M274 1417h82l-6 -807h-119v477q0 34 2 54q1 11 3.5 30.5t3.5 26.5q4 33 6 47l2 21h-2q-2 0 -21 -25q-12 -16 -45 -49l-96 -96l-76 69zM98 -14l979 1431h121l-977 -1431h-123zM1235 414v-2l-10 -4q27 -6 57 -21t57 -39t45 -59q19 -36 19 -80q0 -53 -21 -96
q-22 -45 -61 -74q-46 -34 -94 -47q-59 -19 -121 -19q-60 0 -119 19q-48 13 -94 47q-41 30 -62 74q-20 41 -20 96q0 45 18 80t45 59q31 27 58 41q30 15 57 21v2q-15 3 -41 16t-47 37q-22 25 -37 55q-16 32 -16 74q0 92 74 151q75 60 190 60q61 0 107 -14q45 -14 86 -43
q36 -26 55 -68q18 -41 18 -86q0 -42 -16 -74t-39 -55q-25 -25 -49 -37q-21 -10 -39 -14zM954 602l-6 -8q0 -57 47 -92q42 -31 117 -31q78 3 121 35q47 35 47 92t-45 90q-47 35 -119 35q-70 0 -117 -35q-45 -33 -45 -86zM932 225l-4 -4q0 -63 53 -104q56 -43 139 -43
q84 0 140 43q53 41 53 104q0 62 -53 103t-140 41q-86 0 -137 -39t-51 -101z" />
    <glyph glyph-name="threeeighths" unicode="&#x215c;" horiz-adv-x="1601" 
d="M139 1176l-104 28l-17 -4q21 103 99 166q76 61 194 61q71 0 123 -18q49 -17 86 -49q34 -30 49 -70q17 -46 17 -82q0 -38 -15 -73q-13 -30 -41 -58q-25 -25 -55 -37q-27 -11 -63 -14v-2q37 -3 69 -14q31 -11 62 -35q29 -22 43 -55q16 -37 16 -74q0 -57 -20 -101
q-19 -43 -62 -79q-40 -34 -92 -52q-53 -18 -113 -18q-57 0 -110 18q-46 16 -92 50q-41 30 -68 77q-27 46 -33 103l107 26q6 -76 61 -122t142 -46q86 0 129 43t43 103q0 58 -50 96q-49 37 -127 37h-79v90h79q77 0 123 37q47 38 47 96q0 24 -8 43q-10 23 -28 41t-50 31
q-30 12 -75 12q-80 0 -125 -39q-47 -41 -62 -116zM250 -14l979 1431h121l-977 -1431h-123zM1386 414v-2l-10 -4q29 -6 58 -21q30 -15 57 -39t45 -59q18 -34 18 -80q0 -55 -20 -96q-22 -45 -61 -74q-45 -34 -95 -47q-59 -19 -121 -19q-59 0 -118 19q-50 13 -95 47
q-39 29 -61 74q-20 41 -20 96q0 45 18 80t45 59q32 29 57 41q29 15 58 21v2q-15 3 -41 16t-47 37q-22 25 -37 55q-17 34 -17 74q0 92 74 151q75 60 191 60q60 0 106 -14q45 -14 86 -43q36 -26 55 -68q19 -43 19 -86q0 -40 -17 -74t-38 -55q-24 -24 -50 -37q-21 -10 -39 -14z
M1106 602l-6 -8q0 -57 47 -92q42 -31 117 -31q77 3 120 35q48 36 48 92t-46 90q-47 35 -118 35q-70 0 -117 -35q-45 -33 -45 -86zM1083 225l-4 -4q0 -62 54 -104q56 -43 139 -43t139 43q53 41 53 104q0 62 -53 103t-139 41t-137 -39q-52 -40 -52 -101z" />
    <glyph glyph-name="fiveeighths" unicode="&#x215d;" horiz-adv-x="1568" 
d="M150 1079l2 -2l-9 -2q20 23 60 47q42 25 104 25t117 -19q52 -18 92 -55q42 -39 62 -86t20 -110q0 -61 -20 -111q-19 -49 -62 -88q-38 -36 -92 -57q-52 -21 -115 -21q-126 0 -203 68t-92 170l109 28q9 -70 55 -116q45 -45 129 -45t133 49t49 127t-49 127t-131 49
q-59 0 -106 -29q-43 -27 -58 -61l-98 26l70 426h440v-106h-350l-21 -105q-12 -56 -24 -92q-12 -34 -12 -37zM1196 1417h121l-977 -1431h-123zM1354 414v-2l-11 -4q29 -6 58 -21q30 -15 57 -39t45 -59q19 -36 19 -80q0 -53 -21 -96q-22 -45 -61 -74q-46 -34 -94 -47
q-59 -19 -121 -19q-60 0 -119 19q-48 13 -94 47q-41 30 -62 74q-20 41 -20 96q0 45 18 80t45 59q31 27 58 41q30 15 57 21v2q-15 3 -41 16t-47 37q-22 25 -37 55q-16 32 -16 74q0 93 73 151q75 60 191 60q60 0 106 -14q45 -14 86 -43q38 -27 56 -68t18 -86q0 -42 -16 -74
t-39 -55q-25 -25 -49 -37q-21 -10 -39 -14zM1073 602l-6 -8q0 -57 47 -92q42 -31 117 -31q78 3 121 35q47 35 47 92t-45 90q-47 35 -119 35q-70 0 -117 -35q-45 -33 -45 -86zM1241 76l-4 -4q87 3 139 43q54 42 54 104q0 61 -54 103q-52 40 -139 40q-88 0 -137 -38
q-51 -39 -51 -101q0 -63 53 -104q52 -40 139 -43z" />
    <glyph glyph-name="seveneighths" unicode="&#x215e;" horiz-adv-x="1363" 
d="M0 1417h578v-74l-410 -729h-119l340 603q19 37 47 69q23 26 23 27l-2 2q-16 0 -43 -2t-86 -2h-328v106zM12 -14l979 1431h121l-977 -1431h-123zM1149 414v-2l-10 -4q27 -6 57 -21t57 -39t45 -59q19 -36 19 -80q0 -53 -21 -96q-22 -45 -61 -74q-46 -34 -94 -47
q-59 -19 -121 -19q-60 0 -119 19q-48 13 -94 47q-41 30 -62 74q-20 41 -20 96q0 45 18 80t45 59q31 27 58 41q30 15 57 21v2q-15 3 -41 16t-47 37q-22 25 -37 55q-16 32 -16 74q0 92 74 151q75 60 190 60q61 0 107 -14q45 -14 86 -43q36 -26 55 -68q18 -41 18 -86
q0 -42 -16 -74t-39 -55q-25 -25 -49 -37q-21 -10 -39 -14zM868 602l-6 -8q0 -57 47 -92q42 -31 117 -31q78 3 121 35q47 35 47 92t-45 90q-47 35 -119 35q-70 0 -117 -35q-45 -33 -45 -86zM846 225l-4 -4q0 -63 53 -104q56 -43 139 -43q84 0 140 43q53 41 53 104
q0 62 -53 103t-140 41q-86 0 -137 -39t-51 -101z" />
    <glyph glyph-name="minus" unicode="&#x2212;" 
d="M242 799h948v-142h-948v142z" />
    <glyph glyph-name="notequal" unicode="&#x2260;" 
d="M1190 842h-344l-123 -242h467v-141h-539l-127 -248h-145l127 248h-264v141h336l122 242h-458v141h532l135 266h144l-135 -266h272v-141z" />
    <glyph glyph-name="lessequal" unicode="&#x2264;" 
d="M229 121h949v-139h-949v139zM459 752l659 -443h-221l-668 443l732 499h219z" />
    <glyph glyph-name="greaterequal" unicode="&#x2265;" 
d="M311 309l660 443l-721 499h219l731 -499l-668 -443h-221zM252 121h948v-139h-948v139z" />
    <glyph glyph-name="lozenge" unicode="&#x25ca;" horiz-adv-x="1566" 
d="M782 -27l-745 744l745 745l746 -745zM782 1268l-551 -551l551 -551l553 551z" />
    <glyph glyph-name="glyph1" horiz-adv-x="0" 
 />
    <glyph glyph-name="glyph2" horiz-adv-x="0" 
 />
    <glyph glyph-name="glyph242" horiz-adv-x="1558" 
d="M924 1921l127 -72l-222 -344l-108 64zM1485 1085l-170 -43l-12 2q-75 122 -203 189t-279 67q-123 0 -227 -43q-106 -44 -180 -118t-119 -185q-43 -107 -43 -235q0 -129 43 -236q42 -105 121 -184q74 -74 182 -119q104 -43 225 -43q165 0 301 80q137 81 207 215l166 -45
q-49 -99 -113 -172q-65 -74 -153 -131t-189 -84q-105 -31 -215 -31q-149 0 -288 54q-136 56 -236 153t-160 238q-57 134 -57 301q0 162 59 301t160 237q100 97 238 154q134 55 288 55q108 0 203 -26q103 -28 183 -76q87 -52 151 -119q68 -71 117 -156z" />
    <glyph glyph-name="glyph243" horiz-adv-x="894" 
d="M530 150h275v-150h-715v150h272v1134h-264v150h699v-150h-267v-1134z" />
    <glyph glyph-name="glyph244" horiz-adv-x="2211" 
d="M522 1284v-1134h275v-150h-715v150h272v1134h-264v150h698v-150h-266zM1892 1434h168l-8 -840q0 -151 -39 -264q-41 -118 -117 -197t-188 -123q-112 -41 -254 -41q-95 0 -190 29q-82 22 -162 76q-73 49 -125 116q-53 68 -80 148l166 45q44 -124 149 -190q109 -68 246 -68
q213 0 324 123q110 122 110 336v850z" />
    <glyph glyph-name="glyph245" horiz-adv-x="2213" 
d="M522 1284v-1134h275v-150h-715v150h272v1134h-264v150h698v-150h-266zM1241 1434h821l-8 -840q0 -151 -39 -264q-41 -118 -117 -197t-188 -123q-112 -41 -254 -41q-95 0 -190 29q-82 22 -162 76q-73 49 -125 116q-53 68 -80 148l166 45q44 -124 149 -190q109 -68 246 -68
q213 0 324 123q110 122 110 336v692h-653v158z" />
    <glyph glyph-name="glyph246" horiz-adv-x="1867" 
d="M182 0v1434h168v-1434h-168zM895 1434h821l-8 -840q0 -151 -39 -264q-41 -118 -117 -197t-188 -123q-112 -41 -254 -41q-95 0 -190 29q-82 22 -162 76q-73 49 -125 116q-53 68 -80 148l166 45q44 -124 149 -190q109 -68 246 -68q213 0 324 123q110 122 110 336v692h-653
v158z" />
    <glyph glyph-name="glyph247" horiz-adv-x="894" 
d="M750 1724l-449 -213l-53 95l440 237zM530 150h275v-150h-715v150h272v1134h-264v150h699v-150h-267v-1134z" />
    <glyph glyph-name="glyph248" horiz-adv-x="894" 
d="M444 1735l-256 -215l-86 88l342 288l340 -288l-84 -88zM530 150h275v-150h-715v150h272v1134h-264v150h699v-150h-267v-1134z" />
    <glyph glyph-name="glyph249" horiz-adv-x="894" 
d="M199 1567h-2q-44 0 -72 28q-29 29 -29 72q0 39 29 68q28 28 72 28q40 0 71 -28t31 -68q0 -44 -31 -72t-69 -28zM684 1567h-2q-39 0 -70 28q-30 27 -30 72q0 41 30 68q31 28 72 28q44 0 72 -28t28 -68q0 -44 -28 -72t-72 -28zM530 150h275v-150h-715v150h272v1134h-264
v150h699v-150h-267v-1134z" />
    <glyph glyph-name="glyph250" horiz-adv-x="894" 
d="M449 1567l-3 -2q-38 0 -69 28t-31 68q0 41 31 72q30 30 72 30q40 0 67 -30q29 -32 29 -70q0 -39 -29 -68q-28 -28 -67 -28zM530 150h275v-150h-715v150h272v1134h-264v150h699v-150h-267v-1134z" />
    <glyph glyph-name="glyph251" horiz-adv-x="894" 
d="M614 1606l-53 -95l-448 213l63 119zM530 150h275v-150h-715v150h272v1134h-264v150h699v-150h-267v-1134z" />
    <glyph glyph-name="glyph252" horiz-adv-x="894" 
d="M797 1726v-131h-699v131h699zM530 150h275v-150h-715v150h272v1134h-264v150h699v-150h-267v-1134z" />
    <glyph glyph-name="glyph253" horiz-adv-x="894" 
d="M805 0h-377l-4 -8q-48 0 -98 -12q-47 -11 -90 -37q-41 -25 -66 -66q-25 -42 -25 -98q0 -68 48 -119q46 -49 133 -49q86 0 135 43t76 102l96 -53q-41 -85 -117 -141q-77 -56 -190 -56q-68 0 -123 21t-94 57q-43 39 -62 88q-22 55 -22 113q0 72 26 125q27 56 70 90h-31v150
h272v1134h-264v150h699v-150h-267v-1134h275v-150z" />
    <glyph glyph-name="glyph254" horiz-adv-x="1341" 
d="M369 1434h821l-8 -840q0 -151 -39 -264q-41 -118 -117 -197t-188 -123q-112 -41 -254 -41q-96 0 -191 29q-82 22 -162 76q-73 49 -125 116q-51 66 -79 148l166 45q44 -124 149 -190q109 -68 246 -68q212 0 323 123t111 336v692h-653v158z" />
    <glyph glyph-name="glyph255" horiz-adv-x="1341" 
d="M762 1735l-256 -215l-86 88l342 288l340 -288l-86 -88zM369 1434h821l-8 -840q0 -151 -39 -264q-41 -118 -117 -197t-188 -123q-112 -41 -254 -41q-96 0 -191 29q-82 22 -162 76q-73 49 -125 116q-51 66 -79 148l166 45q44 -124 149 -190q109 -68 246 -68q212 0 323 123
t111 336v692h-653v158z" />
    <glyph glyph-name="glyph256" horiz-adv-x="1556" 
d="M1198 1434h168l2 -1436h-168v545l-577 454q-12 10 -47 39.5t-54 44.5q-16 13 -44.5 37.5t-41.5 34.5l-57 49l-21 19h-2l2 -27v-74v-104v-123v-893h-168v1434h160l484 -387q20 -15 133 -113q59 -51 116 -98q28 -23 84 -68l33 -25h2q0 31 -2 88t-2 218v385z" />
    <glyph glyph-name="glyph257" horiz-adv-x="1556" 
d="M895 1915l127 -72l-221 -344l-109 64zM1198 1434h168v-1436h-158l-637 856q-69 95 -86 119q-35 48 -67 96q-6 10 -21.5 32.5t-21.5 31.5l-17 24h-2v-31v-86v-129v-159v-752h-168v1434h158l637 -856q74 -102 78 -107q63 -88 67 -94q11 -17 50 -68l18 -24h2v32v89v126v148
v754z" />
    <glyph glyph-name="glyph258" horiz-adv-x="1556" 
d="M907 1915l127 -72l-221 -344l-108 64zM1198 1434h168l2 -1436h-168v545l-577 454q-12 10 -47 39.5t-54 44.5q-16 13 -44.5 37.5t-41.5 34.5l-57 49l-21 19h-2l2 -27v-74v-104v-123v-893h-168v1434h160l484 -387q20 -15 133 -113q59 -51 116 -98q28 -23 84 -68l33 -25h2
q0 31 -2 88t-2 218v385z" />
    <glyph glyph-name="glyph259" horiz-adv-x="1556" 
d="M1034 1839l62 -119l-449 -213l-53 95zM1198 1434h168l2 -1436h-168v545l-577 454q-12 10 -47 39.5t-54 44.5q-16 13 -44.5 37.5t-41.5 34.5l-57 49l-21 19h-2l2 -27v-74v-104v-123v-893h-168v1434h160l484 -387q20 -15 133 -113q59 -51 116 -98q28 -23 84 -68l33 -25h2
q0 31 -2 88t-2 218v385z" />
    <glyph glyph-name="glyph260" horiz-adv-x="1556" 
d="M1366 1434h-168l-10 -385q-2 -98 2 -218q2 -57 2 -88h-2l-31 27q-56 45 -84 68q-84 69 -117 98q-113 97 -133 113l-483 387h-160v-1434h168v893v123v104v74v29h2l23 -19l57 -49q13 -10 41.5 -34.5t44.5 -37.5q9 -8 46 -37.5t57 -46.5l577 -454v-547h168v1434zM793 1491
l-342 289l86 88l256 -215l256 215l84 -88z" />
    <glyph glyph-name="glyph261" horiz-adv-x="1556" 
d="M1190 1432h168l2 -1436h-168v545l-578 454q-16 13 -49 41t-51 43q-16 13 -44.5 37.5t-41.5 34.5l-57 49l-21 19h-2l2 -27q1 -8 1 -19t-0.5 -27.5t-0.5 -27.5v-104v-123v-891h-168v1432h160l483 -388q33 -26 133 -112q33 -29 117 -98q28 -23 84 -68l33 -25h2q0 31 -2 88
t-2 218v385zM776 -281l21 9h-29q-28 0 -55 24q-29 26 -29 70t31 72t71 28q43 0 72 -33q31 -36 31 -86q0 -94 -49 -176q-52 -87 -107 -139h-71q22 22 43 49q17 22 36 60q17 33 25 61q10 33 10 61z" />
    <glyph glyph-name="glyph262" horiz-adv-x="1556" 
d="M1024 1759h135l4 -4q0 -43 -16 -86q-15 -40 -45 -67q-31 -28 -74 -43q-49 -17 -92 -17q-42 0 -82 19q-30 14 -68 41q-34 24 -61 40q-32 19 -63 19q-47 0 -74 -27q-29 -29 -29 -67h-135q0 93 63 153q65 62 162 62q46 0 86 -19q30 -14 68 -41q50 -35 59 -41q27 -18 62 -18
q42 0 71 29t29 67zM1198 1434h168l2 -1436h-168v545l-577 454q-12 10 -47 39.5t-54 44.5q-16 13 -44.5 37.5t-41.5 34.5l-57 49l-21 19h-2l2 -27v-74v-104v-123v-893h-168v1434h160l484 -387q20 -15 133 -113q59 -51 116 -98q28 -23 84 -68l33 -25h2q0 31 -2 88t-2 218v385z
" />
    <glyph glyph-name="glyph263" horiz-adv-x="1667" 
d="M944 1913l127 -72l-221 -344l-109 64zM84 715l-6 -4q0 162 59 301t160 237q100 97 238 154q134 55 288 55q155 0 289 -55q138 -57 238 -154q101 -98 159 -235q60 -142 60 -301q0 -164 -58 -301q-59 -139 -159 -236q-99 -96 -238 -153q-139 -54 -289 -54q-149 0 -288 54
q-136 56 -236 153t-160 238q-57 134 -57 301zM262 717l-6 -2q0 -129 43 -236q42 -105 121 -184q74 -74 182 -119q104 -43 227 -43q122 0 226 43q108 45 182 119q79 79 121 184q43 107 43 238q0 132 -43 239t-121 185q-76 76 -180 119t-226 43q-123 0 -227 -43t-180 -119
q-74 -74 -119 -185q-43 -107 -43 -239z" />
    <glyph glyph-name="glyph264" horiz-adv-x="1701" 
d="M1446 164h162l-6 -168h-783q-160 0 -289 53q-134 55 -233 154q-101 101 -158 233t-57 295q0 159 59 295t160 234q100 97 236 153q134 55 288 55q155 0 289 -55q139 -57 238 -153t159 -234t60 -295q0 -94 -25 -186q-24 -87 -71 -162q-45 -71 -111 -131q-62 -56 -141 -98
l2 -2q3 0 55 6t166 6zM262 731h-4q0 -127 43 -231q42 -103 121 -178q78 -75 182 -115q106 -41 223 -41q116 0 222 41q104 40 182 115q77 74 123 178q45 102 45 231q0 132 -45 234q-46 104 -123 178q-78 74 -180 114q-106 41 -222 41q-117 0 -223 -41q-102 -40 -180 -114
q-79 -75 -121 -178q-43 -104 -43 -234z" />
    <glyph glyph-name="glyph265" horiz-adv-x="1220" 
d="M711 1911l127 -72l-222 -344l-108 64zM1120 1079l-159 -43l-21 -8q-12 62 -43 117q-28 48 -80 88q-50 38 -106 55q-62 19 -127 19q-143 0 -232 -62q-90 -63 -90 -170q0 -57 35 -98t90 -68q62 -30 125 -49q24 -7 70.5 -21.5t70.5 -21.5q58 -16 160 -53q83 -30 154 -80
q70 -49 116 -119q47 -71 47 -176q0 -93 -36 -166q-37 -75 -105 -131q-67 -55 -164 -86q-101 -29 -215 -29q-108 0 -209 29q-92 29 -161 86q-64 53 -113 133q-46 75 -61 166l161 43q8 -57 37 -119q24 -53 78 -100q50 -44 117 -68q68 -24 157 -24q160 0 252 74q93 75 93 188
q0 78 -43 127q-44 51 -107 84q-62 33 -145 55q-39 10 -156 47q-57 17 -131 45q-66 25 -131 68q-61 40 -101 104q-38 61 -38 156q0 86 36 154q37 69 103 123q62 51 158 82q92 30 200 30q103 0 185 -26t153 -78q64 -47 113 -121q44 -67 63 -156z" />
    <glyph glyph-name="glyph266" horiz-adv-x="1343" 
d="M1311 1434l-520 -680l251 -4v-140h-297v-612h-165v612h-291v140h254l-518 680h190l360 -469q5 -6 15.5 -18.5t15.5 -18.5q25 -30 29 -35q3 -4 11 -13t11 -14l11 -10h2l10 12q18 24 22 29t29 35q22 26 29 37l358 469h193z" />
    <glyph glyph-name="glyph267" horiz-adv-x="1343" 
d="M965 1720l-449 -213l-53 95l440 237zM1311 1434l-520 -680l251 -4v-140h-297v-612h-165v612h-291v140h254l-518 680h190l360 -469q5 -6 15.5 -18.5t15.5 -18.5q25 -30 29 -35q3 -4 11 -13t11 -14l11 -10h2l10 12q18 24 22 29t29 35q22 26 29 37l358 469h193z" />
    <glyph glyph-name="glyph268" horiz-adv-x="1343" 
d="M659 1731l-256 -215l-86 88l342 288l340 -288l-84 -88zM1311 1434l-520 -680l251 -4v-140h-297v-612h-165v612h-291v140h254l-518 680h190l360 -469q5 -6 15.5 -18.5t15.5 -18.5q25 -30 29 -35q3 -4 11 -13t11 -14l11 -10h2l10 12q18 24 22 29t29 35q22 26 29 37l358 469
h193z" />
    <glyph glyph-name="glyph269" horiz-adv-x="1343" 
d="M414 1563h-2q-44 0 -72 28q-29 29 -29 72q0 39 29 68q28 28 72 28q40 0 71 -28t31 -68q0 -44 -31 -72t-69 -28zM899 1563h-2q-39 0 -70 28q-30 27 -30 72q0 41 30 68q31 28 72 28q44 0 72 -28t28 -68q0 -44 -28 -72t-72 -28zM1311 1434l-520 -680l251 -4v-140h-297v-612
h-165v612h-291v140h254l-518 680h190l360 -469q5 -6 15.5 -18.5t15.5 -18.5q25 -30 29 -35q3 -4 11 -13t11 -14l11 -10h2l10 12q18 24 22 29t29 35q22 26 29 37l358 469h193z" />
    <glyph glyph-name="glyph270" horiz-adv-x="1343" 
d="M829 1602l-53 -95l-448 213l63 119zM1311 1434l-520 -680l251 -4v-140h-297v-612h-165v612h-291v140h254l-518 680h190l360 -469q5 -6 15.5 -18.5t15.5 -18.5q25 -30 29 -35q3 -4 11 -13t11 -14l11 -10h2l10 12q18 24 22 29t29 35q22 26 29 37l358 469h193z" />
    <glyph glyph-name="glyph271" horiz-adv-x="1413" 
d="M825 1915l127 -72l-221 -344l-108 64zM1290 1434v-156l-841 -1010q-62 -70 -76 -84q-31 -31 -31 -32l2 -2q1 0 7 0.5t19.5 1.5t28.5 2q70 4 129 4h760v-158h-1167v156l852 1011q10 12 35 37q6 6 17.5 18t16.5 17t15 14t14 13l12 12l-2 2q-20 0 -55 -2t-131 -2h-752v158
h1147z" />
    <glyph glyph-name="glyph272" horiz-adv-x="1558" 
d="M924 1921l127 -72l-222 -344l-108 64zM1485 1085l-170 -43l-12 2q-75 122 -203 189t-279 67q-123 0 -227 -43q-106 -44 -180 -118t-119 -185q-43 -107 -43 -235q0 -129 43 -236q42 -105 121 -184q74 -74 182 -119q104 -43 225 -43q165 0 301 80q137 81 207 215l166 -45
q-49 -99 -113 -172q-65 -74 -153 -131t-189 -84q-105 -31 -215 -31q-149 0 -288 54q-136 56 -236 153t-160 238q-57 134 -57 301q0 162 59 301t160 237q100 97 238 154q134 55 288 55q108 0 203 -26q103 -28 183 -76q87 -52 151 -119q68 -71 117 -156z" />
    <glyph glyph-name="glyph273" horiz-adv-x="1341" 
d="M369 1434h821l-8 -840q0 -151 -39 -264q-41 -118 -117 -197t-188 -123q-112 -41 -254 -41q-96 0 -191 29q-82 22 -162 76q-73 49 -125 116q-51 66 -79 148l166 45q44 -124 149 -190q109 -68 246 -68q212 0 323 123t111 336v692h-653v158z" />
    <glyph glyph-name="glyph274" horiz-adv-x="894" 
d="M530 150h275v-150h-715v150h272v1134h-264v150h699v-150h-267v-1134z" />
    <glyph glyph-name="glyph275" horiz-adv-x="894" 
d="M750 1724l-449 -213l-53 95l440 237zM530 150h275v-150h-715v150h272v1134h-264v150h699v-150h-267v-1134z" />
    <glyph glyph-name="glyph276" horiz-adv-x="894" 
d="M444 1735l-256 -215l-86 88l342 288l340 -288l-84 -88zM530 150h275v-150h-715v150h272v1134h-264v150h699v-150h-267v-1134z" />
    <glyph glyph-name="glyph277" horiz-adv-x="894" 
d="M199 1567h-2q-44 0 -72 28q-29 29 -29 72q0 39 29 68q28 28 72 28q40 0 71 -28t31 -68q0 -44 -31 -72t-69 -28zM684 1567h-2q-39 0 -70 28q-30 27 -30 72q0 41 30 68q31 28 72 28q44 0 72 -28t28 -68q0 -44 -28 -72t-72 -28zM530 150h275v-150h-715v150h272v1134h-264
v150h699v-150h-267v-1134z" />
    <glyph glyph-name="glyph278" horiz-adv-x="894" 
d="M449 1567l-3 -2q-38 0 -69 28t-31 68q0 41 31 72q30 30 72 30q40 0 67 -30q29 -32 29 -70q0 -39 -29 -68q-28 -28 -67 -28zM530 150h275v-150h-715v150h272v1134h-264v150h699v-150h-267v-1134z" />
    <glyph glyph-name="glyph279" horiz-adv-x="894" 
d="M614 1606l-53 -95l-448 213l63 119zM530 150h275v-150h-715v150h272v1134h-264v150h699v-150h-267v-1134z" />
    <glyph glyph-name="glyph280" horiz-adv-x="2211" 
d="M522 1284v-1134h275v-150h-715v150h272v1134h-264v150h698v-150h-266zM1892 1434h168l-8 -840q0 -151 -39 -264q-41 -118 -117 -197t-188 -123q-112 -41 -254 -41q-95 0 -190 29q-82 22 -162 76q-73 49 -125 116q-53 68 -80 148l166 45q44 -124 149 -190q109 -68 246 -68
q213 0 324 123q110 122 110 336v850z" />
    <glyph glyph-name="glyph281" horiz-adv-x="2213" 
d="M522 1284v-1134h275v-150h-715v150h272v1134h-264v150h698v-150h-266zM1241 1434h821l-8 -840q0 -151 -39 -264q-41 -118 -117 -197t-188 -123q-112 -41 -254 -41q-95 0 -190 29q-82 22 -162 76q-73 49 -125 116q-53 68 -80 148l166 45q44 -124 149 -190q109 -68 246 -68
q213 0 324 123q110 122 110 336v692h-653v158z" />
    <glyph glyph-name="glyph282" horiz-adv-x="1867" 
d="M182 0v1434h168v-1434h-168zM895 1434h821l-8 -840q0 -151 -39 -264q-41 -118 -117 -197t-188 -123q-112 -41 -254 -41q-95 0 -190 29q-82 22 -162 76q-73 49 -125 116q-53 68 -80 148l166 45q44 -124 149 -190q109 -68 246 -68q213 0 324 123q110 122 110 336v692h-653
v158z" />
    <glyph glyph-name="glyph283" horiz-adv-x="894" 
d="M797 1726v-131h-699v131h699zM530 150h275v-150h-715v150h272v1134h-264v150h699v-150h-267v-1134z" />
    <glyph glyph-name="glyph284" horiz-adv-x="894" 
d="M805 0h-377l-4 -8q-48 0 -98 -12q-47 -11 -90 -37q-41 -25 -66 -66q-25 -42 -25 -98q0 -68 48 -119q46 -49 133 -49q86 0 135 43t76 102l96 -53q-41 -85 -117 -141q-77 -56 -190 -56q-68 0 -123 21t-94 57q-43 39 -62 88q-22 55 -22 113q0 72 26 125q27 56 70 90h-31v150
h272v1134h-264v150h699v-150h-267v-1134h275v-150z" />
    <glyph glyph-name="glyph285" horiz-adv-x="1341" 
d="M369 1434h821l-8 -840q0 -151 -39 -264q-41 -118 -117 -197t-188 -123q-112 -41 -254 -41q-96 0 -191 29q-82 22 -162 76q-73 49 -125 116q-51 66 -79 148l166 45q44 -124 149 -190q109 -68 246 -68q212 0 323 123t111 336v692h-653v158z" />
    <glyph glyph-name="glyph286" horiz-adv-x="1341" 
d="M762 1735l-256 -215l-86 88l342 288l340 -288l-84 -88zM369 1434h821l-8 -840q0 -151 -39 -264q-41 -118 -117 -197t-188 -123q-112 -41 -254 -41q-96 0 -191 29q-82 22 -162 76q-73 49 -125 116q-51 66 -79 148l166 45q44 -124 149 -190q109 -68 246 -68q212 0 323 123
t111 336v692h-653v158z" />
    <glyph glyph-name="glyph287" horiz-adv-x="1556" 
d="M1198 1434h168l2 -1436h-168v545l-577 454q-12 10 -47 39.5t-54 44.5q-16 13 -44.5 37.5t-41.5 34.5l-57 49l-21 19h-2l2 -27v-74v-104v-123v-893h-168v1434h160l484 -387q20 -15 133 -113q59 -51 116 -98q28 -23 84 -68l33 -25h2q0 31 -2 88t-2 218v385z" />
    <glyph glyph-name="glyph288" horiz-adv-x="1556" 
d="M895 1915l127 -72l-221 -344l-109 64zM1198 1434h168v-1436h-158l-637 856q-69 95 -86 119q-35 48 -67 96q-6 10 -21.5 32.5t-21.5 31.5l-17 24h-2v-31v-86v-129v-159v-752h-168v1434h158l637 -856q74 -102 78 -107q63 -88 67 -94q11 -17 50 -68l18 -24h2v32v89v126v148
v754z" />
    <glyph glyph-name="glyph289" horiz-adv-x="1556" 
d="M907 1915l127 -72l-221 -344l-108 64zM1198 1434h168l2 -1436h-168v545l-577 454q-12 10 -47 39.5t-54 44.5q-16 13 -44.5 37.5t-41.5 34.5l-57 49l-21 19h-2l2 -27v-74v-104v-123v-893h-168v1434h160l484 -387q20 -15 133 -113q59 -51 116 -98q28 -23 84 -68l33 -25h2
q0 31 -2 88t-2 218v385z" />
    <glyph glyph-name="glyph290" horiz-adv-x="1556" 
d="M1034 1839l62 -119l-449 -213l-53 95zM1198 1434h168l2 -1436h-168v545l-577 454q-12 10 -47 39.5t-54 44.5q-16 13 -44.5 37.5t-41.5 34.5l-57 49l-21 19h-2l2 -27v-74v-104v-123v-893h-168v1434h160l484 -387q20 -15 133 -113q59 -51 116 -98q28 -23 84 -68l33 -25h2
q0 31 -2 88t-2 218v385z" />
    <glyph glyph-name="glyph291" horiz-adv-x="1556" 
d="M1366 1434h-168l-10 -385q-2 -98 2 -218q2 -57 2 -88h-2l-31 27q-56 45 -84 68q-84 69 -117 98q-113 97 -133 113l-483 387h-160v-1434h168v893v123v104v74v29h2l23 -19l57 -49q13 -10 41.5 -34.5t44.5 -37.5q9 -8 46 -37.5t57 -46.5l577 -454v-547h168v1434zM793 1491
l-342 289l86 88l256 -215l256 215l84 -88z" />
    <glyph glyph-name="glyph292" horiz-adv-x="1556" 
d="M1190 1432h168l2 -1436h-168v545l-578 454q-16 13 -49 41t-51 43q-16 13 -44.5 37.5t-41.5 34.5l-57 49l-21 19h-2l2 -27q1 -8 1 -19t-0.5 -27.5t-0.5 -27.5v-104v-123v-891h-168v1432h160l483 -388q33 -26 133 -112q33 -29 117 -98q28 -23 84 -68l33 -25h2q0 31 -2 88
t-2 218v385zM776 -281l21 9h-29q-28 0 -55 24q-29 26 -29 70t31 72t71 28q43 0 72 -33q31 -36 31 -86q0 -94 -49 -176q-52 -87 -107 -139h-71q22 22 43 49q17 22 36 60q17 33 25 61q10 33 10 61z" />
    <glyph glyph-name="glyph293" horiz-adv-x="1556" 
d="M1024 1759h135l4 -4q0 -43 -16 -86q-15 -40 -45 -67q-31 -28 -74 -43q-49 -17 -92 -17q-42 0 -82 19q-30 14 -68 41q-34 24 -61 40q-32 19 -63 19q-47 0 -74 -27q-29 -29 -29 -67h-135q0 93 63 153q65 62 162 62q46 0 86 -19q30 -14 68 -41q50 -35 59 -41q27 -18 62 -18
q42 0 71 29t29 67zM1198 1434h168l2 -1436h-168v545l-577 454q-12 10 -47 39.5t-54 44.5q-16 13 -44.5 37.5t-41.5 34.5l-57 49l-21 19h-2l2 -27v-74v-104v-123v-893h-168v1434h160l484 -387q20 -15 133 -113q59 -51 116 -98q28 -23 84 -68l33 -25h2q0 31 -2 88t-2 218v385z
" />
    <glyph glyph-name="glyph294" horiz-adv-x="1667" 
d="M944 1913l127 -72l-221 -344l-109 64zM84 715l-6 -4q0 162 59 301t160 237q100 97 238 154q134 55 288 55q155 0 289 -55q138 -57 238 -154q101 -98 159 -235q60 -142 60 -301q0 -164 -58 -301q-59 -139 -159 -236q-99 -96 -238 -153q-139 -54 -289 -54q-149 0 -288 54
q-136 56 -236 153t-160 238q-57 134 -57 301zM262 717l-6 -2q0 -129 43 -236q42 -105 121 -184q74 -74 182 -119q104 -43 227 -43q122 0 226 43q108 45 182 119q79 79 121 184q43 107 43 238q0 132 -43 239t-121 185q-76 76 -180 119t-226 43q-123 0 -227 -43t-180 -119
q-74 -74 -119 -185q-43 -107 -43 -239z" />
    <glyph glyph-name="glyph295" horiz-adv-x="1701" 
d="M1446 164h162l-6 -168h-783q-160 0 -289 53q-134 55 -233 154q-101 101 -158 233t-57 295q0 159 59 295t160 234q100 97 236 153q134 55 288 55q155 0 289 -55q139 -57 238 -153t159 -234t60 -295q0 -94 -25 -186q-24 -87 -71 -162q-45 -71 -111 -131q-62 -56 -141 -98
l2 -2q3 0 55 6t166 6zM262 731h-4q0 -127 43 -231q42 -103 121 -178q78 -75 182 -115q106 -41 223 -41q116 0 222 41q104 40 182 115q77 74 123 178q45 102 45 231q0 132 -45 234q-46 104 -123 178q-78 74 -180 114q-106 41 -222 41q-117 0 -223 -41q-102 -40 -180 -114
q-79 -75 -121 -178q-43 -104 -43 -234z" />
    <glyph glyph-name="glyph296" horiz-adv-x="1220" 
d="M711 1911l127 -72l-222 -344l-108 64zM1120 1079l-159 -43l-21 -8q-12 62 -43 117q-28 48 -80 88q-50 38 -106 55q-62 19 -127 19q-143 0 -232 -62q-90 -63 -90 -170q0 -57 35 -98t90 -68q62 -30 125 -49q24 -7 70.5 -21.5t70.5 -21.5q58 -16 160 -53q83 -30 154 -80
q70 -49 116 -119q47 -71 47 -176q0 -93 -36 -166q-37 -75 -105 -131q-67 -55 -164 -86q-101 -29 -215 -29q-108 0 -209 29q-92 29 -161 86q-64 53 -113 133q-46 75 -61 166l161 43q8 -57 37 -119q24 -53 78 -100q50 -44 117 -68q68 -24 157 -24q160 0 252 74q93 75 93 188
q0 78 -43 127q-44 51 -107 84q-62 33 -145 55q-39 10 -156 47q-57 17 -131 45q-66 25 -131 68q-61 40 -101 104q-38 61 -38 156q0 86 36 154q37 69 103 123q62 51 158 82q92 30 200 30q103 0 185 -26t153 -78q64 -47 113 -121q44 -67 63 -156z" />
    <glyph glyph-name="glyph297" horiz-adv-x="1343" 
d="M1311 1434l-520 -680l251 -4v-140h-297v-612h-165v612h-291v140h254l-518 680h190l360 -469q5 -6 15.5 -18.5t15.5 -18.5q25 -30 29 -35q3 -4 11 -13t11 -14l11 -10h2l10 12q18 24 22 29t29 35q22 26 29 37l358 469h193z" />
    <glyph glyph-name="glyph298" horiz-adv-x="1343" 
d="M965 1720l-449 -213l-53 95l440 237zM1311 1434l-520 -680l251 -4v-140h-297v-612h-165v612h-291v140h254l-518 680h190l360 -469q5 -6 15.5 -18.5t15.5 -18.5q25 -30 29 -35q3 -4 11 -13t11 -14l11 -10h2l10 12q18 24 22 29t29 35q22 26 29 37l358 469h193z" />
    <glyph glyph-name="glyph299" horiz-adv-x="1343" 
d="M659 1731l-256 -215l-86 88l342 288l340 -288l-84 -88zM1311 1434l-520 -680l251 -4v-140h-297v-612h-165v612h-291v140h254l-518 680h190l360 -469q5 -6 15.5 -18.5t15.5 -18.5q25 -30 29 -35q3 -4 11 -13t11 -14l11 -10h2l10 12q18 24 22 29t29 35q22 26 29 37l358 469
h193z" />
    <glyph glyph-name="glyph300" horiz-adv-x="1343" 
d="M414 1563h-2q-44 0 -72 28q-29 29 -29 72q0 39 29 68q28 28 72 28q40 0 71 -28t31 -68q0 -44 -31 -72t-69 -28zM899 1563h-2q-39 0 -70 28q-30 27 -30 72q0 41 30 68q31 28 72 28q44 0 72 -28t28 -68q0 -44 -28 -72t-72 -28zM1311 1434l-520 -680l251 -4v-140h-297v-612
h-165v612h-291v140h254l-518 680h190l360 -469q5 -6 15.5 -18.5t15.5 -18.5q25 -30 29 -35q3 -4 11 -13t11 -14l11 -10h2l10 12q18 24 22 29t29 35q22 26 29 37l358 469h193z" />
    <glyph glyph-name="glyph301" horiz-adv-x="1343" 
d="M829 1602l-53 -95l-448 213l63 119zM1311 1434l-520 -680l251 -4v-140h-297v-612h-165v612h-291v140h254l-518 680h190l360 -469q5 -6 15.5 -18.5t15.5 -18.5q25 -30 29 -35q3 -4 11 -13t11 -14l11 -10h2l10 12q18 24 22 29t29 35q22 26 29 37l358 469h193z" />
    <glyph glyph-name="glyph302" horiz-adv-x="1413" 
d="M825 1915l127 -72l-221 -344l-108 64zM1290 1434v-156l-841 -1010q-62 -70 -76 -84q-31 -31 -31 -32l2 -2q1 0 7 0.5t19.5 1.5t28.5 2q70 4 129 4h760v-158h-1167v156l852 1011q10 12 35 37q6 6 17.5 18t16.5 17t15 14t14 13l12 12l-2 2q-20 0 -55 -2t-131 -2h-752v158
h1147z" />
    <glyph glyph-name="glyph326" horiz-adv-x="1470" 
d="M731 1460l-4 -4q155 0 274 -61q123 -63 203 -162q84 -103 127 -238q43 -133 43 -284q0 -152 -43 -285q-45 -139 -125 -238q-79 -98 -202 -161q-123 -60 -273 -60q-151 0 -274 60q-122 62 -203 163q-80 99 -125 238q-43 133 -43 285q0 151 43 284q45 139 125 238
q83 102 203 164q119 61 274 61zM397 285l594 936v-4q-107 79 -258 79q-120 0 -209 -47q-87 -46 -147 -127q-58 -79 -88 -184q-31 -108 -31 -221q0 -127 35 -240q34 -110 104 -192zM1071 1149l-594 -936l-4 2q49 -35 117 -57q64 -21 141 -21q120 0 209 47q87 46 147 127
q62 85 91 185q30 105 30 221q0 134 -32 237q-35 113 -105 195z" />
    <glyph glyph-name="glyph327" horiz-adv-x="794" 
d="M393 944v-8q-86 0 -151 33q-68 35 -117 90q-50 56 -74 133q-24 76 -24 162q0 88 24 164q24 77 74 133q49 55 117 90q65 33 151 33q87 0 152 -33q71 -36 117 -88q48 -54 73 -133q25 -80 25 -162t-25 -162q-24 -76 -73 -131q-46 -52 -117 -88q-65 -33 -152 -33zM397 1069
l-4 -4q57 0 105 25q49 25 77 63q35 47 50 94q18 55 18 115q0 62 -18 115q-16 46 -50 92q-32 43 -75 65q-48 25 -105 25q-56 0 -104 -25q-47 -25 -76 -63q-33 -44 -49 -92q-19 -55 -19 -115q0 -54 19 -113q16 -50 49 -94q27 -37 78 -63q48 -25 104 -25z" />
    <glyph glyph-name="glyph328" horiz-adv-x="696" 
d="M645 1260v-103h-104v-192h-109v192h-418v82l441 526h86v-505h104zM279 1257h159l-6 175q-1 36 4 120q1 14 2 26t1.5 17.5t0.5 6.5h-2l-10 -15q-7 -13 -25 -37q-25 -35 -34 -47q-11 -15 -37 -45l-105 -121q-30 -34 -57 -55q-31 -25 -31 -27l2 -2q16 0 43 2t95 2z" />
    <glyph glyph-name="glyph329" horiz-adv-x="669" 
d="M170 1427l2 -2l-8 -2q21 24 59 47q42 25 105 25q64 0 116 -18t93 -56q40 -37 61 -86q20 -47 20 -110q0 -61 -20 -111t-61 -88q-38 -35 -93 -57q-52 -21 -114 -21q-126 0 -203 68t-92 170l108 28q9 -69 56 -116q45 -45 129 -45t133 49t49 127t-49 127t-131 49
q-60 0 -107 -29q-42 -26 -57 -61l-98 26l69 426h441v-106h-351l-20 -105q-10 -49 -25 -92q-12 -34 -12 -37z" />
    <glyph glyph-name="glyph330" horiz-adv-x="673" 
d="M455 1765l-269 -340l-2 -2q28 28 56 50q36 28 98 28q67 0 117 -20q53 -21 90 -58q40 -40 59 -88q21 -53 21 -110q0 -55 -23 -113q-20 -50 -61 -88q-38 -36 -95 -57q-56 -21 -118 -21q-66 0 -121 21t-94 57q-41 38 -64 88q-24 52 -24 117q0 79 26 141q33 80 80 139
l199 256h125zM330 1053h-4q83 0 135 49t55 127q3 80 -49 129t-137 49t-137 -49t-52 -129q0 -78 52 -127t137 -49z" />
    <glyph glyph-name="glyph331" horiz-adv-x="608" 
d="M20 1765h578v-73l-410 -729h-118l340 602q19 37 47 69q22 25 22 27l-2 2q-16 0 -43 -2t-86 -2h-328v106z" />
    <glyph glyph-name="glyph332" horiz-adv-x="653" 
d="M438 1378v-2l-10 -4q31 -7 57 -20q32 -16 58 -39t45 -60q18 -35 18 -79q0 -56 -20 -97q-20 -42 -62 -73q-47 -35 -94 -50q-55 -18 -121 -18q-63 0 -119 18q-47 15 -94 50q-40 30 -61 73t-21 97q0 43 19 79q19 37 45 60q32 29 57 41q26 13 58 20v2q-12 2 -41 17
q-28 14 -48 37t-36 55q-17 34 -17 74q0 92 74 151t190 59q61 0 107 -14q45 -14 86 -43q37 -27 55 -67q19 -43 19 -86q0 -40 -17 -74q-16 -32 -39 -55q-25 -25 -49 -37t-39 -15zM158 1567l-6 -8q0 -58 47 -93q40 -30 116 -30q80 3 121 34q47 35 47 93q0 57 -45 90
q-47 35 -119 35q-69 0 -116 -35q-45 -33 -45 -86zM135 1190l-4 -4q0 -64 53 -105q56 -43 140 -43q83 0 139 43q53 41 53 105q0 61 -53 102t-139 41q-87 0 -138 -39t-51 -100z" />
    <glyph glyph-name="glyph333" horiz-adv-x="657" 
d="M174 965l289 331l-12 2q-25 -32 -62 -51q-34 -18 -80 -18q-61 0 -116 22q-52 21 -91 60q-36 36 -57 86q-20 47 -20 108q0 58 22 113q19 49 62 88q39 36 94 57q56 21 121 21q64 0 120 -21q60 -23 97 -57q39 -37 63 -88q25 -55 25 -117q0 -91 -39 -168t-105 -155l-178 -213
h-133zM326 1679h2q-83 0 -135 -49q-53 -50 -56 -129q0 -79 51 -127q52 -49 138 -49q85 0 137 49q51 48 51 127q0 81 -51 129q-52 49 -137 49z" />
    <glyph glyph-name="glyph334" 
d="M713 1460h-8q154 0 264 -67q113 -69 182 -174t104 -240q35 -134 35 -264q0 -138 -33 -264q-35 -135 -104 -240q-70 -107 -180 -174q-114 -66 -264 -66q-151 0 -265 66q-110 67 -180 174q-69 105 -104 240q-33 126 -33 264q0 130 35 264q35 135 104 240q68 104 183 174
q110 67 264 67zM715 1298l-2 -2q-120 0 -199 -55q-80 -55 -129 -141q-50 -87 -68 -191q-18 -105 -18 -198q0 -95 18 -197q17 -99 68 -186q50 -87 129 -142t199 -55q119 0 198 55q80 56 127 142q47 87 68 188q20 97 20 197q0 98 -20 198q-21 104 -68 191t-125 141
q-79 55 -198 55z" />
    <glyph glyph-name="glyph335" 
d="M866 158h353l2 -158h-875v158h354v815v76q0 21 5 71q2 20 2 49v21h-2l-13 -12q-3 -3 -13 -13.5t-17 -17.5q-25 -25 -37 -39q-24 -28 -33 -37l-182 -180l-105 102l443 441h118v-1276z" />
    <glyph glyph-name="glyph336" 
d="M346 1038l-156 43l-4 -10q56 193 193 287q140 96 332 96q111 0 196 -33q94 -37 154 -94q62 -59 100 -143q37 -81 37 -178q0 -110 -37 -191q-38 -83 -92 -149q-53 -65 -123 -119q-21 -17 -129 -98q-43 -35 -133 -105q-89 -69 -125 -96q-63 -49 -131 -98l2 -3l8 1q9 1 27 2
t39 2q94 4 192 4h504v-156h-995v135q23 19 142 120.5t183 154.5q63 52 326 274q72 60 123 145q49 82 49 183q0 66 -24 121t-68 96t-100 61q-64 23 -129 23q-150 0 -238 -76q-89 -77 -123 -199z" />
    <glyph glyph-name="glyph337" 
d="M365 1036l-152 41l-16 -2q40 181 172 283t331 102q134 0 222 -33q97 -36 151 -88q60 -57 86 -125q29 -76 29 -141q0 -75 -27 -133q-28 -61 -69 -102q-44 -44 -99 -68q-56 -24 -112 -27v-2q65 -3 123 -24t104 -64q48 -45 74 -104q28 -64 28 -137q0 -106 -36 -185
q-38 -83 -105 -141q-68 -59 -160 -86q-95 -31 -200 -31q-98 0 -193 31q-86 25 -162 82q-67 50 -118 129q-49 75 -64 168l152 41q13 -71 45 -123q32 -51 84 -94q51 -41 114 -62q61 -20 142 -20q83 0 145 24q61 24 104 64q46 43 66 96q23 61 23 117q0 126 -95 188t-252 62
h-127v137h129q157 0 242 61q86 62 86 195q0 41 -18 84q-17 41 -56 80q-37 37 -98 61q-64 25 -149 25q-145 0 -228 -74q-81 -72 -116 -205z" />
    <glyph glyph-name="glyph338" 
d="M1268 510v-150h-195v-360h-158v360h-768v121l795 953h131v-924h195zM578 510h335l2 381v117v98v68l3 26h-3l-12 -16q-4 -5 -9 -12t-13 -17t-13 -16q-7 -9 -23.5 -30t-25.5 -32q-10 -13 -31 -38.5t-26 -32.5l-295 -351q-74 -85 -100 -112q-27 -27 -27 -31l2 -2h31h59h74
h72z" />
    <glyph glyph-name="glyph339" 
d="M410 813l2 -2l-13 2q15 21 43 43q32 25 68 41q45 20 90 31q50 12 109 12q110 0 200 -37q95 -39 160 -98q66 -60 107 -150q38 -83 38 -192q0 -108 -36 -193q-38 -88 -105 -153q-69 -66 -160 -103q-90 -34 -200 -34q-105 0 -197 28q-85 29 -156 84q-66 51 -110 123
q-44 71 -62 154l154 41q27 -124 121 -209q91 -82 250 -82q73 0 135 24q59 23 108 72q48 48 72 109q25 64 25 135q0 70 -25 137q-23 62 -72 111q-47 47 -108 71q-64 25 -135 25q-74 0 -133 -19q-56 -18 -93 -45q-39 -28 -59 -57q-24 -34 -35 -59l-145 39l125 772h766v-158
h-639l-39 -219q-18 -100 -37 -178q-14 -57 -14 -66z" />
    <glyph glyph-name="glyph340" 
d="M915 1427l-456 -602l-8 -14q39 51 108 86q68 35 172 35q115 0 205 -37q95 -39 160 -104q66 -66 104 -156q37 -87 37 -191q0 -111 -39 -196q-41 -90 -111 -154t-167 -98q-98 -37 -215 -37q-116 0 -209 37q-96 35 -166 102t-111 160q-39 88 -39 203q0 66 13 133
q12 63 36 121q24 59 62 121q44 73 86 127l354 464h184zM719 121l-4 -6q81 0 149 24q65 23 117 72q49 46 76 111q27 64 30 141q0 77 -24 139t-74 109q-47 44 -117 69t-151 25q-82 0 -152 -25q-68 -24 -116 -69q-49 -46 -76 -107q-27 -62 -27 -137q0 -77 27 -141
q27 -65 76 -111t116 -70t150 -24z" />
    <glyph glyph-name="glyph341" 
d="M225 1434h1022l-4 -109l-747 -1329h-181l603 1061q3 5 47 80q9 15 23.5 38t19.5 31q24 40 30 49l13 19l-2 2h-19h-47h-61h-64h-633v158z" />
    <glyph glyph-name="glyph342" 
d="M901 762v-2l-4 -2q60 -8 125 -37q61 -27 111 -74q49 -46 79 -110q31 -67 31 -144q0 -98 -39 -172q-42 -80 -110 -133q-72 -57 -168 -86q-106 -29 -217 -29t-217 29q-96 29 -168 86q-70 55 -111 133q-39 74 -39 172q0 79 31 146q29 62 80 110t110 74q68 30 125 35v2
q-32 3 -82 24q-47 20 -92 62t-74 98q-30 58 -30 135q0 79 34 146q35 68 97 121q59 50 147 81t191 31q102 0 190 -31q90 -32 148 -81q62 -53 96 -119q35 -68 35 -146q0 -75 -31 -135q-29 -57 -76 -98q-49 -42 -92 -62q-47 -21 -80 -24zM387 1077q0 -52 25 -100q24 -46 67 -76
q45 -31 103 -49t129 -18t129 18q56 17 102 49q43 30 68 78q24 47 24 98q0 57 -24 103q-23 44 -68 80q-45 35 -102 53q-58 18 -129 18t-129 -18q-59 -18 -103 -53t-67 -80q-25 -48 -25 -103zM340 399l-4 -2q0 -138 100 -213q107 -80 277 -80q171 0 276 82q101 79 101 213
q0 129 -101 205t-272 76q-176 0 -277 -76q-100 -75 -100 -205z" />
    <glyph glyph-name="glyph343" 
d="M422 0l516 602l-14 2q-55 -62 -125 -90q-76 -31 -160 -31q-124 0 -217 37q-95 38 -160 103q-63 63 -98 153q-33 85 -33 191q0 111 41 204q40 90 115 156q72 63 172 98t213 35q116 0 211 -33q100 -35 172 -98q73 -64 116 -155q43 -90 43 -213q0 -74 -14 -134
q-15 -66 -49 -135q-35 -72 -86 -149q-53 -79 -129 -168l-322 -375h-192zM674 1313h2q-74 0 -141 -21q-69 -21 -119 -63q-52 -43 -82 -111q-31 -70 -31 -155q0 -87 31 -154q28 -61 84 -107q50 -42 119 -63q67 -21 141 -21q71 0 145 23q65 20 117 66q53 47 78 106
q29 69 29 148q0 87 -31 157q-30 68 -82 111q-50 42 -119 63q-67 21 -141 21z" />
    <glyph glyph-name="glyph344" 
d="M709 1462h-9q155 0 265 -67q113 -69 182 -174t104 -240q35 -134 35 -264q0 -138 -33 -264q-35 -135 -104 -240q-70 -107 -180 -174q-114 -66 -264 -66q-151 0 -265 66q-110 67 -180 174q-69 105 -104 240q-33 126 -33 264q0 130 35 264q35 135 104 240t182 174
q110 67 265 67zM403 297l564 893l-2 4q-47 47 -109 74q-64 28 -145 28q-120 0 -199 -55q-80 -55 -129 -141q-50 -87 -68 -191q-18 -105 -18 -198q0 -99 25 -215q25 -114 81 -199zM1038 1106l-561 -885l-4 -4q46 -40 105 -61q64 -23 135 -23q119 0 198 55q80 56 127 142
q47 87 68 188q20 97 20 197t-20 200q-21 104 -68 191z" />
    <glyph glyph-name="glyph345" horiz-adv-x="786" 
d="M399 1448v-8q87 0 152 -33q71 -36 117 -88q48 -54 73 -133q25 -80 25 -162t-25 -162q-24 -76 -73 -131q-46 -52 -117 -88q-65 -33 -152 -33q-86 0 -151 33q-68 35 -117 90q-50 56 -74 133q-24 76 -24 162q0 88 24 164q24 77 74 133q49 55 117 90q65 33 151 33zM219 823
l299 471l2 -2q-53 35 -121 35q-57 0 -104 -24q-46 -24 -76 -64q-33 -44 -49 -92q-18 -53 -18 -115q0 -127 67 -209zM578 1241l-299 -471q50 -33 116 -33q57 0 105 25q51 26 78 63q32 44 49 95q18 56 18 114q0 62 -18 115q-17 48 -49 92z" />
    <glyph glyph-name="glyph346" horiz-adv-x="786" 
d="M399 807v-8q87 0 152 -33q71 -36 117 -88q48 -54 73 -133q25 -80 25 -162t-25 -162q-24 -76 -73 -131q-46 -52 -117 -88q-70 -31 -152 -31q-81 0 -151 31q-68 34 -117 90q-50 56 -74 133t-24 162q0 88 24 164q24 77 74 133q49 56 117 90q65 33 151 33zM219 182l299 471
l2 -2q-53 35 -121 35q-57 0 -104 -24q-46 -24 -76 -64q-33 -44 -49 -92q-18 -52 -18 -115q0 -127 67 -209zM578 600l-299 -471q50 -33 116 -33q57 0 105 25q51 26 78 63q32 44 49 95q18 55 18 114q0 63 -18 115q-17 48 -49 92z" />
    <glyph glyph-name="glyph347" horiz-adv-x="786" 
d="M399 1780v-8q87 0 152 -33q71 -36 117 -88q48 -54 73 -133q25 -80 25 -162t-25 -162q-24 -76 -73 -131q-46 -52 -117 -88q-65 -33 -152 -33q-86 0 -151 33q-68 35 -117 90q-50 56 -74 133q-24 76 -24 162q0 88 24 164q24 77 74 133q49 55 117 90q65 33 151 33zM219 1155
l299 471l2 -2q-53 35 -121 35q-56 0 -104 -25q-47 -25 -76 -63q-33 -44 -49 -92q-18 -53 -18 -115q0 -127 67 -209zM578 1573l-299 -471q50 -33 116 -33q57 0 105 25q51 26 78 63q33 44 49 94q18 55 18 115q0 62 -18 115q-17 48 -49 92z" />
    <glyph glyph-name="glyph348" horiz-adv-x="794" 
d="M393 -18v-9q-81 0 -151 31q-68 34 -117 90q-50 56 -74 133t-24 162q0 88 24 164q24 77 74 133q49 56 117 90q65 33 151 33q87 0 152 -33q71 -36 117 -88q48 -54 73 -133q25 -80 25 -162t-25 -162q-24 -76 -73 -131q-46 -52 -117 -88q-67 -30 -152 -30zM397 104l-4 -4
q57 0 105 25q49 25 77 63q34 46 50 95q18 55 18 114q0 63 -18 115q-16 46 -50 92q-33 44 -75 66q-46 24 -105 24q-57 0 -104 -24q-46 -24 -76 -64q-33 -44 -49 -92q-19 -55 -19 -115q0 -53 19 -112q16 -50 49 -94q28 -38 78 -64q48 -25 104 -25z" />
    <glyph glyph-name="glyph349" horiz-adv-x="454" 
d="M295 801h82l-6 -803h-119v473q0 33 2 53q4 40 6 58q4 33 6 47l2 20h-2q-2 0 -20 -24q-21 -28 -45 -52l-97 -94l-75 70z" />
    <glyph glyph-name="glyph350" horiz-adv-x="673" 
d="M199 94l2 -2l-4 8q1 0 3.5 0.5t8 1.5t10.5 2q32 5 47 7q25 3 62 6q23 2 71 2h219v-107h-567v84l328 262q51 42 90 97q37 52 37 110q0 66 -49 109t-121 43q-89 0 -131 -45q-43 -46 -64 -117l-108 29q26 112 108 178q80 65 195 65q63 0 113 -20q54 -21 92 -57
q40 -37 61 -86q23 -54 23 -105q0 -83 -43 -147q-42 -63 -103 -111q-50 -43 -82 -68q-14 -11 -42.5 -33.5t-43.5 -33.5q-42 -31 -80 -51q-32 -17 -32 -21z" />
    <glyph glyph-name="glyph351" horiz-adv-x="661" 
d="M160 557l-105 31l-16 -6q21 104 98 166q76 61 195 61q70 0 123 -18q47 -16 86 -50q35 -30 49 -69q16 -43 16 -82q0 -44 -14 -72t-41 -55q-25 -25 -55 -37q-27 -11 -64 -14v-2q35 -3 70 -15q32 -11 61 -37q30 -26 43 -57q17 -39 17 -74q0 -54 -21 -100q-22 -49 -61 -78
q-44 -32 -92 -49q-56 -16 -113 -16q-55 0 -111 16q-48 16 -92 49q-38 28 -67 78q-27 47 -33 100l106 29q6 -76 62 -123q54 -45 141 -45q86 0 129 43t43 102q0 60 -49 97t-127 37h-80v88h80q77 0 123 37q47 38 47 96q0 24 -8 43q-8 18 -29 39q-17 17 -49 30q-33 13 -76 13
q-80 0 -125 -39q-46 -40 -61 -117z" />
    <glyph glyph-name="glyph352" horiz-adv-x="696" 
d="M645 295v-102h-104v-193h-109v193h-418v81l441 527h86v-506h104zM279 293h159l-6 174q-1 36 4 121q1 14 2 25.5t1.5 17t0.5 6.5h-2l-10 -14q-7 -13 -25 -37q-25 -35 -34 -47q-11 -15 -37 -45l-105 -121q-33 -37 -57 -56q-31 -25 -31 -26l2 -2q16 0 43 2t95 2z" />
    <glyph glyph-name="glyph353" horiz-adv-x="669" 
d="M170 463l2 -2l-8 -6q21 24 59 47q41 24 105 24q66 0 116 -20q55 -22 93 -57q40 -37 61 -87q20 -47 20 -108t-20 -111t-61 -88q-40 -37 -93 -55q-50 -20 -114 -20q-129 0 -203 65q-77 68 -92 172l108 29q9 -70 56 -117q45 -45 129 -45t133 49t49 127t-49 127t-131 49
q-62 0 -107 -28q-41 -26 -57 -62l-98 25l69 428h441v-107h-351l-20 -106q-12 -56 -25 -90q-12 -30 -12 -33z" />
    <glyph glyph-name="glyph354" horiz-adv-x="673" 
d="M455 801l-269 -340l-2 -4q24 24 56 49q37 29 98 29q64 0 117 -21q55 -22 90 -57q39 -39 59 -86q21 -50 21 -109q0 -54 -23 -112q-21 -52 -61 -89q-38 -36 -95 -57q-56 -18 -118 -18q-66 0 -121 18q-55 21 -94 57q-40 37 -64 89t-24 116q0 80 26 142q26 63 80 135l199 258
h125zM330 86h-4q83 0 135 49t55 129t-49 129t-137 49t-137 -49t-52 -129t52 -129t137 -49z" />
    <glyph glyph-name="glyph355" horiz-adv-x="608" 
d="M20 801h578v-76l-410 -725h-118l340 600q20 40 47 70q22 25 22 26l-2 2q-16 0 -43 -2t-86 -2h-328v107z" />
    <glyph glyph-name="glyph356" horiz-adv-x="653" 
d="M438 422v-2h-10q24 -3 57 -19q32 -16 58 -39q27 -24 45 -61t18 -82q0 -105 -82 -172q-79 -65 -215 -65q-63 0 -119 18q-48 13 -94 47q-39 29 -61 74q-21 43 -21 96q0 42 19 82q18 37 45 61q32 29 57 41q32 16 58 19v2q-18 4 -41 18q-29 18 -48 37q-21 21 -36 55
q-17 39 -17 76q0 93 74 152t190 59q61 0 107 -14q45 -14 86 -43q36 -26 55 -68q19 -43 19 -86q0 -37 -17 -76q-15 -34 -39 -55q-26 -22 -49 -37q-24 -15 -39 -18zM158 608l-6 -4q0 -57 47 -92q42 -31 116 -31q78 3 121 35q47 35 47 92q0 53 -45 86q-47 35 -119 35
q-69 0 -116 -35q-45 -33 -45 -86zM135 225l-4 2q0 -65 53 -106q56 -43 140 -43q83 0 139 43q53 41 53 104q0 58 -53 99t-139 41q-85 0 -138 -41q-51 -39 -51 -99z" />
    <glyph glyph-name="glyph357" horiz-adv-x="657" 
d="M174 0l289 332l-12 6q-27 -35 -62 -53q-36 -19 -80 -19q-59 0 -116 23q-53 21 -91 59q-36 36 -57 86q-20 47 -20 109q0 57 22 112q19 49 62 88q41 38 94 58t121 20q67 0 120 -20q58 -22 97 -58q39 -37 63 -88q25 -55 25 -116q0 -91 -39 -168q-46 -91 -105 -160l-178 -211
h-133zM326 715h2q-83 0 -135 -49q-53 -50 -56 -129q0 -81 51 -129q53 -50 138 -50q84 0 137 50q51 48 51 129t-51 129q-52 49 -137 49z" />
    <glyph glyph-name="glyph358" horiz-adv-x="794" 
d="M393 612v-8q-86 0 -151 33q-68 35 -117 90q-50 56 -74 133q-24 76 -24 162q0 88 24 164q24 77 74 133q49 55 117 90q65 33 151 33q87 0 152 -33q71 -36 117 -88q48 -54 73 -133q25 -80 25 -162t-25 -162q-24 -76 -73 -131q-46 -52 -117 -88q-65 -33 -152 -33zM397 737
l-4 -4q57 0 105 25q49 25 77 63q35 47 50 94q18 55 18 115q0 62 -18 115q-16 46 -50 92q-33 44 -75 66q-46 24 -105 24q-57 0 -104 -24q-46 -24 -76 -64q-33 -44 -49 -92q-19 -55 -19 -115q0 -53 19 -112q17 -51 49 -95q27 -37 78 -63q48 -25 104 -25z" />
    <glyph glyph-name="glyph359" horiz-adv-x="454" 
d="M295 1434h82l-6 -807h-119v477q0 33 2 53q3 30 6 57q4 36 6 48l2 20h-2q-1 0 -20 -25q-12 -16 -45 -49l-97 -96l-75 70z" />
    <glyph glyph-name="glyph360" horiz-adv-x="673" 
d="M199 729l2 -2h-4q10 0 22 2q14 2 47 6q25 3 62 6q23 2 71 2h219v-106h-567v84l328 264q54 42 90 92q37 52 37 111q0 67 -49 110t-121 43q-89 0 -131 -45q-43 -46 -64 -116l-108 28q26 112 108 178q81 66 195 66q63 0 113 -20q52 -21 92 -58q41 -38 61 -82q23 -51 23 -102
q0 -84 -43 -148q-41 -61 -103 -110q-50 -43 -82 -68q-15 -12 -43 -34t-43 -33q-46 -34 -80 -49q-32 -14 -32 -19z" />
    <glyph glyph-name="glyph361" horiz-adv-x="677" 
d="M160 1192l-105 29l-16 -4q21 103 98 165t195 62q68 0 123 -19q49 -17 86 -49q35 -30 49 -69q16 -43 16 -82q0 -42 -14 -74q-12 -28 -41 -57q-25 -25 -55 -37t-64 -15v-2q39 -3 70 -14q29 -10 61 -35q29 -22 43 -55q17 -39 17 -74q0 -54 -21 -100t-61 -80q-38 -33 -92 -51
q-55 -19 -113 -19q-56 0 -111 19q-48 16 -92 49q-38 28 -67 78q-27 46 -33 102l106 27q6 -76 62 -123q54 -45 141 -45q86 0 129 43t43 102q0 60 -49 97q-48 36 -127 36h-80v90h80q77 0 123 37q47 38 47 97q0 24 -8 43q-9 21 -29 41q-17 17 -49 30q-33 13 -76 13
q-80 0 -125 -39q-46 -40 -61 -117z" />
    <glyph glyph-name="glyph362" horiz-adv-x="696" 
d="M645 928v-103h-104v-192h-109v192h-418v82l441 527h86v-506h104zM279 926h159l-6 174q-1 36 4 121q1 14 2 25.5t1.5 17t0.5 6.5h-2l-10 -15q-4 -6 -25 -36q-2 -3 -14.5 -21t-19.5 -27q-11 -15 -37 -45l-105 -120q-33 -37 -57 -56q-31 -25 -31 -26l2 -2q16 0 43 2t95 2z
" />
    <glyph glyph-name="glyph363" horiz-adv-x="669" 
d="M170 1096l2 -2l-8 -2q21 24 59 47q41 24 105 24t116 -18q53 -18 93 -55t61 -86q20 -47 20 -111q0 -61 -20 -111t-61 -88q-38 -35 -93 -57q-52 -21 -114 -21q-126 0 -203 68t-92 170l108 29q9 -70 56 -117q45 -45 129 -45t133 49t49 127t-49 127t-131 49q-60 0 -107 -29
q-42 -26 -57 -61l-98 27l69 426h441v-107h-351l-20 -104q-10 -49 -25 -92q-12 -35 -12 -37z" />
    <glyph glyph-name="glyph364" horiz-adv-x="673" 
d="M455 1434l-269 -340l-2 -2q24 24 56 49q36 28 98 28q67 0 117 -20q55 -22 90 -57q40 -40 59 -88q21 -52 21 -111q0 -55 -23 -113q-20 -50 -61 -88q-38 -36 -95 -57q-56 -21 -118 -21q-66 0 -121 21t-94 57q-41 38 -64 88q-24 52 -24 117q0 79 26 141q34 82 80 140
l199 256h125zM330 721h-4q83 0 135 49t55 127q3 80 -49 129t-137 49t-137 -49t-52 -129q0 -78 52 -127t137 -49z" />
    <glyph glyph-name="glyph365" horiz-adv-x="608" 
d="M20 1434h578v-74l-410 -729h-118l340 602q20 40 47 70q22 25 22 26l-2 2q-16 0 -43 -2t-86 -2h-328v107z" />
    <glyph glyph-name="glyph366" horiz-adv-x="653" 
d="M438 1047v-3l-10 -4q31 -7 57 -20q32 -16 58 -39q27 -24 45 -59t18 -80q0 -56 -20 -97q-20 -42 -62 -73q-44 -33 -94 -49q-59 -19 -121 -19q-60 0 -119 19q-50 16 -94 49q-40 30 -61 73t-21 97q0 44 19 80q18 35 45 59q32 29 57 41q26 13 58 20v2q-12 2 -41 17
q-28 14 -48 37t-36 55q-17 34 -17 74q0 92 74 151q75 60 190 60q57 0 107 -15q45 -14 86 -43q37 -27 55 -67q19 -43 19 -86q0 -40 -17 -74q-16 -32 -39 -55q-25 -25 -49 -37q-21 -10 -39 -14zM158 1235l-6 -8q0 -57 47 -92q42 -31 116 -31q78 3 121 35q47 35 47 92t-45 90
q-47 35 -119 35q-69 0 -116 -35q-45 -33 -45 -86zM135 858l-4 -4q0 -63 53 -104q56 -43 140 -43q83 0 139 43q53 41 53 104q0 61 -53 102t-139 41q-87 0 -138 -39t-51 -100z" />
    <glyph glyph-name="glyph367" horiz-adv-x="657" 
d="M174 633l289 332l-12 2q-26 -33 -62 -52q-34 -18 -80 -18q-59 0 -116 23q-53 21 -91 59q-36 36 -57 86q-20 47 -20 109q0 57 22 112q19 49 62 88q41 38 94 58t121 20q67 0 120 -20q58 -22 97 -58q39 -37 63 -88q25 -55 25 -117q0 -91 -39 -168t-105 -155l-178 -213h-133z
M326 1348h2q-82 0 -135 -50t-56 -129q0 -79 51 -127q52 -49 138 -49q85 0 137 49q51 48 51 127q0 81 -51 129q-53 50 -137 50z" />
    <glyph glyph-name="glyph368" 
d="M1217 1079l-160 -43l-21 -16q-12 62 -43 117q-28 48 -80 88q-50 38 -106 55q-58 18 -127 18q-143 0 -231 -61q-91 -63 -91 -170q0 -57 35 -98t90 -68q62 -30 125 -49q24 -7 71.5 -21.5t70.5 -21.5q54 -15 159 -53q83 -30 154 -80q72 -50 117 -119q47 -71 47 -176
q0 -81 -31 -154q-28 -66 -90 -125q-58 -56 -141 -90q-90 -33 -185 -41v-159h-166v161q-94 12 -172 47q-76 38 -135 93q-56 53 -94 125q-35 66 -51 153l162 43q9 -60 36 -119q24 -53 78 -100q50 -44 117 -68q68 -24 158 -24q160 0 252 74t92 188q0 78 -43 127q-44 51 -107 84
q-62 33 -145 55q-39 10 -156 47q-57 17 -131 45q-66 25 -131 68q-59 39 -100 104q-39 62 -39 156q0 74 31 141q30 64 86 117q53 50 133 86q75 34 170 43v160h166v-162q166 -21 280 -123q117 -104 146 -254z" />
    <glyph glyph-name="glyph369" 
d="M1139 1425l-346 -671v-13q83 56 190 56q87 0 152 -33q69 -35 116 -88q50 -56 74 -133q25 -80 25 -162t-25 -162q-23 -74 -74 -131q-47 -53 -116 -88q-70 -31 -152 -31t-152 31q-66 34 -116 90t-74 133q-25 80 -25 162v23l-217 -420h-120l352 680q-49 -34 -96 -50
q-53 -18 -111 -18q-87 0 -152 33q-66 34 -116 90t-74 133q-25 80 -25 162q0 84 25 164q24 77 74 133t116 90q65 33 152 33q86 0 151 -33q71 -36 117 -88q50 -56 74 -133q25 -80 25 -162v-21q0 -11 -3 -20l230 444h121zM426 733l-4 -4q56 0 104 25q51 26 78 63q33 44 49 94
q19 59 19 115q0 60 -19 115q-17 48 -49 92q-31 42 -76 65q-48 25 -104 25q-57 0 -105 -25q-46 -24 -75 -63q-33 -44 -49 -92q-19 -55 -19 -115q0 -54 19 -113q16 -50 49 -94q27 -37 78 -63q48 -25 104 -25zM993 104l-4 -4q57 0 105 25q49 25 77 63q34 46 50 95q18 55 18 114
q0 63 -18 115q-16 46 -50 92q-33 44 -75 66q-46 24 -105 24q-57 0 -104 -24q-46 -24 -76 -64q-33 -44 -49 -92q-19 -55 -19 -115q0 -53 19 -112q16 -50 49 -94q28 -38 78 -64q48 -25 104 -25z" />
    <glyph glyph-name="glyph370" 
d="M1083 535l144 -41l-6 -13q-69 -139 -164 -209q-112 -83 -254 -98v-211h-139v211q-101 13 -179 57q-84 48 -145 117q-60 68 -98 162q-37 90 -37 199q0 108 37 198q38 94 98 162q61 69 145 117q78 44 179 57v215h139v-215q130 -14 241 -90q108 -73 166 -190l-145 -39
q-53 87 -135 133q-83 47 -195 47q-82 0 -149 -27q-65 -26 -117 -78t-78 -122q-26 -71 -26 -162q0 -87 28 -160q26 -68 78 -123q50 -53 117 -80q65 -26 151 -26q121 0 209 55q89 56 135 154z" />
    <glyph glyph-name="glyph371" 
d="M844 158h416l-5 -158h-1060v158q60 11 100 43q37 29 55 80q18 49 21 114q2 40 -6 148l-11 114h-147v138h135l-20 211q-9 93 22 178q30 82 88 143q57 60 141 98q79 36 179 39q64 3 141 -16q72 -18 141 -62q72 -46 121 -118q53 -77 80 -191l-143 -39q-46 150 -134 217
q-86 65 -206 62q-64 -3 -117 -27q-52 -24 -86 -67t-49 -101q-14 -56 -8 -123l18 -198h479v-137h-467l10 -111q15 -179 -14 -268q-30 -92 -98 -127l2 -2l35 2h92h135h160z" />
    <glyph glyph-name="glyph372" 
d="M1034 1122l148 146l82 -97l-146 -145q56 -64 92 -154q33 -82 33 -184q0 -89 -31 -174q-30 -82 -82 -149l150 -150l-88 -88l-148 149q-69 -57 -155 -92q-79 -32 -184 -32q-106 0 -185 32q-86 35 -155 92l-150 -149l-86 88l150 150q-51 65 -82 151q-31 85 -31 176
q0 103 33 185q36 90 92 157l-146 144l88 88l148 -146q72 56 149 84q85 31 175 31q93 0 178 -31q86 -31 151 -82zM715 1090l-6 -3q-79 0 -150 -30t-123 -82t-82 -123q-30 -70 -30 -154q0 -82 30 -153t82 -123t123 -82q73 -31 152 -31q78 0 151 31q71 30 123 82q55 55 84 123
q31 73 31 153q0 81 -31 154q-30 71 -82 123q-55 55 -123 84q-73 31 -149 31z" />
    <glyph glyph-name="glyph373" 
d="M1354 1434l-428 -562l282 -4v-120h-383l-37 -48v-32h420v-121h-420v-549h-165v549h-406v121h406v32l-37 48h-369v120h279l-428 562h190l360 -469q5 -6 15.5 -18.5t15.5 -18.5q25 -30 29 -35q3 -4 11 -13t11 -14l11 -10h2l10 12q18 24 22 29t29 35q22 26 29 37l358 469
h193z" />
    <glyph glyph-name="glyph374" 
d="M1225 432l159 -41l11 -12q-82 -191 -246 -303q-161 -109 -381 -109q-121 0 -233 41q-114 45 -197 119q-88 79 -148 184q-63 110 -86 236h-102v119h90q-2 6 -2 22v23v43h-86v116h100q23 128 84 240q56 104 146 184q84 75 196 119q110 43 234 43q210 0 360 -100
q156 -104 240 -277l-164 -41q-68 123 -182 191q-113 67 -258 67q-86 0 -168 -28q-79 -27 -143 -82q-65 -56 -111 -135q-47 -81 -68 -181h527v-116h-541q-2 -6 -2 -21v-20v-23q0 -16 2 -22h539v-119h-525q21 -100 68 -178q45 -74 111 -131q64 -55 143 -82q80 -27 168 -27
q152 0 276 80q125 81 189 221z" />
    <glyph glyph-name="glyph375" 
d="M1223 1434v-134l-262 -6q59 -52 96 -123h166v-131h-123q4 -20 4 -30v-31q0 -100 -37 -178q-40 -84 -100 -139q-64 -58 -154 -93q-87 -34 -197 -37l439 -532h-201l-440 537v133h192q70 0 129 24t103 68q43 43 67 98q25 58 25 121q0 33 -6 63h-609v132h549q-42 57 -108 92
q-60 32 -146 32h-295v134h908z" />
    <glyph glyph-name="glyph414" horiz-adv-x="448" 
d="M223 924l-2 -4q-44 0 -74 30t-30 72q0 44 30 74t74 30q42 0 72 -30q31 -31 31 -72q0 -44 -31 -72t-70 -28zM225 293l-2 -4q-43 0 -73 30q-31 31 -31 72q0 43 31 74t73 31q41 0 72 -31t31 -72q0 -43 -31 -71q-32 -29 -70 -29z" />
    <glyph glyph-name="glyph415" horiz-adv-x="479" 
d="M248 934l-2 -4q-43 0 -74 31t-31 71q0 43 31 74t74 31q40 0 71 -31t31 -72q0 -43 -31 -71q-32 -29 -69 -29zM238 293l20 10l-22 -2q-31 0 -62 25t-31 71t31 74q32 29 74 29q45 0 74 -33q30 -35 30 -86q0 -45 -12 -92q-9 -33 -35 -88q-17 -36 -49 -80q-26 -37 -59 -66h-74
q44 38 80 109q35 68 35 129z" />
    <glyph glyph-name="glyph470" horiz-adv-x="1648" 
d="M1053 -4q12 0 12 10q0 12 -12 12q-13 0 -13 -12q0 -10 13 -10zM1188 49q0 -33 24 -33q23 0 23 33q0 35 -23 35q-24 0 -24 -35zM1372 -2v80l-22 -78h-21l-22 78v-80h-31l8 106h39l16 -69l19 69h39l4 -106h-29zM934 -2l-27 106h31l14 -73l13 73h30l13 -73l14 73h29
l-27 -106h-33l-12 70l-14 -70h-31zM895 39h-39v-21h43v-20h-74v106h74v-22h-43v-21h39v-22zM809 104v-106h-31v106h31zM700 -2l-34 106h32l19 -79l20 79h31l-35 -106h-33zM590 104v-41h37v41h28v-106h-28v41h-37v-41h-31v106h31zM494 82h-29v22h84v-22h-29v-84h-26v84z
M358 -2v106h37l33 -65v65h27v-106h-31l-39 70v-70h-27zM285 -2v39l-35 67h35l14 -47l16 47h33l-35 -67v-39h-28zM1276 45l-8 4q0 -28 -15 -43q-15 -12 -39 -12q-26 0 -40 14q-13 16 -13 37q0 26 15 41q16 16 43 16t43 -16q14 -14 14 -41zM1171 100l-8 -24l-8 -2q-6 6 -18 6
q-13 0 -21 -8t-8 -25q0 -33 31 -33q12 0 18 6l6 -22q-16 -4 -28 -4q-29 0 -43 14q-13 16 -13 37q0 27 19 43t43 16q18 0 30 -4zM258 100l-6 -24v-2q-4 4 -8 6q-8 4 -15 4q-14 0 -14 -8q0 -5 23 -15q28 -9 28 -30q0 -16 -12 -25q-11 -8 -39 -8q-17 0 -33 4l8 25q3 -3 11 -7
q4 -2 16 -2q14 0 14 11q0 6 -18 12q-31 9 -31 31q0 14 13 24t32 10q22 0 31 -6zM639 358l182 162l176 -162q27 -5 111 -8q70 -3 166 -6q-3 93 -6 160q-3 74 -6 104l-166 187l166 182q3 35 6 110q2 59 6 164q-86 -3 -162 -6t-106 -6l-187 -166l-180 166q-30 3 -107 6
q-76 3 -165 6q3 -96 6 -166q3 -76 6 -106l162 -182l-162 -183q-3 -35 -6 -110q-3 -76 -6 -162q95 3 163 6q73 3 109 10zM1456 168h-90v-4q-158 0 -246 6t-135 12q-42 5 -61 17q-18 11 -25 18l-55 47l-27 21l-22 -21l-56 -47q-9 -9 -24 -18q-19 -11 -62 -17q-57 -7 -135 -10
q-118 -4 -242 -4h-88v88q0 98 5 246q3 78 10 135q6 44 16 61q9 15 19 25l49 55l20 25l-20 22l-49 56q-12 11 -19 24q-8 13 -14 62q-7 57 -10 135q-5 148 -5 244v90h89q156 0 245 -6q72 -5 135 -13q49 -6 62 -14q13 -7 24 -19l41 -38l37 -33l35 33l41 34q10 10 25 19t61 18
q53 10 135 13q118 4 246 4h90v-91q0 -157 -6 -245t-12 -135q-6 -43 -17 -62q-9 -15 -18 -24l-45 -54l-23 -24l23 -27l51 -59q2 -3 6.5 -11.5t7.5 -13.5q9 -15 15 -61q6 -48 12 -131q6 -85 6 -236v-92z" />
  </font>
</defs>
</svg>
